<svg width="64" height="64" viewBox="0 0 64 64" fill="none" xmlns="http://www.w3.org/2000/svg">
<path d="M7 8C5.34766 8 4 9.34766 4 11V53C4 54.6523 5.34766 56 7 56H57C58.6523 56 60 54.6523 60 53V11C60 9.34766 58.6523 8 57 8H7ZM7 10H57C57.5508 10 58 10.4492 58 11V53C58 53.5508 57.5508 54 57 54H7C6.44922 54 6 53.5508 6 53V20H47C47.5547 20 48 19.5508 48 19C48 18.4492 47.5547 18 47 18H6V11C6 10.4492 6.44922 10 7 10ZM10 12C9.44531 12 9 12.4492 9 13V15C9 15.5508 9.44531 16 10 16C10.5547 16 11 15.5508 11 15V13C11 12.4492 10.5547 12 10 12ZM15 12C14.4453 12 14 12.4492 14 13V15C14 15.5508 14.4453 16 15 16C15.5547 16 16 15.5508 16 15V13C16 12.4492 15.5547 12 15 12ZM20 12C19.4453 12 19 12.4492 19 13V15C19 15.5508 19.4453 16 20 16C20.5547 16 21 15.5508 21 15V13C21 12.4492 20.5547 12 20 12ZM25 12C24.4453 12 24 12.4492 24 13V15C24 15.5508 24.4453 16 25 16C25.5547 16 26 15.5508 26 15V13C26 12.4492 25.5547 12 25 12ZM30 12C29.4453 12 29 12.4492 29 13V15C29 15.5508 29.4453 16 30 16C30.5547 16 31 15.5508 31 15V13C31 12.4492 30.5547 12 30 12ZM35 12C34.4453 12 34 12.4492 34 13V15C34 15.5508 34.4453 16 35 16C35.5547 16 36 15.5508 36 15V13C36 12.4492 35.5547 12 35 12ZM40 12C39.4453 12 39 12.4492 39 13V15C39 15.5508 39.4453 16 40 16C40.5547 16 41 15.5508 41 15V13C41 12.4492 40.5547 12 40 12ZM45 12C44.4453 12 44 12.4492 44 13V15C44 15.5508 44.4453 16 45 16C45.5547 16 46 15.5508 46 15V13C46 12.4492 45.5547 12 45 12ZM50 12C49.4453 12 49 12.4492 49 13V15C49 15.5508 49.4453 16 50 16C50.5547 16 51 15.5508 51 15V13C51 12.4492 50.5547 12 50 12ZM55 12C54.4453 12 54 12.4492 54 13V15C54 15.5508 54.4453 16 55 16C55.5547 16 56 15.5508 56 15V13C56 12.4492 55.5547 12 55 12ZM51 18C50.4453 18 50 18.4492 50 19C50 19.5508 50.4453 20 51 20H55C55.5547 20 56 19.5508 56 19C56 18.4492 55.5547 18 55 18H51ZM34.8438 24.0117C34.4609 24.0703 34.1289 24.3555 34.0312 24.7578L28.0312 48.7578C27.8945 49.293 28.2227 49.8359 28.7578 49.9688C28.8398 49.9922 28.9219 50 29 50C29.4492 50 29.8555 49.6992 29.9688 49.2461L35.9688 25.2461C36.1055 24.707 35.7773 24.1641 35.2422 24.0312C35.1094 23.9961 34.9727 23.9883 34.8438 24.0117ZM23 30C22.7461 30 22.4883 30.0977 22.293 30.293L16.293 36.293C15.9023 36.6836 15.9023 37.3164 16.293 37.707L22.293 43.707C22.4883 43.9023 22.7422 44 23 44C23.2578 44 23.5117 43.9023 23.707 43.707C24.0977 43.3164 24.0977 42.6836 23.707 42.293L18.4141 37L23.707 31.707C24.0977 31.3164 24.0977 30.6836 23.707 30.293C23.5117 30.0977 23.2539 30 23 30ZM41 30C40.7461 30 40.4883 30.0977 40.293 30.293C39.9023 30.6836 39.9023 31.3164 40.293 31.707L45.5859 37L40.293 42.293C39.9023 42.6836 39.9023 43.3164 40.293 43.707C40.4883 43.9023 40.7422 44 41 44C41.2578 44 41.5117 43.9023 41.707 43.707L47.707 37.707C48.0977 37.3164 48.0977 36.6836 47.707 36.293L41.707 30.293C41.5117 30.0977 41.2539 30 41 30Z" fill="black"/>
</svg>
