<svg width="64" height="64" viewBox="0 0 64 64" fill="none" xmlns="http://www.w3.org/2000/svg">
<g clip-path="url(#clip0_3775_22118)">
<path d="M27 7C26.45 7 26 7.45 26 8V15H11C10.45 15 9.99998 15.45 9.99998 16V23H2.99998C2.44998 23 1.99998 23.45 1.99998 24V31H1.32225C0.855245 31 0.449683 31.3233 0.345683 31.7793C0.270683 32.1123 -1.43816 40.0028 3.38084 46.5938C6.87284 51.3688 12.8309 54.1513 21.0879 54.8613C22.1699 54.9553 23.2154 55 24.2344 55C44.1714 55 52.1659 37.9272 53.7109 34.0742C61.5509 34.7012 63.9154 28.4009 63.9394 28.3359C64.0794 27.9469 63.9644 27.5102 63.6504 27.2402C60.5714 24.5902 57.5391 24.5424 55.4531 25.1914C55.6641 20.6104 50.8561 17.3279 50.6211 17.1699C50.4001 17.0209 50.1281 16.9665 49.8691 17.0195C49.6081 17.0715 49.3794 17.2233 49.2324 17.4453C45.1454 23.6023 46.7855 28.081 47.7695 29.832C46.1895 31.033 44.1486 31.003 44.0976 31H44V24C44 23.45 43.55 23 43 23H36V8C36 7.45 35.55 7 35 7H27ZM28 9H34V15H28V9ZM12 17H26V23H20V20C20 19.448 19.552 19 19 19C18.448 19 18 19.448 18 20V23H12V17ZM28 17H34V31H28V25H31C31.55 25 32 24.55 32 24C32 23.45 31.55 23 31 23H28V17ZM50.3301 19.4688C51.7431 20.6827 54.3712 23.4769 53.1172 26.6289C52.9512 27.0459 53.0863 27.521 53.4433 27.793C53.8003 28.065 54.2992 28.062 54.6562 27.791C54.7922 27.688 57.8777 25.4161 61.7597 28.2871C60.9967 29.6661 58.6485 32.7398 53.1855 32.0078C52.7025 31.9428 52.2515 32.2285 52.1015 32.6855C52.0315 32.8985 45.1629 53 24.2109 52.998C23.2579 52.997 22.2717 52.9561 21.2597 52.8691C13.6137 52.2111 8.14579 49.7077 5.00779 45.4297C1.54579 40.7097 1.8979 35.043 2.1699 33H2.99998H43C43.0069 33 43.0126 32.9962 43.0195 32.9961H44.0683C44.2153 33.0021 47.5776 33.0757 49.8066 30.6777C50.1486 30.3107 50.1637 29.7464 49.8437 29.3594C49.8107 29.3204 46.8031 25.5607 50.3301 19.4688ZM3.99998 25H9.99998V31H3.99998V25ZM12 25H18V31H12V25ZM20 25H26V31H20V25ZM36 25H42V31H36V25ZM12.5 38C11.8369 38 11.2011 38.2634 10.7322 38.7322C10.2634 39.2011 9.99998 39.837 9.99998 40.5C9.99998 41.163 10.2634 41.7989 10.7322 42.2678C11.2011 42.7366 11.8369 43 12.5 43C13.163 43 13.7989 42.7366 14.2677 42.2678C14.7366 41.7989 15 41.163 15 40.5C15 39.837 14.7366 39.2011 14.2677 38.7322C13.7989 38.2634 13.163 38 12.5 38ZM42.2871 38.5098C42.032 38.531 41.784 38.6494 41.6054 38.8594C41.2485 39.2814 41.3016 39.9125 41.7226 40.2695L43.2461 41.5645C43.4341 41.7235 43.6636 41.8008 43.8926 41.8008C44.1766 41.8008 44.4572 41.6803 44.6562 41.4473C45.0132 41.0253 44.962 40.3941 44.541 40.0371L43.0156 38.7441C42.8046 38.5651 42.5422 38.4885 42.2871 38.5098ZM39.0097 41.9082C38.7552 41.8816 38.4913 41.953 38.2773 42.127C37.8483 42.474 37.7828 43.1022 38.1308 43.5312L39.3887 45.0859C39.5857 45.3309 39.875 45.457 40.166 45.457C40.387 45.457 40.6089 45.3834 40.7949 45.2324C41.2239 44.8854 41.2894 44.2552 40.9414 43.8262L39.6836 42.2734C39.5096 42.0589 39.2642 41.9348 39.0097 41.9082ZM34.7949 44.5391C34.6654 44.5483 34.5351 44.5835 34.4121 44.6465C33.9191 44.8975 33.7246 45.5002 33.9746 45.9922L34.8828 47.7754C35.0588 48.1214 35.4094 48.3203 35.7734 48.3203C35.9264 48.3203 36.0815 48.2859 36.2265 48.2129C36.7195 47.9619 36.914 47.3592 36.664 46.8672L35.7578 45.0859C35.5695 44.7169 35.1835 44.5115 34.7949 44.5391ZM30.5058 46.2461C30.3774 46.2269 30.2429 46.2333 30.1094 46.2676C29.5744 46.4056 29.2546 46.9494 29.3926 47.4844L29.8926 49.4219C30.0096 49.8729 30.4144 50.1719 30.8594 50.1719C30.9424 50.1719 31.0264 50.1626 31.1094 50.1406C31.6444 50.0026 31.9661 49.4569 31.8281 48.9219L31.3281 46.9844C31.2246 46.5839 30.8912 46.3036 30.5058 46.2461ZM25.5312 46.9512C24.9792 46.9792 24.556 47.448 24.584 48L24.6855 49.998C24.7125 50.532 25.1546 50.9473 25.6836 50.9473C25.7006 50.9473 25.7174 50.9453 25.7344 50.9453C26.2864 50.9173 26.7116 50.4485 26.6836 49.8965L26.5801 47.8984C26.5521 47.3464 26.0732 46.9262 25.5312 46.9512Z" fill="black"/>
</g>
<defs>
<clipPath id="clip0_3775_22118">
<rect width="64" height="64" fill="white"/>
</clipPath>
</defs>
</svg>
