<svg width="64" height="64" viewBox="0 0 64 64" fill="none" xmlns="http://www.w3.org/2000/svg">
<path d="M17 2C13.14 2 10 5.14 10 9C10 11.72 11.58 14.1801 14 15.3301V48.6797C11.64 49.7997 10 52.21 10 55C10 58.86 13.14 62 17 62C20.86 62 24 58.86 24 55C24 52.21 22.36 49.7997 20 48.6797V36.8398C23.4 40.0398 27.97 42 33 42H40.6797C41.8297 44.42 44.29 46 47 46C50.86 46 54 42.86 54 39C54 35.14 50.86 32 47 32C44.29 32 41.8297 33.58 40.6797 36H33C25.83 36 20 30.17 20 23V18V15.3301C22.82 13.9901 24.4304 10.9393 23.9004 7.7793C23.4204 4.9893 21.2505 2.73039 18.4805 2.15039C17.9905 2.05039 17.49 2 17 2ZM17 4C17.35 4 17.7101 4.03938 18.0801 4.10938C20.0301 4.51938 21.5899 6.14914 21.9199 8.11914C22.3599 10.6691 20.8604 12.9507 18.6504 13.7207C18.2604 13.8607 18 14.2304 18 14.6504V17V23V30.9707V34.6406V48.0801C17.67 48.0201 17.34 48 17 48C16.66 48 16.33 48.0201 16 48.0801V17V14.6504C16 14.2304 15.7398 13.8607 15.3398 13.7207C13.3898 13.0307 12 11.18 12 9C12 6.24 14.24 4 17 4ZM46 25C45.447 25 45 25.448 45 26V28C45 28.552 45.447 29 46 29C46.553 29 47 28.552 47 28V26C47 25.448 46.553 25 46 25ZM40.7695 26.0215C40.6399 26.0193 40.5098 26.0425 40.3828 26.0938C39.8698 26.3008 39.6211 26.8825 39.8281 27.3945L40.5781 29.248C40.7351 29.637 41.1099 29.875 41.5059 29.875C41.6309 29.875 41.7569 29.8517 41.8789 29.8027C42.3919 29.5957 42.6386 29.012 42.4316 28.5L41.6836 26.6465C41.5283 26.2625 41.1584 26.0282 40.7695 26.0215ZM51.4746 26.1133C51.0853 26.1129 50.712 26.3417 50.5508 26.7227L49.7695 28.5625C49.5525 29.0705 49.7898 29.659 50.2988 29.875C50.4258 29.929 50.5585 29.9551 50.6895 29.9551C51.0785 29.9551 51.4484 29.7257 51.6094 29.3457L52.3906 27.5059C52.6076 26.9979 52.3693 26.4094 51.8613 26.1934C51.7351 26.1399 51.6044 26.1134 51.4746 26.1133ZM55.8984 29.1016C55.6427 29.1016 55.3869 29.199 55.1914 29.3945L53.7773 30.8086C53.3863 31.1996 53.3863 31.8317 53.7773 32.2227C53.9723 32.4177 54.2284 32.5156 54.4844 32.5156C54.7404 32.5156 54.9964 32.4177 55.1914 32.2227L56.6055 30.8086C56.9965 30.4176 56.9965 29.7845 56.6055 29.3945C56.41 29.199 56.1542 29.1016 55.8984 29.1016ZM20 30.4707C22.59 34.9707 27.45 38 33 38H41.3496C41.7696 38 42.1491 37.7301 42.2891 37.3301C42.9991 35.3401 44.89 34 47 34C49.76 34 52 36.24 52 39C52 41.76 49.76 44 47 44C44.89 44 42.9991 42.6599 42.2891 40.6699C42.1491 40.2699 41.7696 40 41.3496 40H33C27.79 40 23.11 37.6397 20 33.9297V30.4707ZM58.9961 33.7559C58.8662 33.7537 58.7335 33.7752 58.6055 33.8262L56.752 34.5762C56.24 34.7832 55.9922 35.3669 56.1992 35.8789C56.3562 36.2689 56.731 36.5059 57.127 36.5059C57.252 36.5059 57.379 36.4806 57.502 36.4316L59.3555 35.6816C59.8675 35.4746 60.1133 34.8929 59.9062 34.3809C59.751 33.9961 59.3858 33.7625 58.9961 33.7559ZM58 39C57.447 39 57 39.448 57 40C57 40.552 57.447 41 58 41H60C60.553 41 61 40.552 61 40C61 39.448 60.553 39 60 39H58ZM17 50C17.34 50 17.68 50.0296 18 50.0996C18.74 50.2496 19.42 50.56 20 51C21.21 51.91 22 53.37 22 55C22 57.76 19.76 60 17 60C14.24 60 12 57.76 12 55C12 53.37 12.79 51.91 14 51C14.58 50.56 15.26 50.2496 16 50.0996C16.32 50.0296 16.66 50 17 50Z" fill="black"/>
</svg>
