<svg width="64" height="64" viewBox="0 0 64 64" fill="none" xmlns="http://www.w3.org/2000/svg">
<path d="M23.6562 4C22.3203 4 21.0664 4.51953 20.1211 5.46484L11.4648 14.1211C10.5195 15.0664 10 16.3203 10 17.6562V57C10 58.6523 11.3477 60 13 60H53C54.6523 60 56 58.6523 56 57V7C56 5.34766 54.6523 4 53 4H23.6562ZM24 6H53C53.5508 6 54 6.44922 54 7V57C54 57.5508 53.5508 58 53 58H13C12.4492 58 12 57.5508 12 57V18H21C22.6523 18 24 16.6523 24 15V6ZM22 6.5V15C22 15.5508 21.5508 16 21 16H12.5C12.6094 15.8359 12.7344 15.6797 12.8789 15.5352L21.5352 6.87891C21.6797 6.73437 21.8359 6.60938 22 6.5ZM35.8438 20.0117C35.4609 20.0703 35.1289 20.3555 35.0312 20.7578L29.0312 44.7578C28.8945 45.293 29.2227 45.8359 29.7578 45.9688C29.8398 45.9922 29.9219 46 30 46C30.4492 46 30.8555 45.6992 30.9688 45.2461L36.9688 21.2461C37.1055 20.707 36.7773 20.1641 36.2422 20.0312C36.1094 19.9961 35.9727 19.9883 35.8438 20.0117ZM24 26C23.7461 26 23.4883 26.0977 23.293 26.293L17.293 32.293C16.9023 32.6836 16.9023 33.3164 17.293 33.707L23.293 39.707C23.4883 39.9023 23.7422 40 24 40C24.2578 40 24.5117 39.9023 24.707 39.707C25.0977 39.3164 25.0977 38.6836 24.707 38.293L19.4141 33L24.707 27.707C25.0977 27.3164 25.0977 26.6836 24.707 26.293C24.5117 26.0977 24.2539 26 24 26ZM42 26C41.7461 26 41.4883 26.0977 41.293 26.293C40.9023 26.6836 40.9023 27.3164 41.293 27.707L46.5859 33L41.293 38.293C40.9023 38.6836 40.9023 39.3164 41.293 39.707C41.4883 39.9023 41.7422 40 42 40C42.2578 40 42.5117 39.9023 42.707 39.707L48.707 33.707C49.0977 33.3164 49.0977 32.6836 48.707 32.293L42.707 26.293C42.5117 26.0977 42.2539 26 42 26ZM15 50C14.4453 50 14 50.4492 14 51V53C14 53.5508 14.4453 54 15 54C15.5547 54 16 53.5508 16 53V51C16 50.4492 15.5547 50 15 50ZM20 50C19.4453 50 19 50.4492 19 51V53C19 53.5508 19.4453 54 20 54C20.5547 54 21 53.5508 21 53V51C21 50.4492 20.5547 50 20 50ZM25 50C24.4453 50 24 50.4492 24 51V53C24 53.5508 24.4453 54 25 54C25.5547 54 26 53.5508 26 53V51C26 50.4492 25.5547 50 25 50ZM30 50C29.4453 50 29 50.4492 29 51V53C29 53.5508 29.4453 54 30 54C30.5547 54 31 53.5508 31 53V51C31 50.4492 30.5547 50 30 50ZM35 50C34.4453 50 34 50.4492 34 51V53C34 53.5508 34.4453 54 35 54C35.5547 54 36 53.5508 36 53V51C36 50.4492 35.5547 50 35 50ZM40 50C39.4453 50 39 50.4492 39 51V53C39 53.5508 39.4453 54 40 54C40.5547 54 41 53.5508 41 53V51C41 50.4492 40.5547 50 40 50ZM45 50C44.4453 50 44 50.4492 44 51V53C44 53.5508 44.4453 54 45 54C45.5547 54 46 53.5508 46 53V51C46 50.4492 45.5547 50 45 50ZM50 50C49.4453 50 49 50.4492 49 51V53C49 53.5508 49.4453 54 50 54C50.5547 54 51 53.5508 51 53V51C51 50.4492 50.5547 50 50 50Z" fill="black"/>
</svg>
