<svg width="64" height="64" viewBox="0 0 64 64" fill="none" xmlns="http://www.w3.org/2000/svg">
<path d="M21.6562 4C20.3203 4 19.0664 4.51953 18.1211 5.46484L9.46484 14.1211C8.51953 15.0664 8 16.3203 8 17.6562V57C8 58.6523 9.34766 60 11 60H51C52.6523 60 54 58.6523 54 57V7C54 5.34766 52.6523 4 51 4H21.6562ZM22 6H51C51.5508 6 52 6.44922 52 7V57C52 57.5508 51.5508 58 51 58H11C10.4492 58 10 57.5508 10 57V18H19C20.6523 18 22 16.6523 22 15V6ZM20 6.5V15C20 15.5508 19.5508 16 19 16H10.5C10.6055 15.8359 10.7344 15.6797 10.8789 15.5352L19.5352 6.87891C19.6797 6.73828 19.8359 6.61328 20 6.5ZM18 20C16.8984 20 16 20.8984 16 22V24C16 25.1016 16.8984 26 18 26H20C21.1016 26 22 25.1016 22 24V22C22 20.8984 21.1016 20 20 20H18ZM25 20C24.4492 20 24 20.4492 24 21C24 21.5508 24.4492 22 25 22H37C37.5508 22 38 21.5508 38 21C38 20.4492 37.5508 20 37 20H25ZM41 20C40.4492 20 40 20.4492 40 21C40 21.5508 40.4492 22 41 22H45C45.5508 22 46 21.5508 46 21C46 20.4492 45.5508 20 45 20H41ZM17.75 21.75H20.25V24.25H17.75V21.75ZM25 24C24.4492 24 24 24.4492 24 25C24 25.5508 24.4492 26 25 26H39C39.5508 26 40 25.5508 40 25C40 24.4492 39.5508 24 39 24H25ZM18 30C16.8984 30 16 30.8984 16 32V34C16 35.1016 16.8984 36 18 36H20C21.1016 36 22 35.1016 22 34V32C22 30.8984 21.1016 30 20 30H18ZM25 30C24.4492 30 24 30.4492 24 31C24 31.5508 24.4492 32 25 32H43C43.5508 32 44 31.5508 44 31C44 30.4492 43.5508 30 43 30H25ZM17.75 31.75H20.25V34.25H17.75V31.75ZM25 34C24.4492 34 24 34.4492 24 35C24 35.5508 24.4492 36 25 36H39C39.5508 36 40 35.5508 40 35C40 34.4492 39.5508 34 39 34H25ZM18 40C16.8984 40 16 40.8984 16 42V44C16 45.1016 16.8984 46 18 46H20C21.1016 46 22 45.1016 22 44V42C22 40.8984 21.1016 40 20 40H18ZM25 40C24.4492 40 24 40.4492 24 41C24 41.5508 24.4492 42 25 42H43C43.5508 42 44 41.5508 44 41C44 40.4492 43.5508 40 43 40H25ZM17.7188 41.7188H20.2812V44.2812H17.7188V41.7188ZM25 44C24.4492 44 24 44.4492 24 45C24 45.5508 24.4492 46 25 46H39C39.5508 46 40 45.5508 40 45C40 44.4492 39.5508 44 39 44H25ZM13 52C12.4492 52 12 52.4492 12 53V55C12 55.5508 12.4492 56 13 56C13.5508 56 14 55.5508 14 55V53C14 52.4492 13.5508 52 13 52ZM18 52C17.4492 52 17 52.4492 17 53V55C17 55.5508 17.4492 56 18 56C18.5508 56 19 55.5508 19 55V53C19 52.4492 18.5508 52 18 52ZM23 52C22.4492 52 22 52.4492 22 53V55C22 55.5508 22.4492 56 23 56C23.5508 56 24 55.5508 24 55V53C24 52.4492 23.5508 52 23 52ZM28 52C27.4492 52 27 52.4492 27 53V55C27 55.5508 27.4492 56 28 56C28.5508 56 29 55.5508 29 55V53C29 52.4492 28.5508 52 28 52ZM33 52C32.4492 52 32 52.4492 32 53V55C32 55.5508 32.4492 56 33 56C33.5508 56 34 55.5508 34 55V53C34 52.4492 33.5508 52 33 52ZM38 52C37.4492 52 37 52.4492 37 53V55C37 55.5508 37.4492 56 38 56C38.5508 56 39 55.5508 39 55V53C39 52.4492 38.5508 52 38 52ZM43 52C42.4492 52 42 52.4492 42 53V55C42 55.5508 42.4492 56 43 56C43.5508 56 44 55.5508 44 55V53C44 52.4492 43.5508 52 43 52ZM48 52C47.4492 52 47 52.4492 47 53V55C47 55.5508 47.4492 56 48 56C48.5508 56 49 55.5508 49 55V53C49 52.4492 48.5508 52 48 52Z" fill="black"/>
</svg>
