<?xml version="1.0" encoding="utf-8"?>
<svg xmlns="http://www.w3.org/2000/svg" viewBox="0 0 100 100" width="500" height="500">
  <path fill="#c7ede6" d="M87.215,56.71C88.35,54.555,89,52.105,89,49.5c0-6.621-4.159-12.257-10.001-14.478 C78.999,35.015,79,35.008,79,35c0-11.598-9.402-21-21-21c-9.784,0-17.981,6.701-20.313,15.757C36.211,29.272,34.638,29,33,29 c-7.692,0-14.023,5.793-14.89,13.252C12.906,43.353,9,47.969,9,53.5C9,59.851,14.149,65,20.5,65c0.177,0,0.352-0.012,0.526-0.022 C21.022,65.153,21,65.324,21,65.5C21,76.822,30.178,86,41.5,86c6.437,0,12.175-2.972,15.934-7.614C59.612,80.611,62.64,82,66,82 c4.65,0,8.674-2.65,10.666-6.518C77.718,75.817,78.837,76,80,76c6.075,0,11-4.925,11-11C91,61.689,89.53,58.727,87.215,56.71z" />
  <path fill="#fdfcef" d="M78.875,45.5c0,0,3.64,0,6.125,0s4.5-2.015,4.5-4.5c0-2.333-1.782-4.229-4.055-4.455 C85.467,36.364,85.5,36.187,85.5,36c0-2.485-2.015-4.5-4.5-4.5c-1.438,0-2.703,0.686-3.527,1.736 C77.333,30.6,75.171,28.5,72.5,28.5c-2.761,0-5,2.239-5,5c0,0.446,0.077,0.87,0.187,1.282C67.045,34.005,66.086,33.5,65,33.5 c-1.781,0-3.234,1.335-3.455,3.055C61.364,36.533,61.187,36.5,61,36.5c-2.485,0-4.5,2.015-4.5,4.5s2.015,4.5,4.5,4.5s9.5,0,9.5,0 h5.375V46h3V45.5z" />
  <path fill="#472b29" d="M72.5,28c-3.033,0-5.5,2.467-5.5,5.5c0,0.016,0,0.031,0,0.047C66.398,33.192,65.71,33,65,33 c-1.831,0-3.411,1.261-3.858,3.005C61.095,36.002,61.048,36,61,36c-2.757,0-5,2.243-5,5s2.243,5,5,5h14.875 c0.276,0,0.5-0.224,0.5-0.5s-0.224-0.5-0.5-0.5H61c-2.206,0-4-1.794-4-4s1.794-4,4-4c0.117,0,0.23,0.017,0.343,0.032l0.141,0.019 c0.021,0.003,0.041,0.004,0.062,0.004c0.246,0,0.462-0.185,0.495-0.437C62.232,35.125,63.504,34,65,34 c0.885,0,1.723,0.401,2.301,1.1c0.098,0.118,0.241,0.182,0.386,0.182c0.078,0,0.156-0.018,0.228-0.056 c0.209-0.107,0.314-0.346,0.254-0.573C68.054,34.218,68,33.852,68,33.5c0-2.481,2.019-4.5,4.5-4.5 c2.381,0,4.347,1.872,4.474,4.263c0.011,0.208,0.15,0.387,0.349,0.45c0.05,0.016,0.101,0.024,0.152,0.024 c0.15,0,0.296-0.069,0.392-0.192C78.638,32.563,79.779,32,81,32c2.206,0,4,1.794,4,4c0,0.117-0.017,0.23-0.032,0.343l-0.019,0.141 c-0.016,0.134,0.022,0.268,0.106,0.373c0.084,0.105,0.207,0.172,0.34,0.185C87.451,37.247,89,38.949,89,41c0,2.206-1.794,4-4,4 h-6.125c-0.276,0-0.5,0.224-0.5,0.5s0.224,0.5,0.5,0.5H85c2.757,0,5-2.243,5-5c0-2.397-1.689-4.413-4.003-4.877 C85.999,36.082,86,36.041,86,36c0-2.757-2.243-5-5-5c-1.176,0-2.293,0.416-3.183,1.164C77.219,29.76,75.055,28,72.5,28L72.5,28z" />
  <path fill="#472b29" d="M84.883,36.5c-1.326,0-2.508,0.897-2.874,2.182c-0.038,0.133,0.039,0.271,0.172,0.309 C82.205,38.997,82.228,39,82.25,39c0.109,0,0.209-0.072,0.24-0.182C82.795,37.748,83.779,37,84.883,37 c0.117,0,0.23,0.014,0.342,0.029c0.012,0.002,0.023,0.003,0.035,0.003c0.121,0,0.229-0.092,0.246-0.217 c0.019-0.137-0.077-0.263-0.214-0.281C85.158,36.516,85.022,36.5,84.883,36.5L84.883,36.5z" />
  <path fill="#fff" d="M15.5,55h-10C5.224,55,5,54.776,5,54.5S5.224,54,5.5,54h10c0.276,0,0.5,0.224,0.5,0.5 S15.777,55,15.5,55z" />
  <path fill="#fff" d="M18.5,55h-1c-0.276,0-0.5-0.224-0.5-0.5s0.224-0.5,0.5-0.5h1c0.276,0,0.5,0.224,0.5,0.5 S18.777,55,18.5,55z" />
  <path fill="#fff" d="M23.491,57H14.5c-0.276,0-0.5-0.224-0.5-0.5s0.224-0.5,0.5-0.5h8.991c0.276,0,0.5,0.224,0.5,0.5 S23.767,57,23.491,57z" />
  <path fill="#fff" d="M12.5,57h-1c-0.276,0-0.5-0.224-0.5-0.5s0.224-0.5,0.5-0.5h1c0.276,0,0.5,0.224,0.5,0.5 S12.777,57,12.5,57z" />
  <path fill="#fff" d="M9.5,57h-2C7.224,57,7,56.776,7,56.5S7.224,56,7.5,56h2c0.276,0,0.5,0.224,0.5,0.5S9.777,57,9.5,57 z" />
  <path fill="#fff" d="M15.5,59h-2c-0.276,0-0.5-0.224-0.5-0.5s0.224-0.5,0.5-0.5h2c0.276,0,0.5,0.224,0.5,0.5 S15.776,59,15.5,59z" />
  <path fill="#fff" d="M18.5,50c-0.177,0-0.823,0-1,0c-0.276,0-0.5,0.224-0.5,0.5c0,0.276,0.224,0.5,0.5,0.5 c0.177,0,0.823,0,1,0c0.276,0,0.5-0.224,0.5-0.5C19,50.224,18.776,50,18.5,50z" />
  <path fill="#fff" d="M18.5,52c-0.177,0-4.823,0-5,0c-0.276,0-0.5,0.224-0.5,0.5c0,0.276,0.224,0.5,0.5,0.5 c0.177,0,4.823,0,5,0c0.276,0,0.5-0.224,0.5-0.5C19,52.224,18.776,52,18.5,52z" />
  <path fill="#fff" d="M23.5,54c-0.177,0-2.823,0-3,0c-0.276,0-0.5,0.224-0.5,0.5c0,0.276,0.224,0.5,0.5,0.5 c0.177,0,2.823,0,3,0c0.276,0,0.5-0.224,0.5-0.5C24,54.224,23.776,54,23.5,54z" />
  <g>
    <path fill="#fff" d="M67.5,20h-10c-0.276,0-0.5-0.224-0.5-0.5s0.224-0.5,0.5-0.5h10c0.276,0,0.5,0.224,0.5,0.5 S67.776,20,67.5,20z" />
    <path fill="#fff" d="M71.5,20h-2c-0.276,0-0.5-0.224-0.5-0.5s0.224-0.5,0.5-0.5h2c0.276,0,0.5,0.224,0.5,0.5 S71.776,20,71.5,20z" />
    <path fill="#fff" d="M76.5,22h-10c-0.276,0-0.5-0.224-0.5-0.5s0.224-0.5,0.5-0.5h10c0.276,0,0.5,0.224,0.5,0.5 S76.777,22,76.5,22z" />
    <path fill="#fff" d="M64.5,22h-1c-0.276,0-0.5-0.224-0.5-0.5s0.224-0.5,0.5-0.5h1c0.276,0,0.5,0.224,0.5,0.5 S64.776,22,64.5,22z" />
    <path fill="#fff" d="M61.47,22H59.5c-0.276,0-0.5-0.224-0.5-0.5s0.224-0.5,0.5-0.5h1.97c0.276,0,0.5,0.224,0.5,0.5 S61.746,22,61.47,22z" />
    <path fill="#fff" d="M70.5,18h-5c-0.276,0-0.5-0.224-0.5-0.5s0.224-0.5,0.5-0.5h5c0.276,0,0.5,0.224,0.5,0.5 S70.777,18,70.5,18z" />
    <path fill="#fff" d="M67.5,24h-2c-0.276,0-0.5-0.224-0.5-0.5s0.224-0.5,0.5-0.5h2c0.276,0,0.5,0.224,0.5,0.5 S67.776,24,67.5,24z" />
  </g>
  <g>
    <path fill="#cdcbbd" d="M31.509,69.3c-0.503,0-1.126-0.145-1.482-1.275c-0.274-0.872-0.273-1.945-0.272-2.655L29.7,38.796 v-2.822c0-1.694,1.321-3.072,2.945-3.072h17.646c1.659,0,3.009,1.455,3.009,3.244v0.459c0,1.244,0.968,2.257,2.157,2.257h15.086 c0.417,0,0.757,0.385,0.757,0.857v23.565c0,0.334,0.013,0.748,0.026,1.214c0.05,1.703,0.131,3.46-0.436,4.802H31.509z" />
    <path fill="#472b29" d="M50.291,33.601c1.273,0,2.309,1.141,2.309,2.544v0.458c0,1.631,1.282,2.957,2.857,2.957 l15.076-0.002c0.011,0.005,0.067,0.053,0.067,0.159v23.566c0,0.339,0.012,0.761,0.026,1.234c0.038,1.287,0.11,2.738-0.236,4.082 H31.51c-1.072,0-1.056-2.322-1.056-2.322L30.4,38.797v-2.824c0-1.308,1.007-2.372,2.245-2.372H50.291 M50.291,32.201H32.645 c-2.005,0-3.645,1.698-3.645,3.772v2.824l0.054,27.484C29.054,67.704,29,70,31.509,70H70c1,0,2-3,2-6.715V39.719 c0-0.86-0.652-1.557-1.457-1.557H55.457c-0.805,0-1.457-0.697-1.457-1.557v-0.458C54,33.977,52.331,32.201,50.291,32.201 L50.291,32.201z" />
    <path fill="#472b29" d="M43.5,37h-11c-0.276,0-0.5-0.224-0.5-0.5s0.224-0.5,0.5-0.5h11c0.276,0,0.5,0.224,0.5,0.5 S43.776,37,43.5,37z" />
    <path fill="#472b29" d="M50.5,37h-4c-0.276,0-0.5-0.224-0.5-0.5s0.224-0.5,0.5-0.5h4c0.276,0,0.5,0.224,0.5,0.5 S50.776,37,50.5,37z" />
    <path fill="#fdfcee" d="M31.478,69.3c-0.608,0-1.106,0.478-1.14-0.179l5.534-24.732c0.09-0.402,0.447-0.689,0.86-0.689 h39.116c0.564,0,0.982,0.522,0.86,1.072l-5.401,23.297c-0.011,0.051-0.017,0.102-0.017,0.153c0,0.295-0.106,0.57-0.3,0.775 c-0.184,0.194-0.426,0.302-0.681,0.302L31.478,69.3L31.478,69.3z" />
    <g>
      <path fill="#472b29" d="M75.728,44.4c0.178,0,0.31,0.165,0.271,0.338l-5.375,23.18c-0.04,0.188-0.248,0.682-0.773,0.682 H31.825c-0.35,0-0.61-0.32-0.532-0.66c0.878-3.863,5.196-23.1,5.196-23.1c0.057-0.257,0.285-0.439,0.548-0.439H75.728z M36.892,43 c-0.833,0-1.554,0.578-1.737,1.39l-5.342,23.828c0,1.076,0.648,1.781,1.665,1.781h38.831c0.929,0,1.456-0.827,1.681-1.778 l5.408-23.327C77.614,43.923,76.874,43,75.878,43H36.892z" />
    </g>
  </g>
  <g>
    <path fill="#fdfcef" d="M23.5,75.5c0,0-1.567,0-3.5,0s-3.5-1.567-3.5-3.5c0-1.781,1.335-3.234,3.055-3.455 C19.527,68.366,19.5,68.187,19.5,68c0-1.933,1.567-3.5,3.5-3.5c1.032,0,1.95,0.455,2.59,1.165c0.384-1.808,1.987-3.165,3.91-3.165 c2.209,0,4,1.791,4,4c0,0.191-0.03,0.374-0.056,0.558C33.872,66.714,34.408,66.5,35,66.5c1.228,0,2.245,0.887,2.455,2.055 C37.634,68.527,37.813,68.5,38,68.5c1.933,0,3.5,1.567,3.5,3.5s-1.567,3.5-3.5,3.5s-7.5,0-7.5,0V76h-7V75.5z" />
    <path fill="#472b29" d="M21.75,71c0.138,0,0.25-0.112,0.25-0.25c0-1.223-0.995-2.218-2.218-2.218 c-0.034,0.009-0.737-0.001-1.244,0.136c-0.133,0.036-0.212,0.173-0.176,0.306c0.036,0.134,0.173,0.213,0.306,0.176 c0.444-0.12,1.1-0.12,1.113-0.118c0.948,0,1.719,0.771,1.719,1.718C21.5,70.888,21.612,71,21.75,71z" />
    <circle cx="28.5" cy="75.5" r=".5" fill="#472b29" />
    <path fill="#472b29" d="M20,76h3.5c0.276,0,0.5-0.224,0.5-0.5S23.776,75,23.5,75H20c-1.654,0-3-1.346-3-3 c0-1.496,1.125-2.768,2.618-2.959c0.134-0.018,0.255-0.088,0.336-0.196s0.115-0.244,0.094-0.377C20.025,68.314,20,68.16,20,68 c0-1.654,1.346-3,3-3c0.85,0,1.638,0.355,2.219,1c0.125,0.139,0.321,0.198,0.5,0.148c0.182-0.049,0.321-0.195,0.36-0.379 C26.42,64.165,27.859,63,29.5,63c1.93,0,3.5,1.57,3.5,3.5c0,0.143-0.021,0.28-0.041,0.418c-0.029,0.203,0.063,0.438,0.242,0.54 c0.179,0.102,0.396,0.118,0.556-0.01C34.122,67.155,34.551,67,35,67c0.966,0,1.792,0.691,1.963,1.644 c0.048,0.267,0.296,0.446,0.569,0.405C37.686,69.025,37.84,69,38,69c1.654,0,3,1.346,3,3s-1.346,3-3,3h-7.5 c-0.276,0-0.5,0.224-0.5,0.5s0.224,0.5,0.5,0.5H38c2.206,0,4-1.794,4-4s-1.794-4-4-4c-0.059,0-0.116,0.002-0.174,0.006 C37.412,66.82,36.289,66,35,66c-0.349,0-0.689,0.061-1.011,0.18C33.824,63.847,31.874,62,29.5,62 c-1.831,0-3.466,1.127-4.153,2.774C24.667,64.276,23.845,64,23,64c-2.206,0-4,1.794-4,4c0,0.048,0.001,0.095,0.004,0.142 C17.261,68.59,16,70.169,16,72C16,74.206,17.794,76,20,76z" />
    <path fill="#472b29" d="M25.5,75c0.159,0,0.841,0,1,0c0.276,0,0.5,0.224,0.5,0.5c0,0.276-0.224,0.5-0.5,0.5 c-0.159,0-0.841,0-1,0c-0.276,0-0.5-0.224-0.5-0.5C25,75.224,25.224,75,25.5,75z" />
  </g>
  <g>
    <path fill="#a1a1ca" d="M63.029,64c2.07,0,3.749-1.748,3.749-3.904c0-1.986-1.429-3.608-3.272-3.854 c0.03-0.199,0.059-0.4,0.059-0.608c0-2.156-1.678-3.904-3.749-3.904c-1.105,0-2.088,0.507-2.774,1.299 c-0.412-2.016-2.129-3.53-4.188-3.53c-2.366,0-4.284,1.997-4.284,4.462c0,0.213,0.032,0.417,0.06,0.622 c-0.459-0.383-1.033-0.622-1.667-0.622c-1.316,0-2.404,0.99-2.63,2.292c-0.191-0.031-0.384-0.061-0.584-0.061 c-2.07,0-3.749,1.748-3.749,3.904S41.678,64,43.749,64C45.819,64,60.958,64,63.029,64z" />
    <path fill="#472b29" d="M63.029,64.5h-19.28c-2.343,0-4.249-1.976-4.249-4.404c0-2.428,1.906-4.404,4.249-4.404 c0.069,0,0.138,0.003,0.206,0.008c0.428-1.322,1.627-2.239,3.007-2.239c0.385,0,0.76,0.073,1.114,0.214 C48.22,51.072,50.308,49,52.854,49c1.965,0,3.717,1.266,4.436,3.109c0.729-0.565,1.615-0.878,2.526-0.878 c2.343,0,4.249,1.976,4.249,4.404c0,0.07-0.003,0.138-0.007,0.207c1.867,0.482,3.221,2.229,3.221,4.255 C67.278,62.524,65.372,64.5,63.029,64.5z M43.749,56.692c-1.792,0-3.249,1.527-3.249,3.404c0,1.877,1.458,3.404,3.249,3.404h19.28 c1.792,0,3.249-1.527,3.249-3.404c0-1.698-1.22-3.142-2.839-3.358c-0.133-0.018-0.253-0.088-0.333-0.196s-0.115-0.242-0.094-0.375 c0.026-0.175,0.053-0.35,0.053-0.533c0-1.877-1.458-3.404-3.249-3.404c-0.916,0-1.767,0.4-2.396,1.127 c-0.125,0.144-0.323,0.205-0.504,0.156c-0.185-0.048-0.325-0.197-0.363-0.384C56.181,51.316,54.626,50,52.854,50 c-2.087,0-3.785,1.777-3.785,3.962c0,0.16,0.022,0.314,0.043,0.468c0.028,0.205-0.066,0.449-0.247,0.549 c-0.18,0.1-0.397,0.122-0.557-0.011c-0.396-0.331-0.861-0.506-1.346-0.506c-1.05,0-1.949,0.79-2.137,1.877 c-0.046,0.27-0.3,0.453-0.574,0.408C44.087,56.72,43.921,56.692,43.749,56.692z" />
  </g>
</svg>