<svg width="128" height="128" viewBox="0 0 128 128" fill="none" xmlns="http://www.w3.org/2000/svg">
<g clip-path="url(#clip0_6177_31236)">
<path d="M91.1411 56.0491C91.8091 63.8301 79.5641 71.2351 63.7921 72.5881C48.0201 73.9411 34.6921 68.7301 34.0261 60.9491C33.3601 53.1681 45.6021 45.7621 61.3751 44.4091C77.1481 43.0561 90.4751 48.2671 91.1411 56.0491Z" fill="#BBE6FB"/>
<mask id="mask0_6177_31236" style="mask-type:luminance" maskUnits="userSpaceOnUse" x="42" y="45" width="38" height="27">
<path d="M42.704 45.3191H79.937V71.5371H42.704V45.3191Z" fill="white"/>
</mask>
<g mask="url(#mask0_6177_31236)">
<g opacity="0.35">
<path d="M61.837 45.3221C55.821 45.2221 48.78 47.6131 43.542 49.8501C42.986 51.4495 42.7024 53.1309 42.703 54.8241C42.703 64.0531 51.037 71.5361 61.318 71.5361C71.599 71.5361 79.933 64.0531 79.933 54.8241C79.9296 51.9779 79.1332 49.1889 77.633 46.7701C72.4074 45.937 67.132 45.4532 61.842 45.3221" fill="white"/>
</g>
</g>
<path d="M61.318 45.319C57.987 45.119 52.246 46.854 47.459 48.587C46.7118 50.3475 46.3271 52.2405 46.328 54.153C46.328 62.24 53.66 68.795 61.416 68.795C69.121 68.795 75.938 62.229 76.504 54.153C76.5953 51.5935 75.9054 49.0669 74.526 46.909C70.1539 46.1526 65.7447 45.6219 61.318 45.319Z" fill="white"/>
<path d="M52.771 53.092C53.2159 52.3193 53.7636 51.6105 54.399 50.985C54.2939 50.6697 54.2225 50.3443 54.186 50.014C54.1865 49.5773 54.3602 49.1587 54.669 48.8499C54.9777 48.5412 55.3963 48.3675 55.833 48.367C56.0409 48.3671 56.2469 48.4068 56.44 48.484C57.834 47.4176 59.4449 46.67 61.1593 46.2938C62.8736 45.9177 64.6496 45.9222 66.362 46.307C66.6886 46.3816 67.012 46.4693 67.332 46.57C63.6363 46.1657 59.9302 47.2343 57.017 49.544C57.1638 49.8581 57.2697 50.1899 57.332 50.531C57.332 51.441 56.743 51.662 55.832 51.662C55.6302 51.6616 55.4303 51.6243 55.242 51.552C54.5314 52.6142 53.9462 53.7552 53.498 54.952C54.8597 56.1009 56.4452 56.9546 58.154 57.459C58.154 57.375 58.215 57.296 58.215 57.209C58.2582 55.8721 58.8212 54.6047 59.7842 53.6764C60.7472 52.7481 62.0344 52.2321 63.372 52.238C64.5437 52.2385 65.6775 52.6536 66.5725 53.4099C67.4675 54.1661 68.066 55.2147 68.262 56.37C69.5077 55.7286 70.6303 54.8721 71.578 53.84C71.323 53.435 71.1722 52.9733 71.139 52.496C71.1406 52.1001 71.2986 51.7208 71.5787 51.441C71.8587 51.1611 72.2381 51.0033 72.634 51.002C72.7479 51.003 72.8613 51.0171 72.972 51.044C73.4307 50.0972 73.7751 49.0992 73.998 48.071C69.71 44.896 61.412 45.329 61.412 45.329C61.412 45.329 54.812 44.985 50.34 47.163C50.6475 49.3115 51.4809 51.3509 52.766 53.1M73.261 51.859C73.503 52.0711 73.706 52.3239 73.861 52.606C74.261 53.323 73.461 53.987 72.632 53.987C72.5498 53.9855 72.4678 53.9771 72.387 53.962C71.3282 55.6181 69.97 57.0625 68.382 58.221C70.5696 58.5561 72.6304 59.4614 74.357 60.846C75.6876 58.3939 76.4214 55.6627 76.499 52.874C76.5102 51.9849 76.3127 51.1057 75.9225 50.3068C75.5322 49.5079 74.9601 48.8117 74.252 48.274C74.0607 49.5079 73.7285 50.7158 73.262 51.874M55.262 65.626C56.001 63.585 57.819 62.003 59.539 60.612C59.2278 60.1042 58.9647 59.5686 58.753 59.012C56.6791 58.38 54.8138 57.201 53.353 55.599L53.318 55.736C53.0545 56.9238 52.9917 58.1474 53.132 59.356C53.628 59.4488 54.0759 59.7122 54.3982 60.1004C54.7205 60.4887 54.897 60.9774 54.897 61.482C54.7983 62.2182 54.454 62.8996 53.92 63.416C54.2692 64.2076 54.7182 64.9512 55.256 65.629M55.129 67.342C54.243 66.465 53.638 64.717 53.065 63.619C52.9562 63.6367 52.8462 63.646 52.736 63.647C51.536 63.647 50.287 62.647 50.571 61.482C50.6654 61.1592 50.8343 60.863 51.0641 60.6174C51.2939 60.3718 51.5782 60.1836 51.894 60.068C51.6889 58.529 51.7226 56.9676 51.994 55.439C52.1066 55.1114 52.2402 54.7914 52.394 54.481C51.0017 52.4177 50.2464 49.9909 50.222 47.502C50.222 47.41 50.222 47.319 50.229 47.228C47.999 48.346 46.329 50.108 46.329 52.881C46.329 59.015 49.863 65.033 55.119 67.392L55.129 67.342ZM68.055 58.866C67.7152 59.8363 67.0821 60.6771 66.2435 61.2719C65.4049 61.8667 64.4021 62.1861 63.374 62.186C62.2621 62.1864 61.1827 61.8119 60.31 61.123C58.4785 62.6864 57.0626 64.679 56.189 66.923C56.5057 67.2945 56.8447 67.6464 57.204 67.977C58.6035 68.1356 60.0165 68.1356 61.416 67.977C63.906 68.0489 66.3739 67.4916 68.5913 66.3567C70.8088 65.2217 72.7041 63.5458 74.102 61.484C72.336 60.1215 70.2572 59.2225 68.055 58.869" fill="#373535"/>
<path d="M52.634 53.81C53.0368 52.9178 53.5473 52.0782 54.154 51.31C54.0614 51.061 54.0303 50.7933 54.0634 50.5297C54.0964 50.2661 54.1927 50.0144 54.344 49.796C54.4954 49.5778 54.6974 49.3993 54.9326 49.2759C55.1678 49.1524 55.4294 49.0876 55.695 49.087C55.9029 49.0872 56.1089 49.1269 56.302 49.204C57.696 48.1376 59.307 47.39 61.0213 47.0139C62.7356 46.6377 64.5116 46.6422 66.224 47.027C66.5507 47.1017 66.874 47.1893 67.194 47.29C65.4277 47.06 63.6331 47.1895 61.918 47.6707C60.203 48.1519 58.6029 48.9748 57.214 50.09C57.2997 50.2925 57.3435 50.5102 57.343 50.73C57.3425 51.1667 57.1688 51.5853 56.86 51.894C56.5513 52.2028 56.1327 52.3765 55.696 52.377C55.4943 52.3767 55.2943 52.3394 55.106 52.267C54.4826 53.1031 53.9801 54.0228 53.613 54.999C54.9021 56.4043 56.5011 57.4897 58.283 58.169C58.283 58.085 58.27 58 58.27 57.914C58.27 56.5972 58.7931 55.3344 59.7242 54.4032C60.6553 53.4721 61.9182 52.949 63.235 52.949C64.4066 52.9495 65.5403 53.3645 66.4352 54.1205C67.3302 54.8766 67.9288 55.925 68.125 57.08C69.3572 56.2908 70.4458 55.2972 71.344 54.142C71.1241 53.878 71.0031 53.5456 71.002 53.202C71.0036 52.8061 71.1616 52.4269 71.4417 52.147C71.7217 51.8671 72.1011 51.7093 72.497 51.708C72.6109 51.7091 72.7243 51.7232 72.835 51.75C73.2937 50.8032 73.6381 49.8052 73.861 48.777C69.573 45.602 61.275 46.035 61.275 46.035C61.275 46.035 54.675 45.693 50.2 47.873C50.5076 50.0216 51.3409 52.0609 52.626 53.81M73.489 52.101C73.6449 52.239 73.7701 52.4082 73.8562 52.5978C73.9424 52.7873 73.9876 52.9928 73.989 53.201C73.9877 53.5971 73.8298 53.9766 73.5497 54.2567C73.2696 54.5368 72.8901 54.6947 72.494 54.696C72.4118 54.6945 72.3298 54.6862 72.249 54.671C71.3186 56.1245 70.0881 57.3622 68.64 58.301C70.7778 58.6363 72.7864 59.5394 74.456 60.916C75.7085 58.6734 76.3645 56.1467 76.361 53.578C76.3722 52.689 76.1747 51.8097 75.7845 51.0108C75.3943 50.2119 74.8221 49.5157 74.114 48.978C74.0458 50.042 73.8362 51.0923 73.491 52.101M55.484 66.101C56.2298 64.0384 57.5243 62.2183 59.228 60.837C58.9745 60.4902 58.7674 60.1116 58.612 59.711C56.5398 59.0779 54.6769 57.897 53.22 56.293L53.185 56.43C52.9212 57.6178 52.8583 58.8414 52.999 60.05C53.4949 60.1431 53.9427 60.4064 54.265 60.7946C54.5873 61.1828 54.7638 61.6715 54.764 62.176C54.7638 62.4748 54.7014 62.7702 54.5809 63.0436C54.4604 63.317 54.2844 63.5623 54.064 63.764C54.4541 64.5888 54.9297 65.3705 55.483 66.096M55.119 67.296C54.2377 66.422 53.4975 65.4163 52.925 64.315C52.8162 64.3323 52.7062 64.3414 52.596 64.342C52.0218 64.342 51.4711 64.1139 51.0651 63.7079C50.6591 63.3019 50.431 62.7512 50.431 62.177C50.4313 61.7706 50.5461 61.3725 50.7622 61.0283C50.9784 60.6841 51.2871 60.4078 51.653 60.231C51.4837 58.863 51.5514 57.4761 51.853 56.131C51.9389 55.7389 52.0457 55.3517 52.173 54.971C50.8066 52.9747 50.0772 50.6112 50.081 48.192C50.081 48.1 50.081 48.009 50.087 47.919C47.857 49.036 46.187 50.799 46.187 53.572C46.187 56.483 47.0292 59.3318 48.6119 61.7749C50.1946 64.2181 52.4503 66.1511 55.107 67.341L55.118 67.291M67.918 59.553C67.5782 60.5234 66.9452 61.3641 66.1066 61.9589C65.2679 62.5537 64.2652 62.8732 63.237 62.873C62.1252 62.8734 61.0457 62.4989 60.173 61.81C58.4364 63.1864 57.1041 65.0066 56.317 67.078C56.6776 67.467 57.061 67.8343 57.465 68.178C58.7101 68.502 59.9915 68.6657 61.278 68.665C63.7929 68.6651 66.2679 68.0365 68.4779 66.8363C70.6879 65.6362 72.5628 63.9025 73.932 61.793C72.1536 60.5431 70.083 59.7726 67.92 59.556" fill="#1287B1"/>
<mask id="mask1_6177_31236" style="mask-type:luminance" maskUnits="userSpaceOnUse" x="53" y="48" width="20" height="20">
<path d="M53.327 48.5029H72.682V67.8409H53.327V48.5029Z" fill="white"/>
</mask>
<g mask="url(#mask1_6177_31236)">
<path d="M68.094 58.282L72.682 57.188L68.082 56.953L71.829 54.089L67.577 55.613L70.467 51.613L66.476 54.269L67.868 49.581L65.127 53.445L65.065 48.562L63.265 52.911L61.765 48.511L61.846 53.695L59.246 49.048L60.652 53.982L56.437 50.916L59.737 55.065L54.508 53.141L58.638 56.197L53.338 56.36L58.753 57.76L53.333 58.932L58.683 59.32L54.171 62.208L58.817 60.524L55.594 64.606L59.667 61.317L58.2 66.799L61.344 62.341L60.903 67.606L62.688 62.833L64.207 67.85L64.576 62.818L66.831 67.111L65.499 62.201L69.628 65.401L66.962 61.323L71.492 63.088L68.028 59.688L72.673 60.053L68.094 58.282Z" fill="white"/>
</g>
<mask id="mask2_6177_31236" style="mask-type:luminance" maskUnits="userSpaceOnUse" x="19" y="40" width="90" height="28">
<path d="M19.2571 40.9929H108.82V67.0599H19.2571V40.9929Z" fill="white"/>
</mask>
<g mask="url(#mask2_6177_31236)">
<g opacity="0.35">
<path d="M19.2571 67.06C33.4841 52.833 44.8471 48.441 55.1571 46.44C56.5221 46.174 56.7801 43.193 56.7801 43.193C56.7801 43.193 56.9711 45.393 57.9261 45.675C58.8811 45.957 60.1261 42.238 60.1261 42.238C60.1261 42.238 58.9801 45.58 60.1261 45.772C61.2721 45.964 63.3731 42.525 63.3731 42.525C63.3731 42.525 62.5141 45.485 63.0871 45.676C63.6601 45.867 66.5241 41.376 66.5241 41.376C66.5241 41.376 64.8051 44.336 66.4241 44.623C68.0431 44.91 70.4161 42.599 70.4161 42.599C70.4161 42.599 68.5541 44.709 69.3841 44.999C72.9181 46.241 75.7761 41.649 75.7761 41.649C75.2082 43.1686 74.4047 44.5893 73.3951 45.859C77.1181 46.814 79.8891 41.204 79.8891 41.204L77.1231 46.813C78.5551 47.577 84.2851 40.989 84.2851 40.989C84.2851 40.989 81.3251 46.145 79.6061 47.195C80.5611 47.959 83.9981 44.904 83.9981 44.904C83.9981 44.904 81.2291 48.341 82.2791 48.532C83.8071 49.773 89.4401 42.132 89.4401 42.132C87.9692 45.0227 86.1409 47.7172 83.9981 50.152C86.7131 51.513 93.4491 42.808 93.4491 42.808C93.4491 42.808 93.2581 45.577 88.3881 49.969C92.0161 49.492 96.6951 42.617 96.6951 42.617C95.4669 45.9602 93.4719 48.9687 90.8701 51.401C94.4331 51.03 100.131 42.235 100.131 42.235C100.131 42.235 97.9311 48.346 93.4481 51.878C98.4131 52.978 105.574 45.578 105.574 45.578C105.574 45.578 102.757 50.83 99.0801 52.978C103.186 54.553 108.82 48.061 108.82 48.061C108.82 48.061 103.187 56.75 94.2111 56.368C91.2661 56.243 82.3621 47.434 63.2741 48.156C38.0661 49.111 32.7201 59.801 19.2511 67.062" fill="#373535"/>
</g>
</g>
<path d="M19.8401 65.979C34.0671 51.752 45.4291 47.361 55.7401 45.359C57.1051 45.093 57.3631 42.112 57.3631 42.112C57.3631 42.112 57.5541 44.305 58.5091 44.594C59.4641 44.883 60.7091 41.157 60.7091 41.157C60.7091 41.157 59.5631 44.499 60.7091 44.69C61.8551 44.881 63.9561 41.443 63.9561 41.443C63.9561 41.443 63.0971 44.403 63.6691 44.594C64.2411 44.785 67.1061 40.294 67.1061 40.294C67.1061 40.294 65.3871 43.254 67.0061 43.541C68.6251 43.828 70.9981 41.517 70.9981 41.517C70.9981 41.517 69.1361 43.627 69.9661 43.917C73.5001 45.158 76.3571 40.567 76.3571 40.567C75.7893 42.0861 74.9862 43.5064 73.9771 44.776C77.7001 45.731 80.4711 40.121 80.4711 40.121L77.6961 45.731C79.1281 46.49 84.8571 39.907 84.8571 39.907C84.8571 39.907 81.8981 45.062 80.1791 46.113C81.1341 46.877 84.5711 43.822 84.5711 43.822C84.5711 43.822 81.8021 47.259 82.8521 47.45C84.3801 48.692 90.0131 41.05 90.0131 41.05C88.5436 43.9415 86.7151 46.6361 84.5711 49.07C87.2841 50.428 94.0241 41.718 94.0241 41.718C94.0241 41.718 93.8331 44.488 88.9631 48.88C92.5911 48.402 97.2701 41.527 97.2701 41.527C96.042 44.8705 94.0469 47.8793 91.4451 50.312C95.0081 49.941 100.707 41.146 100.707 41.146C100.707 41.146 98.5071 47.257 94.0241 50.79C98.9891 51.89 106.15 44.49 106.15 44.49C106.15 44.49 103.333 49.741 99.6561 51.89C103.762 53.465 109.396 46.973 109.396 46.973C109.396 46.973 103.763 55.662 94.7861 55.28C91.8421 55.154 82.9341 46.341 63.8501 47.068C38.6431 48.023 33.2961 58.717 19.8331 65.973" fill="#373535"/>
<mask id="mask3_6177_31236" style="mask-type:luminance" maskUnits="userSpaceOnUse" x="18" y="56" width="85" height="32">
<path d="M18.885 56.824H102.957V87.951H18.885V56.824Z" fill="white"/>
</mask>
<g mask="url(#mask3_6177_31236)">
<g opacity="0.35">
<path d="M18.885 68.615C26.404 72.387 33.279 68.042 41.944 70.484C48.532 72.341 56.553 74.6301 67.437 73.0541C78.321 71.4781 87.632 66.7541 92.073 58.3021C93.457 54.5311 99.09 59.162 99.09 59.162C99.09 59.162 94.985 57.443 95.084 58.255C95.183 59.067 101.24 61.882 101.24 61.882C101.24 61.882 95.75 60.1631 96.084 61.4521C96.418 62.7411 102.958 67.897 102.958 67.897C102.958 67.897 95.558 62.264 94.938 63.027C94.318 63.79 98.089 66.895 98.089 66.895C98.089 66.895 91.835 63.0271 89.639 64.1681C88.059 64.9871 96.133 70.285 96.133 70.285C96.133 70.285 90.881 66.2741 89.639 67.3251C88.397 68.3761 95.559 76.9691 95.559 76.9691C95.559 76.9691 87.44 68.182 86.63 68.615C85.82 69.048 88.873 73.2461 88.873 73.2461C88.873 73.2461 84.867 68.8531 83.765 69.6181C82.663 70.3831 89.494 81.792 89.494 81.792C89.494 81.792 82.094 70.0921 79.039 72.0521C83.84 82.5821 82.047 84.0821 82.047 84.0821C82.047 84.0821 81.435 73.342 75.458 73.626C72.45 73.769 76.89 81.6461 76.89 81.6461C76.89 81.6461 72.8 74.4511 70.082 74.5951C75.098 84.0821 73.31 87.9481 73.31 87.9481C73.31 87.9481 74.14 79.8431 67.34 75.3311C69.918 77.6221 65.722 87.949 65.722 87.949C65.722 87.949 69.412 72.7271 63 75.6361C61.987 76.0941 62.928 83.227 62.928 83.227C62.928 83.227 61.639 75.0631 59.706 75.4931C58.579 75.7431 52.544 86.8081 52.544 86.8081C52.544 86.8081 57.486 74.849 55.982 75.35C54.882 75.716 52.831 80.6501 52.831 80.6501C52.831 80.6501 53.831 75.78 52.831 75.494C51.831 75.208 46.242 80.6501 46.242 80.6501C46.242 80.6501 50.395 75.7801 49.679 74.7771C48.594 73.258 47.318 73.186 45.812 73.7771C43.619 74.6331 40.656 78.6461 40.656 78.6461C40.656 78.6461 43.606 74.5821 43.09 73.0601C42.262 70.6141 33.781 77.783 33.781 77.783C33.781 77.783 38.794 73.0601 37.648 72.0541C36.502 71.0481 30.281 71.362 28.338 71.354C22.609 71.336 20.624 69.992 18.885 68.615Z" fill="#373535"/>
</g>
</g>
<path d="M18.598 67.7571C26.117 71.5291 32.992 67.1841 41.657 69.6271C48.245 71.4831 56.266 73.7731 67.151 72.1971C78.036 70.6211 87.351 65.8971 91.786 57.4451C93.17 53.6741 98.803 58.3041 98.803 58.3041C98.803 58.3041 94.698 56.5861 94.797 57.3971C94.896 58.2081 100.955 61.0291 100.955 61.0291C100.955 61.0291 95.465 59.3111 95.799 60.6001C96.133 61.8891 102.674 67.0451 102.674 67.0451C102.674 67.0451 95.274 61.4121 94.654 62.1761C94.034 62.9401 97.805 66.0431 97.805 66.0431C97.805 66.0431 91.55 62.1761 89.355 63.3161C87.775 64.1361 95.848 69.4331 95.848 69.4331C95.848 69.4331 90.596 65.4271 89.355 66.4731C88.114 67.5191 95.275 76.1171 95.275 76.1171C95.275 76.1171 87.158 67.3321 86.347 67.7621C85.536 68.1921 88.591 72.3931 88.591 72.3931C88.591 72.3931 84.58 68.0011 83.482 68.7651C82.384 69.5291 89.211 80.9291 89.211 80.9291C89.211 80.9291 81.811 69.2291 78.756 71.1901C83.555 81.7201 81.764 83.2291 81.764 83.2291C81.764 83.2291 81.152 72.4891 75.175 72.7741C72.167 72.9171 76.607 80.7941 76.607 80.7941C76.607 80.7941 72.517 73.5991 69.8 73.7421C74.816 83.2351 73.027 87.0951 73.027 87.0951C73.027 87.0951 73.855 78.9831 67.055 74.4721C69.633 76.7631 65.437 87.0911 65.437 87.0911C65.437 87.0911 69.128 71.8691 62.716 74.7781C61.703 75.2361 62.644 82.3691 62.644 82.3691C62.644 82.3691 61.354 74.2061 59.422 74.6351C58.294 74.8851 52.26 85.9501 52.26 85.9501C52.26 85.9501 57.202 73.9911 55.698 74.4921C54.598 74.8571 52.547 79.7921 52.547 79.7921C52.547 79.7921 53.547 74.9231 52.547 74.6361C51.547 74.3491 45.959 79.7921 45.959 79.7921C45.959 79.7921 50.112 74.9231 49.396 73.9201C48.311 72.4011 47.035 72.3301 45.529 72.9201C43.336 73.7761 40.373 77.7891 40.373 77.7891C40.373 77.7891 43.323 73.7251 42.808 72.2031C41.98 69.7571 33.499 76.9261 33.499 76.9261C33.499 76.9261 38.512 72.2031 37.366 71.1971C36.22 70.1911 29.999 70.5051 28.056 70.4971C22.327 70.4791 20.342 69.1351 18.603 67.7581" fill="#373535"/>
</g>
<defs>
<clipPath id="clip0_6177_31236">
<rect width="128" height="128" fill="white"/>
</clipPath>
</defs>
</svg>
