<svg xmlns="http://www.w3.org/2000/svg" xmlns:xlink="http://www.w3.org/1999/xlink" width="128" height="128" viewBox="0 0 128 128"><defs><clipPath id="a"><path d="M28.533-212.767H65.766v26.218H28.533Z" transform="translate(-28.533 212.767)"/></clipPath><clipPath id="b"><path d="M36.02-210.523H55.375v19.338H36.02Z" transform="translate(-36.02 210.523)"/></clipPath><clipPath id="c"><path d="M12.007-215.816H101.57v26.067H12.007Z" transform="translate(-12.007 215.816)"/></clipPath><clipPath id="d"><path d="M11.745-204.658H95.817v31.127H11.745Z" transform="translate(-11.745 204.658)"/></clipPath></defs><g transform="translate(-377 -122)"><rect width="128" height="128" transform="translate(377 122)" fill="none"/><g transform="translate(384.055 378.489)"><g transform="translate(26.944 -212.294)"><path d="M79.539-201.705c.668,7.781-11.577,15.186-27.349,16.539s-29.1-3.858-29.766-11.639S34-211.992,49.773-213.345s29.1,3.858,29.766,11.64" transform="translate(-22.397 213.559)" fill="#bbe6fb"/></g><g transform="translate(35.649 -211.17)"><g opacity="0.35" clip-path="url(#a)"><path d="M47.666-212.764c-6.016-.1-13.057,2.291-18.295,4.528a15.133,15.133,0,0,0-.839,4.974c0,9.229,8.334,16.712,18.615,16.712s18.615-7.483,18.615-16.712a15.315,15.315,0,0,0-2.3-8.054,119.019,119.019,0,0,0-15.791-1.448" transform="translate(-28.533 212.767)" fill="#fff"/></g></g><g transform="translate(39.273 -211.186)"><path d="M46.077-212.762c-3.331-.2-9.072,1.535-13.859,3.268a14.228,14.228,0,0,0-1.131,5.566c0,8.087,7.332,14.642,15.088,14.642,7.705,0,14.522-6.566,15.088-14.642a12.615,12.615,0,0,0-1.978-7.244,129.238,129.238,0,0,0-13.207-1.59" transform="translate(-31.087 212.778)" fill="#fff"/></g><g transform="translate(39.273 -211.184)"><path d="M37.53-204.99a9.863,9.863,0,0,1,1.628-2.107,4.706,4.706,0,0,1-.213-.971,1.649,1.649,0,0,1,1.647-1.647,1.64,1.64,0,0,1,.607.117,12,12,0,0,1,9.922-2.177q.49.112.97.263a14.13,14.13,0,0,0-10.315,2.974,4.051,4.051,0,0,1,.315.987c0,.91-.589,1.131-1.5,1.131a1.653,1.653,0,0,1-.59-.11,16.564,16.564,0,0,0-1.744,3.4,12.87,12.87,0,0,0,4.656,2.507c0-.084.061-.163.061-.25a5.137,5.137,0,0,1,5.157-4.971,4.962,4.962,0,0,1,4.89,4.132,11.892,11.892,0,0,0,3.316-2.53,2.9,2.9,0,0,1-.439-1.344,1.5,1.5,0,0,1,1.495-1.494,1.491,1.491,0,0,1,.338.042,13.264,13.264,0,0,0,1.026-2.973c-4.288-3.175-12.586-2.742-12.586-2.742s-6.6-.344-11.072,1.834a13.182,13.182,0,0,0,2.426,5.937m20.495-1.241a2.762,2.762,0,0,1,.6.747c.4.717-.4,1.381-1.229,1.381a1.478,1.478,0,0,1-.245-.025,15.819,15.819,0,0,1-4.005,4.259,12.6,12.6,0,0,1,5.975,2.625,17.749,17.749,0,0,0,2.142-7.972,5.686,5.686,0,0,0-2.247-4.6,16.332,16.332,0,0,1-.99,3.6m-18,13.752c.739-2.041,2.557-3.623,4.277-5.014a9.581,9.581,0,0,1-.786-1.6,12.069,12.069,0,0,1-5.4-3.413l-.035.137a10.908,10.908,0,0,0-.186,3.62,2.163,2.163,0,0,1,1.765,2.126,3.3,3.3,0,0,1-.977,1.934,10.153,10.153,0,0,0,1.336,2.213m-.127,1.713c-.886-.877-1.491-2.625-2.064-3.723a2.163,2.163,0,0,1-.329.028c-1.2,0-2.449-1-2.165-2.165a2.148,2.148,0,0,1,1.323-1.414,15.082,15.082,0,0,1,.1-4.629,8.072,8.072,0,0,1,.4-.958,12.7,12.7,0,0,1-2.172-6.979c0-.092,0-.183.007-.274-2.23,1.118-3.9,2.88-3.9,5.653,0,6.134,3.534,12.152,8.79,14.511l.011-.05m12.925-8.476a4.959,4.959,0,0,1-4.681,3.32,4.942,4.942,0,0,1-3.064-1.063,14.581,14.581,0,0,0-4.121,5.8,12.1,12.1,0,0,0,1.015,1.054,18.7,18.7,0,0,0,4.212,0,14.81,14.81,0,0,0,12.686-6.493,13.368,13.368,0,0,0-6.047-2.615" transform="translate(-31.087 212.777)" fill="#373535"/></g><g transform="translate(39.136 -210.471)"><path d="M37.434-204.483a12,12,0,0,1,1.52-2.5,1.649,1.649,0,0,1,.19-1.514,1.649,1.649,0,0,1,1.351-.709,1.64,1.64,0,0,1,.607.117,12,12,0,0,1,9.922-2.177q.49.112.97.263a13.215,13.215,0,0,0-9.98,2.8,1.633,1.633,0,0,1,.129.64,1.649,1.649,0,0,1-1.647,1.647,1.653,1.653,0,0,1-.59-.11,11.116,11.116,0,0,0-1.493,2.732,12.268,12.268,0,0,0,4.67,3.17c0-.084-.013-.169-.013-.255a4.965,4.965,0,0,1,4.965-4.965,4.962,4.962,0,0,1,4.89,4.131,12.87,12.87,0,0,0,3.219-2.938,1.476,1.476,0,0,1-.342-.94,1.5,1.5,0,0,1,1.495-1.494,1.491,1.491,0,0,1,.338.042,13.264,13.264,0,0,0,1.026-2.973c-4.288-3.175-12.586-2.742-12.586-2.742S39.475-212.6,35-210.42a13.182,13.182,0,0,0,2.426,5.937m20.863-1.709a1.482,1.482,0,0,1,.5,1.1,1.5,1.5,0,0,1-1.495,1.495,1.479,1.479,0,0,1-.245-.025,12.1,12.1,0,0,1-3.609,3.63,12.085,12.085,0,0,1,5.816,2.615,15.008,15.008,0,0,0,1.905-7.338,5.686,5.686,0,0,0-2.247-4.6,12.022,12.022,0,0,1-.623,3.123m-18.007,14a12.052,12.052,0,0,1,3.744-5.264,4.927,4.927,0,0,1-.616-1.126A12.035,12.035,0,0,1,38.02-202l-.035.137a10.888,10.888,0,0,0-.186,3.62,2.164,2.164,0,0,1,1.765,2.126,2.155,2.155,0,0,1-.7,1.588,13.042,13.042,0,0,0,1.419,2.332m-.364,1.2a11.983,11.983,0,0,1-2.194-2.981,2.175,2.175,0,0,1-.329.027,2.165,2.165,0,0,1-2.165-2.165,2.163,2.163,0,0,1,1.222-1.946,12,12,0,0,1,.2-4.1,11.243,11.243,0,0,1,.32-1.16,11.969,11.969,0,0,1-2.092-6.779c0-.092,0-.183.006-.273-2.23,1.117-3.9,2.88-3.9,5.653a15.087,15.087,0,0,0,8.92,13.769l.011-.05m12.8-7.738a4.959,4.959,0,0,1-4.681,3.32,4.942,4.942,0,0,1-3.064-1.063,12.294,12.294,0,0,0-3.856,5.268,13.436,13.436,0,0,0,1.148,1.1,15.111,15.111,0,0,0,3.813.487A15.085,15.085,0,0,0,58.732-196.5a12.647,12.647,0,0,0-6.012-2.237" transform="translate(-30.991 212.275)" fill="#1287b1"/></g><g transform="translate(46.272 -207.986)"><g clip-path="url(#b)"><path d="M50.787-200.745l4.588-1.094-4.6-.235,3.747-2.864-4.252,1.524,2.89-4-3.991,2.656,1.392-4.688-2.741,3.864-.062-4.883-1.8,4.349-1.5-4.4.081,5.184-2.6-4.647,1.406,4.934-4.215-3.066,3.3,4.149-5.229-1.924,4.13,3.056-5.3.163,5.415,1.4-5.42,1.172,5.35.388-4.512,2.888,4.646-1.684-3.223,4.082,4.073-3.289-1.467,5.482,3.144-4.458-.441,5.265,1.785-4.773,1.519,5.017.369-5.032,2.255,4.293-1.332-4.91,4.129,3.2-2.666-4.078,4.53,1.765-3.464-3.4,4.645.365Z" transform="translate(-36.02 210.524)" fill="#fff"/></g></g><g transform="translate(12.202 -216.58)"><g transform="translate(0 1.084)" opacity="0.35" clip-path="url(#c)"><path d="M12.008-189.748c14.227-14.227,25.59-18.619,35.9-20.62,1.365-.266,1.623-3.247,1.623-3.247s.191,2.2,1.146,2.482,2.2-3.437,2.2-3.437-1.146,3.342,0,3.534,3.247-3.247,3.247-3.247-.859,2.96-.286,3.151,3.437-4.3,3.437-4.3-1.719,2.96-.1,3.247,3.992-2.024,3.992-2.024-1.862,2.11-1.032,2.4c3.534,1.242,6.392-3.35,6.392-3.35a15.459,15.459,0,0,1-2.381,4.21c3.723.955,6.494-4.655,6.494-4.655l-2.766,5.609c1.432.764,7.162-5.824,7.162-5.824s-2.96,5.156-4.679,6.206c.955.764,4.392-2.291,4.392-2.291s-2.769,3.437-1.719,3.628c1.528,1.241,7.161-6.4,7.161-6.4a38.719,38.719,0,0,1-5.442,8.02C79.464-205.295,86.2-214,86.2-214s-.191,2.769-5.061,7.161c3.628-.477,8.307-7.352,8.307-7.352a22.776,22.776,0,0,1-5.825,8.784c3.563-.371,9.261-9.166,9.261-9.166s-2.2,6.111-6.683,9.643c4.965,1.1,12.126-6.3,12.126-6.3s-2.817,5.252-6.494,7.4c4.106,1.575,9.74-4.917,9.74-4.917s-5.633,8.689-14.609,8.307c-2.945-.125-11.849-8.934-30.937-8.212-25.208.955-30.554,11.645-44.023,18.906" transform="translate(-12.008 215.815)" fill="#373535"/></g><path d="M12.42-190.51c14.227-14.227,25.589-18.618,35.9-20.62,1.365-.266,1.623-3.247,1.623-3.247s.191,2.193,1.146,2.482,2.2-3.437,2.2-3.437-1.146,3.342,0,3.533,3.247-3.247,3.247-3.247-.859,2.96-.287,3.151,3.437-4.3,3.437-4.3-1.719,2.96-.1,3.247,3.992-2.024,3.992-2.024-1.862,2.11-1.032,2.4c3.534,1.241,6.391-3.35,6.391-3.35a15.468,15.468,0,0,1-2.38,4.209c3.723.955,6.494-4.655,6.494-4.655l-2.775,5.61c1.432.759,7.161-5.824,7.161-5.824s-2.959,5.155-4.678,6.206c.955.764,4.392-2.291,4.392-2.291s-2.769,3.437-1.719,3.628c1.528,1.242,7.161-6.4,7.161-6.4a38.569,38.569,0,0,1-5.442,8.02c2.713,1.358,9.453-7.352,9.453-7.352s-.191,2.77-5.061,7.162c3.628-.478,8.307-7.353,8.307-7.353a22.779,22.779,0,0,1-5.825,8.785c3.563-.371,9.262-9.166,9.262-9.166s-2.2,6.111-6.683,9.644c4.965,1.1,12.126-6.3,12.126-6.3s-2.817,5.251-6.494,7.4c4.106,1.575,9.74-4.917,9.74-4.917s-5.633,8.689-14.61,8.307c-2.944-.126-11.852-8.939-30.936-8.212-25.207.955-30.554,11.649-44.017,18.905" transform="translate(-11.837 216.58)" fill="#373535"/></g><g transform="translate(11.543 -200.524)"><g transform="translate(0.287 0.859)" opacity="0.35" clip-path="url(#d)"><path d="M11.745-192.867c7.519,3.772,14.394-.573,23.059,1.869,6.588,1.857,14.609,4.146,25.493,2.57s20.195-6.3,24.636-14.752c1.384-3.771,7.017.86,7.017.86s-4.105-1.719-4.006-.907S94.1-199.6,94.1-199.6s-5.49-1.719-5.156-.43,6.874,6.445,6.874,6.445-7.4-5.633-8.02-4.87,3.151,3.868,3.151,3.868-6.254-3.868-8.45-2.727c-1.58.819,6.494,6.117,6.494,6.117s-5.252-4.011-6.494-2.96,5.92,9.644,5.92,9.644S80.3-193.3,79.49-192.867s2.243,4.631,2.243,4.631-4.006-4.393-5.108-3.628,5.729,12.174,5.729,12.174-7.4-11.7-10.455-9.74C76.7-178.9,74.907-177.4,74.907-177.4s-.612-10.74-6.589-10.456c-3.008.143,1.432,8.02,1.432,8.02s-4.09-7.195-6.808-7.051c5.016,9.487,3.228,13.353,3.228,13.353S67-181.639,60.2-186.151c2.578,2.291-1.618,12.618-1.618,12.618s3.69-15.222-2.722-12.313c-1.013.458-.072,7.591-.072,7.591s-1.289-8.164-3.222-7.734c-1.127.25-7.162,11.315-7.162,11.315s4.942-11.959,3.438-11.458c-1.1.366-3.151,5.3-3.151,5.3s1-4.87,0-5.156-6.589,5.156-6.589,5.156,4.153-4.87,3.437-5.873c-1.085-1.519-2.361-1.591-3.867-1-2.193.856-5.156,4.869-5.156,4.869s2.95-4.064,2.434-5.586c-.828-2.446-9.309,4.723-9.309,4.723s5.013-4.723,3.867-5.729-7.367-.692-9.31-.7c-5.729-.018-7.714-1.362-9.453-2.739" transform="translate(-11.745 204.658)" fill="#373535"/></g><path d="M11.543-193.472c7.519,3.772,14.394-.573,23.059,1.87,6.588,1.856,14.609,4.146,25.494,2.57s20.2-6.3,24.635-14.752c1.384-3.771,7.017.859,7.017.859s-4.105-1.718-4.006-.907S93.9-200.2,93.9-200.2s-5.49-1.718-5.156-.429,6.875,6.445,6.875,6.445-7.4-5.633-8.02-4.869,3.151,3.867,3.151,3.867-6.255-3.867-8.45-2.727c-1.58.82,6.493,6.117,6.493,6.117s-5.252-4.006-6.493-2.96,5.92,9.644,5.92,9.644-8.117-8.785-8.928-8.355,2.244,4.631,2.244,4.631-4.011-4.392-5.109-3.628S82.156-180.3,82.156-180.3s-7.4-11.7-10.455-9.739C76.5-179.509,74.709-178,74.709-178s-.612-10.74-6.589-10.455c-3.008.143,1.432,8.02,1.432,8.02s-4.09-7.195-6.807-7.052c5.016,9.493,3.227,13.353,3.227,13.353S66.8-182.246,60-186.757c2.578,2.291-1.618,12.619-1.618,12.619s3.691-15.222-2.721-12.313c-1.013.458-.072,7.591-.072,7.591s-1.29-8.163-3.222-7.734c-1.128.25-7.162,11.315-7.162,11.315s4.942-11.959,3.438-11.458c-1.1.365-3.151,5.3-3.151,5.3s1-4.869,0-5.156-6.588,5.156-6.588,5.156,4.153-4.869,3.437-5.872c-1.085-1.519-2.361-1.59-3.867-1-2.193.856-5.156,4.869-5.156,4.869s2.95-4.064,2.435-5.586c-.828-2.446-9.309,4.723-9.309,4.723s5.013-4.723,3.867-5.729-7.367-.692-9.31-.7c-5.729-.018-7.714-1.362-9.453-2.739" transform="translate(-11.543 205.264)" fill="#373535"/></g></g></g></svg>