<svg width="128" height="128" viewBox="0 0 128 128" fill="none" xmlns="http://www.w3.org/2000/svg">
<path fill-rule="evenodd" clip-rule="evenodd" d="M103.898 61.887C103.898 42.1679 85.9008 25 65.6564 25C50.7428 25 37.4412 33.7804 31.7163 46.2323C31.5173 46.2283 31.7174 46.2283 31.5173 46.2283C15.7979 46.2283 3 59.9651 3 75.2765C3 86.1757 7.66093 94.6571 17.052 99.1868C18.5497 97.6674 22.2619 97.6411 24.1779 96.6113C20.8123 95.5247 18.0738 93.2913 15.1483 91.1671C5.09026 83.8643 6.59834 66.0675 13.1949 60.0613C23.7624 50.4392 35.5206 52.8816 35.5206 52.8816L36.9806 49.7062C39.4149 44.4114 44.3122 29.0584 66.6839 29.3304C90.3454 29.6181 96.7877 53.983 96.7965 62.1054C96.7957 62.1384 96.7955 62.1719 96.7955 62.2052L96.783 67.9442L102.653 67.4476C103.118 67.4081 103.579 67.3881 104.024 67.3881C112.618 67.3881 121.394 73.9005 121.394 82.2712C121.394 90.6417 112.618 97.7493 104.024 97.7493H55.4367C55.9896 98.0252 61.5929 103 70.8189 103H104.024C115.609 103 125 93.8527 125 82.5687C125 71.2849 115.483 61.887 103.898 61.887Z" fill="#429AD4"/>
<path fill-rule="evenodd" clip-rule="evenodd" d="M88.9478 50.3906C86.7561 49.544 81.1244 50.1145 77.1681 51.7058C75.2272 52.4864 73.6878 53.5112 73.1587 54.7374C71.7069 58.1025 80.5994 63.9442 84.1838 62.8701C85.8917 62.3581 88.3445 58.6132 89.4372 55.3368C90.2143 53.0079 90.3052 50.9152 88.9478 50.3906Z" fill="#429AD4"/>
<path fill-rule="evenodd" clip-rule="evenodd" d="M69 53.0325C67.9468 52.9048 65.7698 52.6245 65.0749 51.8742C63.5203 50.1965 61.0285 49.7462 59.2174 50.1258C57.2977 50.5281 56.2763 52.6569 57.5941 55.3037C58.1871 56.4947 58.0367 57.93 57.4324 59C59.3197 57.3252 61.0838 55.9602 62.3928 55.3037C64.9726 54.0109 67.2605 53.3403 69 53.0325Z" fill="#429AD4"/>
<path fill-rule="evenodd" clip-rule="evenodd" d="M87.2699 77.8979C87.2699 77.8979 85.4172 83.9397 84.1205 86.694C82.9774 89.121 82.6154 88.9271 81.7893 89.2114C82.0998 88.4589 82.3236 87.4716 82.7309 85.8053C83.2208 83.801 82.7309 83.2734 82.7309 83.2734C82.0887 86.2728 81.09 88.4161 80.2418 89.8225C79.1411 90.1756 77.7881 90.4037 76.8025 90.0255C75.4132 89.4925 75.1772 83.2286 75.1772 82.8735C81.2237 83.2734 84.4446 80.9188 87.2699 77.8979ZM57.5468 71.295C57.6747 71.8764 57.8173 72.4218 57.9662 72.9506C57.8736 72.851 57.8247 72.7969 57.8247 72.7969C57.8247 72.7969 57.9433 73.0601 58.1264 73.5121C58.3806 74.3448 58.6613 75.1061 58.9606 75.8105C59.9551 78.8736 61.0153 83.5757 59.4347 86.5239C58.2527 88.7283 43.2371 98.6752 68.9032 103L91.9428 97.8834C81.7935 96.5658 85.8703 88.7446 88.2888 84.5615C91.1914 79.5404 92.1822 76.3432 92.8073 71.7309C93.1835 68.9582 92.9067 66.8835 92.8276 66.3841C92.8152 66.3086 92.8073 66.2666 92.8073 66.2666C92.8073 66.2666 92.7963 66.4217 92.7665 66.6873L92.8073 66C92.8073 66 90.9749 73.0635 87.3625 75.5956C86.5219 76.1845 85.9839 76.5767 85.639 76.8405C86.0031 75.5239 87.3678 69.9732 85.4173 66.9332C85.4173 66.9332 84.6091 79.7037 77.5102 80.3817C70.4112 81.0596 60.4074 74.093 57.5468 71.295Z" fill="#429AD4"/>
<path fill-rule="evenodd" clip-rule="evenodd" d="M36.5152 70.5145C36.2366 72.0431 36.1169 73.4194 36.1603 74.6318C34.8128 76.7283 25.0837 99.4277 13 89.228C15.0676 91.007 16.8089 98.9385 16.8089 98.9385C28.1746 105.457 36.0447 79.8929 36.9433 78.2163C37.6761 79.7526 38.9136 82.8722 45.7824 83.0111C45.7824 83.0111 37.7244 79.1341 41.3213 68.8454C44.9182 58.5567 50.2352 49.8245 57.5365 45.7869C64.8374 41.7494 72.2145 42.0248 79 44.866C79 44.866 68.7594 35.6268 56.9922 42.6106C50.2314 46.6232 45.7302 51.0757 42.6318 55.639C40.0337 56.0943 36.8747 55.6829 35.594 55.6829C33.9749 55.6829 31.4772 56.7607 32.6061 60.6612C33.7117 64.4808 36.7634 68.3436 36.5152 70.5145Z" fill="#429AD4"/>
</svg>
