<?xml version="1.0" encoding="UTF-8"?>
<!DOCTYPE svg PUBLIC "-//W3C//DTD SVG 1.1//EN" "http://www.w3.org/Graphics/SVG/1.1/DTD/svg11.dtd">
<svg xmlns="http://www.w3.org/2000/svg" version="1.1" width="128px" height="128px" style="shape-rendering:geometricPrecision; text-rendering:geometricPrecision; image-rendering:optimizeQuality; fill-rule:evenodd; clip-rule:evenodd" xmlns:xlink="http://www.w3.org/1999/xlink">
<g><path style="opacity:0.994" fill="#4199d4" d="M 138.5,60.5 C 179.516,57.0871 209.683,73.4204 229,109.5C 233.708,119.662 235.874,130.328 235.5,141.5C 267.616,145.784 282.782,164.118 281,196.5C 276.82,215.682 265.32,228.182 246.5,234C 214.833,234.667 183.167,234.667 151.5,234C 142.08,232.121 133.914,227.954 127,221.5C 124.853,216.673 125.186,212.006 128,207.5C 131.85,203.108 135.183,198.441 138,193.5C 138.667,189.5 138.667,185.5 138,181.5C 136.466,175.124 134.966,168.791 133.5,162.5C 137.513,164.322 141.18,166.822 144.5,170C 152.603,175.882 161.603,179.882 171.5,182C 175.962,182.846 179.962,181.846 183.5,179C 189.175,171.158 192.175,162.324 192.5,152.5C 194.124,152.36 195.29,153.027 196,154.5C 196.333,160.167 196.667,165.833 197,171.5C 203.17,165.826 206.67,158.826 207.5,150.5C 208.5,150.5 209.5,150.5 210.5,150.5C 210.895,159.951 210.062,169.285 208,178.5C 204.005,187.156 200.005,195.823 196,204.5C 193.421,212.35 195.921,217.517 203.5,220C 218.213,220.913 232.88,220.58 247.5,219C 261.28,213.091 269.28,202.758 271.5,188C 268.8,171.296 259.133,160.962 242.5,157C 234.485,156.442 226.485,156.609 218.5,157.5C 220.499,129.037 211.499,104.871 191.5,85C 167.763,68.623 143.096,67.2897 117.5,81C 103.909,91.8953 94.5758,105.729 89.5,122.5C 69.3343,121.847 52.1676,128.513 38,142.5C 27.6125,160.446 26.9459,178.78 36,197.5C 44.4209,209.425 54.5876,211.259 66.5,203C 78.1836,192.45 85.8503,179.617 89.5,164.5C 88.4202,157.333 85.9202,150.667 82,144.5C 79.2699,138.623 80.1033,133.456 84.5,129C 86.0344,128.077 87.701,127.577 89.5,127.5C 93.8093,128.465 98.1426,128.631 102.5,128C 111.595,116.571 122.261,106.904 134.5,99C 150.614,90.3469 166.281,91.1802 181.5,101.5C 183.321,102.728 184.321,104.394 184.5,106.5C 154.042,96.1403 130.542,104.807 114,132.5C 108.851,142.468 104.517,152.801 101,163.5C 99.3662,174.892 103.2,183.892 112.5,190.5C 103.917,192.251 97.0833,189.584 92,182.5C 87.0466,198.58 78.8799,212.747 67.5,225C 62.0245,229.448 56.0245,230.448 49.5,228C 31.0417,219.271 20.2083,204.771 17,184.5C 13.3347,147.3 28.8347,122.134 63.5,109C 68.5211,108.276 73.5211,107.442 78.5,106.5C 91.2973,81.6948 111.297,66.3615 138.5,60.5 Z M 189.5,196.5 C 189.5,193.833 189.5,191.167 189.5,188.5C 188.5,188.5 187.5,188.5 186.5,188.5C 189.021,186.981 191.521,185.314 194,183.5C 193.072,188.024 191.572,192.357 189.5,196.5 Z M 186.5,188.5 C 186.37,193.645 184.87,198.312 182,202.5C 179.53,204.731 177.197,204.731 175,202.5C 174.358,198.509 173.858,194.509 173.5,190.5C 177.962,190.577 182.295,189.91 186.5,188.5 Z"/></g>
<g><path style="opacity:0.727" fill="#4199d4" d="M 138.5,115.5 C 143.577,115.689 147.91,117.522 151.5,121C 154.121,121.939 156.788,122.772 159.5,123.5C 154.659,125.736 149.659,127.902 144.5,130C 141.064,132.386 137.731,134.886 134.5,137.5C 133.825,132.919 132.825,128.419 131.5,124C 131.923,119.424 134.256,116.59 138.5,115.5 Z"/></g>
<g><path style="opacity:1" fill="#4199d4" d="M 191.5,115.5 C 195.247,115.392 198.914,115.892 202.5,117C 204.045,118.822 204.712,120.989 204.5,123.5C 203.21,131.862 199.543,139.029 193.5,145C 184.008,145.947 175.842,143.114 169,136.5C 167.674,134.017 166.507,131.517 165.5,129C 165.703,126.594 166.703,124.594 168.5,123C 175.65,118.636 183.317,116.136 191.5,115.5 Z"/></g>
</svg>
