<svg xmlns="http://www.w3.org/2000/svg" width="128" height="128" viewBox="0 0 128 128"><g transform="translate(-3869 -146)"><rect width="128" height="128" transform="translate(3869 146)" fill="none"/><g transform="translate(3864 17.909)"><path d="M24,196.042v-8.9a4.472,4.472,0,0,0,.374-1.014,40.926,40.926,0,0,1,5.763-17.022c6.77-11.027,16.386-18.263,29.242-20.939,1.617-.337,3.226-.717,4.838-1.077h8.937a4.49,4.49,0,0,0,1.017.373A41.255,41.255,0,0,1,91.263,153.2c11.071,6.742,18.342,16.316,21.028,29.121.338,1.61.72,3.211,1.082,4.816v8.9a6.373,6.373,0,0,0-.387,1.2,42.435,42.435,0,0,1-5.838,17.008A43.625,43.625,0,0,1,83,233.744c-12.843,4.248-25.4,3.032-37.032-3.873-11.085-6.58-18.224-16.27-20.891-29.01C24.744,199.25,24.362,197.649,24,196.042Zm44.7-45.264a40.808,40.808,0,1,0,40.967,40.83A40.973,40.973,0,0,0,68.7,150.778Z" transform="translate(0)" fill="#142b52"/><path d="M24,278.543c.362,1.606.744,3.208,1.081,4.819,2.667,12.74,9.806,22.43,20.891,29.01,11.632,6.905,24.19,8.121,37.032,3.873a43.625,43.625,0,0,0,24.144-19.5,42.435,42.435,0,0,0,5.838-17.008,6.373,6.373,0,0,1,.387-1.2v40.422H24Z" transform="translate(0 -82.501)" fill="#fff"/><path d="M64.218,147.091c-1.612.36-3.221.74-4.838,1.077-12.857,2.675-22.472,9.911-29.242,20.939a40.926,40.926,0,0,0-5.763,17.022A4.472,4.472,0,0,1,24,187.142V147.091Z" transform="translate(0)" fill="#fff"/><path d="M196.218,187.142c-.362-1.605-.744-3.206-1.082-4.816-2.686-12.8-9.957-22.378-21.028-29.121a41.255,41.255,0,0,0-17.091-5.741,4.49,4.49,0,0,1-1.017-.373h40.218Z" transform="translate(-82.845)" fill="#fff"/><path d="M74.962,156.993A40.807,40.807,0,1,1,33.973,197.6,41.026,41.026,0,0,1,74.962,156.993Zm4.713,48.214.3-.271c.308.288.613.579.922.865,3.951,3.651,7.926,7.278,11.838,10.971.935.883,1.394.6,1.946-.5L82.169,202.828l.167-.278,17.433,6.432c.93-1.115.549-1.645-.454-2.09-2.715-1.206-5.406-2.463-8.108-3.7l-7.665-3.5a42.5,42.5,0,0,1,6.871-.446c3.535-.088,7.07-.209,10.6-.417.487-.029.94-.633,1.409-.971-.441-.361-.835-.922-1.334-1.04a11.516,11.516,0,0,0-2.593-.134q-7.4-.013-14.8,0l-.07-.652c.294-.169.577-.361.884-.5,4.945-2.269,9.884-4.552,14.847-6.781,1.047-.47,1.3-1,.464-2.087L82.3,193.115l-.12-.295,12.657-13.574-1.249-1.189L80,190.605l-.282-.183,6.478-17.4-.484-.534c-.518.309-1.28.493-1.514.947-1.189,2.3-2.252,4.667-3.338,7.021-1.348,2.921-2.674,5.852-4.01,8.779a3.039,3.039,0,0,1-.417-1.754c-.12-5-.218-10.006-.392-15.008-.027-.779.46-2.066-1.133-2.02s-1.023,1.331-1.051,2.1c-.182,5-.274,10-.4,15.007-.013.511-.055,1.022-.085,1.533l-.321.056-7.633-16.721c-1.122.1-1.983.2-1.483,1.531.891,2.364,1.765,4.733,2.657,7.1q1.746,4.624,3.508,9.242l-.3.143L56.26,177.868l-1.306,1.377,12.594,13.429-.161.274-17.5-6.5-.477,1.849,16.666,7.548-.09.7H47.413l.2,2.637H66l.068.6-16.684,7.548c.225,1.025.239,1.966,1.6,1.451,2.371-.894,4.752-1.76,7.125-2.648q4.644-1.739,9.282-3.494l.145.3-12.619,13.48,1.383,1.3,13.485-12.542.276.159-6.526,17.431,1.847.475,7.621-16.634.744.164V225.08h2.5V206.523l.551-.015c.144.263.305.518.431.79,2.276,4.926,4.57,9.843,6.8,14.789.525,1.163,1.1,1.29,2.11.457Z" transform="translate(-6.259 -6.215)" fill="#fff"/><path d="M102.327,227.884l6.467,17.337c-1.015.833-1.585.706-2.11-.457-2.231-4.946-4.526-9.863-6.8-14.789-.125-.272-.286-.527-.431-.79l-.551.015v18.558H96.4V229.446l-.744-.164-7.621,16.634-1.847-.475,6.526-17.431-.276-.159L78.958,240.392l-1.383-1.3,12.619-13.48-.145-.3q-4.64,1.748-9.282,3.494c-2.372.888-4.754,1.753-7.125,2.648-1.364.515-1.378-.426-1.6-1.451l16.684-7.548-.068-.6H70.268l-.2-2.637H88.633l.09-.7-16.666-7.548.477-1.849,17.5,6.5.161-.274L77.6,201.922l1.306-1.377,13.536,12.566.3-.143q-1.754-4.621-3.508-9.242c-.892-2.363-1.766-4.732-2.657-7.1-.5-1.326.361-1.428,1.483-1.531L95.7,211.82l.321-.056c.029-.511.071-1.022.085-1.533.126-5,.217-10.006.4-15.007.028-.766-.528-2.053,1.051-2.1s1.106,1.241,1.133,2.02c.174,5,.273,10,.392,15.008a3.039,3.039,0,0,0,.417,1.754c1.336-2.927,2.662-5.858,4.01-8.779,1.086-2.353,2.149-4.719,3.338-7.021.235-.454,1-.638,1.514-.947l.484.534-6.478,17.4.282.183,13.59-12.549,1.249,1.189L104.831,215.5l.12.295,17.517-6.461c.832,1.083.583,1.617-.464,2.087-4.963,2.229-9.9,4.511-14.847,6.781-.307.141-.59.333-.884.5l.07.652q7.4,0,14.8,0a11.516,11.516,0,0,1,2.593.134c.5.118.893.678,1.334,1.04-.469.338-.922.943-1.409.971-3.529.208-7.064.329-10.6.417a42.5,42.5,0,0,0-6.871.446l7.665,3.5c2.7,1.236,5.393,2.492,8.108,3.7,1,.445,1.384.975.454,2.09l-17.433-6.432-.167.278,12.517,13.448c-.552,1.1-1.011,1.379-1.946.5-3.912-3.693-7.887-7.32-11.838-10.971-.309-.286-.615-.577-.922-.865Z" transform="translate(-28.91 -28.891)" fill="#142b52"/></g></g></svg>