<svg width="128" height="128" viewBox="0 0 128 128" fill="none" xmlns="http://www.w3.org/2000/svg">
<path d="M16 68.183V58.6956C16.1756 58.3527 16.3091 57.9898 16.3975 57.6147C17.0737 51.1857 19.1661 44.9878 22.5234 39.4691C29.7196 27.7143 39.9411 20.0007 53.6065 17.1481C55.3253 16.7889 57.0356 16.3838 58.7491 16H68.2488C68.5918 16.1758 68.9548 16.3093 69.3298 16.3976C75.7614 17.0679 81.9656 19.1563 87.4979 22.5133C99.266 29.7003 106.995 39.9062 109.85 53.5564C110.209 55.2726 110.615 56.9793 111 58.6902V68.1777C110.821 68.5894 110.683 69.0179 110.589 69.4569C109.835 75.8756 107.719 82.0579 104.383 87.5875C98.6571 97.4375 89.5223 104.835 78.7147 108.373C65.0631 112.902 51.7155 111.606 39.3511 104.245C27.5682 97.2305 19.9797 86.901 17.1448 73.3201C16.7908 71.6027 16.3848 69.8961 16 68.183ZM63.5143 19.9314C54.9434 19.9649 46.5744 22.5441 39.4639 27.3434C32.3533 32.1426 26.8198 38.9469 23.5619 46.8973C20.304 54.8477 19.4677 63.5878 21.1585 72.0144C22.8494 80.441 26.9916 88.1764 33.0624 94.2442C39.1332 100.312 46.8603 104.44 55.2685 106.108C63.6767 107.775 72.389 106.907 80.3058 103.613C88.2225 100.319 94.9888 94.7474 99.7505 87.6004C104.512 80.4534 107.056 72.0519 107.061 63.4563C107.02 51.8999 102.415 40.8305 94.253 32.6725C86.091 24.5146 75.0378 19.933 63.5143 19.9314Z" fill="#142B52"/>
<path d="M68.6039 71.5383L75.5409 90.2603C74.4521 91.1599 73.8407 91.0227 73.2776 89.7668C70.8844 84.4257 68.4226 79.1159 65.9833 73.7963C65.8492 73.5026 65.6765 73.2272 65.5209 72.9432L64.9299 72.9594V93H62.246V73.2251L61.4479 73.048L53.273 91.0108L51.2917 90.4979L58.2921 71.6744L57.996 71.5027L43.5362 85.0455L42.0527 83.6417L55.5889 69.0848L55.4334 68.7608C52.1152 70.0192 48.7963 71.277 45.4767 72.534C42.9323 73.4929 40.3771 74.427 37.8338 75.3935C36.3706 75.9496 36.3556 74.9335 36.1175 73.8266L54.0142 65.6756L53.9413 65.0276H34.2145L34 62.18H53.9145L54.011 61.4241L36.1336 53.2731L36.6452 51.2763L55.4173 58.2956L55.59 57.9997L42.0795 43.5022L43.4804 42.0152L58.0003 55.5851L58.3221 55.4307C57.0678 52.1039 55.8135 48.7771 54.5591 45.4503C53.6023 42.8986 52.6648 40.3403 51.709 37.7831C51.1727 36.3512 52.0962 36.241 53.2998 36.1298L61.4951 54.191L61.8395 54.1305C61.8706 53.5787 61.9156 53.0268 61.9307 52.475C62.0658 47.0756 62.1634 41.6696 62.3597 36.2691C62.3898 35.4419 61.7934 34.0521 63.4871 34.0014C65.1809 33.9506 64.6735 35.3415 64.7025 36.1827C64.8891 41.5822 64.9953 46.9816 65.123 52.3897C65.0783 53.0521 65.2343 53.7125 65.5703 54.2838C67.0034 51.123 68.4258 47.9578 69.8718 44.8035C71.0367 42.2625 72.177 39.7075 73.4524 37.2216C73.7045 36.7313 74.5251 36.5326 75.0765 36.1989L75.5956 36.7756L68.6468 55.5657L68.9493 55.7633L83.5271 42.2118L84.8669 43.4957L71.2899 58.165L71.4186 58.4835L90.2089 51.5064C91.1013 52.6759 90.8342 53.2525 89.7111 53.7601C84.3874 56.1672 79.0915 58.6315 73.7849 61.0828C73.4556 61.2351 73.1521 61.4424 72.8367 61.6228L72.9118 62.3268C78.2037 62.3268 83.4956 62.3268 88.7876 62.3268C89.7172 62.2694 90.6503 62.3179 91.569 62.4716C92.1054 62.599 92.5269 63.2037 93 63.5946C92.4969 63.9596 92.011 64.613 91.4886 64.6432C87.7031 64.8678 83.9111 64.9985 80.1181 65.0935C77.6524 65.0531 75.1875 65.2142 72.7477 65.5751L80.9698 69.3548C83.8661 70.6895 86.7548 72.0458 89.6672 73.3503C90.7398 73.8309 91.1518 74.4032 90.1542 75.6073L71.454 68.6615L71.2748 68.9617L84.7017 83.484C84.1096 84.6719 83.6172 84.9732 82.6142 84.024C78.4179 80.0359 74.1539 76.1192 69.9158 72.1765C69.5843 71.8677 69.256 71.5534 68.9267 71.2424L68.6039 71.5383Z" fill="#142B52"/>
</svg>
