<svg width="128" height="128" viewBox="0 0 128 128" fill="none" xmlns="http://www.w3.org/2000/svg">
<g clip-path="url(#clip0_6177_31586)">
<path d="M106.078 28.9042L87.4309 19.9212C86.3777 19.4139 85.1928 19.2466 84.0402 19.4425C82.8877 19.6383 81.8246 20.1875 80.9979 21.0142L19.9479 76.6782C19.5597 77.0316 19.2496 77.4622 19.0374 77.9423C18.8252 78.4225 18.7156 78.9417 18.7156 79.4667C18.7156 79.9916 18.8252 80.5108 19.0374 80.991C19.2496 81.4712 19.5597 81.9018 19.9479 82.2552L24.9379 86.7892C25.5894 87.3815 26.4276 87.7271 27.3073 87.7662C28.1869 87.8053 29.0525 87.5354 29.7539 87.0032L103.278 31.2302C103.833 30.8112 104.495 30.5553 105.188 30.4911C105.881 30.4269 106.578 30.5571 107.201 30.8669C107.824 31.1768 108.348 31.6541 108.715 32.2453C109.082 32.8366 109.277 33.5183 109.278 34.2142V33.9972C109.277 32.9332 108.977 31.891 108.411 30.9901C107.845 30.0893 107.036 29.3663 106.078 28.9042Z" fill="#0065A9"/>
<path d="M106.078 99.8681L87.4309 108.847C86.3778 109.354 85.1931 109.521 84.0408 109.325C82.8885 109.13 81.8255 108.58 80.9989 107.754L19.9479 52.0901C19.5597 51.7366 19.2496 51.3061 19.0374 50.8259C18.8252 50.3457 18.7156 49.8265 18.7156 49.3016C18.7156 48.7766 18.8252 48.2574 19.0374 47.7772C19.2496 47.297 19.5597 46.8665 19.9479 46.5131L24.9379 41.9791C25.5894 41.3868 26.4276 41.0411 27.3073 41.002C28.1869 40.9629 29.0525 41.2329 29.7539 41.7651L103.278 97.5361C103.833 97.9549 104.494 98.2109 105.187 98.2751C105.88 98.3393 106.577 98.2093 107.2 97.8997C107.823 97.5901 108.347 97.1131 108.714 96.5222C109.081 95.9312 109.276 95.2497 109.278 94.5541V94.7711C109.278 95.8357 108.978 96.8788 108.412 97.7804C107.846 98.6821 107.037 99.4057 106.078 99.8681Z" fill="#007ACC"/>
<path d="M87.4309 108.848C86.3774 109.355 85.1925 109.522 84.04 109.325C82.8875 109.129 81.8245 108.58 80.9979 107.753C81.4614 108.216 82.0518 108.532 82.6946 108.66C83.3373 108.788 84.0036 108.722 84.609 108.471C85.2145 108.22 85.732 107.796 86.0962 107.251C86.4603 106.706 86.6548 106.066 86.6549 105.41V23.3572C86.6548 22.7018 86.4603 22.0612 86.0962 21.5164C85.732 20.9715 85.2145 20.5469 84.609 20.2961C84.0036 20.0453 83.3373 19.9797 82.6946 20.1075C82.0518 20.2353 81.4614 20.5508 80.9979 21.0142C81.8246 20.1876 82.8876 19.6382 84.04 19.4421C85.1925 19.2459 86.3774 19.4126 87.4309 19.9192L106.077 28.8862C107.037 29.3481 107.848 30.0718 108.415 30.9741C108.982 31.8764 109.282 32.9205 109.282 33.9862V94.7862C109.282 95.8518 108.982 96.8959 108.415 97.7982C107.848 98.7005 107.037 99.4242 106.077 99.8862L87.4309 108.848Z" fill="#1F9CF0"/>
<g opacity="0.25">
<path fill-rule="evenodd" clip-rule="evenodd" d="M82.9 109.021C83.6202 109.302 84.3905 109.431 85.163 109.402C85.9354 109.372 86.6935 109.184 87.39 108.848L106.025 99.8811C106.984 99.4185 107.794 98.6944 108.36 97.7922C108.926 96.89 109.226 95.8462 109.225 94.7811V33.9841C109.226 32.919 108.926 31.8753 108.36 30.973C107.794 30.0708 106.984 29.3467 106.025 28.8841L87.39 19.9191C86.337 19.4121 85.1524 19.2451 84.0004 19.4413C82.8483 19.6375 81.7857 20.1871 80.96 21.0141L45.287 53.5601L29.748 41.7651C29.047 41.233 28.1819 40.963 27.3028 41.0021C26.4236 41.0412 25.5859 41.3869 24.935 41.9791L19.951 46.5121C19.563 46.8657 19.2532 47.2963 19.0411 47.7765C18.8291 48.2566 18.7196 48.7757 18.7196 49.3006C18.7196 49.8255 18.8291 50.3446 19.0411 50.8248C19.2532 51.3049 19.563 51.7355 19.951 52.0891L33.423 64.3841L19.947 76.6781C19.559 77.0317 19.2492 77.4623 19.0371 77.9425C18.8251 78.4226 18.7156 78.9417 18.7156 79.4666C18.7156 79.9915 18.8251 80.5106 19.0371 80.9908C19.2492 81.4709 19.559 81.9015 19.947 82.2551L24.931 86.7881C25.5819 87.3804 26.4196 87.726 27.2988 87.7651C28.1779 87.8042 29.043 87.5343 29.744 87.0021L45.287 75.2041L80.96 107.753C81.5117 108.306 82.1723 108.738 82.9 109.021ZM86.614 43.8371L59.546 64.3841L86.614 84.9311V43.8371Z" fill="white"/>
</g>
</g>
<defs>
<clipPath id="clip0_6177_31586">
<rect width="128" height="128" fill="white"/>
</clipPath>
</defs>
</svg>
