<svg xmlns="http://www.w3.org/2000/svg" width="128" height="128" viewBox="0 0 128 128"><g transform="translate(-229 -122)"><rect width="128" height="128" transform="translate(229 122)" fill="none"/><g transform="translate(251.018 139.409)"><path d="M14.344,26H75.706A21.937,21.937,0,0,0,92.559,18.06,46.22,46.22,0,0,0,14.344,26" transform="translate(-9.692)" fill="#f0bf1a"/><path d="M60.814,102.444H1.867a46.211,46.211,0,0,0,0,26H60.814a13,13,0,1,0,0-26" transform="translate(0 -69.22)" fill="#07a5de"/><path d="M92.717,212.628A21.891,21.891,0,0,0,76,204.887H14.345a46.224,46.224,0,0,0,78.372,7.741" transform="translate(-9.692 -138.439)" fill="#3ebeb0"/><path d="M1.867,102.444a46.211,46.211,0,0,0,0,26h38.58a51.7,51.7,0,0,0,1.589-13,51.7,51.7,0,0,0-1.589-13Z" transform="translate(0 -69.22)" fill="#231f20"/><path d="M32.6,19.153a47.567,47.567,0,0,0-18.345,19.79H48.344A50.286,50.286,0,0,0,32.6,19.153" transform="translate(-9.63 -12.941)" fill="#d7a229"/><path d="M34.043,225.4a51.55,51.55,0,0,0,15.312-20.512h-35.1A47.6,47.6,0,0,0,34.043,225.4" transform="translate(-9.63 -138.439)" fill="#019b8f"/></g></g></svg>