<svg width="128" height="128" viewBox="0 0 128 128" fill="none" xmlns="http://www.w3.org/2000/svg">
<g clip-path="url(#clip0_6177_31597)">
<path d="M26.67 43.4091H88.032C91.2517 43.4035 94.4307 42.6892 97.3433 41.317C100.256 39.9448 102.831 37.9482 104.885 35.4691C100.087 29.2237 93.7724 24.308 86.5408 21.1884C79.3093 18.0689 71.4005 16.8489 63.565 17.6443C55.7296 18.4397 48.2273 21.2241 41.7702 25.7333C35.3131 30.2425 30.1153 36.3269 26.67 43.4091Z" fill="#F0BF1A"/>
<path d="M82.8321 50.6331H23.8851C21.3967 59.1211 21.3967 68.145 23.8851 76.6331H82.8321C86.2799 76.6331 89.5865 75.2634 92.0244 72.8254C94.4624 70.3875 95.8321 67.0809 95.8321 63.6331C95.8321 60.1852 94.4624 56.8786 92.0244 54.4407C89.5865 52.0027 86.2799 50.6331 82.8321 50.6331Z" fill="#07A5DE"/>
<path d="M105.043 91.5982C102.986 89.1706 100.426 87.2205 97.5385 85.8836C94.6514 84.5467 91.5076 83.8552 88.326 83.8572H26.671C30.126 90.9586 35.3428 97.0565 41.8239 101.569C48.305 106.082 55.8341 108.859 63.6932 109.635C71.5523 110.411 79.4792 109.161 86.7178 106.003C93.9565 102.846 100.265 97.8865 105.043 91.5982Z" fill="#3EBEB0"/>
<path d="M23.8851 50.6331C21.3967 59.1211 21.3967 68.145 23.8851 76.6331H62.465C63.5437 72.3846 64.0776 68.0162 64.0541 63.6331C64.0776 59.2499 63.5437 54.8815 62.465 50.6331H23.8851Z" fill="#231F20"/>
<path d="M44.9881 23.6211C37.0909 28.3086 30.7195 35.1818 26.6431 43.4111H60.7321C57.2556 35.581 51.8362 28.7689 44.9881 23.6211Z" fill="#D7A229"/>
<path d="M46.4311 104.37C53.1784 98.9289 58.4448 91.8741 61.7431 83.8582H26.6431C30.9892 92.5561 37.8949 99.7144 46.4311 104.37Z" fill="#019B8F"/>
</g>
<defs>
<clipPath id="clip0_6177_31597">
<rect width="128" height="128" fill="white"/>
</clipPath>
</defs>
</svg>
