<svg xmlns="http://www.w3.org/2000/svg" xmlns:xlink="http://www.w3.org/1999/xlink" width="128" height="128" viewBox="0 0 128 128"><defs><linearGradient id="a" x1="0.5" y1="1.577" x2="0.5" gradientUnits="objectBoundingBox"><stop offset="0" stop-color="#fff200"/><stop offset="1" stop-color="#f15a29"/></linearGradient></defs><g transform="translate(-2449 -122)"><rect width="128" height="128" transform="translate(2449 122)" fill="none"/><g transform="translate(2471.579 140.499)"><path d="M60.236,90.978c-.563-.074-6.87-1.015-10.524-6.229l-.009-.014-.4.018-.4.014-.2,0h-.311c-.635.005-1.274-.009-1.913-.036A36.923,36.923,0,0,1,38.864,83.6c-.826-.215-1.649-.457-2.456-.732a22.683,22.683,0,0,1-14.594,4.45,19.67,19.67,0,0,1-.375-13.949c-.643-.672-1.264-1.366-1.854-2.083A37.288,37.288,0,0,1,15.84,65.8c-.01.005-.014.014-.023.018S7.3,65.3,0,56.9A23.427,23.427,0,0,1,11.341,43.724c.041-.352.082-.7.128-1.05a44.114,44.114,0,0,1,1.548-7.047q.288-.954.625-1.887c-.9-1.15-5.449-7.5-4.681-17.571a23.606,23.606,0,0,1,17.877-.736s.1.046.238.11c.927-.649,1.882-1.247,2.85-1.79a31.981,31.981,0,0,1,3.055-1.5c.512-.228,1.038-.43,1.553-.631s1.042-.379,1.566-.539c.38-.123.759-.228,1.137-.338.041-.224.074-.356.074-.356S38.613,4.317,45.455,0a17.019,17.019,0,0,1,8.262,9.678c.169.028.334.05.5.073q1.432.219,2.813.544c.919.215,1.818.471,2.7.75s1.735.594,2.571.931c.2.082.393.164.585.247a14.056,14.056,0,0,1,9.167-2.357,13.24,13.24,0,0,1,1.557,9.5,34.328,34.328,0,0,1,6.778,9.272,32.629,32.629,0,0,1,2.356,6.271,30.949,30.949,0,0,1,.913,5.234,30.613,30.613,0,0,1,.11,3.234.719.719,0,0,1-1.416.16c-.219-.855-.5-1.841-.882-2.932-.233-.681-.516-1.393-.827-2.147-.082-.183-.164-.375-.247-.567s-.178-.382-.269-.58-.188-.393-.284-.59c-.045-.1-.1-.2-.146-.3s-.1-.2-.155-.3a32.639,32.639,0,0,0-3.193-4.992c-.653-.844-1.379-1.685-2.16-2.511-.2-.211-.4-.412-.6-.617s-.416-.407-.631-.608-.43-.4-.654-.6c-.109-.1-.219-.2-.333-.3s-.229-.2-.343-.292a31.234,31.234,0,0,0-6.339-4.134,29.835,29.835,0,0,0-7.765-2.58,30.556,30.556,0,0,0-4.276-.476q-1.089-.035-2.2,0l-.556.028-.138,0-.068.005c.1,0-.014,0-.014,0l-.323.023-.654.041-.16.01L49,19.142l-.269.028c-.138.013-.27.027-.407.041-.177.023-.465.055-.645.078-.213.032-.433.05-.649.086-.19.028-.382.06-.574.087l-.288.046-.288.05c-.188.037-.379.069-.571.1s-.38.078-.572.119-.379.073-.565.124c-.375.095-.753.182-1.124.287-.182.055-.374.1-.557.156s-.366.114-.552.169c-.73.238-1.461.489-2.17.791-.178.068-.355.146-.53.223l-.526.234c-.347.169-.693.329-1.031.51A22.3,22.3,0,0,0,35.7,23.44c-.644.42-1.269.867-1.872,1.351a23.046,23.046,0,0,0-1.741,1.549,26.747,26.747,0,0,0-5.522,7.965,33.705,33.705,0,0,0-1.786,4.837c-.238.835-.448,1.69-.626,2.549s-.32,1.731-.429,2.593-.179,1.727-.211,2.568c0,.206-.013.416-.013.621v.261l0,.4v.293l.005.068.009.279,0,.142v.069l.005.077.018.32a25.169,25.169,0,0,0,.846,5.038A25.58,25.58,0,0,0,41.961,72.193a25.192,25.192,0,0,0,5.184.935c.439.032.876.055,1.321.064l.082.005c-.005.005.128.005.012.005h.608l.265-.005h.133l.151-.005a18.426,18.426,0,0,0,2.456-.246A19.014,19.014,0,0,0,56.878,71.5,19.352,19.352,0,0,0,66.8,61.035a18.97,18.97,0,0,0,.75-2.321c.1-.393.187-.789.27-1.187s.141-.8.192-1.205.086-.818.117-1.224c.009-.183.023-.48.032-.663l.005-.274v-.242c0-.069-.005-.174-.005-.265s0-.188-.009-.284l-.014-.283-.023-.283c-.032-.375-.077-.75-.132-1.119a14.43,14.43,0,0,0-1.379-4.244,14.922,14.922,0,0,0-6.074-6.3,15.252,15.252,0,0,0-6.2-1.859l-.27-.019-.068,0c-.032-.005.037-.005-.032-.005l-.169,0-.27-.009c-.068,0-.137-.005-.224-.005-.333,0-.667.014-1,.041a11.322,11.322,0,0,0-3.8,1.015,11.552,11.552,0,0,0-1.7.968,11.938,11.938,0,0,0-5,7.764c-.055.3-.1.6-.133.9-.009.077-.018.15-.023.228l-.009.114,0,.055c0,.005,0,.069,0,.028-.009.155-.013.306-.023.461a9.528,9.528,0,0,0,.11,1.681A9.353,9.353,0,0,0,42.8,55.6a9.658,9.658,0,0,0,1.982,2.485,10.011,10.011,0,0,0,5.28,2.465c.115.019.229.032.343.046.06.009.114.014.174.018l.087.01.041,0c-.05.005.014.005.014.005.128,0,.254.013.384.018.1,0,.2.005.306.005s.209-.005.314-.01a2.389,2.389,0,0,0,.32-.018c.21-.018.416-.05.622-.078a9.446,9.446,0,0,0,1.182-.292,8.711,8.711,0,0,0,1.079-.443c.1-.051.2-.1.3-.156a.932.932,0,0,1,1.027,1.549c-.1.082-.21.164-.32.242a10.353,10.353,0,0,1-1.242.757,10.15,10.15,0,0,1-1.439.6c-.26.077-.521.16-.79.219-.137.037-.274.064-.411.091s-.27.055-.426.074c-.077.009-.15.022-.228.031l-.114.014a1.006,1.006,0,0,1-.1.014c-.124.014-.252.023-.375.036l-.233.014c-.078,0-.156.009-.233.009-.146.005-.293.009-.439.009a12.849,12.849,0,0,1-3.677-.525,13.218,13.218,0,0,1-3.7-1.759,13.589,13.589,0,0,1-5.389-7.457,14.013,14.013,0,0,1-.485-2.545c-.018-.206-.036-.411-.05-.622l-.014-.347c0-.1-.009-.215-.009-.32-.009-.429,0-.862.028-1.3a17.466,17.466,0,0,1,1.159-5.266,17.8,17.8,0,0,1,2.919-4.923A18.075,18.075,0,0,1,51.241,32.09c.54-.1,1.083-.173,1.631-.228.132-.014.288-.028.438-.037l.4-.027.164-.009c-.013,0,.11-.005.138-.005l.1,0,.4-.01a22.9,22.9,0,0,1,3.229.183,22.571,22.571,0,0,1,6.407,1.8,23.12,23.12,0,0,1,5.8,3.732A23.4,23.4,0,0,1,77.294,49.78c.141.608.26,1.224.352,1.846l.064.466.055.47c.018.156.032.316.045.471s.028.311.037.489l.027.512.018.379c0,.06.005,0,.005.156v.114l0,.228.005.453c-.005.6-.018,1.214-.059,1.822-.019.338-.05.677-.082,1.018.045.028.086.055.118.078,0,0,.028.018.064.046s.069.05.069.05A14.1,14.1,0,0,1,82.807,67.3a13.4,13.4,0,0,1-9.245,3.357c-.123.206-.251.407-.384.608A29.9,29.9,0,0,1,68.2,77.107a30.926,30.926,0,0,1-2.872,2.275c.009.082.009.155.013.233,0,0,.005.059.005.151v.073c0,1.082-.274,6.089-5.06,11.139Z" transform="translate(0 0.013)" fill="url(#a)"/></g></g></svg>