<svg width="128" height="128" viewBox="0 0 128 128" fill="none" xmlns="http://www.w3.org/2000/svg">
<g clip-path="url(#clip0_6177_31631)">
<path d="M82.8151 109.49C82.2521 109.416 75.9451 108.475 72.2911 103.261L72.2821 103.247L71.8821 103.265L71.4821 103.279H71.2821H70.9711C70.3361 103.284 69.6971 103.27 69.0581 103.243C66.4873 103.132 63.9351 102.753 61.4431 102.112C60.6171 101.897 59.7941 101.655 58.9871 101.38C54.7822 104.504 49.6257 106.076 44.3931 105.83C42.5676 101.382 42.4342 96.4202 44.0181 91.881C43.3751 91.209 42.7541 90.515 42.1641 89.798C40.7551 88.0843 39.5017 86.2484 38.4191 84.312C38.4091 84.317 38.4051 84.326 38.3961 84.33C38.3871 84.334 29.8791 83.812 22.5791 75.412C24.5296 69.728 28.5898 65.0108 33.9201 62.236C33.9611 61.884 34.0021 61.536 34.0481 61.186C34.3708 58.7986 34.8886 56.4418 35.5961 54.139C35.7881 53.503 35.9964 52.874 36.2211 52.252C35.3211 51.102 30.7721 44.752 31.5401 34.681C37.1717 32.0993 43.5924 31.835 49.4171 33.945C49.4171 33.945 49.5171 33.991 49.6551 34.055C50.5821 33.406 51.5371 32.808 52.5051 32.265C53.4961 31.7111 54.5159 31.2104 55.5601 30.765C56.0721 30.537 56.5981 30.335 57.1131 30.134C57.6281 29.933 58.1551 29.755 58.6791 29.595C59.0591 29.472 59.4381 29.367 59.8161 29.257C59.8571 29.033 59.8901 28.901 59.8901 28.901C59.8901 28.901 61.1921 22.829 68.0341 18.512C71.9359 20.5483 74.8971 24.017 76.2961 28.19C76.4651 28.218 76.6301 28.24 76.7961 28.263C77.7508 28.409 78.6884 28.5903 79.6091 28.807C80.5281 29.022 81.4271 29.278 82.3091 29.557C83.1911 29.836 84.0441 30.151 84.8801 30.488C85.0801 30.57 85.2731 30.652 85.4651 30.735C88.1564 28.9132 91.3958 28.0802 94.6321 28.378C96.3247 31.2371 96.8805 34.6281 96.1891 37.878C98.9531 40.5661 101.244 43.7006 102.967 47.15C103.966 49.1539 104.755 51.2553 105.323 53.421C105.777 55.1362 106.082 56.8874 106.236 58.655C106.33 59.7303 106.366 60.8098 106.346 61.889C106.342 62.0629 106.276 62.2296 106.158 62.358C106.041 62.4865 105.881 62.5681 105.708 62.5876C105.535 62.6071 105.361 62.5633 105.218 62.4643C105.075 62.3652 104.973 62.2177 104.93 62.049C104.711 61.194 104.43 60.208 104.048 59.117C103.815 58.436 103.532 57.724 103.221 56.97C103.139 56.787 103.057 56.595 102.974 56.403C102.891 56.211 102.796 56.021 102.705 55.823C102.614 55.625 102.517 55.43 102.421 55.233C102.376 55.133 102.321 55.033 102.275 54.933C102.229 54.833 102.175 54.733 102.12 54.633C101.209 52.8756 100.141 51.2047 98.9271 49.641C98.2741 48.797 97.5481 47.956 96.7671 47.13C96.5671 46.919 96.3671 46.718 96.1671 46.513C95.9671 46.308 95.7511 46.106 95.5361 45.905C95.3211 45.704 95.1061 45.505 94.8821 45.305C94.7731 45.205 94.6631 45.105 94.5491 45.005C94.4351 44.905 94.3201 44.805 94.2061 44.713C92.2685 43.0831 90.1399 41.6949 87.8671 40.579C85.4095 39.3664 82.7966 38.4983 80.1021 37.999C78.6897 37.74 77.2609 37.581 75.8261 37.523C75.1001 37.4996 74.3668 37.4996 73.6261 37.523L73.0701 37.551H72.9321L72.8641 37.556C72.9641 37.556 72.8501 37.556 72.8501 37.556L72.5271 37.579L71.8731 37.62L71.7131 37.63L71.5791 37.654L71.3101 37.682C71.1721 37.695 71.0401 37.709 70.9031 37.723C70.7261 37.746 70.4381 37.778 70.2581 37.801C70.0451 37.833 69.8251 37.851 69.6091 37.887C69.4191 37.915 69.2271 37.947 69.0351 37.974L68.7471 38.02L68.4591 38.07C68.2711 38.107 68.0801 38.139 67.8881 38.17C67.6961 38.201 67.5081 38.248 67.3161 38.289C67.1241 38.33 66.9371 38.362 66.7511 38.413C66.3761 38.508 65.9981 38.595 65.6271 38.7C65.4451 38.755 65.2531 38.8 65.0701 38.856C64.8871 38.912 64.7041 38.97 64.5181 39.025C63.7881 39.263 63.0571 39.514 62.3481 39.816C62.1701 39.884 61.9931 39.962 61.8181 40.039L61.2921 40.273C60.9451 40.442 60.5991 40.602 60.2611 40.783C59.5808 41.1383 58.9192 41.5284 58.2791 41.952C57.6351 42.372 57.0101 42.819 56.4071 43.303C55.801 43.7896 55.2199 44.3066 54.6661 44.852C52.3558 47.1485 50.4844 49.8478 49.1441 52.817C48.4261 54.3813 47.8291 55.9984 47.3581 57.654C47.1201 58.489 46.9101 59.344 46.7321 60.203C46.5541 61.062 46.4121 61.934 46.3031 62.796C46.1941 63.658 46.1241 64.523 46.0921 65.364C46.0921 65.57 46.0791 65.78 46.0791 65.985V66.246V66.646V66.939L46.0841 67.007L46.0931 67.286V67.428V67.497L46.0981 67.574L46.1161 67.894C46.2265 69.5976 46.51 71.2857 46.9621 72.932C48.1269 77.1507 50.3546 81.0001 53.4323 84.1119C56.5099 87.2236 60.3344 89.4937 64.5401 90.705C66.2307 91.1969 67.9682 91.5103 69.7241 91.64C70.1631 91.672 70.6001 91.695 71.0451 91.704L71.1271 91.709C71.1221 91.714 71.2551 91.714 71.1391 91.714H71.7471L72.0121 91.709H72.1451L72.2961 91.704C73.1193 91.677 73.9399 91.5948 74.7521 91.458C76.3765 91.1819 77.958 90.6958 79.4571 90.012C83.9892 87.9322 87.5436 84.1833 89.3791 79.547C89.6786 78.7902 89.9292 78.0149 90.1291 77.226C90.2291 76.833 90.3161 76.437 90.3991 76.039C90.4821 75.641 90.5401 75.239 90.5911 74.834C90.6421 74.429 90.6771 74.016 90.7081 73.61C90.7171 73.427 90.7311 73.13 90.7401 72.947L90.7451 72.673V72.431C90.7451 72.362 90.7401 72.257 90.7401 72.166C90.7401 72.075 90.7401 71.978 90.7311 71.882L90.7171 71.599L90.6941 71.316C90.6621 70.941 90.6171 70.566 90.5621 70.197C90.3253 68.7194 89.86 67.2876 89.1831 65.953C87.8336 63.2931 85.7179 61.0987 83.1091 59.653C81.1992 58.5969 79.085 57.9629 76.9091 57.794L76.6391 57.775H76.5711C76.5391 57.77 76.6081 57.77 76.5391 57.77H76.3701L76.1001 57.761C76.0321 57.761 75.9631 57.756 75.8761 57.756C75.5431 57.756 75.2091 57.77 74.8761 57.797C73.5599 57.911 72.2739 58.2545 71.0761 58.812C70.4831 59.086 69.9144 59.4098 69.3761 59.78C68.0689 60.6772 66.9534 61.8259 66.095 63.1589C65.2365 64.4919 64.6522 65.9826 64.3761 67.544C64.3211 67.844 64.2761 68.144 64.2431 68.444C64.2341 68.521 64.2251 68.594 64.2201 68.672L64.2111 68.786V68.841C64.2111 68.846 64.2111 68.91 64.2111 68.869C64.2021 69.024 64.1981 69.175 64.1881 69.33C64.1751 69.8924 64.2119 70.455 64.2981 71.011C64.4727 72.1003 64.8387 73.1501 65.3791 74.112C65.898 75.0441 66.5677 75.8838 67.3611 76.597C68.8377 77.924 70.6756 78.782 72.6411 79.062C72.7561 79.081 72.8701 79.094 72.9841 79.108C73.0441 79.117 73.0981 79.122 73.1581 79.126L73.2451 79.136H73.2861C73.2361 79.141 73.3001 79.141 73.3001 79.141C73.4281 79.141 73.5541 79.154 73.6841 79.159C73.7841 79.159 73.8841 79.164 73.9901 79.164C74.0961 79.164 74.1991 79.159 74.3041 79.154C74.411 79.1551 74.518 79.1491 74.6241 79.136C74.8341 79.118 75.0401 79.086 75.2461 79.058C75.646 78.9862 76.0408 78.8886 76.4281 78.766C76.7973 78.6426 77.1577 78.4946 77.5071 78.323C77.6071 78.272 77.7071 78.223 77.8071 78.167C78.0122 78.0526 78.2529 78.0198 78.4811 78.0752C78.7093 78.1306 78.9081 78.2702 79.0379 78.4659C79.1677 78.6616 79.2188 78.8991 79.181 79.1309C79.1432 79.3626 79.0193 79.5716 78.8341 79.716C78.7341 79.798 78.6241 79.88 78.5141 79.958C78.1184 80.2391 77.7033 80.4921 77.2721 80.715C76.8085 80.9516 76.3274 81.1522 75.8331 81.315C75.5731 81.392 75.3121 81.475 75.0431 81.534C74.9061 81.571 74.7691 81.598 74.6321 81.625C74.4951 81.652 74.3621 81.68 74.2061 81.699C74.1291 81.708 74.0561 81.721 73.9781 81.73L73.8641 81.744C73.831 81.7503 73.7976 81.755 73.7641 81.758C73.6401 81.772 73.5121 81.781 73.3891 81.794L73.1561 81.808C73.0781 81.808 73.0001 81.817 72.9231 81.817C72.7771 81.822 72.6301 81.826 72.4841 81.826C71.2395 81.83 70.0009 81.6531 68.8071 81.301C67.4898 80.9105 66.2415 80.317 65.1071 79.542C62.4984 77.7585 60.5927 75.1216 59.7181 72.085C59.4782 71.2534 59.3158 70.4015 59.2331 69.54C59.2151 69.334 59.1971 69.129 59.1831 68.918L59.1691 68.571C59.1691 68.471 59.1601 68.356 59.1601 68.251C59.1511 67.822 59.1601 67.389 59.1881 66.951C59.2995 65.1462 59.6905 63.3697 60.3471 61.685C61.0482 59.8973 62.0339 58.2348 63.2661 56.762C65.9623 53.5456 69.6936 51.3677 73.8201 50.602C74.3601 50.502 74.9031 50.429 75.4511 50.374C75.5831 50.36 75.7391 50.346 75.8891 50.337L76.2891 50.31L76.4531 50.301C76.4401 50.301 76.5631 50.296 76.5911 50.296H76.6911L77.0911 50.286C78.1704 50.2708 79.2494 50.3319 80.3201 50.469C82.533 50.7491 84.6921 51.3557 86.7271 52.269C88.8362 53.216 90.7912 54.474 92.5271 56.001C96.1999 59.2297 98.7689 63.528 99.8731 68.292C100.014 68.9 100.133 69.516 100.225 70.138L100.289 70.604L100.344 71.074C100.362 71.23 100.376 71.39 100.389 71.545C100.402 71.7 100.417 71.856 100.426 72.034L100.453 72.546L100.471 72.925C100.471 72.985 100.476 72.925 100.476 73.081V73.195V73.423L100.481 73.876C100.476 74.476 100.463 75.09 100.422 75.698C100.403 76.036 100.372 76.375 100.34 76.716C100.385 76.744 100.426 76.771 100.458 76.794C100.458 76.794 100.486 76.812 100.522 76.84C100.558 76.868 100.591 76.89 100.591 76.89C103.239 79.1674 104.948 82.3467 105.386 85.812C102.841 88.0624 99.5369 89.2623 96.1411 89.169C96.0181 89.375 95.8901 89.576 95.7571 89.777C94.3556 91.9301 92.6825 93.8936 90.7791 95.619C89.8676 96.4334 88.9086 97.1931 87.9071 97.894C87.9161 97.976 87.9161 98.049 87.9201 98.127C87.9201 98.127 87.9251 98.186 87.9251 98.278V98.351C87.9251 99.433 87.6511 104.44 82.8651 109.49H82.8151Z" fill="url(#paint0_linear_6177_31631)"/>
</g>
<defs>
<linearGradient id="paint0_linear_6177_31631" x1="64.4653" y1="161.984" x2="64.4653" y2="18.512" gradientUnits="userSpaceOnUse">
<stop stop-color="#FFF200"/>
<stop offset="1" stop-color="#F15A29"/>
</linearGradient>
<clipPath id="clip0_6177_31631">
<rect width="128" height="128" fill="white"/>
</clipPath>
</defs>
</svg>
