<svg xmlns="http://www.w3.org/2000/svg" width="128" height="128" viewBox="0 0 128 128"><g transform="translate(-2597 -122)"><rect width="128" height="128" transform="translate(2597 122)" fill="none"/><g transform="translate(2587.399 144.296)"><path d="M36.63,32.234c-.93,0-1.9-.165-1.53,1.343-5.559-2.48-9.444-1.921-12.337,1.7A8.718,8.718,0,0,0,22.742,46q4.1,5.425,12.15,2.025a3.689,3.689,0,0,1-2.955,3.8,6.135,6.135,0,0,1-6.861-2.087c-.373-.475-.64-.578-1.137-.144a23.262,23.262,0,0,1-2.108,1.654c-.5.351-.435.6-.041,1.012,2.686,3.017,6.1,3.947,10,3.41a8.031,8.031,0,0,0,5.331-2.645,9.183,9.183,0,0,0,1.984-6.056l.021-12.3c-.021-2.437-.021-2.418-2.487-2.437ZM30.058,45.645a4.95,4.95,0,0,1,.1-9.9,4.956,4.956,0,0,1,4.856,5.084,4.809,4.809,0,0,1-4.96,4.815Z" transform="translate(0 1.305)" fill="#8c8d91"/><path d="M108.936,32.827a7.507,7.507,0,0,0-2.459.021c-.5.124-.144.846-.228,1.3-.062.311.1.662-.124.97a8.425,8.425,0,0,0-12.007-.455,8.522,8.522,0,0,0-.249,12.068c2.727,3.017,9.113,3.679,12.337-.187.144,2.562-.165,4.732-2.48,6.056a7.544,7.544,0,0,1-7.977-.7c-.475-.373-.783-1.219-1.364-1.116s-1.032.765-1.571,1.116c-.578.373-.475.64-.041,1.094a11.114,11.114,0,0,0,12.751,1.654,6.621,6.621,0,0,0,2.562-2.736,9.249,9.249,0,0,0,.97-4.195l.021-14.259c0-.206.1-.6-.144-.622ZM100.38,46.755a5.869,5.869,0,1,1,5.847-5.805,5.808,5.808,0,0,1-5.849,5.806Z" transform="translate(17.194 1.38)" fill="#c5222b"/><path d="M59.544,38.308a5.594,5.594,0,0,0-4.443-5.89,14.07,14.07,0,0,0-9.451.783c-.516.228-.5.435-.269.846l1.074,2.108c.269.622.578.783,1.24.435a8.378,8.378,0,0,1,5.1-.846c1.736.187,2.562.93,2.686,2.583a9.247,9.247,0,0,0-7.315-.516,5.626,5.626,0,0,0-4.257,5.269,5.522,5.522,0,0,0,3.059,5.456,9,9,0,0,0,7.3.622c.56-.187,1.157-.93,1.716.041.041.082.331.041.5.041a18.859,18.859,0,0,1,2.17.021c.806.082.97-.269.95-1.012l-.041-9.94Zm-5.166,7.046a5.923,5.923,0,0,1-5.084-.021,1.869,1.869,0,0,1-1.157-1.9,2.1,2.1,0,0,1,1.2-1.9,5.111,5.111,0,0,1,2.6-.475,5.252,5.252,0,0,1,2.313.393,2.1,2.1,0,0,1,1.343,1.9,1.974,1.974,0,0,1-1.219,2Zm16.575-9.879-.1.29L67.689,43.2,67.152,42l-3.731-8.948a1.09,1.09,0,0,0-1.219-.806,23.322,23.322,0,0,1-2.686,0c-.783-.041-.95.124-.622.908l6.1,14.321a1.859,1.859,0,0,1,.021,1.654l-2.189,5.124a5.114,5.114,0,0,0-.56,1.55l3.184.021a1.284,1.284,0,0,0,1.446-.95l5.641-13.06,4.113-9.444c-4.175-.516-4.195-.516-5.7,3.1Z" transform="translate(5.601 1.273)" fill="#8c8d91"/><path d="M84.655,32.355a8.662,8.662,0,0,0-8.948,8.266,8.378,8.378,0,0,0,8.535,8.8c5.29.082,9.072-3.389,9.153-8.391a8.627,8.627,0,0,0-8.743-8.68Zm-.1,14.426a5.978,5.978,0,0,1-5.828-5.787,5.828,5.828,0,1,1,11.655-.1A5.985,5.985,0,0,1,84.552,46.781Z" transform="translate(13.349 1.376)" fill="#c62129"/><path d="M46.361,35.969c.311-.475.062-1.322.082-2.025V32.5c.021-.393-.165-.56-.537-.56a10.917,10.917,0,0,0-3.059.311c-.516.165-1.094,1.2-1.654.021-.041-.062-.331-.021-.5-.021-.827,0-1.654.041-2.48-.021-.7-.041-.846.228-.846.889l.021,7.524-.021,7.729c0,.622.187.868.827.827a16.708,16.708,0,0,1,2.273,0c.846.082,1.032-.249,1.032-1.032V39.3a3.063,3.063,0,0,1,3.017-3.358c.622,0,1.467.64,1.841.041Z" transform="translate(4.01 1.276)" fill="#8c8d91"/><g transform="translate(82.998 26.704)"><path d="M76.325,48.131a.336.336,0,0,0-.393-.351c-1.446.144-2.025-.724-2.293-1.965l-.062.413H73.39V26.722H71.152l-.021,18.6c0,.393.144.827-.165,1.2a3.749,3.749,0,0,0,3.1,3.823c2.087.455,2.48.1,2.293-1.965a1.071,1.071,0,0,1-.021-.249Z" transform="translate(-70.803 -26.7)" fill="#c62129"/><path d="M71.15,45.3l.021-18.6c-.537.249-.269.724-.269,1.053l-.021,17.4c0,.435.062.889.082,1.322C71.274,46.15,71.15,45.716,71.15,45.3Zm2.437.93.062-.413.021-18.455c0-.228.187-.578-.269-.662v19.52a.572.572,0,0,0,.187.021Z" transform="translate(-70.835 -26.704)" fill="#c62129"/></g><path d="M86.672,38.82c-.475-.165-.455.373-.6.662-.1.206-.021.5-.373.6l-.827-3.266c-.062-.228-.1-.516-.435-.455-.249.041-.249.29-.29.5l-.206,1.219-.578,3.1a13.537,13.537,0,0,1-.681-2.211c-.124-.435.021-1.178-.5-1.24-.56-.062-.537.681-.744,1.094-.29.537-.351,1.384-1.322.7-.228-.165-.537.041-.7.29a.531.531,0,0,0,.041.681.583.583,0,0,0,.724.206c.744-.269,1.654-.311,1.818-1.405l.93,3.616c.062.249.041.622.393.64.435,0,.393-.413.435-.7l.7-4.133h.206l.662,2.562c.062.228.1.537.393.56s.269-.393.435-.516c.413-.311-.228-1.53.97-1.137a.382.382,0,0,0,.124-.228,1.038,1.038,0,0,0-.578-1.137Z" transform="translate(14.227 2.35)" fill="#88888a"/></g></g></svg>