<svg width="128" height="128" viewBox="0 0 128 128" fill="none" xmlns="http://www.w3.org/2000/svg">
<g clip-path="url(#clip0_6177_31636)">
<path d="M27.0289 55.8352C26.0989 55.8352 25.1289 55.6702 25.4989 57.1782C19.9399 54.6982 16.0549 55.2572 13.1619 58.8782C11.9642 60.4077 11.3117 62.2934 11.3079 64.2361C11.3041 66.1787 11.9492 68.067 13.1409 69.6012C15.8743 73.2178 19.9243 73.8928 25.2909 71.6262C25.335 72.5084 25.0609 73.3772 24.5187 74.0746C23.9764 74.7719 23.2019 75.2515 22.3359 75.4262C21.118 75.8419 19.8 75.8641 18.5688 75.4895C17.3375 75.115 16.2551 74.3627 15.4749 73.3392C15.1019 72.8642 14.8349 72.7612 14.3379 73.1952C13.6676 73.7866 12.9638 74.3388 12.2299 74.8492C11.7299 75.2002 11.7949 75.4492 12.1889 75.8612C14.8749 78.8782 18.2889 79.8082 22.1889 79.2712C24.2391 79.1047 26.1472 78.158 27.5199 76.6262C28.883 74.9091 29.5867 72.761 29.5039 70.5702L29.5249 58.2702C29.5039 55.8332 29.5039 55.8522 27.0379 55.8332L27.0289 55.8352ZM20.4569 69.2462C19.1441 69.2329 17.8903 68.6987 16.9714 67.761C16.0525 66.8233 15.5437 65.559 15.5569 64.2462C15.5702 62.9334 16.1044 61.6796 17.0421 60.7606C17.9798 59.8417 19.2441 59.3329 20.5569 59.3462C21.2102 59.3591 21.8545 59.5012 22.4527 59.7641C23.0509 60.027 23.5912 60.4056 24.0425 60.8781C24.4938 61.3506 24.8472 61.9077 25.0824 62.5173C25.3176 63.1269 25.43 63.777 25.4129 64.4302C25.4141 65.0751 25.2855 65.7137 25.0348 66.3079C24.784 66.9021 24.4164 67.4399 23.9536 67.8891C23.4909 68.3383 22.9425 68.6899 22.3411 68.9228C21.7397 69.1558 21.0976 69.2654 20.4529 69.2452L20.4569 69.2462Z" fill="#8C8D91"/>
<path d="M116.529 56.5032C115.714 56.375 114.883 56.3821 114.07 56.5242C113.57 56.6482 113.926 57.3702 113.842 57.8242C113.78 58.1352 113.942 58.4862 113.718 58.7942C112.965 57.9675 112.054 57.2991 111.04 56.828C110.026 56.3568 108.927 56.0923 107.81 56.05C106.692 56.0076 105.577 56.1882 104.53 56.5813C103.483 56.9743 102.525 57.5719 101.711 58.3392C100.901 59.1143 100.251 60.0417 99.8001 61.0683C99.3489 62.0949 99.1048 63.2004 99.0816 64.3215C99.0585 65.4426 99.2569 66.5572 99.6653 67.6015C100.074 68.6459 100.684 69.5993 101.462 70.4072C104.189 73.4242 110.575 74.0862 113.799 70.2202C113.943 72.7822 113.634 74.9522 111.319 76.2762C110.058 76.9199 108.641 77.1957 107.23 77.0719C105.819 76.9481 104.472 76.4298 103.342 75.5762C102.867 75.2032 102.559 74.3572 101.978 74.4602C101.397 74.5632 100.946 75.2252 100.407 75.5762C99.829 75.9492 99.932 76.2162 100.366 76.6702C102.058 78.2332 104.194 79.232 106.478 79.5283C108.762 79.8246 111.082 79.4038 113.117 78.3242C114.217 77.678 115.106 76.7279 115.679 75.5882C116.328 74.2856 116.66 72.8483 116.649 71.3932L116.67 57.1342C116.67 56.9282 116.77 56.5342 116.526 56.5122L116.529 56.5032ZM107.973 70.4312C106.809 70.4355 105.669 70.0933 104.7 69.4482C103.73 68.8031 102.975 67.8842 102.529 66.8084C102.084 65.7326 101.968 64.5486 102.197 63.407C102.426 62.2653 102.99 61.2177 103.816 60.3973C104.643 59.5769 105.694 59.0208 106.838 58.7999C107.981 58.5789 109.164 58.703 110.237 59.1564C111.309 59.6098 112.223 60.372 112.861 61.346C113.499 62.32 113.833 63.4618 113.82 64.6262C113.82 65.3922 113.668 66.1506 113.373 66.8577C113.079 67.5648 112.647 68.2067 112.104 68.7463C111.56 69.286 110.915 69.7127 110.206 70.0021C109.496 70.2914 108.737 70.4376 107.971 70.4322L107.973 70.4312Z" fill="#C5222B"/>
<path d="M55.5439 61.8771C55.644 60.5234 55.2485 59.1794 54.431 58.0958C53.6136 57.0121 52.43 56.2627 51.1009 55.9871C47.9549 55.1465 44.6147 55.4232 41.6499 56.7701C41.1339 56.9981 41.1499 57.2051 41.3809 57.6161L42.4549 59.7241C42.7239 60.3461 43.0329 60.5071 43.6949 60.1591C45.2632 59.3465 47.0482 59.0504 48.7949 59.3131C50.5309 59.5001 51.3569 60.2431 51.4809 61.8961C50.3612 61.3158 49.1347 60.9707 47.8767 60.8819C46.6188 60.7932 45.3559 60.9627 44.1659 61.3801C42.9803 61.6768 41.9236 62.3514 41.1555 63.3021C40.3875 64.2527 39.9499 65.4276 39.9089 66.6491C39.8073 67.7611 40.0453 68.8779 40.5914 69.8519C41.1375 70.826 41.9661 71.6116 42.9679 72.1051C44.073 72.7148 45.2941 73.0853 46.5517 73.1925C47.8094 73.2997 49.0755 73.1411 50.2679 72.7271C50.8279 72.5401 51.4249 71.7971 51.9839 72.7681C52.0249 72.8501 52.3149 72.8091 52.4839 72.8091C53.207 72.7744 53.9316 72.7814 54.6539 72.8301C55.4599 72.9121 55.6239 72.5611 55.6039 71.8181L55.5629 61.8781L55.5439 61.8771ZM50.3779 68.9231C49.5821 69.2972 48.7129 69.4894 47.8335 69.4858C46.9541 69.4822 46.0866 69.2828 45.2939 68.9021C44.9229 68.7511 44.6102 68.485 44.4019 68.1429C44.1936 67.8009 44.1007 67.4009 44.1369 67.0021C44.1364 66.6042 44.2489 66.2144 44.4614 65.878C44.6738 65.5417 44.9774 65.2726 45.3369 65.1021C46.1469 64.7185 47.0436 64.5547 47.9369 64.6271C48.7277 64.582 49.5184 64.7163 50.2499 65.0201C50.6361 65.1691 50.9696 65.429 51.2086 65.7671C51.4475 66.1051 51.5812 66.5062 51.5929 66.9201C51.6298 67.3399 51.5314 67.7605 51.3121 68.1204C51.0927 68.4803 50.764 68.7605 50.3739 68.9201L50.3779 68.9231ZM66.9529 59.0441L66.8529 59.3341L63.6889 66.7691L63.1519 65.5691L59.4209 56.6211C59.3536 56.3596 59.1917 56.1324 58.9665 55.9835C58.7413 55.8346 58.4688 55.7746 58.2019 55.8151C57.3073 55.8667 56.4105 55.8667 55.5159 55.8151C54.7329 55.7741 54.5659 55.9391 54.8939 56.7231L60.9939 71.0441C61.1248 71.2994 61.1948 71.5816 61.1985 71.8686C61.2021 72.1555 61.1393 72.4395 61.0149 72.6981L58.8259 77.8221C58.5567 78.3051 58.3675 78.8285 58.2659 79.3721L61.4499 79.3931C61.766 79.4434 62.0894 79.3739 62.3569 79.1982C62.6244 79.0224 62.8166 78.7531 62.8959 78.4431L68.5369 65.3831L72.6499 55.9391C68.4749 55.4231 68.4549 55.4231 66.9499 59.0391L66.9529 59.0441Z" fill="#8C8D91"/>
<path d="M88.4029 56.027C86.1236 55.9494 83.9057 56.7738 82.2304 58.3214C80.5552 59.8689 79.5579 62.0147 79.4549 64.293C79.3968 65.4416 79.5757 66.5898 79.9806 67.6662C80.3854 68.7426 81.0076 69.7241 81.8082 70.5496C82.6089 71.3751 83.5709 72.027 84.6344 72.4645C85.6979 72.9021 86.8401 73.116 87.9899 73.093C93.2799 73.175 97.0619 69.704 97.1429 64.702C97.1501 63.5548 96.9284 62.4177 96.4907 61.3573C96.0531 60.2968 95.4083 59.3343 94.5942 58.526C93.7801 57.7177 92.8129 57.08 91.7493 56.65C90.6857 56.2201 89.547 56.0066 88.3999 56.022L88.4029 56.027ZM88.3029 70.453C86.7761 70.4155 85.3216 69.7949 84.2378 68.7188C83.154 67.6427 82.5233 66.1925 82.4749 64.666C82.4607 63.896 82.5993 63.1307 82.8826 62.4145C83.1659 61.6983 83.5883 61.0454 84.1255 60.4935C84.6627 59.9415 85.304 59.5015 86.0123 59.199C86.7205 58.8964 87.4818 58.7372 88.2519 58.7306C89.0221 58.7239 89.786 58.8701 90.4993 59.1605C91.2127 59.4508 91.8614 59.8798 92.408 60.4224C92.9546 60.965 93.3882 61.6106 93.6837 62.3218C93.9793 63.0331 94.131 63.7958 94.1299 64.566C94.1052 66.1098 93.4847 67.5843 92.3983 68.6814C91.3118 69.7785 89.8434 70.4132 88.2999 70.453H88.3029Z" fill="#C62129"/>
<path d="M40.77 59.5411C41.081 59.0661 40.832 58.2191 40.852 57.5161V56.0721C40.873 55.6791 40.687 55.5121 40.315 55.5121C39.2858 55.471 38.2559 55.5757 37.256 55.8231C36.74 55.9881 36.162 57.0231 35.602 55.8441C35.561 55.7821 35.271 55.8231 35.102 55.8231C34.275 55.8231 33.448 55.8641 32.622 55.8021C31.922 55.7611 31.776 56.0301 31.776 56.6911L31.797 64.2151L31.776 71.9441C31.776 72.5661 31.963 72.8121 32.603 72.7711C33.3598 72.7195 34.1192 72.7195 34.876 72.7711C35.722 72.8531 35.908 72.5221 35.908 71.7391V62.8721C35.8671 62.4497 35.9144 62.0233 36.0471 61.6201C36.1797 61.2169 36.3946 60.8456 36.6783 60.5299C36.962 60.2142 37.3082 59.9608 37.6949 59.786C38.0817 59.6111 38.5006 59.5185 38.925 59.5141C39.547 59.5141 40.392 60.1541 40.766 59.5551L40.77 59.5411Z" fill="#8C8D91"/>
<path d="M78.919 70.431C78.922 70.3804 78.9135 70.3298 78.8942 70.2829C78.8749 70.236 78.8452 70.1942 78.8074 70.1604C78.7696 70.1266 78.7247 70.1019 78.6759 70.0879C78.6272 70.074 78.5759 70.0713 78.526 70.08C77.08 70.224 76.501 69.356 76.233 68.115L76.171 68.528H75.984V49.022H73.746L73.725 67.622C73.725 68.015 73.869 68.449 73.56 68.822C73.5286 69.726 73.8251 70.6108 74.3948 71.3134C74.9645 72.016 75.769 72.4889 76.66 72.645C78.747 73.1 79.14 72.745 78.953 70.68C78.9363 70.5981 78.9293 70.5145 78.932 70.431H78.919Z" fill="#C62129"/>
<path d="M73.712 67.5961L73.733 48.9961C73.196 49.2451 73.464 49.7201 73.464 50.0491L73.443 67.4491C73.443 67.8841 73.505 68.3381 73.525 68.7711C73.836 68.4461 73.712 68.0121 73.712 67.5961ZM76.149 68.5261L76.211 68.1131L76.232 49.6581C76.232 49.4301 76.419 49.0801 75.963 48.9961V68.5161C76.0237 68.5334 76.0869 68.5405 76.15 68.5371L76.149 68.5261Z" fill="#C62129"/>
<path d="M91.2979 63.4661C90.8229 63.3011 90.8429 63.8391 90.6979 64.1281C90.5979 64.3341 90.6769 64.6281 90.3249 64.7281L89.4979 61.4621C89.4359 61.2341 89.3979 60.9461 89.0629 61.0071C88.8139 61.0481 88.8139 61.2971 88.7729 61.5071L88.5669 62.7261L87.9889 65.8261C87.6992 65.1099 87.4714 64.3702 87.3079 63.6151C87.1839 63.1801 87.3289 62.4371 86.8079 62.3751C86.2479 62.3131 86.2709 63.0561 86.0639 63.4691C85.7739 64.0061 85.7129 64.8531 84.7419 64.1691C84.5139 64.0041 84.2049 64.2101 84.0419 64.4591C83.9677 64.5593 83.9311 64.6825 83.9386 64.807C83.9461 64.9316 83.9972 65.0495 84.0829 65.1401C84.1598 65.2544 84.2747 65.3379 84.4072 65.3756C84.5397 65.4133 84.6814 65.4028 84.8069 65.3461C85.5509 65.0771 86.4609 65.0351 86.6249 63.9411L87.5549 67.5571C87.6169 67.8061 87.5959 68.1791 87.9479 68.1971C88.3829 68.1971 88.3409 67.7841 88.3829 67.4971L89.0829 63.3641H89.2889L89.9509 65.9261C90.0129 66.1541 90.0509 66.4631 90.3439 66.4861C90.6369 66.5091 90.6129 66.0931 90.7789 65.9701C91.1919 65.6591 90.5509 64.4401 91.7489 64.8331C91.8156 64.7739 91.8595 64.6932 91.8729 64.6051C91.9168 64.3783 91.8838 64.1433 91.7792 63.9373C91.6745 63.7314 91.504 63.5662 91.2949 63.4681L91.2979 63.4661Z" fill="#88888A"/>
</g>
<defs>
<clipPath id="clip0_6177_31636">
<rect width="128" height="128" fill="white"/>
</clipPath>
</defs>
</svg>
