<svg width="128" height="128" viewBox="0 0 128 128" fill="none" xmlns="http://www.w3.org/2000/svg">
<g clip-path="url(#clip0_6177_31610)">
<path d="M109.047 82.0492H108.791C104.691 82.0492 100.359 77.7142 100.359 73.6172V73.3562H99.729V73.6172C99.729 77.7172 95.394 82.0492 91.292 82.0492H91.036V82.6792H91.292C95.392 82.6792 99.729 87.0142 99.729 91.1162V91.3772H100.359V91.1162C100.359 87.0162 104.694 82.6792 108.791 82.6792H109.052L109.047 82.0492Z" fill="#00E1E1"/>
<path d="M36.96 28.0011H36.699C32.599 28.0011 28.267 23.6661 28.267 19.5641V19.3081H27.646V19.5641C27.646 23.6641 23.311 28.0011 19.209 28.0011H18.953V28.6311H19.209C23.309 28.6311 27.646 32.9661 27.646 37.0681V37.3241H28.276V37.0681C28.276 32.9681 32.611 28.6311 36.708 28.6311H36.969V28.0011H36.96Z" fill="#00E1E1"/>
<path d="M36.96 46.0172H36.699C32.599 46.0172 28.267 41.6822 28.267 37.5802V37.3242H27.646V37.5802C27.646 41.6802 23.311 46.0172 19.209 46.0172H18.953V46.6472H19.209C23.309 46.6472 27.646 50.9822 27.646 55.0842V55.3402H28.276V55.0842C28.276 50.9842 32.611 46.6472 36.708 46.6472H36.969V46.0172H36.96Z" fill="#00E1E1"/>
<path d="M54.972 46.0172H54.711C50.611 46.0172 46.279 41.6822 46.279 37.5802V37.3242H45.631V37.5802C45.631 41.6802 41.296 46.0172 37.194 46.0172H36.938V46.6472H37.194C41.294 46.6472 45.631 50.9822 45.631 55.0842V55.3402H46.261V55.0842C46.261 50.9842 50.596 46.6472 54.693 46.6472H54.954V46.0172H54.972Z" fill="#00E1E1"/>
<path d="M36.96 64.0331H36.699C32.599 64.0331 28.267 59.6981 28.267 55.6011V55.3401H27.646V55.6011C27.646 59.7011 23.311 64.0331 19.209 64.0331H18.953V64.6631H19.209C23.309 64.6631 27.646 68.9981 27.646 73.1001V73.3561H28.276V73.1001C28.276 69.0001 32.611 64.6631 36.708 64.6631H36.969V64.0331H36.96Z" fill="#00E1E1"/>
<path d="M54.972 64.0331H54.711C50.611 64.0331 46.279 59.6981 46.279 55.6011V55.3401H45.631V55.6011C45.631 59.7011 41.296 64.0331 37.194 64.0331H36.938V64.6631H37.194C41.294 64.6631 45.631 68.9981 45.631 73.1001V73.3561H46.261V73.1001C46.261 69.0001 50.596 64.6631 54.693 64.6631H54.954V64.0331H54.972Z" fill="#00E1E1"/>
<path d="M72.9921 64.0331H72.7311C68.6311 64.0331 64.2991 59.6981 64.2991 55.6011V55.3401H63.6691V55.6011C63.6691 59.7011 59.3341 64.0331 55.2321 64.0331H54.9761V64.6631H55.2321C59.3321 64.6631 63.6691 68.9981 63.6691 73.1001V73.3561H64.2991V73.1001C64.2991 69.0001 68.6341 64.6631 72.7311 64.6631H72.9921V64.0331Z" fill="#00E1E1"/>
<path d="M36.96 82.0492H36.699C32.599 82.0492 28.267 77.7142 28.267 73.6172V73.3562H27.646V73.6172C27.646 77.7172 23.311 82.0492 19.209 82.0492H18.953V82.6792H19.209C23.309 82.6792 27.646 87.0142 27.646 91.1162V91.3772H28.276V91.1162C28.276 87.0162 32.611 82.6792 36.708 82.6792H36.969V82.0492H36.96Z" fill="#00E1E1"/>
<path d="M54.972 82.0492H54.711C50.611 82.0492 46.279 77.7142 46.279 73.6172V73.3562H45.631V73.6172C45.631 77.7172 41.296 82.0492 37.194 82.0492H36.938V82.6792H37.194C41.294 82.6792 45.631 87.0142 45.631 91.1162V91.3772H46.261V91.1162C46.261 87.0162 50.596 82.6792 54.693 82.6792H54.954V82.0492H54.972Z" fill="#00E1E1"/>
<path d="M91.0079 46.0172H90.7519C86.6519 46.0172 82.3149 41.6822 82.3149 37.5802V37.3242H81.6849V37.5802C81.6849 41.6802 77.3499 46.0172 73.2479 46.0172H72.9919V46.6472H73.2479C77.3479 46.6472 81.6849 50.9822 81.6849 55.0842V55.3402H82.3149V55.0842C82.3149 50.9842 86.6499 46.6472 90.7519 46.6472H91.0079V46.0172Z" fill="#00E1E1"/>
<path d="M91.0079 64.0331H90.7519C86.6519 64.0331 82.3149 59.6981 82.3149 55.6011V55.3401H81.6849V55.6011C81.6849 59.7011 77.3499 64.0331 73.2479 64.0331H72.9919V64.6631H73.2479C77.3479 64.6631 81.6849 68.9981 81.6849 73.1001V73.3561H82.3149V73.1001C82.3149 69.0001 86.6499 64.6631 90.7519 64.6631H91.0079V64.0331Z" fill="#00E1E1"/>
<path d="M91.0079 82.0492H90.7519C86.6519 82.0492 82.3149 77.7142 82.3149 73.6172V73.3562H81.6849V73.6172C81.6849 77.7172 77.3499 82.0492 73.2479 82.0492H72.9919V82.6792H73.2479C77.3479 82.6792 81.6849 87.0142 81.6849 91.1162V91.3772H82.3149V91.1162C82.3149 87.0162 86.6499 82.6792 90.7519 82.6792H91.0079V82.0492Z" fill="#00E1E1"/>
<path d="M109.047 46.0172H108.791C104.691 46.0172 100.359 41.6822 100.359 37.5802V37.3242H99.729V37.5802C99.729 41.6802 95.394 46.0172 91.292 46.0172H91.036V46.6472H91.292C95.392 46.6472 99.729 50.9822 99.729 55.0842V55.3402H100.359V55.0842C100.359 50.9842 104.694 46.6472 108.791 46.6472H109.052L109.047 46.0172Z" fill="#00E1E1"/>
<path d="M109.047 28.0011H108.791C104.691 28.0011 100.359 23.6661 100.359 19.5641V19.3081H99.729V19.5641C99.729 23.6641 95.394 28.0011 91.292 28.0011H91.036V28.6311H91.292C95.392 28.6311 99.729 32.9661 99.729 37.0681V37.3241H100.359V37.0681C100.359 32.9681 104.694 28.6311 108.791 28.6311H109.052L109.047 28.0011Z" fill="#00E1E1"/>
<path d="M109.047 64.0331H108.791C104.691 64.0331 100.359 59.6981 100.359 55.6011V55.3401H99.729V55.6011C99.729 59.7011 95.394 64.0331 91.292 64.0331H91.036V64.6631H91.292C95.392 64.6631 99.729 68.9981 99.729 73.1001V73.3561H100.359V73.1001C100.359 69.0001 104.694 64.6631 108.791 64.6631H109.052L109.047 64.0331Z" fill="#00E1E1"/>
<path d="M109.047 100.07H108.791C104.691 100.07 100.359 95.7302 100.359 91.6332V91.3772H99.729V91.6332C99.729 95.7332 95.394 100.07 91.292 100.07H91.036V100.709H91.292C95.392 100.709 99.729 105.044 99.729 109.146V109.407H100.359V109.146C100.359 105.046 104.694 100.709 108.791 100.709H109.052V100.084L109.047 100.07Z" fill="#00E1E1"/>
<path d="M36.96 100.07H36.699C32.599 100.07 28.267 95.7302 28.267 91.6332V91.3772H27.646V91.6332C27.646 95.7332 23.311 100.07 19.209 100.07H18.953V100.709H19.209C23.309 100.709 27.646 105.044 27.646 109.146V109.407H28.276V109.146C28.276 105.046 32.611 100.709 36.708 100.709H36.969V100.084L36.96 100.07Z" fill="#00E1E1"/>
</g>
<defs>
<clipPath id="clip0_6177_31610">
<rect width="128" height="128" fill="white"/>
</clipPath>
</defs>
</svg>
