<svg xmlns="http://www.w3.org/2000/svg" width="128" height="128" viewBox="0 0 128 128"><g transform="translate(-673 -122)"><rect width="128" height="128" transform="translate(673 122)" fill="none"/><g transform="translate(578.283 141.308)"><path d="M291.956,128.873H291.7c-4.1,0-8.432-4.335-8.432-8.432v-.261h-.63v.261c0,4.1-4.335,8.432-8.437,8.432h-.256v.63h.256c4.1,0,8.437,4.335,8.437,8.437v.261h.63v-.261c0-4.1,4.335-8.437,8.432-8.437h.261Z" transform="translate(-88.192 -66.132)" fill="#00e1e1"/><path d="M131.677,8.693h-.261c-4.1,0-8.432-4.335-8.432-8.437V0h-.621V.256c0,4.1-4.335,8.437-8.437,8.437h-.256v.63h.256c4.1,0,8.437,4.335,8.437,8.437v.256h.63V17.76c0-4.1,4.335-8.437,8.432-8.437h.261v-.63Z" fill="#00e1e1"/><path d="M131.677,48.753h-.261c-4.1,0-8.432-4.335-8.432-8.437V40.06h-.621v.256c0,4.1-4.335,8.437-8.437,8.437h-.256v.63h.256c4.1,0,8.437,4.335,8.437,8.437v.256h.63V57.82c0-4.1,4.335-8.437,8.432-8.437h.261v-.63Z" transform="translate(0 -22.044)" fill="#00e1e1"/><path d="M171.7,48.753h-.261c-4.1,0-8.432-4.335-8.432-8.437V40.06h-.648v.256c0,4.1-4.335,8.437-8.437,8.437h-.256v.63h.256c4.1,0,8.437,4.335,8.437,8.437v.256h.63V57.82c0-4.1,4.335-8.437,8.432-8.437h.261v-.63Z" transform="translate(-22.011 -22.044)" fill="#00e1e1"/><path d="M131.677,88.813h-.261c-4.1,0-8.432-4.335-8.432-8.432V80.12h-.621v.261c0,4.1-4.335,8.432-8.437,8.432h-.256v.63h.256c4.1,0,8.437,4.335,8.437,8.437v.256h.63V97.88c0-4.1,4.335-8.437,8.432-8.437h.261v-.63Z" transform="translate(0 -44.088)" fill="#00e1e1"/><path d="M171.7,88.813h-.261c-4.1,0-8.432-4.335-8.432-8.432V80.12h-.648v.261c0,4.1-4.335,8.432-8.437,8.432h-.256v.63h.256c4.1,0,8.437,4.335,8.437,8.437v.256h.63V97.88c0-4.1,4.335-8.437,8.432-8.437h.261v-.63Z" transform="translate(-22.011 -44.088)" fill="#00e1e1"/><path d="M211.786,88.813h-.261c-4.1,0-8.432-4.335-8.432-8.432V80.12h-.63v.261c0,4.1-4.335,8.432-8.437,8.432h-.256v.63h.256c4.1,0,8.437,4.335,8.437,8.437v.256h.63V97.88c0-4.1,4.335-8.437,8.432-8.437h.261Z" transform="translate(-44.077 -44.088)" fill="#00e1e1"/><path d="M131.677,128.873h-.261c-4.1,0-8.432-4.335-8.432-8.432v-.261h-.621v.261c0,4.1-4.335,8.432-8.437,8.432h-.256v.63h.256c4.1,0,8.437,4.335,8.437,8.437v.261h.63v-.261c0-4.1,4.335-8.437,8.432-8.437h.261v-.63Z" transform="translate(0 -66.132)" fill="#00e1e1"/><path d="M171.7,128.873h-.261c-4.1,0-8.432-4.335-8.432-8.432v-.261h-.648v.261c0,4.1-4.335,8.432-8.437,8.432h-.256v.63h.256c4.1,0,8.437,4.335,8.437,8.437v.261h.63v-.261c0-4.1,4.335-8.437,8.432-8.437h.261v-.63Z" transform="translate(-22.011 -66.132)" fill="#00e1e1"/><path d="M251.846,48.753h-.256c-4.1,0-8.437-4.335-8.437-8.437V40.06h-.63v.256c0,4.1-4.335,8.437-8.437,8.437h-.256v.63h.256c4.1,0,8.437,4.335,8.437,8.437v.256h.63V57.82c0-4.1,4.335-8.437,8.437-8.437h.256Z" transform="translate(-66.121 -22.044)" fill="#00e1e1"/><path d="M251.846,88.813h-.256c-4.1,0-8.437-4.335-8.437-8.432V80.12h-.63v.261c0,4.1-4.335,8.432-8.437,8.432h-.256v.63h.256c4.1,0,8.437,4.335,8.437,8.437v.256h.63V97.88c0-4.1,4.335-8.437,8.437-8.437h.256Z" transform="translate(-66.121 -44.088)" fill="#00e1e1"/><path d="M251.846,128.873h-.256c-4.1,0-8.437-4.335-8.437-8.432v-.261h-.63v.261c0,4.1-4.335,8.432-8.437,8.432h-.256v.63h.256c4.1,0,8.437,4.335,8.437,8.437v.261h.63v-.261c0-4.1,4.335-8.437,8.437-8.437h.256Z" transform="translate(-66.121 -66.132)" fill="#00e1e1"/><path d="M291.956,48.753H291.7c-4.1,0-8.432-4.335-8.432-8.437V40.06h-.63v.256c0,4.1-4.335,8.437-8.437,8.437h-.256v.63h.256c4.1,0,8.437,4.335,8.437,8.437v.256h.63V57.82c0-4.1,4.335-8.437,8.432-8.437h.261Z" transform="translate(-88.192 -22.044)" fill="#00e1e1"/><path d="M291.956,8.693H291.7c-4.1,0-8.432-4.335-8.432-8.437V0h-.63V.256c0,4.1-4.335,8.437-8.437,8.437h-.256v.63h.256c4.1,0,8.437,4.335,8.437,8.437v.256h.63V17.76c0-4.1,4.335-8.437,8.432-8.437h.261Z" transform="translate(-88.192)" fill="#00e1e1"/><path d="M291.956,88.813H291.7c-4.1,0-8.432-4.335-8.432-8.432V80.12h-.63v.261c0,4.1-4.335,8.432-8.437,8.432h-.256v.63h.256c4.1,0,8.437,4.335,8.437,8.437v.256h.63V97.88c0-4.1,4.335-8.437,8.432-8.437h.261Z" transform="translate(-88.192 -44.088)" fill="#00e1e1"/><path d="M291.956,168.943H291.7c-4.1,0-8.432-4.34-8.432-8.437v-.256h-.63v.256c0,4.1-4.335,8.437-8.437,8.437h-.256v.639h.256c4.1,0,8.437,4.335,8.437,8.437v.261h.63v-.261c0-4.1,4.335-8.437,8.432-8.437h.261v-.625Z" transform="translate(-88.192 -88.181)" fill="#00e1e1"/><path d="M131.677,168.943h-.261c-4.1,0-8.432-4.34-8.432-8.437v-.256h-.621v.256c0,4.1-4.335,8.437-8.437,8.437h-.256v.639h.256c4.1,0,8.437,4.335,8.437,8.437v.261h.63v-.261c0-4.1,4.335-8.437,8.432-8.437h.261v-.625Z" transform="translate(0 -88.181)" fill="#00e1e1"/></g></g></svg>