<svg xmlns="http://www.w3.org/2000/svg" width="128" height="128" viewBox="0 0 128 128"><g transform="translate(-525 -122)"><rect width="128" height="128" transform="translate(525 122)" fill="none"/><g transform="translate(544.039 144.261)"><path d="M9.412,50.24l-.444,1.209-.852-.312.444-1.209Zm-.444,1.209-.661,1.8-.867-.309.661-1.8Zm-.661,1.8-.107.164-.319-.32Zm-.107.164L6.748,54.85l-.638-.642L7.562,52.77ZM6.748,54.85,5.461,56.125l-.638-.642L6.11,54.208ZM5.461,56.125l-.323.315-.628-.656.309-.3Zm-.323.315c-.58.559-.7.67-.528,1.67l-.894.149c-.246-1.473-.074-1.639.8-2.474Zm-.528,1.67a8.067,8.067,0,0,0,.822,2.424l-.805.422a9,9,0,0,1-.911-2.7Zm.822,2.424A8.8,8.8,0,0,0,7,62.659L6.36,63.3a9.726,9.726,0,0,1-1.734-2.342Zm1.587,2.125a11.237,11.237,0,0,0,3.671,2.45l-.319.849A12.067,12.067,0,0,1,6.376,63.3Zm3.654,2.45a3.817,3.817,0,0,0,2.876.134l.365.843a4.663,4.663,0,0,1-3.56-.117Zm2.876.134.877-.388-.256.923-.439-.121Zm.621.534-.4,1.258-.843-.309.379-1.19Zm-.4,1.258-.488,1.195-.826-.377.458-1.127Zm-.488,1.195c-.767,1.682.037,2.569,1.283,3.137l-.377.826c-1.687-.769-2.811-1.992-1.729-4.333Zm1.283,3.137a16.662,16.662,0,0,0,2.67.848l-.228.877a17.216,17.216,0,0,1-2.805-.9Zm2.67.848.632.166-.23.877-.627-.166Zm.632.166a23.44,23.44,0,0,0,4.627.935l-.056.908a25.507,25.507,0,0,1-4.8-.966Zm4.627.935c1.518.1,2.87-.159,3.183-1.321l.877.23c-.464,1.725-2.2,2.108-4.118,2Zm3.183-1.321a8.939,8.939,0,0,0,.3-1.546l.908.075a9.527,9.527,0,0,1-.333,1.719Zm.3-1.546a7.788,7.788,0,0,0-.035-1.518l.9-.084a8.953,8.953,0,0,1,.042,1.677Zm-.035-1.518.035-.228.415.183Zm.035-.228a12.135,12.135,0,0,1,1.307-2.384l.749.512a11.258,11.258,0,0,0-1.226,2.242Zm1.307-2.384.2-.292.752.506-.2.281Zm.2-.292a2.843,2.843,0,0,0,.558-1.213l.9.124a3.709,3.709,0,0,1-.7,1.6Zm.558-1.213a6.237,6.237,0,0,0-.082-1.5l.9-.1a6.72,6.72,0,0,1,.077,1.729Zm-.082-1.5-.053-.429.9-.112.056.44Zm-.053-.429-.065-.45.9-.131.065.464Zm-.065-.45-.089-.6.6.091-.067.45Zm.516-.514a26.634,26.634,0,0,0,3.8.3l0,.908a27.519,27.519,0,0,1-3.931-.308Zm3.8.281a28.8,28.8,0,0,0,3.771-.228l.107.9a29.8,29.8,0,0,1-3.882.235Zm3.771-.228.281.843-.228-.394Zm.281.843-2.4,1.283-.415-.81,2.361-1.262Zm-2.4,1.283-.208.107-.415-.81.208-.107Zm-.208.107c-.96.492-.984,1.529-.63,2.614l-.866.27c-.464-1.486-.4-2.93,1.079-3.694Zm-.63,2.614a14.688,14.688,0,0,0,1.715,3.317l-.759.492a15.491,15.491,0,0,1-1.82-3.542Zm1.715,3.317A12.219,12.219,0,0,0,37.921,73.9l-.472.773a12.75,12.75,0,0,1-3.535-4.038ZM37.921,73.9c1.1.675,2.381.735,4.082-.183l.43.8c-2.032,1.1-3.605,1-4.982.141ZM42,73.713a3.236,3.236,0,0,0,1.436-1.543l.791.447a4.034,4.034,0,0,1-1.8,1.9Zm1.436-1.543.534-.877.752.5-.5.821Zm.534-.877.157-.148.218.4Zm.157-.148c.281-.146,1.4-1.082,2.5-1.992l.579.7-2.642,2.091Zm2.5-1.992,1.417-1.167.571.71-1.41,1.155Zm1.417-1.167.349-.281.287.344-.351.291Zm.635.063a1.547,1.547,0,0,0,.843.446l-.211.885a2.4,2.4,0,0,1-1.346-.745Zm.843.446a11.843,11.843,0,0,0,1.746.211l-.065.908a12.234,12.234,0,0,1-1.892-.235Zm1.746.211c.558.042,2.34.039,3.491.039v.908c-1.176,0-3,0-3.556-.039Zm3.491.039h.85l0,.908h-.846v-.908Zm.85,0a5.3,5.3,0,0,0,2.485-.36l.447.791a5.958,5.958,0,0,1-2.935.478l0-.908Zm2.485-.36c.513-.291.821-.863.9-1.934l.908.065a2.991,2.991,0,0,1-1.359,2.662Zm.9-1.934a4.111,4.111,0,0,0-.014-1.16l.885-.2a4.751,4.751,0,0,1,.035,1.405Zm-.014-1.16a4.067,4.067,0,0,0-.478-1.054l.8-.444a4.728,4.728,0,0,1,.569,1.3Zm-.478-1.054-.056-.211.454-.011Zm-.056-.211L58.4,62.073l.908-.021.052,1.956ZM58.4,62.073,58.347,60.1l.908-.021.052,1.968ZM58.347,60.1a7.927,7.927,0,0,0-.233-1.807l.88-.221a8.883,8.883,0,0,1,.261,2.007ZM58.113,58.3a12.2,12.2,0,0,0-.628-1.771l.838-.351.67,1.9Zm-.628-1.771-.534-1.382.852-.312.52,1.344Zm.316-1.7-.426.141Zm-.852.316-.881-2.108.812-.422a20.129,20.129,0,0,1,.921,2.2Zm-.881-2.108-.042-.281.447.079Zm-.042-.281.112-.7.9.112-.112.745Zm.112-.7.079-.731.908.074-.089.77Zm.079-.731.084-.95.684.661-.315.329Zm.767-.291,1.335,1.286-.628.656-1.335-1.286Zm1.335,1.286.984.961-.628.656-.984-.961Zm.984.961a12.084,12.084,0,0,0,2.108,1.757l-.461.784a12.752,12.752,0,0,1-2.277-1.883Zm2.108,1.757a4.329,4.329,0,0,0,2.523.6l.042.908a5.214,5.214,0,0,1-3.027-.729Zm2.523.6a6.229,6.229,0,0,0,3.307-1.265l.54.731a7.251,7.251,0,0,1-3.8,1.442Zm3.307-1.265A5.4,5.4,0,0,0,69.26,51.73l.871.263a6.405,6.405,0,0,1-2.347,3.115ZM69.26,51.73l.319-1.05.871.263-.319,1.05Zm.319-1.05.371-1.223.871.263-.371,1.223Zm.371-1.223.118-.389.4.076-.084.446Zm.52-.313a20.692,20.692,0,0,0,5.767.281l.089.9a21.1,21.1,0,0,1-6.023-.278Zm5.767.281a12.91,12.91,0,0,0,4.722-1.355l.426.8a13.85,13.85,0,0,1-5.06,1.455Zm4.722-1.355a11.885,11.885,0,0,0,4.708-4.638l.787.45a12.861,12.861,0,0,1-5.068,4.989Zm4.708-4.638.394.225Zm0,0a18.844,18.844,0,0,0,2.249-7.449l.9.084A19.66,19.66,0,0,1,86.452,43.9Zm2.249-7.449a33.285,33.285,0,0,0-.357-8.018l.894-.141a34.313,34.313,0,0,1,.365,8.246Zm-.357-8.018a23.058,23.058,0,0,0-1.976-6.729l.805-.419a24.107,24.107,0,0,1,2.066,7.006Zm-1.975-6.715a1.785,1.785,0,0,0-.343-.436l.635-.649a2.769,2.769,0,0,1,.513.668Zm-.343-.422a4.343,4.343,0,0,0-1.567-.954l.281-.843a5.285,5.285,0,0,1,1.907,1.164Zm-1.567-.956a2,2,0,0,0-1.518-.035l-.419-.805a2.852,2.852,0,0,1,2.229-.018Zm-1.518-.035a.9.9,0,0,0-.232.171l-.649-.635a1.666,1.666,0,0,1,.464-.342Zm-.232.171a9.977,9.977,0,0,0-1.026,1.33l-.749-.512a10.238,10.238,0,0,1,1.124-1.453ZM80.9,21.336a9.113,9.113,0,0,1-1.405,1.736l-.59-.691a7.96,7.96,0,0,0,1.261-1.554Zm-1.405,1.736a7.586,7.586,0,0,1-2.214,1.2l-.337-.843A7.03,7.03,0,0,0,78.9,22.38Zm-2.214,1.2-.335.135-.344-.84.342-.138Zm-.335.135-.422.178-.164-.443L76.785,24Zm-.6-.264a11.694,11.694,0,0,0-1.071-2.167l.77-.482A12.593,12.593,0,0,1,77.2,23.828Zm-1.071-2.167a17.19,17.19,0,0,0-1.424-1.926l.7-.582a18.117,18.117,0,0,1,1.5,2.025Zm-1.424-1.926a7.365,7.365,0,0,0-1.223-1.167l.562-.721a8.218,8.218,0,0,1,1.369,1.307Zm-1.223-1.167c-.424-.323-.905-.625-1.467-.978l.482-.77,1.535,1.026ZM71.163,17.9A33.219,33.219,0,0,1,66.9,14.557l.6-.684a32.341,32.341,0,0,0,4.152,3.261ZM66.9,14.557l-1.789-1.535.579-.7,1.806,1.553Zm-1.789-1.535c-3-2.474-5.762-3.673-8.714-3.858l.056-.908c3.148.2,6.094,1.462,9.251,4.076ZM56.393,9.166c-2.973-.187-6.15.647-9.923,2.249l-.351-.838c3.9-1.642,7.2-2.5,10.33-2.3ZM46.47,11.415a14.261,14.261,0,0,0-4.235,2.67l-.614-.668a14.9,14.9,0,0,1,4.5-2.853Zm-4.235,2.67A26.376,26.376,0,0,0,39,17.888l-.728-.543a27.529,27.529,0,0,1,3.373-3.928ZM39,17.888l-.141.171-.211.011-.022-.454Zm-.34.183a5.1,5.1,0,0,0-1.687.319l-.337-.843a6.038,6.038,0,0,1,1.978-.384Zm-1.687.319a6.083,6.083,0,0,0-1.757,1.167l-.6-.682a7.163,7.163,0,0,1,2.021-1.33Zm-1.757,1.167-1.5,1.389-.632-.654,1.554-1.436Zm-1.5,1.389-.316-.329.316.326Zm0,0L32.275,22.4l-.656-.628,1.476-1.483ZM32.275,22.4l-.257.134-.07-.447Zm-.257.134a43.951,43.951,0,0,0-9,2.183l-.326-.849a44.92,44.92,0,0,1,9.182-2.229Zm-9,2.183a22.784,22.784,0,0,0-7.109,4.4l-.6-.7a23.7,23.7,0,0,1,7.383-4.565ZM15.873,29.1a18.524,18.524,0,0,0-2.45,2.628l-.721-.562A19.424,19.424,0,0,1,15.273,28.4Zm-2.45,2.628a18.938,18.938,0,0,0-1.844,2.952l-.81-.412A21.181,21.181,0,0,1,12.7,31.172Zm-1.844,2.952-.067.1-.337-.3Zm-.067.1L9.928,36.421l-.607-.677a21.765,21.765,0,0,0,1.518-1.574ZM9.928,36.421a6.324,6.324,0,0,1-1.934,1.245l-.326-.849a5.445,5.445,0,0,0,1.654-1.075ZM7.994,37.666H8l-.162-.424Zm0,0c-.583.225-.867.337-1.19.2l.351-.838c.014.006.162-.074.516-.211Zm-1.19.2h0l.177-.417-.176.419Zm0,0c-.34-.145-.422-.424-.647-.987l.852-.316c.119.319.117.455.149.468Zm-.647-.987-.119-.316.273-.205.271.365Zm.141-.52c.835-.627.914-1.876.989-3.092l.908.056c-.089,1.405-.183,2.867-1.355,3.75Zm.989-3.092.028-.433.908.065-.028.426Zm.028-.433.032-.443.443.021-.021.454Zm.475-.422c.749.035,1.091.562,1.459,1.134l-.763.492c-.235-.365-.454-.7-.738-.7Zm1.459,1.134.32.464-.71.562q-.2-.26-.374-.538Zm.422.843-.208.928-.59-.745.354-.281Zm-.885-.2a5.9,5.9,0,0,0,.105-2.322l.885-.2a6.527,6.527,0,0,1-.1,2.715Zm.105-2.322a1.525,1.525,0,0,0-.752-1.088l.415-.81a2.4,2.4,0,0,1,1.22,1.687Zm-.752-1.088-.36-.186.141-.377.426.157Zm-.218-.562.281-.684.843.33-.257.67Zm.281-.684.416-1.1.843.3-.43,1.136Zm.769-1.4L9.729,28l-.256.728-.43-.149Zm.141.894a9.974,9.974,0,0,0-4.222,2.7L4.23,31.1a11,11,0,0,1,4.727-2.952Zm-4.222,2.7a6.445,6.445,0,0,0-1.214,1.682l-.824-.379A7.387,7.387,0,0,1,4.23,31.1ZM3.673,33.411a2.814,2.814,0,0,0-.284,1.675l-.894.141A3.678,3.678,0,0,1,2.85,33.02Zm-.284,1.675a2.731,2.731,0,0,0,.863,1.494l-.628.656a3.607,3.607,0,0,1-1.129-2Zm.863,1.494.141.219-.44.108Zm.141.219.332,1.223-.866.27-.346-1.265Zm.332,1.223a7.013,7.013,0,0,0,.372.957l-.819.391a7.913,7.913,0,0,1-.419-1.078Zm.372.956a2.379,2.379,0,0,0,1.439,1.285l-.277.866a3.209,3.209,0,0,1-1.968-1.76Zm1.439,1.285a3.5,3.5,0,0,0,2.259-.141l.33.843a4.332,4.332,0,0,1-2.867.162Zm2.259-.141.787-.309-.18.825-.444-.1Zm.609.52a17.857,17.857,0,0,0-.387,3.172l-.908-.032a18.707,18.707,0,0,1,.408-3.332Zm-.417,3.183a33.093,33.093,0,0,0,.132,4L8.21,47.9a33.459,33.459,0,0,1-.132-4.1Zm.132,4L9.237,48.9l-.9.121L8.207,47.9ZM9.237,48.9l.186,1.124-.891.169-.193-1.158Zm.186,1.124-.02.242-.426-.141" transform="translate(0.993 0.092)"/><g transform="translate(0 8.017)"><path d="M31.859,22.464l-5.98.984L20.421,25.84l-4.635,2.915-4.41,5.383-2.492,2.64-2.409.888-.637-1.557L6.953,34.5l.25-2.268.745.028.815.745-.219-2.311-.9-.6.028-.88L5.527,30.422,3.588,32.71l-.4,2.045.843,1.637L4.8,39.176l1.574.745,1.654-.082L9.6,38.925,8.548,44.218l1.047,5.906L8.442,52.851,4.669,56.916l.67,2.429,1.8,2.815,3.37,2.372,1.788.245,1.987.067-1.24,5.091L17.608,71.8l5.681.748,1.944-1.271.149-3.439,2.169-3.588.149-2.839,5.233.374,4.859-.45-4.859,2.915.822,3.514,3.064,4.784,2.991,1.271,2.392-.984.984-1.944,5.009-3.813.984.822,7.85.3,1.57-1.271.149-2.243-.523-.984-.374-6.055-2.617-5.233.45-2.319,1.57.822,4.41,4.111,2.167.149,2.392-.984L68.614,52.4l1.195-3.888,7.027.45L81.1,47.322l3.439-3.214L87,39.472l.6-5.458-.523-6.353-1.345-5.681-1.345-1.795-1.869-.6-3.289,3.588-2.989,1.047-2.617-4.336-2.617-2.392L69.6,16.6l-5.681-4.708L59.362,9.423,54.8,9.049l-5.307.9L44.86,11.665l-3.214,2.617L39.1,17.346l-2.617.748Z" transform="translate(1.29 -7.599)" fill="#feeb50" stroke="#1f1917" stroke-miterlimit="10" stroke-width="0.095" fill-rule="evenodd"/><g transform="translate(10.129 1.552)"><path d="M12.882,32.033c-5.123,5.975-4,13.221-2.565,20.322L8.045,46.613l-.838-5.265.239-5.383L9.6,30.821l3.233-4.786,5.025-4.188,5.5-2.275,6.461-.838L23.84,25.553c-4.8,1.557-7.636,2.607-10.954,6.465" transform="translate(-7.207 -5.223)" fill="#fdf7ba" fill-rule="evenodd"/><path d="M33.2,17.725a39.531,39.531,0,0,0-7.772,10.162l-5.144,8.582a10.718,10.718,0,0,0-1.2,4.346l-2.513-2.991,1.195-3.59,4.067-7.3,8.616-8.495,2.752-.7m17.59-8.616c-2.853,1.068-7.59,1.422-7.919,4.694-.235,2.325.176,3.493,1.577,5.952-3.462-3.581-4.318-3.027-11-1.914l2.871-4.067,5.025-3.11L47.8,9.24l2.991-.119" transform="translate(-3.411 -9.121)" fill="#fdf7ba" fill-rule="evenodd"/></g><g transform="translate(5.471 1.8)"><path d="M57.388,50.178c.95.586.928,1.012.77,1.413l2.249-.9,1.456-1.968,1.082-2.786-1.38-1.04-6.035.77-.45,1.22.141,1.733.562,1.026.9.45.707.065m-.562-10.316c-3.025.871-3,1.113-3.893,4.115a11.942,11.942,0,0,1,3.893-4.115M76.945,17.4a2.923,2.923,0,0,0-1.4.86,8.254,8.254,0,0,1-2.541,2.693,7.863,7.863,0,0,1-1.865.815c-.53.164-.849.018-1.3.342l.8.141h1.771L74.6,20.9l1.285-1.349L76.944,17.4M28.756,24.113a47.374,47.374,0,0,1-4.034,9,26.943,26.943,0,0,0,5.034-7.421c.514-1.093.611-2.389,2.042-1.9.065,1.092.281,2.183.36,3.275.773-5.545,2.954-7.864,8.011-10.015l-4.3.513-4.045.9-2,2.876L28.727,24.1m9.838-.112c1.093,5.147,2.668,10.086,3.352,15.314.444,3.4.492,5.029-1.217,7.961a11.26,11.26,0,0,0-4.835.682C28.673,50.3,24.548,53.767,19.7,46.781l4.642,2.187,3.309-.651,5.843-3.4,4.558-.9,1.476-6.163L38.435,29.7l-.141-3.851.257-1.862M50.938,55.829c-.6,4.181,1.405,6.429.565,7.584-.235.327-.551.9-.905,1.054-1.265.558-3-.1-3.127.222H43.312l-1.67-.707,2.568-3.018,2.5-5.458,1.605-5.521h.835l1.8,5.843" transform="translate(2.517 -6.155)" fill="#edd749" fill-rule="evenodd"/><path d="M50.363,46.817c.337,1.9.928,2.35,1.82,4.188a48.678,48.678,0,0,1-2.7,9.209,7.344,7.344,0,0,1-1.729,2.593A44.492,44.492,0,0,1,43.219,66.8c-1.178.908-2,.453-3.452.247-.618,1.12-.787,1.743-1.926,2.311-1.748.874-3.314-1.012-4.687-2.118l2.973,4.644,2.055,1.926,1.733.257,2.311-1.413,1.22-2.311,2.568-1.926,3.145-2.7,1.99-2.811,1.8-3.338,2.312-6.933L55.452,50l-2.89-1.285-2.2-1.883M27.332,60.191c3.241,0,6.662-.18,9.63-1.54a26,26,0,0,1,2.7-3.4A11.569,11.569,0,0,0,38.186,60l-.963,1.413L29.9,61.6l-2.389-.257-.257-.257.065-.9m-.44-2.26-.253-2.28c-.554,3.331-.422,5.566-1.968,8.551a11.28,11.28,0,0,1-4.171,3.182,6.1,6.1,0,0,1,.1,1.93c-.284,2.159-4.6,1.2-6.378,1.119l8.548,2.2,1.926-.77.642-3.725,1.8-3.338.32-2.055-.562-4.815m-4.8-18.8a5.9,5.9,0,0,0,.52,3.727c.908,1.819,2.024,3.514,3.011,5.341l.32-3.6-3.851-5.458M8.888,51.373l-.833,1.775a22.009,22.009,0,0,0,2.9,6.46A4.819,4.819,0,0,1,9.93,61.662a23.162,23.162,0,0,0-3.719-.25l4.3,3.338,2.118-.385,2.118-2.118L11.73,57.56,8.887,51.373M83.359,19.7c.871,3.93,2,7.554,1.895,11.578-.141,4.936-1.091,11.174-5.664,14.15-5.123,3.334-11.136,1.757-16.756.329L69.7,48.57l6.42.32,4.365-1.285,3.4-2.811L86.458,39.4l.963-6.226-.77-6.1-1.413-6.035L83.355,19.7M6.918,31.4c-2.312,1.518-3.24,2.179-2.984,4.985l.7,2.52.984.666,1.217.4,2.2-.52,1.13-3.505L7.034,37.482H6.311L5.5,36.237l.984-1.448L7,32.037l.666.2.811.638L8.364,31.43,7.813,30.5l-.551-.464L6.915,31.4M59.089,9.3c2.063,1.917,4.6,3.584,6.247,5.924.639.907,1.349,1.37-.011,2.651a6.23,6.23,0,0,1,3.12-.225c2.091.253,4.052,3.227,4.177,5.358-.025.2-.58.652-2.2,1.1-.032.062-.914-.121-.891-.06.169.46.394.53.735.745a4.868,4.868,0,0,0,.471,1.859,14.027,14.027,0,0,1,3.008.291A2.7,2.7,0,0,1,74,28.607l1.155-.193-.32-2.632,1.026-1.733L74.39,20.711l-2.811-2.7L71.306,18,68.13,16.049,62.947,11.81,59.1,9.3m3.465,15.815a3.352,3.352,0,0,1-.483.706,4.653,4.653,0,0,1,1.588,2.507l-2.915,1.448-2.467,2.365A3.665,3.665,0,0,1,56.412,30a2.9,2.9,0,0,1-1.691.132,1.382,1.382,0,0,0,.835-.275l1.57-1.63,2.773-2.1,1.827-.59c.23-.1.618-.323.85-.422" transform="translate(-3.893 -9.298)" fill="#edd749" fill-rule="evenodd"/><path d="M51.11,24.892c-3.092,1.667-6.052,3.353-7.632,6.5,0-4.013,4.03-5.779,7.635-6.5M42.859,17a9.1,9.1,0,0,0-3.715,7.8c-.748-2.666-.483-5.2,1.827-7.027l1.162-.565L42.873,17" transform="translate(10.25 -6.176)" fill="#edd749" fill-rule="evenodd"/></g><path d="M62.966,44.4l1.81-.871-1.851.344c-1.3.221-1.457.534-1.658,1.817l-.323,1.959.862-2.131c.315-.7.492-.755,1.161-1.119ZM38.791,11.345a8.307,8.307,0,0,1,3.19-3.011C39.841,8.85,39.432,9.248,38.791,11.345Zm-.337,3.373c1.793-3.6,3.151-4.919,6.9-6.7C41.113,9.057,39.876,9.8,38.454,14.718ZM.045,33.489a8.265,8.265,0,0,1,1.874-3.968C.112,30.783-.122,31.3.045,33.489ZM40.232,63.7l-.163-1.314a10.354,10.354,0,0,1-.031-2.238l.183-2.319c-.225.787-.675,1.571-.9,2.357l-.207.8a26.427,26.427,0,0,1-10.055.129l-.694-3.472c-.066,1.04-.024,3.919-.028,5.529a4.125,4.125,0,0,1-.7,2.738,26.452,26.452,0,0,0-1.687,2.9,7.3,7.3,0,0,1-.211,2.766c-.468,1.687-5.192.377-6.437.035-1.535-.422-4.708-1.044-3.91-3.092a26.289,26.289,0,0,0,1.49-6.218c-2.811-4.051-5.425-9.6-5.928-14.519a18.424,18.424,0,0,1,.67-8.5A21.781,21.781,0,0,1,17.7,29.8c3.963-3.479,7.671-4.877,13.473-5.76-1.4,1.546-2.776,3.214-4.281,4.985a25.267,25.267,0,0,0-3.4,5.566c-1.335,2.708-1.307,3.739.464,6.118,1.526,2.049,2.35,2.973,3.018,4.975a10.445,10.445,0,0,0-.936,3.643c1.869,2.042,3.258,3.443,5.06,3.875a6.6,6.6,0,0,0,4.859-.472c3.538-1.809,6.81-4.143,10.8-4.24,1.845-4.54,1.658-8.33.773-12.72a63.69,63.69,0,0,1-1.036-8.9,21.247,21.247,0,0,0-.333,9.051c.669,3.795,1.189,7.955-.672,11.276-3.608.277-6.7,2.471-9.951,4.155a5.442,5.442,0,0,1-4.114.346c-1.342-.368-2.249-1.257-3.7-2.926a7.179,7.179,0,0,1,1.124-3.963c1.237-2.436,2.6-4.7,4.1-7.1a71.031,71.031,0,0,0-5.013,6.287c-.551-1.571-1.339-2.37-2.647-4.138-1.276-1.729-1.41-2.485-.455-4.5a19.935,19.935,0,0,1,3.405-5.538c2.821-3.047,5.406-6.437,8.489-9.438,1.675-1.63,2.356-1.574,4.578-1.911,2.01-.3,3.969-.7,6.015-1.167-1.968.183-3.9.253-5.824.3h-.06c1.9-2.423,3-3.774,6.08-5.112C55.112,9.2,59.933,8.842,65.892,13.851c1.546,1.3,2.9,2.558,4.46,3.68a5.664,5.664,0,0,0-1.7.4,7.279,7.279,0,0,1,2.53.148q.349.226.707.437a6.648,6.648,0,0,1,2.481,2.052,22.245,22.245,0,0,1,2.03,3.415l-.984-.337a2.108,2.108,0,0,0-2,.124l-.046.021a9.191,9.191,0,0,1-2.193.741,2.753,2.753,0,0,0,1.377.02,1.012,1.012,0,0,1,.138-.044,2.108,2.108,0,0,0-.058,2.046v0a1.121,1.121,0,0,0,.225.349q-.45.168-.891.361a13.975,13.975,0,0,1,4.069-.07l.281,1.363L75.8,28.6l-.042,0c-.652-.52-1.38-.422-2.389-.208-3.022.7-2.312,2.385-3.7,4.94,1.443-1.765,1.335-3.612,3.689-4.167a3.853,3.853,0,0,1,1.293-.236,2.959,2.959,0,0,0-1.476,1.539c-.647,1.823-.245,3.373-.956,5.063.878-1.522.932-3.008,1.718-4.61a3.264,3.264,0,0,1,1.972-1.511l.528-.011a14.435,14.435,0,0,1,.188,2.853,31.988,31.988,0,0,1-.742,4.648c.8-1.023,1.158-3.19,1.508-4.715a13.316,13.316,0,0,0-.046-5.2c-.422-2.342,1.973-1.961,3.373-3.064,1.029-.811,1.737-2.108,2.68-3.025s2.409.427,2.777,1.317a32.788,32.788,0,0,1,1.9,13.83c-.474,4.368-2.583,9.136-6.437,11.286-4.911,2.741-10.7,1.068-15.58-.562a11.981,11.981,0,0,1-2.68-1.439,6.864,6.864,0,0,1,.031,3.429c-.527,1.778-1.377,4.687,1.04,5.224a3.122,3.122,0,0,0,2.632-.495,4.835,4.835,0,0,1-2.3.046A1.5,1.5,0,0,1,63.6,52.515a4.286,4.286,0,0,0,1.237.422c1.791.431,3.5-.43,3.829-1.687a11.452,11.452,0,0,1,.573-2.108c.37.112.753.218,1.145.313l-.665,2.169a5.246,5.246,0,0,1-4.8,3.355c-1.83-.032-2.989-1.178-4.252-2.3l-2.537-2.249A19.241,19.241,0,0,1,51.923,47.3a11.01,11.01,0,0,0,4.621,3.626c-.3,3.112-1.386,5.38-2.308,8.357-.417,1.346-3.71,6.741-4.638,7.266-.651.375-4.728,3.795-5.481,4.261-.571.759-1.072,1.806-1.931,2.26-2.617,1.383-4.3-1.265-5.706-3.5-.641-1.019-2.422-3.955-.871-4.779a40.937,40.937,0,0,0,3.786-2.315c.219.4.6.787.843,1.188Zm9.1,4.744c-1.325,1.068-3.553,2.952-3.985,3.2-.783,1.167-.88,1.89-2.134,2.569-3.733,2.02-5.713-.323-7.923-3.727-1.054-1.622-3.355-5.341-.914-6.582,1.029-.528,1.809-.928,2.586-1.377a27.888,27.888,0,0,1-7.692-.07l.119.891c.169,1.429.225,1.866-.551,3.018a12.4,12.4,0,0,0-1.467,2.609,7.6,7.6,0,0,1-.28,3.237c-.777,2.885-6.167,1.3-8.363.71-2.642-.714-6.417-1.38-4.869-4.779a16.434,16.434,0,0,0,.863-2.387C12.41,66.775,9.2,64.6,7.67,63.071a8.849,8.849,0,0,1-2.52-4.8c-.235-1.4-.02-1.405.978-2.381l2.741-2.713,1.106-3.008a21.566,21.566,0,0,1-.313-2.249,23.332,23.332,0,0,1,.264-7.3A3.188,3.188,0,0,1,5.653,39.25a11.271,11.271,0,0,1-.734-2.268C1.332,33.524,8.053,29,10.014,28.655c-.225.637-.469,1.22-.686,1.8,1.33.7,1.167,2.649.885,3.913-.478-.6-.742-1.405-1.448-1.427-.1,1.428-.084,3.008-1.2,3.844.33.883.313.883,1.265.523a9.5,9.5,0,0,0,3.345-2.772,19.063,19.063,0,0,1,4.4-5.7c4.711-4.177,9.164-5.543,16.335-6.686q1.438-1.508,3-2.891a5.284,5.284,0,0,1,3.722-1.6c2.245-3,4.011-5.093,7.67-6.634C54.971,7.8,60.259,7.64,66.415,12.717a58.534,58.534,0,0,0,6.006,4.846,10.654,10.654,0,0,1,2.811,2.24A13.909,13.909,0,0,1,77.8,24.03a8.523,8.523,0,0,0,2.426-1.257c.942-.805,1.542-2.15,2.415-3.036,1.158-1.174,3.8.243,4.385,1.363,1.99,3.795,2.8,10.826,2.381,15-.523,5.158-2.649,10.035-7.2,12.462-3.092,1.649-7.238,1.8-10.789,1.131l-.7,2.271A6.749,6.749,0,0,1,64.984,56.2c-2.26.107-3.486-1.06-4.967-2.488l-2.333-2.249q-.065.74-.2,1.473c.613,1.209.907,2.271,1.431,3.518a9.633,9.633,0,0,1,.9,3.741l.1,3.911a3.315,3.315,0,0,1,.562,2.467c-.178,2.492-1.552,2.729-3.837,2.715-.762-.006-3.654.014-4.357-.039-1.457-.105-2.417-.216-2.921-.818ZM57.04,54.845c-.46,1.644-1.078,3.195-1.644,4.973-.534,1.682-3.275,6.571-4.887,7.754a4.186,4.186,0,0,0,1.917.413c.727.063,3.59.076,4.308.089,1.583.028,2.183-.091,2.343-1.893a2.3,2.3,0,0,0-.431-1.82l-.117-4.139a7.951,7.951,0,0,0-.8-3.28,20.294,20.294,0,0,1-.686-2.1ZM8.832,32.273c.356-.042.562.146.85.422-.051-.656-.171-1.143-.632-1.411q-.049.161-.091.323-.084.332-.141.669Zm2.232,4.741q-.39,1.013-.717,2.048l-.107.351c-1.352.573-3.129.937-3.795-.483a13.484,13.484,0,0,1-.759-2.238c-2.226-2.3,1.1-5.349,2.914-6.441a8.266,8.266,0,0,0-.562,1.429c-.551,1.9.249,3.6-1.479,4.984.812,1.639.773,2.291,2.665,1.535a6.191,6.191,0,0,0,1.866-1.186Zm-.52,15.517a37.471,37.471,0,0,0,4.7,9.951v.051a3.735,3.735,0,0,1-.555,1.387c-1.383,1.85-4.9-.866-5.9-1.9a7,7,0,0,1-2.035-3.743c-.129-.921,0-.942.638-1.594l2.6-2.628.569-1.518ZM76.006,24.094a2.15,2.15,0,0,1,.467.684,1.7,1.7,0,0,1,.191-.155l-.247-.54-.422.011ZM59.073,30.481a2.575,2.575,0,0,1-.27-1.171,8.419,8.419,0,0,1-2.134,1.321c1.033-.923,2.437-3.1,3.455-3.786,1.152-.78,2.721-.628,4.067-1.265a8.193,8.193,0,0,1-1.649,1.074,2.773,2.773,0,0,1,1.81,2.3,9.005,9.005,0,0,1,2.53-.427,16.014,16.014,0,0,0-7.505,4.846,6.226,6.226,0,0,1,.9-1.647,2.769,2.769,0,0,1-1.22-1.265Zm-12.441-9.7a35.025,35.025,0,0,1-4.277,1.375c-1.318,1.732-2.108,2.628-2.423,4.95-.357-2.284-.431-2.707.586-4.413a5.359,5.359,0,0,0-.961.692c-1.405,1.214-3.271,5.987-4.011,7.691.469-2.052,1.94-7.185,3.452-8.682,1-.984,1.223-.961,2.624-1.093l5.011-.52Zm30.921,4.978a4.588,4.588,0,0,0,2.952-.233,9.817,9.817,0,0,0,4.439-4.551c-.586,2.312-1.764,4.277-4.208,5.148-1.2.427-1.975-.014-3.2-.365Zm-23.05.225a7.118,7.118,0,0,1,4.357-5.432C54.731,21.58,53.958,23.316,54.5,25.979ZM.984,36.763c.354-4.01,1.134-5.741,3.983-8.759C1.377,30.523.486,31.669.984,36.763" transform="translate(0 -8.017)" fill-rule="evenodd"/><path d="M42.432,26.121a1.162,1.162,0,0,1,2.1-1,1.151,1.151,0,0,1,.065.167,7.675,7.675,0,0,0-1.483,1.452,1.265,1.265,0,0,1-.68-.62m12.925-5a.857.857,0,0,1,.932-.784.871.871,0,0,1,.784.952.885.885,0,0,1-.079.285,7.533,7.533,0,0,0-1.325.368,1.167,1.167,0,0,1-.312-.821" transform="translate(17.16 -3.022)" fill="#edd749" fill-rule="evenodd"/></g></g></g></svg>