<svg width="128" height="128" viewBox="0 0 128 128" fill="none" xmlns="http://www.w3.org/2000/svg">
<g clip-path="url(#clip0_6177_31299)">
<path d="M29.444 72.5932L29 73.8022L28.148 73.4902L28.592 72.2812L29.444 72.5932ZM29 73.8022L28.339 75.6022L27.472 75.2932L28.133 73.4932L29 73.8022ZM28.339 75.6022L28.232 75.7662L27.913 75.4462L28.339 75.6022ZM28.232 75.7662L26.78 77.2032L26.142 76.5612L27.594 75.1232L28.232 75.7662ZM26.78 77.2032L25.493 78.4782L24.855 77.8362L26.142 76.5612L26.78 77.2032ZM25.493 78.4782L25.17 78.7932L24.542 78.1372L24.851 77.8372L25.493 78.4782ZM25.17 78.7932C24.59 79.3522 24.47 79.4632 24.642 80.4632L23.748 80.6122C23.502 79.1392 23.674 78.9732 24.548 78.1382L25.17 78.7932ZM24.642 80.4632C24.7852 81.3098 25.0627 82.128 25.464 82.8872L24.659 83.3092C24.2139 82.4632 23.9064 81.5518 23.748 80.6092L24.642 80.4632ZM25.464 82.8872C25.8768 83.6703 26.4054 84.3867 27.032 85.0122L26.392 85.6532C25.6997 84.964 25.1151 84.1745 24.658 83.3112L25.464 82.8872ZM27.051 85.0122C28.1007 86.0635 29.3484 86.8962 30.722 87.4622L30.403 88.3112C28.9068 87.7015 27.5483 86.7977 26.408 85.6532L27.051 85.0122ZM30.705 87.4622C31.6094 87.8805 32.6416 87.9286 33.581 87.5961L33.946 88.4392C32.7906 88.8728 31.5104 88.8307 30.386 88.3222L30.705 87.4622ZM33.581 87.5961L34.458 87.2082L34.202 88.1312L33.763 88.0102L33.581 87.5961ZM34.202 88.1312L33.802 89.3882L32.959 89.0792L33.338 87.8892L34.202 88.1312ZM33.802 89.3882L33.314 90.5832L32.488 90.2062L32.946 89.0792L33.802 89.3882ZM33.314 90.5832C32.547 92.2652 33.351 93.1521 34.597 93.7201L34.22 94.5462C32.533 93.7772 31.409 92.5542 32.491 90.2132L33.314 90.5832ZM34.597 93.7201C35.4616 94.0773 36.3548 94.3609 37.267 94.5681L37.039 95.4452C36.08 95.2258 35.1416 94.9247 34.234 94.5452L34.597 93.7201ZM37.267 94.5681L37.899 94.7341L37.669 95.6112L37.042 95.4452L37.267 94.5681ZM37.899 94.7341C39.4059 95.2007 40.9561 95.514 42.526 95.6692L42.47 96.5771C40.8427 96.4098 39.2353 96.0863 37.67 95.6112L37.899 94.7341ZM42.526 95.6692C44.044 95.7692 45.396 95.5102 45.709 94.3482L46.586 94.5782C46.122 96.3032 44.386 96.6861 42.468 96.5781L42.526 95.6692ZM45.709 94.3482C45.8543 93.8427 45.9547 93.3253 46.009 92.8022L46.917 92.8772C46.859 93.4592 46.7475 94.0346 46.584 94.5961L45.709 94.3482ZM46.009 92.8022C46.0468 92.2962 46.0351 91.7878 45.974 91.2842L46.874 91.2002C46.9404 91.7566 46.9555 92.3181 46.917 92.8772L46.009 92.8022ZM45.974 91.2842L46.009 91.0562L46.424 91.2392L45.974 91.2842ZM46.009 91.0562C46.354 90.215 46.7924 89.4154 47.316 88.6722L48.065 89.1842C47.5726 89.8825 47.1612 90.6347 46.839 91.4262L46.009 91.0562ZM47.316 88.6722L47.516 88.3802L48.268 88.8862L48.068 89.1672L47.316 88.6722ZM47.516 88.3802C47.7956 88.0258 47.9869 87.6101 48.074 87.1672L48.974 87.2912C48.8713 87.8726 48.6314 88.4211 48.274 88.8912L47.516 88.3802ZM48.074 87.1672C48.1072 86.6657 48.0797 86.162 47.992 85.6672L48.892 85.5672C48.9921 86.1378 49.018 86.7189 48.969 87.2962L48.074 87.1672ZM47.992 85.6672L47.939 85.2382L48.839 85.1262L48.895 85.5662L47.992 85.6672ZM47.939 85.2382L47.874 84.7882L48.774 84.6572L48.839 85.1212L47.939 85.2382ZM47.874 84.7882L47.785 84.1882L48.385 84.2792L48.318 84.7292L47.874 84.7882ZM48.39 84.2742C49.6479 84.4648 50.9178 84.565 52.19 84.5742V85.4822C50.874 85.4736 49.5603 85.3707 48.259 85.1742L48.39 84.2742ZM52.19 84.5552C53.4506 84.5618 54.7103 84.4856 55.961 84.3272L56.068 85.2272C54.7805 85.3899 53.4837 85.4684 52.186 85.4622L52.19 84.5552ZM55.961 84.3272L56.242 85.1702L56.014 84.7762L55.961 84.3272ZM56.242 85.1702L53.842 86.4532L53.427 85.6432L55.788 84.3812L56.242 85.1702ZM53.842 86.4532L53.634 86.5602L53.219 85.7502L53.427 85.6432L53.842 86.4532ZM53.634 86.5602C52.674 87.0522 52.65 88.0892 53.004 89.1742L52.138 89.4442C51.674 87.9582 51.738 86.5142 53.217 85.7502L53.634 86.5602ZM53.004 89.1742C53.4322 90.3483 54.0085 91.463 54.719 92.4912L53.96 92.9832C53.2035 91.8857 52.5917 90.6952 52.14 89.4412L53.004 89.1742ZM54.719 92.4912C55.5284 93.9531 56.6291 95.2335 57.953 96.2532L57.481 97.0261C56.0295 95.9462 54.8245 94.5697 53.946 92.9882L54.719 92.4912ZM57.953 96.2532C59.053 96.9282 60.334 96.9882 62.035 96.0702L62.465 96.8701C60.433 97.9701 58.86 97.8701 57.483 97.0111L57.953 96.2532ZM62.032 96.0661C62.6695 95.7265 63.1749 95.1833 63.468 94.5232L64.259 94.9701C63.8868 95.7859 63.2535 96.4545 62.459 96.8701L62.032 96.0661ZM63.468 94.5232L64.002 93.6462L64.754 94.1462L64.254 94.9671L63.468 94.5232ZM64.002 93.6462L64.159 93.4981L64.377 93.8982L64.002 93.6462ZM64.159 93.4981C64.44 93.3521 65.559 92.4162 66.659 91.5062L67.238 92.2062L64.596 94.2972L64.159 93.4981ZM66.659 91.5062L68.076 90.3392L68.647 91.0492L67.237 92.2042L66.659 91.5062ZM68.076 90.3392L68.425 90.0582L68.712 90.4022L68.361 90.6931L68.076 90.3392ZM68.712 90.4022C68.939 90.6359 69.233 90.792 69.554 90.8482L69.343 91.7332C68.8247 91.6392 68.3518 91.3775 67.997 90.9882L68.712 90.4022ZM69.554 90.8482C70.13 90.9617 70.7136 91.0322 71.3 91.0592L71.235 91.9672C70.5992 91.9382 69.9666 91.8606 69.343 91.7332L69.554 90.8482ZM71.3 91.0592C71.858 91.1012 73.64 91.0982 74.791 91.0982V92.0062C73.615 92.0062 71.791 92.0062 71.235 91.9672L71.3 91.0592ZM74.791 91.0982H75.641V92.0062H74.795V91.0982H74.791ZM75.641 91.0982C76.4862 91.1789 77.3385 91.0555 78.126 90.7382L78.573 91.5292C77.6508 91.934 76.641 92.0985 75.638 92.0072V91.0992L75.641 91.0982ZM78.126 90.7382C78.639 90.4472 78.947 89.8751 79.026 88.8041L79.934 88.8692C79.9608 89.3931 79.8494 89.9148 79.6108 90.3821C79.3723 90.8493 79.0151 91.2456 78.575 91.5312L78.126 90.7382ZM79.026 88.8041C79.0762 88.4188 79.0715 88.0282 79.012 87.6442L79.897 87.4442C79.9783 87.9082 79.99 88.3817 79.932 88.8492L79.026 88.8041ZM79.012 87.6442C78.9037 87.2718 78.7428 86.9169 78.534 86.5902L79.334 86.1462C79.588 86.5484 79.7798 86.9867 79.903 87.4462L79.012 87.6442ZM78.534 86.5902L78.478 86.3792L78.932 86.3682L78.534 86.5902ZM78.478 86.3792L78.432 84.4262L79.34 84.4052L79.392 86.3612L78.478 86.3792ZM78.432 84.4262L78.379 82.4532L79.287 82.4322L79.339 84.4002L78.432 84.4262ZM78.379 82.4532C78.371 81.8439 78.2929 81.2375 78.146 80.6462L79.026 80.4252C79.1892 81.082 79.2767 81.7554 79.287 82.4322L78.379 82.4532ZM78.145 80.6532C77.9815 80.0476 77.7715 79.4555 77.517 78.8822L78.355 78.5312L79.025 80.4312L78.145 80.6532ZM77.517 78.8822L76.983 77.5002L77.835 77.1882L78.355 78.5312L77.517 78.8822ZM76.981 77.4982L76.1 75.3902L76.912 74.9682C77.2622 75.6826 77.5697 76.4173 77.833 77.1682L76.981 77.4982ZM76.1 75.3902L76.058 75.1092L76.505 75.1882L76.1 75.3902ZM76.058 75.1092L76.17 74.4092L77.07 74.5212L76.958 75.2662L76.058 75.1092ZM76.17 74.4092L76.249 73.6782L77.157 73.7522L77.068 74.5222L76.17 74.4092ZM76.249 73.6782L76.333 72.7282L77.017 73.3892L76.702 73.7182L76.249 73.6782ZM77.016 73.3872L78.351 74.6732L77.723 75.3292L76.388 74.0432L77.016 73.3872ZM78.351 74.6732L79.335 75.6342L78.707 76.2902L77.723 75.3292L78.351 74.6732ZM79.335 75.6342C79.9687 76.298 80.6759 76.8874 81.443 77.3912L80.982 78.1752C80.1526 77.6378 79.3885 77.0059 78.705 76.2922L79.335 75.6342ZM81.443 77.3912C82.2029 77.8443 83.0834 78.0537 83.966 77.9912L84.008 78.8992C82.9483 78.9701 81.8922 78.7158 80.981 78.1702L81.443 77.3912ZM83.966 77.9912C85.1675 77.8983 86.3162 77.4588 87.273 76.7262L87.813 77.4572C86.7097 78.2903 85.3912 78.7906 84.013 78.8992L83.966 77.9912ZM87.273 76.7262C88.2073 76.0795 88.9138 75.1546 89.292 74.0832L90.163 74.3462C89.7235 75.6032 88.9031 76.6921 87.816 77.4612L87.273 76.7262ZM89.292 74.0832L89.611 73.0332L90.482 73.2962L90.163 74.3462L89.292 74.0832ZM89.611 73.0332L89.982 71.8102L90.853 72.0732L90.482 73.2962L89.611 73.0332ZM89.982 71.8102L90.1 71.4212L90.5 71.4972L90.416 71.9432L89.982 71.8102ZM90.502 71.4972C92.4017 71.8599 94.343 71.9545 96.269 71.7782L96.358 72.6782C94.3474 72.8743 92.319 72.7807 90.335 72.4002L90.502 71.4972ZM96.269 71.7782C97.9152 71.6329 99.5182 71.1729 100.991 70.4232L101.417 71.2232C99.8389 72.0272 98.1222 72.5212 96.358 72.6782L96.269 71.7782ZM100.991 70.4232C102.967 69.3533 104.6 67.7452 105.699 65.7852L106.486 66.2352C105.299 68.3414 103.543 70.0706 101.418 71.2242L100.991 70.4232ZM105.699 65.7852C106.959 63.4857 107.725 60.9486 107.948 58.3362L108.848 58.4202C108.618 61.168 107.813 63.8368 106.484 66.2532L105.699 65.7852ZM107.948 58.3362C108.153 55.6589 108.033 52.9666 107.591 50.3182L108.485 50.1772C108.938 52.9011 109.061 55.6698 108.85 58.4232L107.948 58.3362ZM107.591 50.3182C107.279 47.9875 106.613 45.7183 105.615 43.5892L106.42 43.1702C107.461 45.387 108.157 47.7494 108.486 50.1762L107.591 50.3182ZM105.616 43.6032C105.525 43.4408 105.409 43.2937 105.273 43.1672L105.908 42.5182C106.112 42.7134 106.285 42.9386 106.421 43.1862L105.616 43.6032ZM105.273 43.1812C104.825 42.7552 104.29 42.4299 103.706 42.2272L103.987 41.3842C104.698 41.6318 105.349 42.0287 105.894 42.5482L105.273 43.1812ZM103.706 42.2252C103.224 42.0144 102.679 42.0018 102.188 42.1902L101.769 41.3852C102.12 41.2326 102.499 41.1525 102.882 41.1494C103.265 41.1463 103.644 41.2203 103.998 41.3672L103.706 42.2252ZM102.188 42.1902C102.102 42.2343 102.024 42.2921 101.956 42.3612L101.307 41.7262C101.441 41.5861 101.598 41.4703 101.771 41.3842L102.188 42.1902ZM101.956 42.3612C101.577 42.7749 101.234 43.2198 100.93 43.6912L100.181 43.1792C100.511 42.6621 100.888 42.1758 101.305 41.7262L101.956 42.3612ZM100.932 43.6892C100.537 44.3232 100.065 44.9063 99.527 45.4252L98.937 44.7342C99.421 44.2713 99.8447 43.7491 100.198 43.1802L100.932 43.6892ZM99.527 45.4252C98.861 45.9457 98.1127 46.3513 97.313 46.6252L96.976 45.7822C97.6794 45.5383 98.3397 45.1842 98.932 44.7332L99.527 45.4252ZM97.313 46.6252L96.978 46.7602L96.634 45.9202L96.976 45.7822L97.313 46.6252ZM96.978 46.7602L96.556 46.9382L96.392 46.4952L96.817 46.3532L96.978 46.7602ZM96.378 46.4962C96.0968 45.7388 95.7379 45.0126 95.307 44.3292L96.077 43.8472C96.5416 44.5831 96.9287 45.3653 97.232 46.1812L96.378 46.4962ZM95.307 44.3292C94.8777 43.6548 94.4019 43.0113 93.883 42.4032L94.583 41.8212C95.1294 42.4605 95.6306 43.1372 96.083 43.8462L95.307 44.3292ZM93.883 42.4032C93.5215 41.9685 93.1111 41.5769 92.66 41.2362L93.222 40.5152C93.7271 40.8966 94.1865 41.3352 94.591 41.8222L93.883 42.4032ZM92.66 41.2362C92.236 40.9132 91.755 40.6112 91.193 40.2582L91.675 39.4882L93.21 40.5142L92.66 41.2362ZM91.195 40.2532C89.6853 39.2567 88.2596 38.1387 86.932 36.9102L87.532 36.2262C88.8248 37.4245 90.2134 38.5151 91.684 39.4872L91.195 40.2532ZM86.932 36.9102L85.143 35.3752L85.722 34.6752L87.528 36.2282L86.932 36.9102ZM85.143 35.3752C82.143 32.9012 79.381 31.7022 76.429 31.5172L76.485 30.6092C79.633 30.8092 82.579 32.0712 85.736 34.6852L85.143 35.3752ZM76.425 31.5192C73.452 31.3322 70.275 32.1662 66.502 33.7682L66.151 32.9302C70.051 31.2882 73.351 30.4302 76.481 30.6302L76.425 31.5192ZM66.502 33.7682C64.9439 34.4015 63.5102 35.3054 62.267 36.4382L61.653 35.7702C62.9694 34.5565 64.4938 33.5901 66.153 32.9172L66.502 33.7682ZM62.267 36.4382C61.0708 37.6007 59.9877 38.874 59.032 40.2412L58.304 39.6982C59.3024 38.2858 60.4318 36.9706 61.677 35.7702L62.267 36.4382ZM59.032 40.2412L58.891 40.4122L58.68 40.4232L58.658 39.9692L59.032 40.2412ZM58.692 40.4242C58.1157 40.4344 57.5453 40.5422 57.005 40.7432L56.668 39.9002C57.3012 39.6623 57.9698 39.5325 58.646 39.5162L58.692 40.4242ZM57.005 40.7432C56.3558 41.0269 55.7612 41.4218 55.248 41.9102L54.648 41.2282C55.2414 40.6734 55.9248 40.2237 56.669 39.8982L57.005 40.7432ZM55.248 41.9102L53.748 43.2992L53.116 42.6452L54.67 41.2092L55.248 41.9102ZM53.748 43.2992L53.432 42.9702L53.748 43.2962V43.2992ZM53.748 43.2992L52.307 44.7532L51.651 44.1252L53.127 42.6422L53.748 43.2992ZM52.307 44.7532L52.05 44.8872L51.98 44.4402L52.307 44.7532ZM52.05 44.8872C48.9815 45.2958 45.9647 46.0276 43.05 47.0702L42.724 46.2212C45.6978 45.1574 48.7755 44.4103 51.906 43.9922L52.05 44.8872ZM43.05 47.0702C40.4292 48.0858 38.019 49.5776 35.941 51.4702L35.341 50.7702C37.5 48.8069 40.0029 47.2593 42.724 46.2052L43.05 47.0702ZM35.905 51.4532C35.0051 52.2477 34.1846 53.1278 33.455 54.0812L32.734 53.5192C33.4991 52.5158 34.3602 51.5895 35.305 50.7532L35.905 51.4532ZM33.455 54.0812C32.751 55.0065 32.1337 55.9946 31.611 57.0332L30.801 56.6212C31.3544 55.5355 32.0005 54.4997 32.732 53.5252L33.455 54.0812ZM31.611 57.0332L31.544 57.1332L31.207 56.8332L31.611 57.0332ZM31.544 57.1332L29.96 58.7742L29.353 58.0972C29.885 57.5983 30.3917 57.0729 30.871 56.5232L31.544 57.1332ZM29.96 58.7742C29.3969 59.3039 28.7413 59.7259 28.026 60.0192L27.7 59.1702C28.3122 58.9155 28.8727 58.5512 29.354 58.0952L29.96 58.7742ZM28.026 60.0192H28.032L27.87 59.5952L28.026 60.0192ZM28.026 60.0192C27.443 60.2442 27.159 60.3562 26.836 60.2192L27.187 59.3812C27.201 59.3872 27.349 59.3072 27.703 59.1702L28.026 60.0192ZM26.836 60.2192L27.013 59.8022L26.837 60.2212L26.836 60.2192ZM26.836 60.2192C26.496 60.0742 26.414 59.7952 26.189 59.2322L27.041 58.9162C27.16 59.2352 27.158 59.3712 27.19 59.3842L26.836 60.2192ZM26.189 59.2322L26.07 58.9162L26.343 58.7112L26.614 59.0762L26.189 59.2322ZM26.33 58.7122C27.165 58.0852 27.244 56.8362 27.319 55.6202L28.227 55.6762C28.138 57.0812 28.044 58.5432 26.872 59.4262L26.33 58.7122ZM27.319 55.6202L27.347 55.1872L28.255 55.2522L28.227 55.6782L27.319 55.6202ZM27.347 55.1872L27.379 54.7442L27.822 54.7652L27.801 55.2192L27.347 55.1872ZM27.822 54.7652C28.571 54.8002 28.913 55.3272 29.281 55.8992L28.518 56.3912C28.283 56.0262 28.064 55.6912 27.78 55.6912L27.822 54.7652ZM29.281 55.8992L29.601 56.3632L28.891 56.9252C28.7577 56.7518 28.633 56.5725 28.517 56.3872L29.281 55.8992ZM29.703 56.7422L29.495 57.6702L28.905 56.9252L29.259 56.6442L29.703 56.7422ZM28.818 56.5422C29.0066 55.7828 29.0423 54.9935 28.923 54.2202L29.808 54.0202C29.9655 54.9221 29.9314 55.8472 29.708 56.7352L28.818 56.5422ZM28.923 54.2202C28.8874 53.994 28.8013 53.7787 28.6711 53.5904C28.5409 53.402 28.37 53.2454 28.171 53.1322L28.586 52.3222C28.903 52.4937 29.1772 52.7344 29.3884 53.0265C29.5996 53.3185 29.7424 53.6544 29.806 54.0092L28.923 54.2202ZM28.171 53.1322L27.811 52.9462L27.952 52.5692L28.378 52.7262L28.171 53.1322ZM27.953 52.5702L28.234 51.8862L29.077 52.2162L28.82 52.8862L27.953 52.5702ZM28.234 51.8862L28.65 50.7862L29.493 51.0862L29.063 52.2222L28.234 51.8862ZM29.003 50.4862L29.761 50.3532L29.505 51.0812L29.075 50.9322L29.003 50.4862ZM29.144 51.3802C27.5298 51.9062 26.0766 52.8355 24.922 54.0802L24.262 53.4532C25.5581 52.0797 27.186 51.0631 28.989 50.5012L29.144 51.3802ZM24.922 54.0802C24.4292 54.5716 24.0192 55.1396 23.708 55.7622L22.884 55.3832C23.2364 54.6698 23.7017 54.0181 24.262 53.4532L24.922 54.0802ZM23.705 55.7642C23.44 56.2799 23.3408 56.8649 23.421 57.4392L22.527 57.5802C22.4135 56.8255 22.5376 56.0542 22.882 55.3732L23.705 55.7642ZM23.421 57.4392C23.5397 58.0173 23.8424 58.5415 24.284 58.9332L23.656 59.5892C23.0718 59.0633 22.6754 58.361 22.527 57.5892L23.421 57.4392ZM24.284 58.9332L24.425 59.1522L23.985 59.2602L24.284 58.9332ZM24.425 59.1522L24.757 60.3752L23.891 60.6452L23.545 59.3802L24.425 59.1522ZM24.757 60.3752C24.8574 60.7028 24.9818 61.0227 25.129 61.3322L24.31 61.7232C24.1442 61.3745 24.0042 61.0142 23.891 60.6452L24.757 60.3752ZM25.129 61.3322C25.2658 61.635 25.4645 61.9047 25.7124 62.1261C25.9602 62.3474 26.2517 62.5143 26.568 62.6162L26.291 63.4822C25.8569 63.3452 25.4569 63.1174 25.1176 62.8139C24.7783 62.5105 24.5074 62.1383 24.323 61.7222L25.129 61.3322ZM26.568 62.6162C27.3158 62.8206 28.1104 62.7711 28.827 62.4752L29.157 63.3182C28.2475 63.6965 27.2363 63.7537 26.29 63.4802L26.568 62.6162ZM28.827 62.4752L29.614 62.1662L29.434 62.9912L28.99 62.8912L28.827 62.4752ZM29.436 62.9952C29.2125 64.0388 29.0829 65.1004 29.049 66.1672L28.141 66.1352C28.1769 65.0145 28.3134 63.8993 28.549 62.8032L29.436 62.9952ZM29.019 66.1782C28.9823 67.5129 29.0263 68.8487 29.151 70.1782L28.242 70.2532C28.1142 68.8905 28.0701 67.5212 28.11 66.1532L29.019 66.1782ZM29.151 70.1782L29.269 71.2532L28.369 71.3742L28.239 70.2532L29.151 70.1782ZM29.269 71.2532L29.455 72.3772L28.564 72.5462L28.371 71.3882L29.269 71.2532ZM29.455 72.3772L29.435 72.6192L29.009 72.4782" fill="black"/>
<path fill-rule="evenodd" clip-rule="evenodd" d="M52.188 45.143L46.208 46.127L40.75 48.519L36.115 51.434L31.705 56.817L29.213 59.457L26.804 60.345L26.167 58.788L27.282 57.179L27.532 54.911L28.277 54.939L29.092 55.684L28.873 53.373L27.973 52.773L28.001 51.893L25.856 53.101L23.917 55.389L23.517 57.434L24.36 59.071L25.129 61.855L26.703 62.6L28.357 62.518L29.929 61.604L28.877 66.897L29.924 72.803L28.771 75.53L24.998 79.595L25.668 82.024L27.468 84.839L30.838 87.211L32.626 87.456L34.613 87.523L33.373 92.614L37.937 94.479L43.618 95.227L45.562 93.956L45.711 90.517L47.88 86.929L48.029 84.09L53.262 84.464L58.121 84.014L53.262 86.929L54.084 90.443L57.148 95.227L60.139 96.498L62.531 95.514L63.515 93.57L68.524 89.757L69.508 90.579L77.358 90.879L78.928 89.608L79.077 87.365L78.554 86.381L78.18 80.326L75.563 75.093L76.013 72.774L77.583 73.596L81.993 77.707L84.16 77.856L86.552 76.872L88.943 75.079L90.138 71.191L97.165 71.641L101.429 70.001L104.868 66.787L107.329 62.151L107.929 56.693L107.406 50.34L106.061 44.659L104.716 42.864L102.847 42.264L99.558 45.852L96.569 46.899L93.952 42.563L91.335 40.171L89.929 39.279L84.248 34.571L79.691 32.102L75.129 31.728L69.822 32.628L65.189 34.344L61.975 36.961L59.429 40.025L56.812 40.773L52.188 45.143Z" fill="#FEEB50" stroke="#1F1917" stroke-width="0.095" stroke-miterlimit="10"/>
<path fill-rule="evenodd" clip-rule="evenodd" d="M34.843 58.6401C29.72 64.6151 30.843 71.8611 32.278 78.9621L30.006 73.2201L29.168 67.9551L29.407 62.5721L31.561 57.4281L34.794 52.6421L39.819 48.4541L45.319 46.1791L51.78 45.3411L45.801 52.1601C41.001 53.7171 38.165 54.7671 34.847 58.6251" fill="#FDF7BA"/>
<path fill-rule="evenodd" clip-rule="evenodd" d="M58.957 40.4341C55.8318 43.377 53.2067 46.8092 51.185 50.5961L46.041 59.1781C45.3374 60.5253 44.9283 62.0067 44.841 63.5241L42.328 60.5331L43.523 56.9431L47.59 49.6431L56.206 41.1481L58.958 40.4481M76.548 31.8321C73.695 32.9001 68.958 33.2541 68.629 36.5261C68.394 38.8511 68.805 40.0191 70.206 42.4781C66.744 38.8971 65.888 39.4511 59.206 40.5641L62.077 36.4971L67.102 33.3871L73.557 31.9491L76.548 31.8301" fill="#FDF7BA"/>
<path fill-rule="evenodd" clip-rule="evenodd" d="M84.4149 76.1011C85.3649 76.6871 85.3429 77.1131 85.1849 77.5141L87.4339 76.6141L88.8899 74.6461L89.9719 71.8601L88.5919 70.8201L82.5569 71.5901L82.1069 72.8101L82.2479 74.5431L82.8099 75.5691L83.7099 76.0191L84.4169 76.0841M83.8549 65.7681C80.8299 66.6391 80.8549 66.8811 79.9619 69.8831C80.9108 68.2191 82.246 66.8077 83.8549 65.7681ZM103.972 43.3231C103.433 43.47 102.947 43.7685 102.572 44.1831C101.94 45.2616 101.071 46.1824 100.031 46.8761C99.4472 47.2274 98.8203 47.5014 98.1659 47.6911C97.6359 47.8551 97.3169 47.7091 96.8659 48.0331L97.6659 48.1741H99.4369L101.627 46.8231L102.912 45.4741L103.972 43.3231ZM55.7829 50.0361C54.7551 53.1683 53.4031 56.1846 51.7489 59.0361C53.8297 56.861 55.5312 54.3526 56.7829 51.6151C57.2969 50.5221 57.3939 49.2261 58.8249 49.7151C58.8899 50.8071 59.1059 51.8981 59.1849 52.9901C59.9579 47.4451 62.1389 45.1261 67.1959 42.9751L62.8959 43.4881L58.8509 44.3881L56.8509 47.2641L55.7539 50.0231M65.5919 49.9111C66.6849 55.0581 68.2599 59.9971 68.9439 65.2251C69.3879 68.6251 69.4359 70.2541 67.7269 73.1861C66.0848 73.057 64.4343 73.2898 62.8919 73.8681C55.6999 76.2231 51.5749 79.6901 46.7269 72.7041L51.3689 74.8911L54.6779 74.2401L60.5209 70.8401L65.0789 69.9401L66.5549 63.7771L65.4619 55.6231L65.3209 51.7721L65.5779 49.9101M77.9649 81.7521C77.3649 85.9331 79.3699 88.1811 78.5299 89.3361C78.2949 89.6631 77.9789 90.2361 77.6249 90.3901C76.3599 90.9481 74.6249 90.2901 74.4979 90.6121H70.3389L68.6689 89.9051L71.2369 86.8871L73.7369 81.4291L75.3419 75.9081H76.1769L77.9769 81.7511" fill="#EDD749"/>
<path fill-rule="evenodd" clip-rule="evenodd" d="M70.9799 69.5971C71.3169 71.4971 71.9079 71.9471 72.7999 73.7851C72.2054 76.9362 71.301 80.0208 70.0999 82.9941C69.7157 83.9722 69.1261 84.8564 68.3709 85.5871C66.9515 87.0193 65.4363 88.3534 63.8359 89.5801C62.6579 90.4881 61.8359 90.0331 60.3839 89.8271C59.7659 90.9471 59.5969 91.5701 58.4579 92.1381C56.7099 93.0121 55.1439 91.1261 53.7709 90.0201L56.7439 94.6641L58.7989 96.5901L60.5319 96.8471L62.8429 95.4341L64.0629 93.1231L66.6309 91.1971L69.7759 88.4971L71.7659 85.6861L73.5659 82.3481L75.8779 75.4151L76.0689 72.7801L73.1789 71.4951L70.9789 69.6121M47.9489 82.9711C51.1899 82.9711 54.6109 82.7911 57.5789 81.4311C58.3825 80.2245 59.2857 79.0872 60.2789 78.0311C59.4485 79.4884 58.9448 81.1088 58.8029 82.7801L57.8399 84.1931L50.5169 84.3801L48.1279 84.1231L47.8709 83.8661L47.9359 82.9661M47.4959 80.7061L47.2429 78.4261C46.6889 81.7571 46.8209 83.9921 45.2749 86.9771C44.154 88.3508 42.725 89.441 41.1039 90.1591C41.2396 90.793 41.2733 91.4445 41.2039 92.0891C40.9199 94.2481 36.6039 93.2891 34.8259 93.2081L43.3739 95.4081L45.2999 94.6381L45.9419 90.9131L47.7419 87.5751L48.0619 85.5201L47.4999 80.7051M42.6999 61.9051C42.4618 63.1709 42.6444 64.4798 43.2199 65.6321C44.1279 67.4511 45.2439 69.1461 46.2309 70.9731L46.5509 67.3731L42.6999 61.9151M29.5049 74.1531L28.6719 75.9281C29.2836 78.2238 30.2629 80.4054 31.5719 82.3881C31.4007 83.1453 31.049 83.85 30.5469 84.4421C29.316 84.259 28.0723 84.1754 26.8279 84.1921L31.1279 87.5301L33.2459 87.1451L35.3639 85.0271L32.3469 80.3401L29.5049 74.1531ZM103.976 42.4801C104.847 46.4101 105.976 50.0341 105.871 54.0581C105.73 58.9941 104.78 65.2321 100.207 68.2081C95.0839 71.5421 89.0709 69.9651 83.4509 68.5371L90.3169 71.3501L96.7369 71.6701L101.102 70.3851L104.502 67.5741L107.075 62.1801L108.038 55.9541L107.268 49.8541L105.855 43.8191L103.972 42.4801M27.5349 54.1801C25.2229 55.6981 24.2949 56.3591 24.5509 59.1651L25.2509 61.6851L26.2349 62.3511L27.4519 62.7511L29.6519 62.2311L30.7819 58.7261L27.6509 60.2621H26.9279L26.1169 59.0171L27.1009 57.5691L27.6169 54.8171L28.2829 55.0171L29.0939 55.6551L28.9809 54.2101L28.4299 53.2801L27.8789 52.8161L27.5319 54.1801M79.7059 32.0801C81.7689 33.9971 84.3059 35.6641 85.9529 38.0041C86.5919 38.9111 87.3019 39.3741 85.9419 40.6551C86.9458 40.316 88.0197 40.2385 89.0619 40.4301C91.1529 40.6831 93.1139 43.6571 93.2389 45.7881C93.2139 45.9881 92.6589 46.4401 91.0389 46.8881C91.0069 46.9501 90.1249 46.7671 90.1479 46.8281C90.3169 47.2881 90.5419 47.3581 90.8829 47.5731C90.9151 48.2178 91.0752 48.8498 91.3539 49.4321C92.3641 49.4205 93.3726 49.518 94.3619 49.7231C94.6221 50.2364 94.7114 50.8194 94.6169 51.3871L95.7719 51.1941L95.4519 48.5621L96.4779 46.8291L95.0069 43.4911L92.1959 40.7911L91.9229 40.7801L88.7469 38.8291L83.5639 34.5901L79.7169 32.0801M83.1819 47.8951C83.0517 48.1501 82.8894 48.3873 82.6989 48.6011C83.4877 49.241 84.0454 50.1215 84.2869 51.1081L81.3719 52.5561L78.9049 54.9211C78.4652 54.7074 78.0727 54.4078 77.7506 54.0402C77.4284 53.6725 77.183 53.244 77.0289 52.7801C76.491 52.9916 75.9021 53.0376 75.3379 52.9121C75.6388 52.9137 75.9319 52.8172 76.1729 52.6371L77.7429 51.0071L80.5159 48.9071L82.3429 48.3171C82.5729 48.2171 82.9609 47.9941 83.1929 47.8951" fill="#EDD749"/>
<path fill-rule="evenodd" clip-rule="evenodd" d="M85.8699 50.7941C82.7779 52.4611 79.8179 54.1471 78.2379 57.2941C78.2379 53.2811 82.2678 51.5151 85.8728 50.7941M77.6189 42.9021C76.4018 43.7926 75.4251 44.9716 74.7767 46.3331C74.1282 47.6946 73.8283 49.1959 73.9039 50.7021C73.1559 48.0361 73.4209 45.5021 75.7309 43.6751L76.8929 43.1101L77.6329 42.9021" fill="#EDD749"/>
<path fill-rule="evenodd" clip-rule="evenodd" d="M82.005 66.6611L83.815 65.7901L81.964 66.1341C80.664 66.3551 80.507 66.668 80.306 67.951L79.983 69.91L80.845 67.7791C81.16 67.0791 81.337 67.024 82.006 66.66L82.005 66.6611ZM57.83 33.6061C58.6043 32.3347 59.7061 31.2948 61.02 30.5951C58.88 31.1111 58.471 31.5091 57.83 33.6061ZM57.493 36.9791C59.286 33.3791 60.644 32.0601 64.393 30.2791C60.152 31.3181 58.915 32.0611 57.493 36.9791ZM19.084 55.7501C19.3397 54.2827 19.9872 52.9117 20.958 51.7821C19.151 53.0441 18.917 53.5611 19.084 55.7501ZM59.271 85.9611L59.108 84.6471C59.0168 83.9044 59.0064 83.154 59.077 82.409L59.26 80.09C59.035 80.877 58.585 81.6611 58.36 82.4471L58.153 83.2471C54.8404 83.9332 51.427 83.977 48.098 83.3761L47.404 79.9041C47.338 80.9441 47.38 83.8231 47.376 85.4331C47.4723 86.3997 47.2244 87.3693 46.676 88.1711C46.0528 89.1011 45.4894 90.0697 44.989 91.0711C45.0961 91.9981 45.0244 92.937 44.778 93.8371C44.31 95.5241 39.586 94.2141 38.341 93.8721C36.806 93.4501 33.633 92.8281 34.431 90.7801C35.1788 88.7757 35.6791 86.6876 35.921 84.562C33.11 80.511 30.496 74.9621 29.993 70.0431C29.5486 67.1963 29.7781 64.285 30.663 61.5431C31.822 57.9044 33.9174 54.6344 36.739 52.0611C40.702 48.5821 44.41 47.1841 50.212 46.3011C48.812 47.8471 47.436 49.5151 45.931 51.2861C44.5619 52.9867 43.4191 54.8576 42.531 56.8521C41.196 59.5601 41.224 60.5911 42.995 62.9701C44.521 65.0191 45.345 65.9431 46.013 67.9451C45.4831 69.0927 45.1659 70.3271 45.077 71.5881C46.946 73.6301 48.335 75.0311 50.137 75.4631C51.7574 75.9325 53.4962 75.7636 54.996 74.9911C58.534 73.1821 61.806 70.8481 65.796 70.7511C67.641 66.2111 67.454 62.4211 66.569 58.0311C66.0151 55.0924 65.6689 52.1184 65.533 49.1311C64.7727 52.0891 64.6592 55.1762 65.2 58.1821C65.869 61.9771 66.389 66.1371 64.528 69.4581C60.92 69.7351 57.828 71.9291 54.577 73.6131C53.3043 74.2643 51.8265 74.3886 50.463 73.9591C49.121 73.5911 48.214 72.7021 46.763 71.0331C46.7425 69.6306 47.1332 68.2529 47.887 67.0701C49.124 64.6341 50.487 62.3701 51.987 59.9701C50.1986 61.9694 48.5249 64.0684 46.974 66.257C46.423 64.686 45.635 63.8871 44.327 62.1191C43.051 60.3901 42.917 59.6341 43.872 57.6191C44.6963 55.5992 45.8466 53.7283 47.277 52.0811C50.098 49.0341 52.683 45.6441 55.766 42.6431C57.441 41.0131 58.122 41.0691 60.344 40.7321C62.354 40.4321 64.313 40.0321 66.359 39.5651C64.391 39.7481 62.459 39.8181 60.535 39.8651H60.475C62.375 37.4421 63.475 36.0911 66.555 34.7531C74.151 31.4611 78.972 31.1031 84.931 36.1121C86.477 37.4121 87.831 38.6701 89.391 39.7921C88.807 39.8367 88.2335 39.9716 87.691 40.1921C88.5365 40.0931 89.3928 40.1432 90.221 40.3401C90.4536 40.4907 90.6893 40.6364 90.928 40.7771C91.9106 41.2474 92.7626 41.9521 93.409 42.8291C94.1861 43.9046 94.8655 45.0475 95.439 46.2441L94.455 45.9071C94.1375 45.7602 93.7884 45.6946 93.4393 45.7162C93.0901 45.7379 92.7519 45.8461 92.455 46.0311L92.409 46.0521C91.7121 46.3905 90.9753 46.6395 90.216 46.7931C90.6659 46.9163 91.1397 46.9232 91.593 46.8131C91.6379 46.7951 91.684 46.7804 91.731 46.7691C91.5483 47.0771 91.4471 47.4266 91.437 47.7845C91.4268 48.1425 91.508 48.4972 91.673 48.8151C91.7256 48.9444 91.8019 49.0627 91.898 49.1641C91.598 49.2761 91.301 49.3964 91.007 49.5251C92.3526 49.3033 93.7235 49.2797 95.076 49.4551L95.357 50.8181L94.839 50.8611H94.797C94.145 50.3411 93.417 50.4391 92.408 50.6531C89.386 51.3531 90.096 53.0381 88.708 55.5931C90.151 53.8281 90.043 51.9811 92.397 51.4261C92.8113 51.2739 93.2486 51.1941 93.69 51.1901C93.0238 51.5018 92.4976 52.0504 92.214 52.7291C91.567 54.5521 91.969 56.1021 91.258 57.7921C92.136 56.2701 92.19 54.7841 92.976 53.1821C93.4084 52.4381 94.1172 51.8951 94.948 51.6711L95.476 51.6601C95.6329 52.6025 95.6959 53.5582 95.664 54.5131C95.5311 56.0785 95.2831 57.632 94.922 59.1611C95.722 58.1381 96.08 55.9711 96.43 54.4461C96.7565 52.7265 96.7409 50.9595 96.384 49.2461C95.962 46.9041 98.357 47.2851 99.757 46.1821C100.786 45.3711 101.494 44.0741 102.437 43.1571C103.38 42.2401 104.846 43.5841 105.214 44.4741C106.833 48.8942 107.481 53.6111 107.114 58.3041C106.64 62.6721 104.531 67.44 100.677 69.59C95.766 72.331 89.977 70.6581 85.097 69.0281C84.1461 68.6642 83.2455 68.1806 82.417 67.5891C82.7172 68.711 82.7279 69.8908 82.448 71.0181C81.921 72.7961 81.071 75.7051 83.488 76.2421C83.9359 76.36 84.4045 76.3767 84.8597 76.2911C85.315 76.2055 85.7455 76.0197 86.12 75.7471C85.3682 75.9472 84.5792 75.963 83.82 75.7931C83.5488 75.748 83.2953 75.6293 83.087 75.45C82.8787 75.2706 82.7237 75.0375 82.639 74.7761C83.0273 74.9791 83.4445 75.1215 83.876 75.1981C85.667 75.6291 87.376 74.7681 87.705 73.5111C87.8284 72.7917 88.0202 72.0859 88.278 71.4031C88.648 71.5151 89.031 71.6211 89.423 71.7161L88.758 73.8851C88.3821 74.8581 87.7247 75.6971 86.8697 76.2947C86.0147 76.8923 85.0009 77.2214 83.958 77.2401C82.128 77.2081 80.969 76.0621 79.706 74.9401L77.169 72.6911C74.9271 72.0332 72.8238 70.9726 70.962 69.5611C72.1455 71.1659 73.7427 72.4191 75.583 73.187C75.283 76.299 74.197 78.5671 73.275 81.5441C72.858 82.8901 69.565 88.2851 68.637 88.8101C67.986 89.1851 63.909 92.6051 63.156 93.0711C62.585 93.8301 62.084 94.8771 61.225 95.3311C58.608 96.7141 56.925 94.0661 55.519 91.8311C54.878 90.8121 53.097 87.8761 54.648 87.0521C55.9509 86.3494 57.2147 85.5766 58.434 84.7371C58.653 85.1371 59.034 85.5241 59.277 85.9251L59.271 85.9611ZM68.371 90.7051C67.046 91.7731 64.818 93.6571 64.386 93.9051C63.603 95.0721 63.506 95.7951 62.252 96.4741C58.519 98.4941 56.539 96.1511 54.329 92.7471C53.275 91.1251 50.974 87.4061 53.415 86.1651C54.444 85.6371 55.224 85.2371 56.001 84.7881C53.446 85.1201 50.8574 85.0966 48.309 84.7181L48.428 85.6091C48.597 87.0381 48.653 87.4751 47.877 88.6271C47.2844 89.4343 46.7918 90.3103 46.41 91.2361C46.5511 92.3226 46.4555 93.4269 46.13 94.4731C45.353 97.3581 39.963 95.7731 37.767 95.1831C35.125 94.4691 31.35 93.8031 32.898 90.4041C33.2467 89.6318 33.5353 88.8338 33.761 88.0171C31.449 89.0361 28.239 86.8611 26.709 85.3321C25.3875 84.0351 24.5061 82.3563 24.189 80.5321C23.954 79.1321 24.169 79.1271 25.167 78.1511L27.908 75.438L29.014 72.4301C28.8702 71.6864 28.7657 70.9357 28.701 70.1811C28.4051 67.749 28.4942 65.2854 28.965 62.8811C28.2159 63.2619 27.3468 63.3317 26.5466 63.0751C25.7464 62.8186 25.0799 62.2565 24.692 61.5111C24.3678 60.7831 24.1218 60.0229 23.958 59.2431C20.371 55.7851 27.092 51.2611 29.053 50.9161C28.828 51.5531 28.584 52.1361 28.367 52.7161C29.697 53.4161 29.534 55.3651 29.252 56.6291C28.774 56.0291 28.51 55.2241 27.804 55.2021C27.704 56.6301 27.72 58.2101 26.604 59.0461C26.934 59.9291 26.917 59.9291 27.869 59.5691C29.1831 58.9158 30.328 57.967 31.214 56.7971C32.3052 54.6348 33.7985 52.7003 35.614 51.0971C40.325 46.9201 44.778 45.5541 51.949 44.4111C52.9076 43.4057 53.9076 42.4421 54.949 41.5201C55.4336 41.0216 56.0118 40.6237 56.6505 40.3492C57.2892 40.0746 57.9758 39.9288 58.671 39.9201C60.916 36.9201 62.682 34.8271 66.341 33.2861C74.01 30.0611 79.298 29.9011 85.454 34.9781C87.3472 36.7237 89.3535 38.3426 91.46 39.8241C92.5171 40.4061 93.4676 41.1636 94.271 42.0641C95.3726 43.3083 96.2424 44.74 96.839 46.2911C97.71 46.0052 98.5292 45.5808 99.265 45.0341C100.207 44.2291 100.807 42.8841 101.68 41.9981C102.838 40.8241 105.48 42.2411 106.065 43.3611C108.055 47.1561 108.865 54.1871 108.446 58.3611C107.923 63.5191 105.797 68.3961 101.246 70.8231C98.154 72.4721 94.008 72.6231 90.457 71.9541L89.757 74.2251C89.2919 75.396 88.5083 76.4133 87.4949 77.1619C86.4815 77.9105 85.2789 78.3606 84.023 78.4611C81.763 78.5681 80.537 77.4011 79.056 75.9731L76.723 73.7241C76.6796 74.2174 76.613 74.7084 76.523 75.1971C77.136 76.4061 77.43 77.468 77.954 78.715C78.5025 79.8888 78.8086 81.1612 78.854 82.4561L78.954 86.3671C79.4601 87.0827 79.6622 87.9698 79.516 88.8341C79.338 91.3261 77.964 91.5631 75.679 91.5491C74.917 91.5431 72.025 91.5631 71.322 91.5101C69.865 91.4051 68.905 91.2941 68.401 90.6921L68.371 90.7051ZM76.079 77.1061C75.619 78.7501 75.001 80.3011 74.435 82.0791C73.901 83.7611 71.16 88.6501 69.548 89.8331C70.1452 90.1206 70.8023 90.2621 71.465 90.2461C72.192 90.3091 75.055 90.3221 75.773 90.3351C77.356 90.3631 77.956 90.2441 78.116 88.4421C78.1756 88.1254 78.1681 87.7998 78.0938 87.4863C78.0196 87.1727 77.8803 86.8783 77.685 86.6221L77.568 82.4831C77.5392 81.3451 77.2664 80.2265 76.768 79.2031C76.5013 78.516 76.2723 77.815 76.082 77.1031L76.079 77.1061ZM27.871 54.5341C28.227 54.4921 28.433 54.6801 28.721 54.9561C28.67 54.3001 28.55 53.8131 28.089 53.5451C28.0563 53.6524 28.026 53.7601 27.998 53.8681C27.942 54.0894 27.895 54.3124 27.857 54.5371L27.871 54.5341ZM30.103 59.2751C29.843 59.9504 29.604 60.6331 29.386 61.3231L29.279 61.6741C27.927 62.2471 26.15 62.6111 25.484 61.1911C25.166 60.4687 24.912 59.7198 24.725 58.9531C22.499 56.6531 25.825 53.6041 27.639 52.5121C27.4077 52.9699 27.2196 53.4483 27.077 53.9411C26.526 55.8411 27.326 57.5411 25.598 58.9251C26.41 60.5641 26.371 61.2161 28.263 60.4601C28.9511 60.1799 29.5832 59.7782 30.129 59.2741L30.103 59.2751ZM29.583 74.7921C30.6513 78.3223 32.2351 81.6754 34.283 84.743V84.7941C34.1933 85.289 34.0045 85.7608 33.728 86.1811C32.345 88.0311 28.828 85.3151 27.828 84.2811C26.7772 83.2751 26.0659 81.9669 25.793 80.5381C25.664 79.6171 25.793 79.5961 26.431 78.9441L29.031 76.3161L29.6 74.798L29.583 74.7921ZM95.045 46.3551C95.2435 46.5506 95.4021 46.7829 95.512 47.0391C95.5718 46.9828 95.6356 46.931 95.703 46.8841L95.456 46.3441L95.034 46.3551H95.045ZM78.112 52.7421C77.9309 52.3785 77.8383 51.9772 77.842 51.5711C77.2006 52.1155 76.4813 52.5608 75.708 52.8921C76.741 51.9691 78.145 49.7921 79.163 49.1061C80.315 48.3261 81.884 48.4781 83.23 47.8411C82.7254 48.264 82.1718 48.6246 81.581 48.9151C82.0671 49.0915 82.4943 49.4004 82.8141 49.8068C83.134 50.2132 83.3338 50.701 83.391 51.2151C84.2096 50.9527 85.0616 50.8089 85.921 50.7881C83.0103 51.6588 80.4073 53.3395 78.416 55.6341C78.631 55.0427 78.9345 54.4874 79.316 53.9871C78.7827 53.7091 78.3545 53.265 78.096 52.7221L78.112 52.7421ZM65.671 43.0421C64.2762 43.5914 62.8476 44.0507 61.394 44.4171C60.076 46.1491 59.286 47.0451 58.971 49.3671C58.614 47.0831 58.54 46.6601 59.557 44.9541C59.2121 45.1485 58.8897 45.3806 58.596 45.6461C57.191 46.8601 55.325 51.6331 54.585 53.3371C55.054 51.2851 56.525 46.1521 58.037 44.6551C59.037 43.6711 59.26 43.6941 60.661 43.5621L65.671 43.0421ZM96.592 48.0201C97.5747 48.2708 98.6128 48.1889 99.544 47.7871C101.487 46.8044 103.049 45.2034 103.983 43.2361C103.397 45.5481 102.219 47.5131 99.775 48.3841C98.575 48.8111 97.8 48.3701 96.575 48.0191L96.592 48.0201ZM73.542 48.2451C73.7421 47.0423 74.2479 45.911 75.0109 44.9599C75.7738 44.0087 76.7683 43.2695 77.899 42.8131C73.77 43.8411 72.997 45.5771 73.539 48.2401L73.542 48.2451ZM20.023 59.0241C20.377 55.0141 21.157 53.2831 24.006 50.2651C20.416 52.7841 19.525 53.9301 20.023 59.0241Z" fill="black"/>
<path fill-rule="evenodd" clip-rule="evenodd" d="M78.6309 53.3772C78.4983 53.0987 78.4818 52.7789 78.5849 52.4883C78.688 52.1976 78.9024 51.9598 79.1809 51.8272C79.4594 51.6946 79.7791 51.678 80.0698 51.7811C80.3605 51.8843 80.5983 52.0987 80.7309 52.3772C80.7569 52.4311 80.7786 52.4869 80.7959 52.5442C80.2381 52.9588 79.7392 53.4472 79.3129 53.9962C79.0164 53.8822 78.7737 53.6609 78.6329 53.3762M91.5579 48.3762C91.5671 48.2633 91.5986 48.1533 91.6505 48.0527C91.7024 47.9521 91.7738 47.8627 91.8604 47.7898C91.9471 47.7169 92.0473 47.6619 92.1554 47.628C92.2634 47.5941 92.3771 47.5819 92.4899 47.5922C92.604 47.6031 92.7147 47.6363 92.8159 47.6901C92.917 47.7439 93.0066 47.8171 93.0794 47.9055C93.1522 47.9939 93.2069 48.0959 93.2403 48.2055C93.2737 48.3151 93.2851 48.4302 93.2739 48.5442C93.2638 48.6429 93.237 48.7393 93.1949 48.8292C92.743 48.9112 92.2994 49.0344 91.8699 49.1972C91.663 48.9746 91.551 48.68 91.5579 48.3762Z" fill="#EDD749"/>
</g>
<defs>
<clipPath id="clip0_6177_31299">
<rect width="128" height="128" fill="white"/>
</clipPath>
</defs>
</svg>
