<svg width="128" height="128" viewBox="0 0 128 128" fill="none" xmlns="http://www.w3.org/2000/svg">
<g clip-path="url(#clip0_6177_31658)">
<path fill-rule="evenodd" clip-rule="evenodd" d="M70.638 31.8389C69.833 29.6319 42.113 18.8539 41.755 20.0369C36.664 21.3639 34.592 27.2319 31.09 30.9479L23.313 30.5029C19.888 34.9109 18.091 39.4109 19.313 44.0869C23.704 50.0359 28.801 55.0979 31.977 62.5689C32.228 66.0909 47.22 62.9379 50.434 62.2409C46.044 65.3829 42.222 70.2539 43.864 84.2809C45.364 90.8679 46.39 98.2229 59.691 105.673C62.1694 106.802 64.7125 107.783 67.307 108.611C69.449 109.594 71.955 109.998 79.022 107.836C83.112 106.073 87.527 105.011 91.53 103.253L86.72 103.479C80.096 103.623 74.981 104.117 73.404 102.266L67.304 91.7409L70.858 84.8409C75.777 85.3409 77.41 89.3349 81.745 90.8539L86.855 87.0679C101.699 95.8299 107.603 81.5149 109.295 70.3679C109.114 65.8319 99.474 71.7899 100.058 69.6679C100.288 64.7889 96.313 58.4109 93.746 53.4389L96.718 41.9389C98.066 40.7389 90.475 27.9459 84.276 26.3509C78.837 24.9509 70.638 31.8379 70.638 31.8379V31.8389Z" fill="#FDEE21"/>
<path fill-rule="evenodd" clip-rule="evenodd" d="M95.022 56.2781C95.074 57.5131 95.069 59.0151 95.189 59.9521C95.168 60.6671 94.633 60.6941 94.189 60.8431L97.077 61.9011C97.65 62.8661 98.111 63.8311 98.577 64.7961C99.117 67.1701 98.713 67.2381 98.355 67.4131C97.3279 67.4592 96.2989 67.3938 95.286 67.2181C95.723 67.4491 95.819 67.6181 95.865 67.9121C95.8504 68.6638 95.5487 69.3815 95.022 69.9181C96.1853 70.4429 97.3768 70.9029 98.591 71.2961L99.91 68.3591C99.2004 64.0184 97.5304 59.8909 95.022 56.2781ZM100.413 70.7491C102.013 71.4171 104.228 71.2211 107.296 69.6401C107.752 69.3161 108.177 69.5091 107.361 70.0401C103.336 73.6511 101.41 71.8401 100.413 70.7461V70.7491Z" fill="#C8C037"/>
<path fill-rule="evenodd" clip-rule="evenodd" d="M107.603 69.1671C107.929 69.9396 107.939 70.8093 107.631 71.5891C107.221 75.3148 105.8 78.8573 103.521 81.8331C95.7349 94.3501 87.8749 86.5181 81.6079 81.4211L79.0159 87.9211C78.8779 88.4901 78.3049 88.9341 82.3549 90.7211L86.4789 87.8081C102.207 99.7641 113.352 71.0471 107.603 69.1671ZM83.5029 80.3521C82.4419 80.4281 79.2839 81.5021 79.1429 82.1231L80.5959 79.9581L83.5029 80.3521ZM81.4419 67.0791C81.6359 67.0791 82.5699 67.3301 82.4699 67.2741C82.3269 67.1941 82.4539 68.5831 82.7479 69.3061L81.6089 71.7831C83.7899 69.2681 87.2389 69.4351 90.4409 69.1111L88.9139 68.1651C89.061 67.3825 88.994 66.5748 88.7199 65.8271L81.4419 67.0791ZM86.8009 59.6181C84.2832 60.2401 82.1033 61.8113 80.7169 64.0031C81.8639 59.8851 82.0979 60.0411 82.4689 59.8381C84.0729 59.1241 85.3869 59.5701 86.8009 59.6181Z" fill="#C8C037"/>
<path fill-rule="evenodd" clip-rule="evenodd" d="M74.304 107.887C71.474 111.009 65.16 107.651 59.917 105.938C46.593 97.4662 43.99 89.4902 43.808 81.6662C43.123 70.4582 46.565 63.9452 50.918 62.4032C48.037 67.9572 46.695 77.9262 48.03 85.3402C49.108 89.4642 49.13 96.4212 56.03 100.14C59.409 102.04 58.494 103.524 60.779 105.305C63.279 107.258 70.265 109.114 74.302 107.883L74.304 107.887ZM78.531 56.0872C73.74 49.2922 67.001 46.7432 59.403 46.4642C60.9591 46.0759 62.4859 45.5783 63.972 44.9752C64.345 44.5832 64.223 43.8942 64.083 43.1942C56.769 41.2842 52.152 38.9242 46.309 36.7362L62.079 40.5242C72.731 40.9242 71.817 43.5592 78.526 56.0892L78.531 56.0872ZM83.661 52.8102C80.12 47.7562 76.686 41.6222 72.026 37.7202C60.59 32.6221 48.7379 28.514 36.6 25.4412L40.763 20.0872C54.605 23.2472 67.607 28.5342 79.253 37.2532C81.1909 42.2955 82.6663 47.5036 83.661 52.8132V52.8102ZM90.799 43.8792C90.799 43.8792 88.814 39.4262 87.848 37.7252C85.606 35.2412 84.472 30.6112 79.881 28.4252C81.333 28.8172 82.327 28.3502 85.292 31.0382L89.962 39.8962L90.799 43.8792ZM93.268 51.5942C93.726 47.7362 94.595 41.5482 93.597 39.1022L85.231 27.9532C84.8081 27.4921 84.4204 27.0001 84.071 26.4812C88.001 27.5002 92.106 30.2332 97.64 41.0252L93.268 51.5942Z" fill="#FCF6A0"/>
<path fill-rule="evenodd" clip-rule="evenodd" d="M76.738 52.053C75.172 50.819 73.777 46.46 71.404 45.553C69.204 45.369 68.404 44.678 65.514 45.267C66.5232 44.6695 67.5763 44.1494 68.664 43.711C69.3919 43.6109 70.1322 43.6509 70.845 43.829C71.023 43.745 71.139 43.641 71.096 43.483C68.189 41.683 62.225 41.661 58.196 40.635C62.869 40.791 68.039 40.535 71.55 41.659C74.374 44.165 75.291 48.884 76.735 52.051L76.738 52.053ZM85.3 31.031C85.948 31.09 89.437 36.608 89.6 37.531C89.89 39.538 90.606 41.788 90.8 43.889C90.225 41.875 89.6 39.861 88.817 37.846C88.2295 36.519 87.4119 35.3063 86.402 34.264C85.8259 33.2712 85.452 32.1741 85.302 31.036L85.3 31.031ZM97.123 61.088H95.629L97.279 61.521L97.123 61.088ZM86.938 59.598C85.4281 59.381 83.8923 59.4219 82.396 59.719C81.9487 60.4686 81.637 61.2912 81.475 62.149C83.3 60.138 84.024 60.015 86.938 59.598ZM107.409 69.977C106.523 70.9982 105.337 71.7141 104.021 72.023C103.354 72.2165 102.643 72.1986 101.987 71.9717C101.33 71.7448 100.76 71.3201 100.355 70.756C101.64 71.124 101.846 72.094 105.292 71.007L107.409 69.977ZM99.924 70.395C99.324 72.048 98.675 73.719 98.024 75.266C96.468 77.091 97.131 76.051 94.802 78.885C95.6365 77.7975 96.3797 76.6429 97.024 75.433C97.4084 74.6809 97.7424 73.9042 98.024 73.108C97.3732 72.8464 96.6628 72.7696 95.971 72.886C93.9 74.107 93.527 75.4 92.306 76.658C93.1117 75.197 94.0018 73.7843 94.972 72.427C95.089 72.262 95.848 72.227 96.315 72.132C95.59 72.007 94.247 71.747 94.139 71.759C92.788 72.084 92.031 73.259 91.028 74.042C91.704 72.9481 92.4836 71.9217 93.356 70.977C94.6826 70.9636 96.0016 71.1773 97.256 71.609L97.282 72.126L98.02 72.426L98.575 71.034L99.924 70.395ZM83.538 80.358C82.457 80.1447 81.3617 80.011 80.261 79.958C79.862 80.1772 79.5315 80.5026 79.306 80.8982C79.0806 81.2937 78.9692 81.744 78.984 82.199C80.866 80.349 80.795 80.344 83.539 80.362L83.538 80.358ZM81.302 67.051C81.302 67.051 83.426 66.741 83.385 66.94C83.3056 67.7145 83.4105 68.4968 83.691 69.223L82.497 70.197C84.997 68.939 87.631 69.197 90.297 68.997C90.297 68.997 88.049 68.376 88.186 68.357C88.686 68.286 88.053 66.012 87.88 65.963C88.309 65.818 88.725 65.709 89.157 65.601C85.942 64.76 84.083 65.255 81.297 67.048L81.302 67.051Z" fill="black"/>
<path fill-rule="evenodd" clip-rule="evenodd" d="M99.688 68.6381L99.216 68.8751C99.149 67.4921 97.6639 67.5931 96.4109 67.5811L95.3829 67.3301C95.6969 67.6191 96.6609 67.5971 96.2719 68.2211C95.9439 68.3961 95.7929 69.1481 95.6049 69.7801L95.049 69.8081L98.021 70.9771L98.659 71.0771L100.186 70.2561L99.688 68.6381Z" fill="black"/>
<path fill-rule="evenodd" clip-rule="evenodd" d="M85.6079 67.7099C85.3689 67.2369 84.1659 67.3039 83.9079 67.6099C83.6969 67.8589 83.8949 69.4539 84.1649 69.1849C84.3746 69.0125 84.6163 68.8831 84.8761 68.8044C85.136 68.7256 85.4088 68.699 85.6789 68.7259C85.7506 68.3873 85.726 68.0353 85.6079 67.7099ZM97.1429 70.0869C97.341 69.7473 97.4365 69.3576 97.4179 68.9649C97.2599 68.3999 96.1409 68.5189 96.1409 68.5189C95.9831 68.6999 95.8649 68.9119 95.7939 69.1413C95.723 69.3707 95.7008 69.6125 95.7289 69.8509C95.7769 70.0969 96.9629 70.1749 97.1429 70.0869Z" fill="white"/>
<path fill-rule="evenodd" clip-rule="evenodd" d="M49.313 97.684L50.02 97.753C56.4647 101.214 63.8772 102.433 71.091 101.22L72.658 103.685C68.258 105.822 63.531 105.33 59.1 105.485L49.313 97.684ZM43.297 81.425L45.397 90.234C51.013 93.745 60.613 97.767 68.613 97.443L66.846 93.387C50.146 89.841 48.736 85.359 43.303 81.424L43.297 81.425ZM48.519 63.382C49.543 70.208 50.914 75.382 56.85 79.719C60.5099 82.5087 64.4052 84.9753 68.492 87.091C68.492 87.091 68.107 89.091 67.785 89.059C54.713 87.606 45.143 76.768 43.983 71.817C44.8916 68.7201 46.4359 65.8471 48.519 63.382ZM54.801 59.512C56.543 67.078 60.701 74.741 64.826 81.692C66.339 83.612 66.735 84.46 69.068 85.629C71.554 86.3665 74.1682 86.5686 76.738 86.222C76.111 85.061 75.554 83.848 74.838 82.758C69.713 78.712 72.078 75.018 73.44 72.682C70.591 71.962 66.816 70.432 66.296 68.419C65.46 61.91 65.884 59.845 66.721 56.502C62.6922 57.2666 58.7127 58.2718 54.804 59.512H54.801Z" fill="black"/>
<path fill-rule="evenodd" clip-rule="evenodd" d="M40.646 19.327C39.2645 20.3096 37.9907 21.4356 36.846 22.686C34.664 24.941 33.216 27.141 30.998 28.772C30.0417 29.4412 28.9124 29.8197 27.746 29.862C26.8914 29.9639 26.0276 29.9603 25.174 29.851C23.979 29.204 22.844 29.625 21.737 30.951C20.3107 33.1813 19.1713 35.5826 18.346 38.098C17.026 43.421 20.386 47.81 23.609 51.191C26.476 53.991 28.129 55.743 29.309 58.311C30.2 59.977 30.861 62.262 31.576 63.865C31.834 64.373 31.776 64.37 32.476 64.524C34.2753 64.7798 36.0868 64.9403 37.903 65.005C38.8853 65.0176 39.8674 64.9752 40.845 64.878C42.3786 64.6426 43.894 64.3004 45.38 63.854C46.6467 63.5225 47.8898 63.1066 49.101 62.609C48.958 63.094 47.901 63.562 47.501 64.177C43.741 69.561 42.711 74.349 43.366 81.906C43.7377 85.0906 44.5105 88.2154 45.666 91.206C46.3751 93.0672 47.2954 94.8408 48.409 96.492C51.627 101.043 58.827 106.883 68.846 109.131C70.72 109.366 72.6219 109.235 74.446 108.745C79.393 107.245 89.476 103.699 89.476 103.699C89.476 103.699 80.526 104.439 76.427 104.034C75.4766 104.027 74.5507 103.732 73.771 103.189C73.66 103.046 73.257 102.234 73.517 102.227C74.4878 101.98 75.4721 101.788 76.465 101.654C73.106 101.292 73.154 101.297 72.909 100.685C72.528 99.735 71.944 98.437 71.343 97.302C72.819 97.427 76.086 97.61 77.195 96.465C75.9847 96.5931 74.7648 96.6008 73.553 96.488C72.9215 96.3697 72.3023 96.1936 71.703 95.962C71.1662 95.8293 70.6472 95.6329 70.157 95.377C69.891 94.699 69.71 94.471 69.389 93.563C69.0314 92.3372 68.8449 91.0679 68.835 89.791C69.9644 91.2541 71.507 92.3444 73.263 92.921C73.287 92.87 75.709 93.974 77.468 93.406L77.834 93.288C77.3012 93.3632 76.7586 93.326 76.241 93.179C72.664 91.659 72.125 90.328 71.548 89.667L70.003 87.353C70.473 86.416 70.738 86.381 71.362 86.372C72.6277 86.6418 73.9326 86.6737 75.21 86.466C75.984 88.059 76.193 89.666 77.956 90.821C83.827 92.564 85.103 90.304 86.525 88.306C90.749 91.406 97.625 92.362 102.404 88.36C108.476 81.334 110.398 70.26 109.86 69.625C109.102 68.338 108.107 67.012 107.252 67.195C104.207 68.026 103.084 69.571 100.067 69.219C100.391 69.2179 100.714 69.1966 101.035 69.155C101.251 67.8258 101.206 66.4673 100.904 65.155C99.988 63.136 98.786 61.011 97.948 59.418C97.732 59.088 97.097 56.578 96.034 55.587C95.578 55.198 94.462 54.171 94.462 54.171L94.367 55.262C94.367 55.262 94.803 55.328 94.967 56.004C95.597 58.567 98.802 64.627 99.037 64.917C100.173 66.751 99.153 69.036 100.016 70.317C101.035 70.3988 102.058 70.4208 103.08 70.383C105.22 69.923 105.129 68.983 106.98 68.838C108.225 68.738 108.35 71.081 108.334 71.263C108.032 74.1374 107.283 76.9469 106.114 79.59C103.614 84.406 100.814 88.731 96.845 89.334C92.002 90.18 89.486 88.063 86.861 86.715L85.861 87.571C82.449 90.971 78.397 90.671 76.741 86.228C75.8912 84.7519 74.9493 83.3308 73.921 81.973L69.046 85.484C68.64 86.317 68.14 87.631 67.533 89.099C67.0298 90.452 66.7748 91.8846 66.78 93.328C66.154 94.394 68.947 98.716 70.71 101.345L72.236 103.56C72.5374 104.214 72.9289 104.822 73.399 105.367C76.675 109.64 69.267 108.656 67.737 108.399C64.6279 107.831 61.6581 106.667 58.991 104.971L58.51 104.671C55.2678 102.565 52.2773 100.095 49.597 97.309C48.058 95.567 46.597 91.996 45.511 89.464C43.889 83.377 41.562 72.827 47.866 64.833C48.266 64.376 48.697 63.615 49.066 63.464C50.9118 62.2125 52.9805 61.3265 55.16 60.854L54.939 59.436C52.9505 60.007 51.0083 60.7281 49.129 61.593C46.764 62.279 44.803 62.993 41.789 63.749C40.8317 63.8708 39.8627 63.8688 38.906 63.743C36.738 63.448 33.042 63.712 32.806 63.493C31.338 61.446 30.935 57.777 29.596 55.814L29.58 55.794L29.563 55.775C28.7728 54.7776 27.9079 53.8416 26.976 52.975C23.761 49.793 21.013 46.71 20.246 43.441C19.7673 41.8821 19.6215 40.24 19.818 38.621V38.607V38.593C20.5709 35.931 22.0051 33.5114 23.979 31.573C26.0287 31.547 28.0772 31.6844 30.105 31.984C31.5009 32.1695 32.8746 32.4955 34.205 32.957C38.472 34.547 44.111 37.157 44.111 37.157C39.879 34.833 35.146 31.814 32.157 31.204C31.9702 31.1953 31.79 31.1319 31.6389 31.0216C31.4878 30.9114 31.3724 30.7593 31.307 30.584C35.802 27.943 36.624 24.835 39.581 22.045C40.5218 21.5312 41.5464 21.1882 42.607 21.032C53.225 22.711 59.907 26.94 65.197 29.768C67.343 30.935 69.297 31.818 71.157 32.88C72.79 33.417 77.719 37.138 79.157 39.144C80.5627 42.2732 81.7362 45.5016 82.668 48.803C82.9552 50.3786 83.3949 51.9226 83.981 53.413C83.7283 52.3494 83.5611 51.2673 83.481 50.177C84.3355 50.5225 85.2394 50.7301 86.159 50.792C86.159 50.792 83.459 49.392 83.107 48.164C81.994 44.211 80.856 38.052 80.546 37.731C78.532 35.7603 76.2878 34.0396 73.862 32.606C73.025 32.123 72.573 31.823 72.538 31.611C73.2777 30.8098 74.0665 30.0553 74.9 29.352C75.6342 28.6849 76.4713 28.1406 77.379 27.74C81.979 25.67 84.602 28.54 85.226 27.956C85.226 27.956 84.237 26.823 84.676 27.009C85.126 27.253 86.591 27.54 86.752 27.688C90.2589 30.8882 93.1985 34.6592 95.446 38.841C95.7748 39.3628 95.9971 39.9445 96.1001 40.5526C96.2031 41.1607 96.1847 41.7831 96.046 42.384C95.8377 43.5041 95.5557 44.6091 95.202 45.692C94.4344 47.5944 93.7907 49.5445 93.275 51.53C93.1959 53.4649 93.5624 55.3922 94.346 57.163C94.3206 56.526 94.3289 55.8882 94.371 55.252L94.465 54.166C94.4362 54.0345 94.4198 53.9006 94.416 53.766C94.487 53.015 94.672 52.383 94.726 51.953C95.262 49.0468 96.0946 46.2033 97.211 43.467C97.52 42.743 97.925 42.341 97.904 41.79C97.921 40.812 97.046 39.5 96.414 38.219C95.7041 36.7498 94.9025 35.3266 94.014 33.958C91.733 30.678 89.789 28.112 86.228 26.505C84.1885 25.9432 82.0675 25.7369 79.958 25.895C78.4921 26.1093 77.0763 26.5834 75.777 27.295C74.005 28.43 72.613 30.186 70.977 31.221C69.0026 30.2492 67.1036 29.1311 65.296 27.876C63.152 26.721 60.574 25.387 57.8 24.121C56.471 22.879 48.215 19.914 40.653 19.321L40.646 19.327ZM86.861 86.71C84.8164 85.2027 83.0166 83.3891 81.525 81.333C81.125 83.503 79.658 85.048 78.525 86.568C78.3 86.923 78.137 87.411 79.246 88.96C79.546 89.373 80.627 89.443 81.357 89.405C80.614 88.843 79.484 88.25 79.302 87.735C80.336 88.512 81.6256 88.8692 82.912 88.735C83.0869 88.6808 83.2484 88.5905 83.3862 88.4699C83.524 88.3493 83.635 88.2012 83.712 88.035C83.9551 87.3897 84.3939 86.8366 84.967 86.453L85.856 87.566L86.861 86.71Z" fill="black" stroke="black" stroke-width="0.008"/>
</g>
<defs>
<clipPath id="clip0_6177_31658">
<rect width="128" height="128" fill="white"/>
</clipPath>
</defs>
</svg>
