<svg xmlns="http://www.w3.org/2000/svg" width="128" height="128" viewBox="0 0 128 128"><g transform="translate(-969 -122)"><rect width="128" height="128" transform="translate(969 122)" fill="none"/><g transform="translate(987.046 141.321)"><path d="M52.325,12.328C51.52,10.121,23.8-.657,23.442.526c-5.091,1.327-7.163,7.195-10.665,10.911L5,10.992C1.575,15.4-.222,19.9,1,24.576c4.391,5.949,9.488,11.011,12.664,18.482.251,3.522,15.243.369,18.457-.328-4.39,3.142-8.212,8.013-6.57,22.04,1.5,6.587,2.526,13.942,15.827,21.392A69.012,69.012,0,0,0,48.994,89.1c2.142.983,4.648,1.387,11.715-.775,4.09-1.763,8.505-2.825,12.508-4.583l-4.81.226c-6.624.144-11.739.638-13.316-1.213l-6.1-10.525,3.554-6.9c4.919.5,6.552,4.494,10.887,6.013l5.11-3.786c14.844,8.762,20.748-5.553,22.44-16.7-.181-4.536-9.821,1.422-9.237-.7C81.975,45.278,78,38.9,75.433,33.928l2.972-11.5c1.348-1.2-6.243-13.993-12.442-15.588-5.439-1.4-13.638,5.487-13.638,5.487Z" transform="translate(0.267 0.19)" fill="#fdee21" fill-rule="evenodd"/><g transform="translate(60.863 36.957)"><path d="M53.855,25.735c.052,1.235.047,2.737.167,3.674-.021.715-.556.742-1,.891l2.888,1.058c.573.965,1.034,1.93,1.5,2.895.54,2.374.136,2.442-.222,2.617a14.223,14.223,0,0,1-3.069-.195c.437.231.533.4.579.694a2.945,2.945,0,0,1-.843,2.006,34.6,34.6,0,0,0,3.569,1.378l1.319-2.937a29.538,29.538,0,0,0-4.888-12.081Zm5.391,14.471c1.6.668,3.815.472,6.883-1.109.456-.324.881-.131.065.4-4.025,3.611-5.951,1.8-6.948.706Z" transform="translate(-37.742 -25.735)" fill="#c8c037" fill-rule="evenodd"/><path d="M71.076,37.664a3.2,3.2,0,0,1,.028,2.422,20.543,20.543,0,0,1-4.11,10.244c-7.786,12.517-15.646,4.685-21.913-.412l-2.592,6.5c-.138.569-.711,1.013,3.339,2.8l4.124-2.913C65.68,68.261,76.825,39.544,71.076,37.664Zm-24.1,11.185c-1.061.076-4.219,1.15-4.36,1.771l1.453-2.165ZM44.915,35.576c.194,0,1.128.251,1.028.195-.143-.08-.016,1.309.278,2.032l-1.139,2.477c2.181-2.515,5.63-2.348,8.832-2.672l-1.527-.946a4.421,4.421,0,0,0-.194-2.338Zm5.359-7.461A10.051,10.051,0,0,0,44.19,32.5c1.147-4.118,1.381-3.962,1.752-4.165C47.546,27.621,48.86,28.068,50.274,28.116Z" transform="translate(-42.382 -24.775)" fill="#c8c037" fill-rule="evenodd"/></g><path d="M50.625,88.334c-2.83,3.122-9.144-.236-14.387-1.949C22.914,77.913,20.311,69.937,20.129,62.113c-.685-11.208,2.757-17.721,7.11-19.263-2.881,5.554-4.223,15.523-2.888,22.937,1.078,4.124,1.1,11.081,8,14.8,3.379,1.9,2.464,3.384,4.749,5.165,2.5,1.953,9.486,3.809,13.523,2.578Zm4.227-51.8c-4.791-6.795-11.53-9.344-19.128-9.623a34.093,34.093,0,0,0,4.569-1.489c.373-.392.251-1.081.111-1.781-7.314-1.91-11.931-4.27-17.774-6.458L38.4,20.971c10.652.4,9.738,3.035,16.447,15.565Zm5.13-3.277c-3.541-5.054-6.975-11.188-11.635-15.09A219.02,219.02,0,0,0,12.921,5.888L17.084.534C30.926,3.694,43.928,8.981,55.574,17.7A89.108,89.108,0,0,1,59.982,33.26Zm7.138-8.931s-1.985-4.453-2.951-6.154c-2.242-2.484-3.376-7.114-7.967-9.3,1.452.392,2.446-.075,5.411,2.613l4.67,8.858Zm2.469,7.715c.458-3.858,1.327-10.046.329-12.492L61.552,8.4a12.529,12.529,0,0,1-1.16-1.472c3.93,1.019,8.035,3.752,13.569,14.544Z" transform="translate(5.633 0.232)" fill="#fcf6a0" fill-rule="evenodd"/><path d="M46.5,29.176c-1.566-1.234-2.961-5.593-5.334-6.5-2.2-.184-3-.875-5.89-.286a23.222,23.222,0,0,1,3.15-1.556,5.76,5.76,0,0,1,2.181.118c.178-.084.294-.188.251-.346-2.907-1.8-8.871-1.822-12.9-2.848,4.673.156,9.843-.1,13.354,1.024,2.824,2.506,3.741,7.225,5.185,10.392ZM55.062,8.154c.648.059,4.137,5.577,4.3,6.5.29,2.007,1.006,4.257,1.2,6.358-.575-2.014-1.2-4.028-1.983-6.043a12.311,12.311,0,0,0-2.415-3.582,8.694,8.694,0,0,1-1.1-3.228ZM66.885,38.211H65.391l1.65.433ZM56.7,36.721a13.477,13.477,0,0,0-4.542.121,7.432,7.432,0,0,0-.921,2.43c1.825-2.011,2.549-2.134,5.463-2.551ZM77.171,47.1a6.432,6.432,0,0,1-3.388,2.046,3.361,3.361,0,0,1-3.666-1.267c1.285.368,1.491,1.338,4.937.251Zm-7.485.418c-.6,1.653-1.249,3.324-1.9,4.871-1.556,1.825-.893.785-3.222,3.619a24.9,24.9,0,0,0,2.222-3.452,19.115,19.115,0,0,0,1-2.325,3.809,3.809,0,0,0-2.053-.222c-2.071,1.221-2.444,2.514-3.665,3.772a42.883,42.883,0,0,1,2.666-4.231c.117-.165.876-.2,1.343-.295-.725-.125-2.068-.385-2.176-.373-1.351.325-2.108,1.5-3.111,2.283A20.065,20.065,0,0,1,63.118,48.1a11.624,11.624,0,0,1,3.9.632l.026.517.738.3.555-1.392ZM53.3,57.481a22.519,22.519,0,0,0-3.277-.4,2.465,2.465,0,0,0-1.277,2.241c1.882-1.85,1.811-1.855,4.555-1.837ZM51.064,44.174s2.124-.31,2.083-.111a4.937,4.937,0,0,0,.306,2.283l-1.194.974c2.5-1.258,5.134-1,7.8-1.2,0,0-2.248-.621-2.111-.64.5-.071-.133-2.345-.306-2.394.429-.145.845-.254,1.277-.362-3.215-.841-5.074-.346-7.86,1.447Z" transform="translate(12.192 3.556)" fill-rule="evenodd"/><path d="M58.259,34.738l-.472.237c-.067-1.383-1.552-1.282-2.805-1.294l-1.028-.251c.314.289,1.278.267.889.891-.328.175-.479.927-.667,1.559l-.556.028,2.972,1.169.638.1,1.527-.821Z" transform="translate(23.383 14.579)" fill-rule="evenodd"/><path d="M47.59,33.8c-.239-.473-1.442-.406-1.7-.1-.211.249-.013,1.844.257,1.575a2.061,2.061,0,0,1,1.514-.459A1.853,1.853,0,0,0,47.59,33.8Zm11.535,2.377a2.036,2.036,0,0,0,.275-1.122c-.158-.565-1.277-.446-1.277-.446a1.72,1.72,0,0,0-.412,1.332c.048.246,1.234.324,1.414.236Z" transform="translate(19.972 14.589)" fill="#fff" fill-rule="evenodd"/><path d="M23.6,67.072l.707.069a32.978,32.978,0,0,0,21.071,3.467l1.567,2.465c-4.4,2.137-9.127,1.645-13.558,1.8ZM17.584,50.813l2.1,8.809C25.3,63.133,34.9,67.155,42.9,66.831l-1.767-4.056c-16.7-3.546-18.11-8.028-23.543-11.963ZM22.806,32.77c1.024,6.826,2.395,12,8.331,16.337a79.486,79.486,0,0,0,11.642,7.372s-.385,2-.707,1.968C29,56.994,19.43,46.156,18.27,41.205a23.179,23.179,0,0,1,4.537-8.435ZM29.088,28.9c1.742,7.566,5.9,15.229,10.025,22.18,1.513,1.92,1.909,2.768,4.242,3.937a18.345,18.345,0,0,0,7.67.593c-.627-1.161-1.184-2.374-1.9-3.464C44,48.1,46.365,44.406,47.727,42.07c-2.849-.72-6.624-2.25-7.144-4.263-.836-6.509-.412-8.574.425-11.917A102.778,102.778,0,0,0,29.091,28.9Z" transform="translate(7.667 11.291)" fill-rule="evenodd"/><path d="M22.6.006A24.05,24.05,0,0,0,18.8,3.365C16.618,5.62,15.17,7.82,12.952,9.451A6.056,6.056,0,0,1,9.7,10.541a10.485,10.485,0,0,1-2.572-.011c-1.195-.647-2.33-.226-3.437,1.1A31.484,31.484,0,0,0,.3,18.777C-1.02,24.1,2.34,28.489,5.563,31.87c2.867,2.8,4.52,4.552,5.7,7.12.891,1.666,1.552,3.951,2.267,5.554.258.508.2.505.9.659a51.635,51.635,0,0,0,5.427.481,26.365,26.365,0,0,0,2.942-.127,33.354,33.354,0,0,0,4.535-1.024,29.341,29.341,0,0,0,3.721-1.245c-.143.485-1.2.953-1.6,1.568-3.76,5.384-4.79,10.172-4.135,17.729a38.039,38.039,0,0,0,2.3,9.3,26.031,26.031,0,0,0,2.743,5.286C33.581,81.722,40.781,87.562,50.8,89.81a14.589,14.589,0,0,0,5.6-.386c4.947-1.5,15.03-5.046,15.03-5.046s-8.95.74-13.049.335a4.707,4.707,0,0,1-2.656-.845c-.111-.143-.514-.955-.254-.962a26.064,26.064,0,0,1,2.948-.573c-3.359-.362-3.311-.357-3.556-.969-.381-.95-.965-2.248-1.566-3.383,1.476.125,4.743.308,5.852-.837a18.4,18.4,0,0,1-3.642.023,10.5,10.5,0,0,1-1.85-.526,6.942,6.942,0,0,1-1.546-.585c-.266-.678-.447-.906-.768-1.814a13.853,13.853,0,0,1-.554-3.772,9.233,9.233,0,0,0,4.428,3.13c.024-.051,2.446,1.053,4.205.485l.366-.118a3.859,3.859,0,0,1-1.593-.109c-3.577-1.52-4.116-2.851-4.693-3.512l-1.545-2.314c.47-.937.735-.972,1.359-.981a10.431,10.431,0,0,0,3.848.094c.774,1.593.983,3.2,2.746,4.355,5.871,1.743,7.147-.517,8.569-2.515,4.224,3.1,11.1,4.056,15.879.054,6.072-7.026,7.994-18.1,7.456-18.735-.758-1.287-1.753-2.613-2.608-2.43-3.045.831-4.168,2.376-7.185,2.024a7.757,7.757,0,0,0,.968-.064,10.4,10.4,0,0,0-.131-4c-.916-2.019-2.118-4.144-2.956-5.737-.216-.33-.851-2.84-1.914-3.831-.456-.389-1.572-1.416-1.572-1.416l-.095,1.091s.436.066.6.742c.63,2.563,3.835,8.623,4.07,8.913,1.136,1.834.116,4.119.979,5.4a26.2,26.2,0,0,0,3.064.066c2.14-.46,2.049-1.4,3.9-1.545,1.245-.1,1.37,2.243,1.354,2.425a27.753,27.753,0,0,1-2.22,8.327c-2.5,4.816-5.3,9.141-9.269,9.744-4.843.846-7.359-1.271-9.984-2.619l-1,.856c-3.412,3.4-7.464,3.1-9.12-1.343a40.587,40.587,0,0,0-2.82-4.255L51,66.163c-.406.833-.906,2.147-1.513,3.615a12.008,12.008,0,0,0-.753,4.229c-.626,1.066,2.167,5.388,3.93,8.017l1.526,2.215a7.713,7.713,0,0,0,1.163,1.807c3.276,4.273-4.132,3.289-5.662,3.032a24.515,24.515,0,0,1-8.746-3.428l-.481-.3a50.654,50.654,0,0,1-8.913-7.362c-1.539-1.742-3-5.313-4.086-7.845-1.622-6.087-3.949-16.637,2.355-24.631.4-.457.831-1.218,1.2-1.369a17.442,17.442,0,0,1,6.094-2.61l-.221-1.418a40.883,40.883,0,0,0-5.81,2.157c-2.365.686-4.326,1.4-7.34,2.156a11.239,11.239,0,0,1-2.883-.006c-2.168-.295-5.864-.031-6.1-.25-1.468-2.047-1.871-5.716-3.21-7.679l-.016-.02-.017-.019a25.142,25.142,0,0,0-2.587-2.8C5.715,30.472,2.967,27.389,2.2,24.12A11.642,11.642,0,0,1,1.772,19.3l0-.014,0-.014a15.906,15.906,0,0,1,4.161-7.02,38.552,38.552,0,0,1,6.126.411,20.913,20.913,0,0,1,4.1.973c4.267,1.59,9.906,4.2,9.906,4.2-4.232-2.324-8.965-5.343-11.954-5.953a.955.955,0,0,1-.85-.62c4.495-2.641,5.317-5.749,8.274-8.539a9.069,9.069,0,0,1,3.026-1.013c10.618,1.679,17.3,5.908,22.59,8.736,2.146,1.167,4.1,2.05,5.96,3.112,1.633.537,6.562,4.258,8,6.264a69.9,69.9,0,0,1,3.511,9.659,24.707,24.707,0,0,0,1.313,4.61,20.5,20.5,0,0,1-.5-3.236,8.706,8.706,0,0,0,2.678.615s-2.7-1.4-3.052-2.628C63.948,24.89,62.81,18.731,62.5,18.41a35.063,35.063,0,0,0-6.684-5.125c-.837-.483-1.289-.783-1.324-.995a26.282,26.282,0,0,1,2.362-2.259,9.223,9.223,0,0,1,2.479-1.612c4.6-2.07,7.223.8,7.847.216,0,0-.989-1.133-.55-.947.45.244,1.915.531,2.076.679A42.043,42.043,0,0,1,77.4,19.52a4.674,4.674,0,0,1,.6,3.543,25.917,25.917,0,0,1-.844,3.308,47.56,47.56,0,0,0-1.927,5.838A12.645,12.645,0,0,0,76.3,37.842a18.05,18.05,0,0,1,.025-1.911l.094-1.086a2.153,2.153,0,0,1-.049-.4c.071-.751.256-1.383.31-1.813a43.21,43.21,0,0,1,2.485-8.486c.309-.724.714-1.126.693-1.677.017-.978-.858-2.29-1.49-3.571a38.908,38.908,0,0,0-2.4-4.261c-2.281-3.28-4.225-5.846-7.786-7.453a18.422,18.422,0,0,0-6.27-.61,12.452,12.452,0,0,0-4.181,1.4c-1.772,1.135-3.164,2.891-4.8,3.926a44.142,44.142,0,0,1-5.681-3.345C45.106,7.4,42.528,6.066,39.754,4.8,38.425,3.558,30.169.593,22.607,0ZM68.815,67.389a24.7,24.7,0,0,1-5.336-5.377c-.4,2.17-1.867,3.715-3,5.235-.225.355-.388.843.721,2.392.3.413,1.381.483,2.111.445-.743-.562-1.873-1.155-2.055-1.67a5.125,5.125,0,0,0,3.61,1,1.309,1.309,0,0,0,.8-.7,3.306,3.306,0,0,1,1.255-1.582l.889,1.113Z" transform="translate(0)" stroke="#000" stroke-width="0.008" fill-rule="evenodd"/></g></g></svg>