<svg width="128" height="128" viewBox="0 0 128 128" fill="none" xmlns="http://www.w3.org/2000/svg">
<g clip-path="url(#clip0_6177_31649)">
<path d="M96.6991 24.397C96.7626 25.4669 96.5063 26.5314 95.9629 27.4551C95.4195 28.3788 94.6135 29.12 93.6475 29.5842C92.6816 30.0484 91.5993 30.2146 90.5386 30.0618C89.4778 29.909 88.4865 29.444 87.6909 28.726C86.8952 28.008 86.3312 27.0696 86.0706 26.03C85.81 24.9905 85.8647 23.8969 86.2276 22.8885C86.5905 21.8801 87.2452 21.0025 88.1084 20.3674C88.9717 19.7323 90.0044 19.3684 91.0751 19.322C91.7774 19.2834 92.4804 19.3839 93.1437 19.6178C93.807 19.8518 94.4176 20.2145 94.9402 20.6852C95.4628 21.1559 95.8873 21.7253 96.1892 22.3606C96.491 22.9958 96.6643 23.6845 96.6991 24.387V24.397Z" fill="#767677"/>
<path d="M65.1971 86.784C50.8581 86.784 38.2581 81.639 31.7421 74.04C34.2702 80.8761 38.8319 86.7736 44.8131 90.9388C50.7943 95.1039 57.908 97.3367 65.1966 97.3367C72.4851 97.3367 79.5988 95.1039 85.58 90.9388C91.5612 86.7736 96.1229 80.8761 98.6511 74.04C92.1511 81.636 79.5991 86.784 65.1971 86.784Z" fill="#F37726"/>
<path d="M65.1971 37.3731C79.5361 37.3731 92.1361 42.5161 98.6511 50.1151C96.1229 43.279 91.5612 37.3815 85.58 33.2163C79.5988 29.0512 72.4851 26.8184 65.1966 26.8184C57.908 26.8184 50.7943 29.0512 44.8131 33.2163C38.8319 37.3815 34.2702 43.279 31.7421 50.1151C38.2581 42.5001 50.7971 37.3731 65.1971 37.3731Z" fill="#F37726"/>
<path d="M45.4641 101.573C45.5447 103.244 45.0011 104.885 43.939 106.177C42.8769 107.469 41.3721 108.32 39.7173 108.565C38.0626 108.809 36.3761 108.429 34.9858 107.499C33.5955 106.569 32.6008 105.155 32.1951 103.532C31.7894 101.91 32.0017 100.194 32.7908 98.7191C33.5798 97.2441 34.8892 96.1154 36.4643 95.5523C38.0393 94.9892 39.7675 95.032 41.3128 95.6723C42.8581 96.3127 44.11 97.5049 44.8251 99.017C45.2042 99.8187 45.4213 100.687 45.4641 101.573Z" fill="#9E9E9E"/>
<path d="M33.3721 35.64C32.5998 35.6608 31.8386 35.4529 31.1842 35.0424C30.5298 34.6318 30.0114 34.037 29.6941 33.3326C29.3768 32.6282 29.2748 31.8458 29.401 31.0836C29.5271 30.3214 29.8758 29.6136 30.4031 29.049C30.9304 28.4845 31.6129 28.0884 32.3647 27.9106C33.1165 27.7328 33.9041 27.7812 34.6284 28.0498C35.3528 28.3183 35.9816 28.795 36.4357 29.42C36.8899 30.0449 37.1492 30.7901 37.1811 31.562C37.2114 32.6064 36.8283 33.6206 36.1151 34.3842C35.4019 35.1478 34.4161 35.5991 33.3721 35.64Z" fill="#616262"/>
</g>
<defs>
<clipPath id="clip0_6177_31649">
<rect width="128" height="128" fill="white"/>
</clipPath>
</defs>
</svg>
