<svg xmlns="http://www.w3.org/2000/svg" width="128" height="128" viewBox="0 0 128 128"><g transform="translate(-1561 -122)"><rect width="128" height="128" transform="translate(1561 122)" fill="none"/><g transform="translate(1585.192 139.317)"><path d="M33.648,7.08a5.4,5.4,0,1,1-5.624-5.075,5.337,5.337,0,0,1,5.624,5.065Z" transform="translate(38.859 0)" fill="#767677"/><path d="M39.361,31.867c-14.339,0-26.939-5.145-33.455-12.744a35.669,35.669,0,0,0,66.909,0C66.315,26.719,53.763,31.867,39.361,31.867Z" transform="translate(1.644 37.6)" fill="#f37726"/><path d="M39.361,14.9C53.7,14.9,66.3,20.043,72.815,27.642a35.669,35.669,0,0,0-66.909,0C12.422,20.027,24.961,14.9,39.361,14.9Z" transform="translate(1.644 5.156)" fill="#f37726"/><path d="M19.456,32.147a6.739,6.739,0,1,1-.639-2.556A6.739,6.739,0,0,1,19.456,32.147Z" transform="translate(1.816 52.109)" fill="#9e9e9e"/><path d="M9.18,12.489a3.918,3.918,0,1,1,3.809-4.078A3.966,3.966,0,0,1,9.18,12.489Z" transform="translate(0 5.834)" fill="#616262"/></g></g></svg>