<svg width="128" height="128" viewBox="0 0 128 128" fill="none" xmlns="http://www.w3.org/2000/svg">
<g clip-path="url(#clip0_6177_31274)">
<path d="M79.853 68.81C78.2001 68.8109 76.5665 69.1648 75.0614 69.8481C73.5564 70.5314 72.2146 71.5282 71.126 72.772L65.658 68.9C66.8675 65.6307 66.8785 62.0385 65.689 58.762L71.146 54.931C73.045 57.0715 75.6675 58.4356 78.5104 58.7617C81.3532 59.0878 84.2164 58.3528 86.5508 56.6978C88.8852 55.0429 90.5264 52.5844 91.1597 49.7938C91.7931 47.0033 91.3739 44.0771 89.9826 41.5766C88.5913 39.0761 86.3259 37.1772 83.6208 36.2441C80.9157 35.311 77.9613 35.4095 75.3243 36.5205C72.6873 37.6316 70.5533 39.6771 69.3315 42.2646C68.1098 44.8522 67.8863 47.7998 68.704 50.542L63.244 54.375C60.915 51.484 57.5995 49.5561 53.935 48.962V42.379C56.7409 41.7862 59.229 40.178 60.9217 37.8631C62.6144 35.5481 63.3924 32.6895 63.1064 29.836C62.8204 26.9824 61.4906 24.3351 59.3721 22.4021C57.2536 20.4691 54.4959 19.3867 51.6282 19.3626C48.7604 19.3385 45.9849 20.3745 43.8342 22.2716C41.6836 24.1687 40.3094 26.7934 39.9756 29.6417C39.6417 32.49 40.3716 35.3613 42.0251 37.7043C43.6787 40.0474 46.1395 41.6972 48.935 42.337V49.037C45.45 49.6476 42.2931 51.4704 40.022 54.1833C37.751 56.8962 36.5119 60.3246 36.5239 63.8626C36.5359 67.4006 37.798 70.8206 40.0874 73.518C42.3768 76.2155 45.546 78.0169 49.035 78.604V85.643C46.2331 86.2593 43.7575 87.8887 42.0836 90.2186C40.4096 92.5485 39.6552 95.4146 39.9651 98.2666C40.2751 101.119 41.6275 103.756 43.7629 105.672C45.8983 107.588 48.6661 108.647 51.535 108.647C54.4039 108.647 57.1717 107.588 59.3071 105.672C61.4424 103.756 62.7949 101.119 63.1049 98.2666C63.4148 95.4146 62.6604 92.5485 60.9864 90.2186C59.3125 87.8887 56.8369 86.2593 54.035 85.643V78.6C57.6297 77.9954 60.882 76.1046 63.186 73.28L68.686 77.18C67.9999 79.5243 68.069 82.0251 68.8836 84.3279C69.6981 86.6307 71.2168 88.6188 73.2243 90.0103C75.2318 91.4018 77.6263 92.1263 80.0685 92.081C82.5107 92.0356 84.8767 91.2229 86.8312 89.7578C88.7857 88.2927 90.2295 86.2497 90.9581 83.9182C91.6866 81.5867 91.6629 79.0851 90.8903 76.7679C90.1177 74.4507 88.6354 72.4354 86.6535 71.0076C84.6716 69.5798 82.2906 68.812 79.848 68.813L79.853 68.81ZM79.853 41.597C80.9691 41.5966 82.0603 41.9272 82.9885 42.547C83.9167 43.1667 84.6403 44.0478 85.0678 45.0789C85.4952 46.1099 85.6073 47.2445 85.3899 48.3393C85.1725 49.434 84.6353 50.4397 83.8463 51.2291C83.0572 52.0185 82.0519 52.5563 80.9572 52.7743C79.8626 52.9923 78.7279 52.8808 77.6967 52.4539C76.6654 52.027 75.7839 51.3039 75.1636 50.376C74.5434 49.4481 74.2122 48.3571 74.212 47.241C74.2136 45.7451 74.8083 44.3109 75.8658 43.2529C76.9232 42.1949 78.3571 41.5994 79.853 41.597ZM45.894 30.997C45.8936 29.8809 46.2242 28.7897 46.844 27.8615C47.4637 26.9332 48.3449 26.2096 49.3759 25.7822C50.4069 25.3548 51.5416 25.2427 52.6363 25.4601C53.731 25.6775 54.7367 26.2147 55.5261 27.0037C56.3156 27.7927 56.8533 28.7981 57.0713 29.8927C57.2893 30.9874 57.1778 32.122 56.7509 33.1533C56.324 34.1846 55.6009 35.0661 54.673 35.6863C53.7451 36.3066 52.6541 36.6378 51.538 36.638C50.0428 36.6367 48.6092 36.0425 47.5514 34.9858C46.4936 33.9292 45.8979 32.4961 45.895 31.001L45.894 30.997ZM57.176 96.997C57.1776 98.1135 56.8479 99.2054 56.2287 100.135C55.6094 101.064 54.7285 101.788 53.6973 102.216C52.6662 102.645 51.5312 102.757 50.4359 102.54C49.3407 102.323 48.3344 101.786 47.5446 100.997C46.7547 100.208 46.2167 99.202 45.9986 98.107C45.7806 97.0119 45.8923 95.8768 46.3196 94.8453C46.747 93.8137 47.4707 92.9321 48.3993 92.3121C49.3278 91.692 50.4194 91.3614 51.536 91.362C53.0319 91.3636 54.4661 91.9587 55.5237 93.0166C56.5813 94.0746 57.1759 95.509 57.177 97.005L57.176 96.997ZM51.533 71.662C49.977 71.6612 48.4563 71.199 47.163 70.3339C45.8697 69.4688 44.862 68.2397 44.2673 66.8019C43.6726 65.364 43.5176 63.7822 43.8219 62.2563C44.1263 60.7304 44.8762 59.329 45.977 58.2293C47.0778 57.1297 48.4799 56.3811 50.0061 56.0784C51.5323 55.7756 53.1141 55.9322 54.5513 56.5284C55.9885 57.1245 57.2166 58.1335 58.0804 59.4276C58.9442 60.7218 59.4048 62.243 59.404 63.799C59.4011 65.8849 58.5706 67.8844 57.0949 69.3586C55.6192 70.8328 53.6189 71.6612 51.533 71.662ZM79.851 86.096C78.7349 86.0964 77.6437 85.7658 76.7155 85.146C75.7872 84.5262 75.0637 83.6451 74.6362 82.6141C74.2088 81.583 74.0967 80.4484 74.3141 79.3537C74.5315 78.2589 75.0687 77.2533 75.8577 76.4638C76.6467 75.6744 77.6521 75.1367 78.7467 74.9187C79.8414 74.7007 80.9761 74.8122 82.0073 75.2391C83.0386 75.6659 83.9201 76.3891 84.5404 77.317C85.1606 78.2449 85.4918 79.3359 85.492 80.452C85.4904 81.9479 84.8957 83.382 83.8382 84.4401C82.7807 85.4981 81.3469 86.0936 79.851 86.096Z" fill="black"/>
</g>
<defs>
<clipPath id="clip0_6177_31274">
<rect width="128" height="128" fill="white"/>
</clipPath>
</defs>
</svg>
