<svg xmlns="http://www.w3.org/2000/svg" width="128" height="128" viewBox="0 0 128 128"><g transform="translate(-1265 -122)"><rect width="128" height="128" transform="translate(1265 122)" fill="none"/><path d="M49.349,49.448a11.606,11.606,0,0,0-8.727,3.962l-5.468-3.872A14.731,14.731,0,0,0,35.185,39.4l5.457-3.831A11.614,11.614,0,1,0,38.2,31.18l-5.46,3.833A15.046,15.046,0,0,0,23.431,29.6V23.017a11.634,11.634,0,1,0-5-.042v6.7a15,15,0,0,0,.1,29.567v7.039a11.638,11.638,0,1,0,5,0V59.238a15.025,15.025,0,0,0,9.151-5.32l5.5,3.9a11.635,11.635,0,1,0,11.162-8.367Zm0-27.213a5.643,5.643,0,1,1-5.641,5.644A5.65,5.65,0,0,1,49.349,22.235Zm-33.959-10.6a5.643,5.643,0,1,1,5.644,5.641A5.648,5.648,0,0,1,15.391,11.639Zm11.282,66A5.643,5.643,0,1,1,21.032,72,5.647,5.647,0,0,1,26.673,77.643ZM21.029,52.3A7.867,7.867,0,1,1,28.9,44.437,7.874,7.874,0,0,1,21.029,52.3ZM49.347,66.734a5.643,5.643,0,1,1,5.641-5.644A5.65,5.65,0,0,1,49.347,66.734Z" transform="translate(1295.504 141.362)"/></g></svg>