<svg width="128" height="128" viewBox="0 0 128 128" fill="none" xmlns="http://www.w3.org/2000/svg">
<g clip-path="url(#clip0_6177_31323)">
<path d="M64 109C88.8528 109 109 88.8528 109 64C109 39.1472 88.8528 19 64 19C39.1472 19 19 39.1472 19 64C19 88.8528 39.1472 109 64 109Z" fill="#F1F2F3"/>
<path d="M44.378 40.1141C44.042 48.0801 42.697 55.3061 40.647 59.9451C39.605 62.2641 39.639 62.1631 40.277 62.1631C41.252 62.1631 46.966 64.5491 49.218 65.8631C54.764 69.1571 56.209 72.5521 53.418 75.8121C52.275 77.1231 52.275 77.1561 52.918 77.9291C53.893 79.1391 53.758 81.3571 52.518 83.6761C51.1999 85.717 49.6795 87.6199 47.98 89.3561C46.064 91.4401 44.48 93.1881 44.48 93.2561C44.48 93.6561 49.488 91.2061 53.79 88.6851C63.336 83.0381 73.217 75.2741 79.503 68.3851C84.209 63.2431 88.175 57.9991 88.175 56.9571C88.175 55.9821 86.999 56.5871 81.621 60.2841C80.613 60.9901 70.328 56.1161 64.009 51.9481C57.5803 47.6742 51.6995 42.6286 46.498 36.9241L44.58 34.7031L44.378 40.1141Z" fill="#4F4FFF"/>
</g>
<defs>
<clipPath id="clip0_6177_31323">
<rect width="128" height="128" fill="white"/>
</clipPath>
</defs>
</svg>
