<svg xmlns="http://www.w3.org/2000/svg" width="128" height="128" viewBox="0 0 128 128"><g transform="translate(-1700 -2365)"><rect width="128" height="128" transform="translate(1700 2365)" fill="none"/><g transform="translate(-420 -529)"><circle cx="45" cy="45" r="45" transform="translate(2139 2913)" fill="#f1f2f3"/><g transform="translate(2098.67 3138.403)"><path d="M65.708-204.289c-.336,7.966-1.681,15.192-3.731,19.831-1.042,2.319-1.008,2.218-.37,2.218.975,0,6.689,2.386,8.941,3.7,5.546,3.294,6.991,6.689,4.2,9.949-1.143,1.311-1.143,1.344-.5,2.117.975,1.21.84,3.428-.4,5.747a36.188,36.188,0,0,1-4.538,5.68c-1.916,2.084-3.5,3.832-3.5,3.9,0,.4,5.008-2.05,9.31-4.571,9.546-5.647,19.427-13.411,25.713-20.3,4.706-5.142,8.672-10.386,8.672-11.428,0-.975-1.176-.37-6.554,3.327-1.008.706-11.293-4.168-17.612-8.336a94.5,94.5,0,0,1-17.511-15.024L65.91-209.7Z" transform="translate(0 0)" fill="#4f4fff"/></g></g></g></svg>