<svg xmlns="http://www.w3.org/2000/svg" width="128" height="128" viewBox="0 0 128 128"><g transform="translate(-3633 -122)"><rect width="128" height="128" transform="translate(3633 122)" fill="#fff"/><g transform="translate(-67.135 -27.818)"><path d="M49.912,63.066H17.4V10.5H49.912a26.283,26.283,0,0,1,0,52.566Z" transform="translate(3712 159)" fill="#07a5de"/><path d="M59.787,87.466H17.4V34.9H59.787a26.283,26.283,0,0,1,0,52.566Z" transform="translate(3712 171.67)" fill="#3ebeb0"/><path d="M79.689,44.015a26.243,26.243,0,0,0-19.9-9.115H17.4V59.208H56.748C70.725,59.208,80.449,44.775,79.689,44.015Z" transform="translate(3712 171.67)" fill="#353535" opacity="0.26"/><path d="M49.912,50.4A26.428,26.428,0,0,0,72.245,37.938c-.608-.3-1.215-.608-1.975-.912-.152,0-.3-.152-.456-.152-.608-.3-1.215-.456-1.975-.76h-.152c-.152,0-.152,0-.3-.152l-1.823-.456h-.3c-.152,0-.3,0-.3-.152-.608-.152-1.215-.152-1.823-.3h-.912c-.76,0-1.367-.152-2.127-.152H17.4V50.4H49.912Z" transform="translate(3712 171.67)" fill="#353535"/></g></g></svg>