<svg width="128" height="128" viewBox="0 0 128 128" fill="none" xmlns="http://www.w3.org/2000/svg">
<path d="M61.7769 72.248H29.2649V19.682H61.7769C68.7476 19.682 75.4328 22.4511 80.3618 27.3801C85.2908 32.3091 88.0599 38.9943 88.0599 45.965C88.0599 52.9357 85.2908 59.6209 80.3618 64.5499C75.4328 69.4789 68.7476 72.248 61.7769 72.248Z" fill="#07A5DE"/>
<path d="M71.6519 109.318H29.2649V56.752H71.6519C78.6226 56.752 85.3078 59.521 90.2368 64.4501C95.1658 69.3791 97.9349 76.0643 97.9349 83.035C97.9349 90.0056 95.1658 96.6908 90.2368 101.62C85.3078 106.549 78.6226 109.318 71.6519 109.318Z" fill="#3EBEB0"/>
<path opacity="0.26" d="M91.5539 65.867C89.0884 63.0049 86.034 60.7088 82.5996 59.1357C79.1651 57.5626 75.4315 56.7495 71.6539 56.752H29.2649V81.06H68.6129C82.5899 81.06 92.3139 66.627 91.5539 65.867Z" fill="#353535"/>
<path d="M61.7769 72.252C66.2499 72.2345 70.6452 71.082 74.5512 68.9024C78.4572 66.7228 81.7462 63.5875 84.1099 59.79C83.5019 59.49 82.8949 59.182 82.1349 58.878C81.9829 58.878 81.8349 58.726 81.6789 58.726C81.0709 58.426 80.4639 58.27 79.7039 57.966H79.5519C79.3999 57.966 79.3999 57.966 79.2519 57.814L77.4289 57.358H77.1289C76.9769 57.358 76.8289 57.358 76.8289 57.206C76.2209 57.054 75.6139 57.054 75.0059 56.906H74.0939C73.3339 56.906 72.7269 56.754 71.9669 56.754H29.2649V72.252H61.7769Z" fill="#353535"/>
</svg>
