<svg width="128" height="128" viewBox="0 0 128 128" fill="none" xmlns="http://www.w3.org/2000/svg">
<g clip-path="url(#clip0_6177_31287)">
<path d="M98.175 38.9069C96.175 38.9569 94.987 39.8309 94.598 41.4989C95.1297 41.9385 95.8096 42.1578 96.498 42.1119C96.8944 42.125 97.2885 42.0463 97.6496 41.8821C98.0107 41.718 98.3291 41.4727 98.5799 41.1653C98.8307 40.858 99.0072 40.497 99.0957 40.1103C99.1842 39.7236 99.1822 39.3217 99.09 38.9359C98.7874 38.9091 98.4836 38.8994 98.18 38.9069M108.502 33.2009H108.323C106.893 33.2469 106.671 34.0219 103.584 34.7829C100.465 35.5509 97.452 34.8129 94.095 36.2219C84.066 40.4279 81.93 54.9349 72.815 60.0839C66.003 63.9319 59.415 65.6399 53.237 67.5759C49.176 68.8479 45.149 70.3139 41.469 73.4839C38.613 75.9469 37.828 77.8589 34.853 80.9489C31.817 84.0899 22.479 78.5299 17.931 82.6009C17.8375 82.6864 17.7631 82.7906 17.7126 82.9069C17.6622 83.0231 17.6368 83.1486 17.6382 83.2753C17.6397 83.402 17.6678 83.5269 17.7208 83.642C17.7739 83.757 17.8506 83.8596 17.946 83.9429C18.931 84.8049 20.806 86.8579 22.59 87.4919C22.024 88.5629 18.827 91.7179 19.48 93.2919C20.165 94.9519 28.091 93.8239 35.417 89.4009C38.828 87.3399 41.546 84.3709 46.861 83.6639C53.737 82.7479 61.661 84.2529 69.62 85.3989C68.439 88.9179 66.07 91.2609 64.171 94.0739C63.582 94.7079 65.352 94.7739 67.371 94.3949C70.5149 93.7807 73.5488 92.6976 76.371 91.1819C79.737 89.2219 80.248 84.1989 84.371 83.1129C86.371 86.1809 91.333 87.2129 95.161 85.5759C95.373 85.4859 95.581 85.3859 95.784 85.2809C96.245 84.8809 95.975 84.4099 95.692 84.0649C95.5586 83.9403 95.4293 83.8103 95.304 83.6749C93.149 81.3589 92.656 75.8929 93.612 73.2349C94.701 70.2099 95.778 65.3699 96.874 61.3729C98.052 57.0889 98.487 51.6659 99.912 49.4779C102.056 46.1879 104.426 45.0579 106.484 43.2019C108.542 41.3459 110.424 39.5429 110.36 35.3009C110.33 33.9869 109.686 33.2329 108.502 33.2009ZM108.72 37.6599C108.295 40.5879 106.42 42.1979 104.213 43.7509C102.285 45.1109 100.15 46.4209 98.783 48.5459C97.383 50.7199 96.497 58.1689 94.328 65.5239C92.528 71.6239 89.847 77.6639 85.26 80.5719C85.1917 80.6145 85.1142 80.64 85.0341 80.6463C84.9539 80.6525 84.8734 80.6393 84.7994 80.6078C84.7254 80.5763 84.66 80.5274 84.609 80.4653C84.5579 80.4032 84.5226 80.3296 84.506 80.2509C84.185 78.5459 84.249 75.4309 83.72 76.4379C83.0843 78.2858 82.3156 80.0851 81.42 81.8219C78.72 86.9799 74.82 90.9309 68.507 92.4789C68.3954 92.504 68.2788 92.4947 68.1726 92.4524C68.0663 92.4101 67.9753 92.3367 67.9115 92.2419C67.8476 92.147 67.8139 92.0351 67.8147 91.9207C67.8155 91.8063 67.8508 91.6949 67.916 91.6009C70.827 87.5629 73.432 83.2199 73.75 76.5919C73.7543 76.4682 73.7196 76.3462 73.6508 76.2432C73.5819 76.1403 73.4824 76.0616 73.3664 76.0183C73.2504 75.9751 73.1236 75.9694 73.0042 76.0022C72.8848 76.035 72.7787 76.1045 72.701 76.2009C71.326 77.9009 70.987 81.9279 68.977 83.1689C67.3862 83.3279 65.7849 83.353 64.19 83.2439C57.582 82.8439 50.8 80.8599 44.618 82.8439C40.409 84.1959 35.989 88.0379 32.423 89.5839C28.237 91.3899 26.247 93.1009 20.956 92.9859C20.415 92.2579 23.164 89.1059 24.098 87.7449C24.398 87.3089 23.758 86.8509 23.162 86.5669C21.729 85.9089 20.292 84.1249 18.762 83.4289C19.1153 83.0278 19.5499 82.7063 20.037 82.4859C23.507 80.4719 32.709 84.7609 35.181 82.3329C36.5269 81.017 37.7306 79.563 38.772 77.9949C39.9413 76.3692 41.3275 74.9111 42.892 73.6609C43.5646 73.1223 44.2573 72.6099 44.97 72.1239C47.67 70.2779 49.154 70.1399 52.649 68.8419C57.096 67.1879 62.602 65.7419 67.372 63.9149C70.481 62.8273 73.4293 61.3254 76.137 59.4499C76.7521 58.9941 77.3367 58.4983 77.887 57.9659C85.346 50.6829 86.825 37.8659 98.451 36.6719C99.858 36.5269 100.859 36.4659 101.908 36.4329C103.122 36.3919 104.313 36.0933 105.403 35.5569C105.761 35.4009 107.892 34.1109 108.612 34.7339C109.092 35.1499 108.735 37.4029 108.704 37.6469" fill="#444B5E"/>
</g>
<defs>
<clipPath id="clip0_6177_31287">
<rect width="128" height="128" fill="white"/>
</clipPath>
</defs>
</svg>
