<svg xmlns="http://www.w3.org/2000/svg" width="128" height="128" viewBox="0 0 128 128"><g transform="translate(-2745 -122)"><rect width="128" height="128" transform="translate(2745 122)" fill="none"/><g transform="translate(2762.637 155.201)"><path d="M80.538,5.706c-2,.05-3.188.924-3.577,2.592a2.7,2.7,0,0,0,1.9.613,2.578,2.578,0,0,0,2.592-3.176,8.061,8.061,0,0,0-.91-.029M90.865,0h-.179c-1.43.046-1.652.821-4.739,1.582-3.119.768-6.132.03-9.489,1.439C66.429,7.227,64.293,21.734,55.178,26.883c-6.812,3.848-13.4,5.556-19.578,7.492-4.061,1.272-8.088,2.738-11.768,5.908-2.856,2.463-3.641,4.375-6.616,7.465C14.18,50.889,4.842,45.329.294,49.4a.9.9,0,0,0,.015,1.342c.985.862,2.86,2.915,4.644,3.549-.566,1.071-3.763,4.226-3.11,5.8.685,1.66,8.611.532,15.937-3.891,3.411-2.061,6.129-5.03,11.444-5.737,6.876-.916,14.8.589,22.759,1.735-1.181,3.519-3.55,5.862-5.449,8.675-.589.634,1.181.7,3.2.321a31.985,31.985,0,0,0,9-3.213c3.366-1.96,3.877-6.983,8-8.069,2,3.068,6.962,4.1,10.79,2.463.212-.09.42-.19.623-.295.461-.4.191-.871-.092-1.216q-.2-.187-.388-.39c-2.155-2.316-2.648-7.782-1.692-10.44,1.089-3.025,2.166-7.865,3.262-11.862,1.178-4.284,1.613-9.707,3.038-11.895,2.144-3.29,4.514-4.42,6.572-6.276S92.787,6.342,92.723,2.1C92.693.786,92.049.032,90.865,0m.218,4.459c-.425,2.928-2.3,4.538-4.507,6.091-1.928,1.36-4.063,2.67-5.43,4.795-1.4,2.174-2.286,9.623-4.455,16.978-1.8,6.1-4.481,12.14-9.068,15.048a.5.5,0,0,1-.754-.321c-.321-1.705-.257-4.82-.786-3.813a40.47,40.47,0,0,1-2.3,5.384c-2.7,5.158-6.6,9.109-12.913,10.657a.568.568,0,0,1-.591-.878c2.911-4.038,5.516-8.381,5.834-15.009A.59.59,0,0,0,55.064,43c-1.375,1.7-1.714,5.727-3.724,6.968a28.542,28.542,0,0,1-4.787.075c-6.608-.4-13.39-2.384-19.572-.4-4.209,1.352-8.629,5.194-12.195,6.74C10.6,58.189,8.61,59.9,3.319,59.785c-.541-.728,2.208-3.88,3.142-5.241.3-.436-.34-.894-.936-1.178-1.433-.658-2.87-2.442-4.4-3.138A3.77,3.77,0,0,1,2.4,49.285c3.47-2.014,12.672,2.275,15.144-.153a26.81,26.81,0,0,0,3.591-4.338,21.968,21.968,0,0,1,4.12-4.334q1.009-.808,2.078-1.537c2.7-1.846,4.184-1.984,7.679-3.282,4.447-1.654,9.953-3.1,14.723-4.927A36.644,36.644,0,0,0,58.5,26.249a17.5,17.5,0,0,0,1.75-1.484c7.459-7.283,8.938-20.1,20.564-21.294,1.407-.145,2.408-.206,3.457-.239a8.569,8.569,0,0,0,3.495-.876c.358-.156,2.489-1.446,3.209-.823.48.416.123,2.669.092,2.913" transform="translate(0)" fill="#444b5e"/></g></g></svg>