<svg width="128" height="128" viewBox="0 0 128 128" fill="none" xmlns="http://www.w3.org/2000/svg">
<path d="M80.32 6.85718C80.32 6.85718 92.7543 26.88 96.9143 34.0115C96.9602 34.129 96.9602 34.2596 96.9143 34.3772C96.8466 34.4224 96.7671 34.4465 96.6857 34.4465C96.6044 34.4465 96.5248 34.4224 96.4572 34.3772L74.9714 11.9772L80.32 6.85718Z" fill="#C72C48"/>
<path d="M43.7029 79.9085C47.3454 72.2913 52.2792 65.3623 58.2858 59.4285C60.5923 57.1351 63.0348 54.9827 65.6 52.9828V68.5714L43.7029 79.9085ZM31.04 94.5371L65.6 76.9828V117.211L73.3715 127.314V72.8685L77.9429 70.4457C83.4954 67.6446 87.7079 62.7527 89.654 56.846C91.6 50.9393 91.1202 44.5015 88.32 38.9485C87.2867 36.895 85.9626 35.0012 84.3886 33.3257L66.7886 14.72C66.4223 14.3585 66.1315 13.9279 65.933 13.4531C65.7345 12.9783 65.6323 12.4688 65.6323 11.9542C65.6323 11.4396 65.7345 10.9302 65.933 10.4554C66.1315 9.98061 66.4223 9.54999 66.7886 9.18853C67.154 8.82087 67.5885 8.52909 68.067 8.32998C68.5456 8.13088 69.0588 8.02838 69.5772 8.02838C70.0955 8.02838 70.6087 8.13088 71.0873 8.32998C71.5659 8.52909 72.0004 8.82087 72.3658 9.18853L74.88 11.7942L80.32 6.8571C74.0115 -1.32576 66.24 -0.320046 61.8058 3.79424C59.6279 5.85792 58.3569 8.70073 58.2712 11.6998C58.1856 14.6988 59.2922 17.6096 61.3486 19.7942L79.3143 38.5371C80.7739 40.0839 81.9124 41.9046 82.6641 43.8941C83.4157 45.8835 83.7654 48.0023 83.6932 50.1278C83.6209 52.2532 83.128 54.3433 82.243 56.2771C81.358 58.211 80.0985 59.9502 78.5372 61.3942C77.685 62.1591 76.7672 62.8474 75.7943 63.4514L73.3715 64.7314V39.1314C62.6613 44.6435 53.3085 52.4645 45.988 62.0302C38.6676 71.5958 33.5621 82.6673 31.04 94.4457V94.5371Z" fill="#C72C48"/>
<path d="M73.3714 72.8685V81.0971L65.6 85.0285V76.8457L73.3714 72.8685Z" fill="#C72C48"/>
</svg>
