<svg xmlns="http://www.w3.org/2000/svg" width="128" height="128" viewBox="0 0 128 128"><g transform="translate(-2893 -122)"><rect width="128" height="128" transform="translate(2893 122)" fill="none"/><g transform="translate(2927.906 140.848)"><path d="M15.944.087l2.41,4.526a13.523,13.523,0,0,0,1.82,2.263,63.228,63.228,0,0,1,5.655,6.394,55.571,55.571,0,0,1,8.8,17.755A43.661,43.661,0,0,1,36.5,43.076a42.523,42.523,0,0,1-12.416,31.38,35.837,35.837,0,0,1-4.43,3.787c-.835,0-1.23-.641-1.575-1.23a10.128,10.128,0,0,1-1.23-3.541,17.111,17.111,0,0,1-.4-4.476v-.689C16.387,68.16,15.651.434,15.944.087Z" transform="translate(12.868 0.159)" fill="#599636"/><path d="M28.812.1c-.1-.2-.2-.048-.3.048a4.547,4.547,0,0,1-.835,2.709,12.979,12.979,0,0,1-2.164,2.164A47.136,47.136,0,0,0,14.942,18.5a54.14,54.14,0,0,0-6.1,22.033c-.246,2.8.886,12.69,1.769,15.543A47.118,47.118,0,0,0,22.962,75.5a53.948,53.948,0,0,0,4.374,3.739c.443,0,.491-.4.593-.689a13.488,13.488,0,0,0,.443-1.919l.988-7.376Z" transform="translate(0 0)" fill="#6cac48"/><path d="M19.263,37.576a6.733,6.733,0,0,1,1.23-3A3.1,3.1,0,0,1,19.116,33.3a9.129,9.129,0,0,1-.734-1.623,28.085,28.085,0,0,1-1.033-6.344V24.053a6.132,6.132,0,0,0-.3,2.116,49.018,49.018,0,0,1-.886,6.64,5.908,5.908,0,0,1-.79,2.557.979.979,0,0,0,.048.344A29.369,29.369,0,0,1,16.7,43.679v.988c0,1.18-.048.931.931,1.326a4.314,4.314,0,0,1,1.23.491c.3,0,.344-.246.344-.443l-.147-1.623V39.892a11.97,11.97,0,0,1,.2-2.314Z" transform="translate(11.959 43.823)" fill="#c2bfbf"/></g></g></svg>