<svg width="128" height="128" viewBox="0 0 128 128" fill="none" xmlns="http://www.w3.org/2000/svg">
<g clip-path="url(#clip0_6177_31292)">
<path d="M63.7181 19.094L66.1281 23.62C66.6517 24.4375 67.2619 25.1962 67.9481 25.883C69.9749 27.8845 71.8642 30.0207 73.6031 32.277C77.5764 37.6203 80.5572 43.6342 82.4031 50.032C83.5874 53.9417 84.2172 57.9982 84.2741 62.083C84.4555 67.884 83.4476 73.6607 81.3123 79.0574C79.177 84.4541 75.9595 89.3566 71.8581 93.463C70.4867 94.8435 69.0051 96.11 67.4281 97.25C66.5931 97.25 66.1981 96.609 65.8531 96.02C65.2263 94.9265 64.8092 93.7256 64.6231 92.479C64.2935 91.0111 64.159 89.5061 64.2231 88.003V87.314C64.1611 87.167 63.4251 19.441 63.7181 19.094Z" fill="#599636"/>
<path d="M63.7181 18.948C63.6181 18.748 63.5181 18.9 63.4181 18.996C63.4355 19.9649 63.143 20.9141 62.5831 21.705C61.9496 22.5092 61.2232 23.2356 60.4191 23.869C56.1017 27.6787 52.5189 32.2471 49.8481 37.348C46.2696 44.1744 44.1899 51.6862 43.7481 59.381C43.5021 62.181 44.6341 72.071 45.5171 74.924C47.9649 82.3202 52.2085 88.994 57.8681 94.348C59.2585 95.6713 60.7186 96.9194 62.2421 98.087C62.6851 98.087 62.7331 97.687 62.8351 97.398C63.0293 96.77 63.1774 96.1286 63.2781 95.479L64.2661 88.103L63.7181 18.948Z" fill="#6CAC48"/>
<path d="M66.1281 100.247C66.2876 99.1617 66.7098 98.1319 67.3581 97.247C66.7782 96.9742 66.2972 96.5284 65.9811 95.971C65.6841 95.4552 65.4383 94.9116 65.2471 94.348C64.6611 92.2798 64.3145 90.1512 64.2141 88.004V86.724C63.991 87.4063 63.8894 88.1225 63.9141 88.84C63.7705 91.0709 63.4745 93.2895 63.0281 95.48C62.9638 96.3815 62.6935 97.2563 62.2381 98.037C62.2334 98.1536 62.2497 98.2701 62.2861 98.381C63.0771 100.966 63.5075 103.647 63.5651 106.35V107.338C63.5651 108.518 63.5171 108.269 64.4961 108.664C64.9289 108.763 65.3438 108.929 65.7261 109.155C66.0261 109.155 66.0701 108.909 66.0701 108.712L65.9231 107.089V102.563C65.9146 101.787 65.9816 101.012 66.1231 100.249L66.1281 100.247Z" fill="#C2BFBF"/>
</g>
<defs>
<clipPath id="clip0_6177_31292">
<rect width="128" height="128" fill="white"/>
</clipPath>
</defs>
</svg>
