<svg width="128" height="128" viewBox="0 0 128 128" fill="none" xmlns="http://www.w3.org/2000/svg">
<g clip-path="url(#clip0_6177_31386)">
<path d="M74.724 60.8101L56.829 66.653L41.261 73.524L36.906 74.674C35.797 75.729 34.634 76.798 33.376 77.88C31.996 79.07 30.711 80.152 29.724 80.937C28.4375 81.9984 27.2512 83.1757 26.18 84.454C25.0705 85.7809 24.1842 87.2795 23.556 88.8911C23.1889 90.0116 23.0932 91.2033 23.2766 92.3681C23.46 93.5329 23.9173 94.6375 24.611 95.5911C26.45 98.2961 30.116 101.055 34.39 102.935C37.1826 104.104 40.057 105.066 42.99 105.816C49.0226 107.183 55.1566 108.056 61.331 108.427C62.1194 108.471 62.9096 108.471 63.698 108.427C64.3434 107.357 64.926 106.251 65.443 105.113C68.1522 99.7609 70.2787 94.1333 71.786 88.3271C72.6129 84.495 73.1554 80.6071 73.409 76.695C73.504 75.383 73.544 70.9871 73.463 69.4951C73.3714 67.3686 73.1456 65.25 72.787 63.152C72.7379 62.9714 72.724 62.783 72.746 62.597C73.5392 62.3098 74.3474 62.0658 75.167 61.8661L74.721 60.8111L74.724 60.8101ZM70.639 63.204C71.0479 65.4411 71.2819 67.7066 71.339 69.98C71.3737 70.286 71.3694 70.5952 71.326 70.9001C71.218 70.9001 69.04 69.6151 67.485 68.6411C66.132 67.7891 63.563 66.084 63.157 65.76C63.021 65.665 63.035 65.652 64.144 65.273C66.027 64.633 70.49 63.204 70.639 63.204ZM61.523 66.204C61.9449 66.3561 62.3416 66.5705 62.7 66.8401C65.3461 68.5112 68.0837 70.0329 70.9 71.398C71.4 71.614 71.454 71.5331 70.3 72.3181C67.358 74.256 64.2482 75.9264 61.008 77.3091C60.345 77.6091 59.791 77.8361 59.777 77.8361C59.8039 77.5829 59.8582 77.3334 59.939 77.092C60.8035 73.9924 61.2897 70.7995 61.387 67.583C61.4 66.23 61.4 66.2301 61.522 66.1901C61.496 66.2071 61.51 66.2071 61.523 66.2071V66.204ZM59.643 66.9211C59.7047 68.2334 59.6776 69.5484 59.562 70.8571C59.3198 72.8509 58.9035 74.8198 58.318 76.7411C58.2318 77.0622 58.128 77.3783 58.007 77.688C57.1092 76.9351 56.2682 76.1169 55.491 75.2401C54.5186 74.1362 53.683 72.919 53.002 71.6151C52.6966 71.0253 52.4433 70.4099 52.245 69.7761C52.461 69.6271 59.59 66.8681 59.645 66.9221L59.643 66.9211ZM50.797 70.3971C50.8044 70.396 50.8119 70.3967 50.819 70.3989C50.826 70.4012 50.8326 70.405 50.838 70.4101C50.9214 70.565 50.9885 70.7282 51.038 70.8971C51.6141 72.3253 52.3684 73.675 53.283 74.9141C54.2087 76.1386 55.2554 77.267 56.407 78.282C56.732 78.553 57.029 78.809 57.07 78.85C57.151 78.931 57.178 78.918 54.97 79.756C52.414 80.73 49.627 81.7041 46.435 82.7321C45.6723 82.9781 44.9106 83.226 44.15 83.476C44.028 83.517 44.069 83.4491 44.42 82.8951C46.4837 79.4544 48.2719 75.8558 49.768 72.1331C49.998 71.5331 50.228 70.943 50.268 70.807C50.285 70.7281 50.3213 70.6547 50.3736 70.5933C50.426 70.5318 50.4928 70.4843 50.568 70.455C50.6425 70.4299 50.7192 70.4115 50.797 70.4001V70.3971ZM48.097 71.5201C47.7031 72.4754 47.2605 73.41 46.771 74.32C45.459 76.876 44.025 79.392 42.105 82.449C41.78 82.976 41.469 83.463 41.429 83.518C41.361 83.613 41.334 83.586 41.118 83.166C40.6298 82.1732 40.2766 81.1195 40.068 80.0331C39.8746 78.6944 39.8976 77.3334 40.136 76.002C40.312 75.163 40.298 75.1771 40.704 74.9741C42.438 74.0931 48.038 71.468 48.092 71.523L48.097 71.5201ZM71.429 72.467V73.0351C71.3979 76.4398 71.1306 79.8383 70.629 83.2061C70.548 83.7331 70.48 84.1661 70.467 84.1801C70.454 84.1941 70.075 84.0721 69.615 83.9361C67.4596 83.2517 65.3758 82.3596 63.393 81.2721C62.2954 80.6947 61.2379 80.0439 60.228 79.324C60.241 79.311 60.81 79.013 61.472 78.661C64.0148 77.3476 66.4851 75.8982 68.872 74.3191C69.697 73.7641 70.941 72.8721 71.212 72.6281L71.428 72.4661L71.429 72.467ZM37.885 76.467C37.939 76.467 37.926 76.575 37.844 77.067C37.79 77.419 37.722 78.067 37.695 78.514C37.5696 80.4024 37.9822 82.2877 38.885 83.951C39.0599 84.2855 39.2177 84.6287 39.358 84.9791C39.263 85.0601 30.309 87.684 27.496 88.455C26.657 88.685 25.927 88.8881 25.873 88.9011C25.778 88.9281 25.765 88.9151 25.805 88.6851C26.116 86.6971 27.631 84.1001 29.741 81.9091C31.0315 80.541 32.5341 79.3899 34.191 78.5001C35.571 77.7161 37.691 76.539 37.856 76.485C37.853 76.473 37.868 76.4731 37.88 76.4731L37.885 76.467ZM58.985 80.2411C59.2379 80.353 59.4819 80.4841 59.715 80.6331C62.9683 82.4438 66.4544 83.8001 70.076 84.6641L70.387 84.7321L69.954 84.975C68.154 85.975 62.244 88.4381 56.199 90.6971C55.32 91.0211 54.454 91.3461 54.292 91.4141C54.1943 91.4629 54.0892 91.495 53.981 91.5091C53.981 91.4951 54.225 91.022 54.536 90.441C56.2111 87.3257 57.6359 84.0822 58.797 80.7411C58.899 80.4901 58.968 80.26 58.98 80.247L58.985 80.2411ZM56.834 80.941C56.7751 81.1545 56.6982 81.3626 56.604 81.563C55.2355 84.8082 53.6682 87.9658 51.911 91.018C51.411 91.911 50.991 92.6281 50.977 92.6281C50.963 92.6281 50.558 92.384 50.071 92.087C47.3923 90.4913 45.001 88.4567 42.997 86.0681L42.753 85.768L43.984 85.4301C48.035 84.3471 52.0037 82.9769 55.86 81.33C56.383 81.126 56.816 80.95 56.83 80.95L56.834 80.941ZM70.197 85.6071C70.21 85.9181 69.521 88.7071 68.952 90.7201C68.479 92.4111 68.073 93.736 67.329 96.076C67.004 97.104 66.721 97.9561 66.707 97.9561C66.6471 97.9487 66.5882 97.9353 66.531 97.916C62.769 97.257 59.0835 96.2183 55.531 94.816C54.584 94.437 53.231 93.829 53.15 93.761C53.7357 93.4389 54.3412 93.1544 54.963 92.9091C61.117 90.2171 67.501 87.1611 69.692 85.8491C69.8457 85.7455 70.0148 85.6669 70.193 85.6161L70.197 85.6071ZM39.345 86.662C39.372 86.689 37.654 89.162 35.245 92.532C34.406 93.709 33.433 95.0881 33.068 95.6021C32.703 96.1161 32.148 96.928 31.837 97.415L31.269 98.294L30.66 97.7801C29.7542 96.9918 28.9128 96.1324 28.144 95.2101C27.0738 93.941 26.3018 92.448 25.885 90.8411C25.736 90.1921 25.736 89.8671 25.871 89.8271C26.071 89.7731 29.685 88.921 33.071 88.136C34.951 87.703 37.129 87.1891 37.913 87.0001C38.697 86.8111 39.328 86.6711 39.341 86.6711L39.345 86.662ZM41.076 87.325L41.509 87.812C43.3284 89.8755 45.471 91.6297 47.853 93.006C48.1148 93.1335 48.36 93.2927 48.583 93.48C48.489 93.548 40.224 96.48 36.396 97.808C34.245 98.565 32.473 99.174 32.46 99.174C32.3657 99.1217 32.2751 99.0629 32.189 98.998L31.946 98.8221L32.338 98.2541C33.609 96.4141 35.206 94.3991 38.682 90.2061L41.076 87.325ZM51.87 95.0481C51.883 95.0351 52.478 95.2481 53.209 95.5221C54.8486 96.1415 56.5244 96.6608 58.227 97.0771C60.7229 97.6894 63.2584 98.1278 65.815 98.389C66.115 98.416 66.275 98.443 66.221 98.484C66.126 98.538 64.138 99.201 62.677 99.661C60.35 100.391 53.249 102.488 47.46 104.152C46.391 104.463 45.472 104.72 45.418 104.733C45.2137 104.74 45.0118 104.688 44.836 104.584C45.0569 104.268 45.2964 103.966 45.553 103.678C47.5234 101.323 49.357 98.8577 51.045 96.2931C51.487 95.6251 51.868 95.071 51.868 95.057L51.87 95.0481ZM49.489 95.1161C49.502 95.1291 48.542 96.6711 46.865 99.3221C46.148 100.445 45.35 101.716 45.065 102.162C44.78 102.608 44.389 103.271 44.159 103.65L43.767 104.34L43.567 104.286C43.08 104.151 39.658 102.947 38.752 102.586C37.677 102.159 36.625 101.676 35.6 101.139C34.7752 100.73 33.9956 100.236 33.274 99.665C33.301 99.652 35.154 99.1511 37.386 98.5421C43.31 96.9321 46.597 95.9991 48.748 95.3231C48.9887 95.2399 49.235 95.1737 49.485 95.1251L49.489 95.1161ZM66.329 99.0651H66.342C66.396 99.2001 64.205 105.287 63.407 107.208C63.231 107.641 63.164 107.749 63.069 107.735C62.839 107.722 59.661 107.275 57.726 106.991C54.358 106.477 48.704 105.491 47.284 105.165L46.959 105.097L48.974 104.637C53.302 103.663 55.385 103.137 57.495 102.486C60.2199 101.652 62.8823 100.627 65.462 99.416C65.7412 99.2817 66.0296 99.1674 66.325 99.074L66.329 99.0651Z" fill="url(#paint0_linear_6177_31386)"/>
<path d="M56.275 19.097C53.4935 19.9408 50.7567 20.9251 48.075 22.046C44.7776 23.2951 41.6182 24.8815 38.647 26.78C37.9325 27.2728 37.3138 27.8916 36.821 28.606C36.7656 28.753 36.7381 28.909 36.74 29.066L38.553 30.784L42.868 32.164L53.134 34.004L64.874 36.019L64.996 35.005C64.956 35.005 64.928 34.992 64.888 34.992L63.346 34.748L63.035 34.194C61.435 31.381 59.681 27.894 58.653 25.537C57.8775 23.7647 57.2178 21.9438 56.678 20.086C56.448 19.166 56.421 19.112 56.273 19.099L56.275 19.097ZM56.058 19.787H56.072C56.085 19.8 56.139 20.179 56.194 20.625C56.4333 22.5633 56.873 24.4715 57.506 26.319C58.006 27.807 58.006 27.726 57.425 27.55C56.045 27.171 49.864 26.103 45.387 25.481C44.67 25.386 44.061 25.292 44.061 25.281C44.007 25.227 47.294 23.509 48.741 22.833C50.596 21.978 55.68 19.855 56.058 19.787ZM43.019 25.846L43.547 26.022C48.1414 27.3291 52.8429 28.2253 57.596 28.7C58.042 28.741 58.421 28.781 58.434 28.781C58.1618 28.9514 57.877 29.1005 57.582 29.227C55.662 30.187 53.551 31.364 52.091 32.27C51.8131 32.4584 51.519 32.6213 51.212 32.757C51.158 32.757 50.874 32.703 50.576 32.662L50.035 32.581L48.683 31.255C46.302 28.942 44.436 27.155 43.719 26.48L43.019 25.846ZM42.478 26.265L44.385 28.646C45.426 29.958 46.485 31.246 46.712 31.527C46.8604 31.6926 46.9961 31.8691 47.118 32.055C47.064 32.096 44.359 31.568 42.925 31.243C41.451 30.905 40.842 30.743 39.936 30.459L39.192 30.215V30.026C39.205 29.12 40.355 27.767 42.303 26.388L42.478 26.265ZM58.678 29.511C58.732 29.511 58.8 29.633 58.962 29.998C59.422 31.012 60.856 33.745 61.207 34.272C61.315 34.448 61.507 34.461 59.598 34.15C55.013 33.406 53.538 33.163 53.538 33.136C53.6323 33.0559 53.7369 32.9887 53.849 32.936C55.3114 32.1178 56.6927 31.1621 57.974 30.082C58.285 29.825 58.574 29.582 58.623 29.541C58.642 29.512 58.669 29.498 58.682 29.512L58.678 29.511Z" fill="url(#paint1_linear_6177_31386)"/>
<path d="M36.92 28.416C36.8289 28.5984 36.7804 28.7991 36.7781 29.003C36.7759 29.2069 36.8199 29.4086 36.907 29.593C37.2342 30.1673 37.6652 30.6759 38.178 31.093C38.178 31.093 44.197 36.963 44.927 37.802C48.128 41.311 49.8822 45.9016 49.837 50.651C49.9223 54.0179 49.189 57.3551 47.7 60.376C44.887 66.517 38.949 73.293 29.792 80.814L31.131 80.368C32.6675 79.3137 34.2708 78.3604 35.931 77.514C43.1265 73.6522 50.5893 70.3103 58.262 67.514C70.922 62.753 91.738 57.18 103.587 55.368L104.818 55.179L104.629 54.879C103.795 53.553 102.887 52.2749 101.91 51.051C99.257 47.7906 95.9968 45.0758 92.31 43.057C87.01 40.095 80.15 37.782 71.467 36.064C69.83 35.739 66.233 35.117 63.311 34.671C57.116 33.711 53.111 33.048 48.703 32.291C47.121 32.02 44.753 31.615 43.184 31.277C41.9732 31.0205 40.7769 30.7001 39.6 30.317C38.624 29.945 37.217 29.566 36.92 28.416ZM40.41 31.798C40.585 31.8397 40.7567 31.8938 40.924 31.96C41.438 32.136 42.101 32.339 42.885 32.56C43.4783 32.7233 44.0733 32.881 44.67 33.033C45.482 33.233 46.158 33.425 46.17 33.425C46.265 33.52 47.631 37.888 48.091 39.566C48.267 40.202 48.402 40.743 48.391 40.743C48.2585 40.5809 48.1451 40.4041 48.053 40.216C46.2433 37.1718 43.8756 34.4963 41.074 32.33C40.8404 32.1708 40.6188 31.9947 40.411 31.803L40.41 31.798ZM47.065 33.637C47.3108 33.6607 47.5548 33.7014 47.795 33.759C50.095 34.273 54.22 35.059 56.857 35.504C57.1299 35.5294 57.3986 35.5885 57.657 35.68C57.5483 35.7755 57.4251 35.8532 57.292 35.91C56.846 36.14 55.047 37.21 54.452 37.61C53.0823 38.5058 51.8006 39.5294 50.624 40.667C50.232 41.059 49.893 41.384 49.893 41.384C49.893 41.384 49.812 41.154 49.744 40.87C49.1164 38.5992 48.3068 36.3827 47.323 34.242C47.2206 34.0401 47.1301 33.8325 47.052 33.62C47.05 33.651 47.05 33.637 47.067 33.637H47.065ZM58.778 35.869C59.0156 36.3414 59.1799 36.8472 59.265 37.369C59.7721 39.3931 59.9906 41.4787 59.914 43.564C59.9064 43.9528 59.8794 44.3409 59.833 44.727L59.793 44.862L59.093 44.632C57.646 44.172 55.293 43.482 53.277 42.914C52.127 42.603 51.194 42.314 51.194 42.292C51.9491 41.4523 52.7483 40.6532 53.588 39.898C55.2462 38.4654 56.9782 37.1205 58.777 35.869H58.778ZM59.711 36.004C59.752 35.964 65.311 36.924 67.84 37.411C69.72 37.776 72.452 38.344 72.615 38.411C72.696 38.438 72.415 38.6 71.506 39.006C68.4203 40.354 65.4564 41.9649 62.647 43.821C61.957 44.281 61.375 44.66 61.362 44.66C61.336 44.3721 61.327 44.083 61.335 43.794C61.3448 41.2683 60.848 38.7663 59.874 36.436C59.8035 36.2986 59.7488 36.1537 59.711 36.004ZM74.089 38.845C74.0422 39.4477 73.9418 40.0451 73.789 40.63C72.9865 43.3691 71.8415 45.9958 70.381 48.448C70.2104 48.7659 70.0207 49.0731 69.813 49.368C69.5316 49.2455 69.2604 49.1007 69.002 48.935C67.2955 47.9508 65.5248 47.0822 63.702 46.335C63.161 46.105 62.688 45.916 62.674 45.889C62.579 45.808 66.935 42.927 69.234 41.547C71.059 40.441 74.034 38.79 74.088 38.845H74.089ZM75.117 39.007C75.239 39.007 77.701 39.683 78.985 40.062C82.1215 40.9948 85.1976 42.1196 88.196 43.43L89.183 43.877L88.493 44.039C83.171 45.2242 77.9538 46.8392 72.893 48.868C72.501 49.03 72.149 49.168 72.122 49.168C72.1916 48.9285 72.2868 48.6972 72.406 48.478C73.7874 45.6477 74.6703 42.6004 75.016 39.47C75.035 39.21 75.076 39.007 75.116 39.007H75.117ZM50.609 44.634C50.649 44.593 52.53 45.04 53.544 45.324C55.086 45.757 58.359 46.852 58.359 46.934C58.359 46.947 57.994 47.259 57.559 47.634C55.787 49.108 54.083 50.664 52.04 52.634C51.431 53.216 50.917 53.689 50.89 53.689C50.863 53.689 50.85 53.608 50.863 53.5C51.1655 50.7852 51.1019 48.0419 50.674 45.344C50.635 44.972 50.594 44.647 50.608 44.634H50.609ZM90.118 44.675C89.6783 45.443 89.1997 46.1879 88.684 46.907C87.873 48.07 86.684 49.612 83.99 52.994C82.57 54.779 80.974 56.794 80.447 57.471C79.92 58.148 79.46 58.715 79.447 58.715C79.308 58.5439 79.1814 58.3631 79.068 58.174C77.5475 55.9016 75.7019 53.8646 73.59 52.128C73.184 51.79 72.738 51.428 72.59 51.316C72.4909 51.2503 72.3999 51.1731 72.319 51.086C72.319 51.046 74.619 50.058 76.363 49.355C79.42 48.111 83.585 46.623 86.71 45.662C88.345 45.148 90.089 44.647 90.117 44.674L90.118 44.675ZM91.159 44.945C91.4322 45.0352 91.6917 45.1627 91.93 45.324C95.2149 47.2054 98.2543 49.486 100.979 52.114C101.696 52.814 103.468 54.657 103.44 54.67C103.44 54.67 102.818 54.724 102.088 54.778C95.3496 55.3782 88.6666 56.4904 82.097 58.105C81.624 58.213 81.204 58.305 81.177 58.305C81.15 58.305 81.677 57.778 82.34 57.142C85.7762 54.0812 88.5673 50.3657 90.55 46.213C90.861 45.55 91.132 44.982 91.159 44.942V44.945ZM61.037 48.029C61.226 48.069 62.985 48.895 64.31 49.557C65.527 50.165 67.353 51.14 67.448 51.221C67.461 51.234 66.812 51.573 66.014 51.965C63.471 53.236 61.293 54.44 59.021 55.82C58.372 56.212 57.831 56.537 57.821 56.537C57.767 56.537 57.78 56.483 58.146 55.82C59.4078 53.4774 60.3323 50.9683 60.892 48.367C60.946 48.167 61 48.029 61.041 48.029H61.037ZM59.279 48.353C59.0914 49.2346 58.8577 50.1058 58.579 50.963C57.9476 52.8615 57.1463 54.6993 56.185 56.454C55.968 56.833 55.644 57.387 55.468 57.698L55.13 58.239L54.373 57.509C53.6356 56.7631 52.7847 56.1387 51.852 55.659C51.6231 55.5555 51.4056 55.4284 51.203 55.28C51.203 55.172 53.516 53.08 55.288 51.56C56.559 50.459 59.237 48.313 59.278 48.353H59.279ZM70.032 52.776L70.695 53.209C72.3137 54.2703 73.8712 55.4221 75.36 56.659C76.131 57.295 77.619 58.634 77.916 58.959L78.078 59.135L76.978 59.446C70.783 61.164 65.995 62.692 60.409 64.746C59.787 64.976 59.259 65.165 59.219 65.165C59.138 65.165 59.07 65.233 60.464 63.948C63.8904 60.8336 66.9408 57.3291 69.553 53.506L70.027 52.776H70.032ZM67.205 53.476C67.232 53.503 65.379 56.113 64.27 57.588C62.945 59.346 60.591 62.295 58.97 64.215C58.294 65.015 57.712 65.676 57.685 65.689C57.658 65.702 57.631 65.5 57.631 65.189C57.615 63.5006 57.2221 61.8371 56.481 60.32C56.17 59.698 56.116 59.549 56.181 59.481C56.438 59.251 60.374 57.006 62.862 55.667C64.539 54.778 67.167 53.452 67.204 53.479L67.205 53.476ZM50.105 57.669C50.3458 57.7709 50.5796 57.8885 50.805 58.021C51.6281 58.4695 52.4069 58.9948 53.131 59.59C52.8981 59.8386 52.6347 60.0566 52.347 60.239C51.062 61.159 49.114 62.633 47.978 63.539C46.787 64.486 46.747 64.513 46.878 64.31C47.5571 63.3139 48.163 62.2698 48.691 61.186C49.1264 60.2675 49.5057 59.3234 49.827 58.359C49.8791 58.1159 49.9703 57.8829 50.097 57.669H50.105ZM54.663 61.24C54.73 61.227 54.812 61.348 55.177 61.889C55.9629 63.0749 56.4799 64.4183 56.692 65.825L56.719 66.096L54.866 66.813C51.552 68.098 48.495 69.369 46.426 70.313C45.845 70.584 44.826 71.07 44.167 71.395C43.508 71.72 42.967 71.99 42.967 71.976C42.967 71.962 43.386 71.651 43.9 71.276C47.6744 68.596 51.0922 65.4463 54.071 61.903C54.355 61.565 54.612 61.254 54.639 61.24H54.663ZM52.563 61.754C51.7804 62.7655 50.9308 63.7233 50.02 64.621C47.5029 67.2098 44.6825 69.4853 41.62 71.398C41.214 71.655 40.849 71.885 40.808 71.912C40.713 71.966 40.835 71.831 42.242 70.302C43.135 69.342 43.811 68.53 44.582 67.529C44.9398 67.0122 45.4004 66.5748 45.935 66.244C47.93 64.814 52.515 61.703 52.567 61.759L52.563 61.754Z" fill="url(#paint2_radial_6177_31386)"/>
</g>
<defs>
<linearGradient id="paint0_linear_6177_31386" x1="-194.251" y1="67.6241" x2="-144.577" y2="102.586" gradientUnits="userSpaceOnUse">
<stop stop-color="#909CA9"/>
<stop offset="1" stop-color="#EDEDEE"/>
</linearGradient>
<linearGradient id="paint1_linear_6177_31386" x1="-193.067" y1="651.777" x2="-150.881" y2="651.777" gradientUnits="userSpaceOnUse">
<stop stop-color="#939FAB"/>
<stop offset="1" stop-color="#DCDEE1"/>
</linearGradient>
<radialGradient id="paint2_radial_6177_31386" cx="0" cy="0" r="1" gradientUnits="userSpaceOnUse" gradientTransform="translate(-716.347 164.526) rotate(-167.832) scale(6.78842 13.2623)">
<stop stop-color="#EE352C"/>
<stop offset="1" stop-color="#A91D22"/>
</radialGradient>
<clipPath id="clip0_6177_31386">
<rect width="128" height="128" fill="white"/>
</clipPath>
</defs>
</svg>
