<svg xmlns="http://www.w3.org/2000/svg" xmlns:xlink="http://www.w3.org/1999/xlink" width="128" height="128" viewBox="0 0 128 128"><defs><linearGradient id="a" x1="-4.183" y1="0.143" x2="-3.174" y2="0.794" gradientUnits="objectBoundingBox"><stop offset="0" stop-color="#909ca9"/><stop offset="1" stop-color="#ededee"/></linearGradient><linearGradient id="b" x1="-8.133" y1="37.388" x2="-6.64" y2="37.388" gradientUnits="objectBoundingBox"><stop offset="0" stop-color="#939fab"/><stop offset="1" stop-color="#dcdee1"/></linearGradient><radialGradient id="c" cx="0.443" cy="0.439" r="0.128" gradientTransform="matrix(-0.691, -0.149, -0.208, 1.978, -19.227, -9.973)" gradientUnits="objectBoundingBox"><stop offset="0" stop-color="#ee352c"/><stop offset="1" stop-color="#a91d22"/></radialGradient></defs><g transform="translate(-1857 -122)"><rect width="128" height="128" transform="translate(1857 122)" fill="none"/><g transform="translate(1738.646 141.097)"><g transform="translate(141.534 -0.001)"><path d="M384.056,463.277l-17.895,5.843-15.568,6.871-4.355,1.15c-1.109,1.055-2.272,2.124-3.53,3.206-1.38,1.19-2.665,2.272-3.652,3.057a27.242,27.242,0,0,0-3.544,3.517,15.946,15.946,0,0,0-2.624,4.437,7.448,7.448,0,0,0,1.055,6.7c1.839,2.705,5.505,5.464,9.779,7.344a62.144,62.144,0,0,0,8.6,2.881,113.9,113.9,0,0,0,18.341,2.611,21.042,21.042,0,0,0,2.367,0,32.247,32.247,0,0,0,1.745-3.314,83.778,83.778,0,0,0,6.343-16.786,79.54,79.54,0,0,0,1.623-11.632c.095-1.312.135-5.708.054-7.2a50.545,50.545,0,0,0-.676-6.343,1.463,1.463,0,0,1-.041-.555,23.334,23.334,0,0,1,2.421-.731l-.446-1.055h0Zm-4.085,2.394a43.8,43.8,0,0,1,.7,6.776,3.625,3.625,0,0,1-.013.92c-.108,0-2.286-1.285-3.841-2.259-1.353-.852-3.922-2.557-4.328-2.881-.136-.095-.122-.108.987-.487C375.359,467.1,379.823,465.671,379.972,465.671Zm-9.116,3a4.49,4.49,0,0,1,1.177.636,83.84,83.84,0,0,0,8.2,4.558c.5.216.554.135-.6.92a58.952,58.952,0,0,1-9.292,4.991c-.663.3-1.217.527-1.231.527a3.512,3.512,0,0,1,.162-.744,39.881,39.881,0,0,0,1.448-9.509c.013-1.353.013-1.353.135-1.393C370.828,468.674,370.842,468.674,370.855,468.674Zm-1.88.717a29.172,29.172,0,0,1-.081,3.936,34.425,34.425,0,0,1-1.244,5.884,9.036,9.036,0,0,1-.311.947,23.794,23.794,0,0,1-2.516-2.448,18.3,18.3,0,0,1-2.489-3.625,11.4,11.4,0,0,1-.757-1.839c.216-.149,7.345-2.908,7.4-2.854Zm-8.846,3.476a.05.05,0,0,1,.041.013,2.526,2.526,0,0,1,.2.487,18.281,18.281,0,0,0,2.245,4.017,22.89,22.89,0,0,0,3.124,3.368c.325.271.622.527.663.568.081.081.108.068-2.1.906-2.556.974-5.343,1.948-8.535,2.976q-1.144.369-2.285.744c-.122.041-.081-.027.27-.581A76.065,76.065,0,0,0,359.1,474.6c.23-.6.46-1.19.5-1.326a.488.488,0,0,1,.3-.352A1.315,1.315,0,0,1,360.129,472.867Zm-2.7,1.123a30.269,30.269,0,0,1-1.326,2.8c-1.312,2.556-2.746,5.072-4.666,8.129-.325.527-.636,1.014-.676,1.069-.068.095-.095.068-.311-.352A12.4,12.4,0,0,1,349.4,482.5a12.627,12.627,0,0,1,.068-4.031c.176-.839.162-.825.568-1.028C351.77,476.56,357.37,473.935,357.424,473.99Zm23.332.947v.568a73.585,73.585,0,0,1-.8,10.171c-.081.527-.149.96-.162.974s-.392-.108-.852-.244a34.9,34.9,0,0,1-6.222-2.664,27.557,27.557,0,0,1-3.165-1.948c.013-.013.582-.311,1.244-.663a79.7,79.7,0,0,0,7.4-4.342c.825-.555,2.069-1.447,2.34-1.691l.216-.162Zm-33.544,4c.054,0,.041.108-.041.6-.054.352-.122,1-.149,1.447a10.008,10.008,0,0,0,1.19,5.437,11.207,11.207,0,0,1,.473,1.028c-.095.081-9.049,2.705-11.862,3.476-.839.23-1.569.433-1.623.446-.095.027-.108.014-.068-.216.311-1.988,1.826-4.585,3.936-6.776a17.5,17.5,0,0,1,4.45-3.409c1.38-.784,3.5-1.961,3.665-2.015C347.185,478.94,347.2,478.94,347.212,478.94Zm21.1,3.774a5.456,5.456,0,0,1,.73.392,40.748,40.748,0,0,0,10.361,4.031l.311.068-.433.243c-1.8,1-7.71,3.463-13.755,5.722-.879.324-1.745.649-1.907.717a.977.977,0,0,1-.311.095c0-.014.244-.487.555-1.068a66.743,66.743,0,0,0,4.261-9.7C368.231,482.957,368.3,482.727,368.312,482.714Zm-2.151.7a3.892,3.892,0,0,1-.23.622,85.66,85.66,0,0,1-4.693,9.455c-.5.893-.92,1.61-.934,1.61s-.419-.244-.906-.541a27.817,27.817,0,0,1-7.074-6.019l-.244-.3,1.231-.338a88.307,88.307,0,0,0,11.876-4.1C365.715,483.593,366.148,483.417,366.162,483.417Zm13.363,4.666h0c.013.311-.676,3.1-1.245,5.113-.473,1.691-.879,3.016-1.623,5.356-.325,1.028-.608,1.88-.622,1.88a.894.894,0,0,1-.176-.04,56.528,56.528,0,0,1-11-3.1c-.947-.379-2.3-.987-2.381-1.055a15.782,15.782,0,0,1,1.813-.852c6.154-2.692,12.538-5.748,14.729-7.06A1.763,1.763,0,0,1,379.525,488.083Zm-30.852,1.055c.027.027-1.691,2.5-4.1,5.87-.839,1.177-1.812,2.556-2.177,3.07s-.92,1.326-1.231,1.813l-.568.879-.609-.514a22.532,22.532,0,0,1-2.516-2.57,11.1,11.1,0,0,1-2.259-4.369c-.149-.649-.149-.974-.014-1.014.2-.054,3.814-.906,7.2-1.691,1.88-.433,4.058-.947,4.842-1.136S348.66,489.138,348.673,489.138Zm1.731.663.433.487a25.4,25.4,0,0,0,6.344,5.194,3.553,3.553,0,0,1,.73.474c-.094.068-8.359,3-12.187,4.328-2.151.757-3.923,1.366-3.936,1.366a2.326,2.326,0,0,1-.271-.176l-.243-.176.392-.568c1.271-1.84,2.868-3.855,6.344-8.048Zm10.794,7.723c.013-.013.608.2,1.339.474a43.294,43.294,0,0,0,5.018,1.555,55.551,55.551,0,0,0,7.588,1.312c.3.027.46.054.406.095-.095.054-2.083.717-3.544,1.177-2.327.73-9.428,2.827-15.217,4.491-1.069.311-1.988.568-2.042.581a1.072,1.072,0,0,1-.582-.149,9.783,9.783,0,0,1,.717-.906,80.291,80.291,0,0,0,5.492-7.385C360.819,498.092,361.2,497.538,361.2,497.524Zm-2.381.068c.013.013-.947,1.555-2.624,4.206-.717,1.123-1.515,2.394-1.8,2.84s-.676,1.109-.906,1.488l-.392.69-.2-.054c-.487-.135-3.909-1.339-4.815-1.7a33.478,33.478,0,0,1-3.152-1.447,13.161,13.161,0,0,1-2.326-1.474c.027-.013,1.88-.514,4.112-1.123,5.924-1.61,9.211-2.543,11.362-3.219A5.428,5.428,0,0,1,358.817,497.592Zm16.84,3.949h.013c.054.135-2.137,6.222-2.935,8.143-.176.433-.243.541-.338.527-.23-.013-3.408-.46-5.343-.744-3.368-.514-9.022-1.5-10.442-1.826l-.325-.068,2.015-.46c4.328-.974,6.411-1.5,8.521-2.151a60.226,60.226,0,0,0,7.967-3.07A6.527,6.527,0,0,1,375.657,501.541Z" transform="translate(-332.512 -421.563)" fill="url(#a)"/><path d="M475.779,82.735a85.983,85.983,0,0,0-8.2,2.949,51.186,51.186,0,0,0-9.428,4.734,7.149,7.149,0,0,0-1.826,1.826,1.263,1.263,0,0,0-.081.46l1.813,1.718,4.315,1.38,10.266,1.84,11.74,2.015.122-1.014c-.04,0-.068-.013-.108-.013l-1.542-.244-.311-.554c-1.6-2.813-3.354-6.3-4.382-8.657a44.744,44.744,0,0,1-1.975-5.451c-.23-.92-.257-.974-.405-.987h0Zm-.217.69h.014c.013.013.067.392.122.838a28.256,28.256,0,0,0,1.312,5.694c.5,1.488.5,1.407-.081,1.231-1.38-.379-7.561-1.447-12.038-2.069-.717-.095-1.326-.189-1.326-.2-.054-.054,3.233-1.772,4.68-2.448C470.1,85.616,475.184,83.493,475.562,83.425Zm-13.039,6.059.528.176A80.625,80.625,0,0,0,477.1,92.338c.446.041.825.081.838.081a6.253,6.253,0,0,1-.852.446c-1.92.96-4.031,2.137-5.491,3.043a5.606,5.606,0,0,1-.879.487c-.054,0-.338-.054-.636-.095l-.541-.081-1.352-1.326c-2.381-2.313-4.247-4.1-4.964-4.775Zm-.541.419,1.907,2.381c1.041,1.312,2.1,2.6,2.327,2.881a4.431,4.431,0,0,1,.406.528c-.054.041-2.759-.487-4.193-.812-1.474-.338-2.083-.5-2.989-.784l-.744-.244v-.189c.013-.906,1.163-2.259,3.111-3.638Zm16.2,3.246c.054,0,.122.122.284.487.46,1.014,1.894,3.747,2.245,4.274.108.176.3.189-1.609-.122-4.585-.744-6.06-.987-6.06-1.014a1.4,1.4,0,0,1,.311-.2,26.4,26.4,0,0,0,4.125-2.854c.311-.257.6-.5.649-.541C478.146,93.15,478.173,93.136,478.186,93.15Z" transform="translate(-442.684 -82.734)" fill="url(#b)"/><path d="M399.953,167.757a1.347,1.347,0,0,0-.013,1.177,5.344,5.344,0,0,0,1.271,1.5s6.019,5.87,6.749,6.709a18.8,18.8,0,0,1,4.91,12.849,20.805,20.805,0,0,1-2.137,9.725c-2.813,6.141-8.751,12.917-17.908,20.438l1.339-.446a43.013,43.013,0,0,1,4.8-2.854,171.158,171.158,0,0,1,22.331-10c12.66-4.761,33.476-10.334,45.325-12.146l1.231-.189-.189-.3a41.7,41.7,0,0,0-2.719-3.828,32.5,32.5,0,0,0-9.6-7.994c-5.3-2.962-12.16-5.275-20.843-6.993-1.637-.325-5.234-.947-8.156-1.393-6.195-.96-10.2-1.623-14.608-2.38-1.582-.271-3.95-.676-5.519-1.014a35.051,35.051,0,0,1-3.584-.96C401.657,169.286,400.25,168.907,399.953,167.757Zm3.49,3.382a3.764,3.764,0,0,1,.514.162c.514.176,1.177.379,1.961.6q.89.245,1.785.473c.812.2,1.488.392,1.5.392.095.095,1.461,4.463,1.921,6.141.176.636.311,1.177.3,1.177a2.733,2.733,0,0,1-.338-.527,28.154,28.154,0,0,0-6.979-7.886,5.771,5.771,0,0,1-.663-.527Zm6.655,1.839a5.314,5.314,0,0,1,.73.122c2.3.514,6.425,1.3,9.062,1.745a3.312,3.312,0,0,1,.8.176,1.366,1.366,0,0,1-.365.23c-.446.23-2.245,1.3-2.84,1.7a25.909,25.909,0,0,0-3.828,3.057c-.392.392-.731.717-.731.717s-.081-.23-.149-.514a43.828,43.828,0,0,0-2.421-6.628,5.8,5.8,0,0,1-.271-.622C410.083,172.992,410.083,172.978,410.1,172.978Zm11.713,2.232a5.2,5.2,0,0,1,.487,1.5,22.143,22.143,0,0,1,.649,6.195,11.661,11.661,0,0,1-.081,1.163l-.04.135-.7-.23c-1.447-.46-3.8-1.15-5.816-1.718-1.15-.311-2.083-.6-2.083-.622a31.97,31.97,0,0,1,2.394-2.394A62.786,62.786,0,0,1,421.81,175.21Zm.933.135c.041-.04,5.6.92,8.129,1.407,1.88.365,4.612.933,4.775,1,.081.027-.2.189-1.109.595a58.7,58.7,0,0,0-8.859,4.815c-.69.46-1.272.839-1.285.839a7.373,7.373,0,0,1-.027-.866,18.891,18.891,0,0,0-1.461-7.358A2.044,2.044,0,0,1,422.744,175.345Zm14.378,2.841a10.173,10.173,0,0,1-.3,1.785,33.908,33.908,0,0,1-3.408,7.818,8.922,8.922,0,0,1-.568.92,5.775,5.775,0,0,1-.811-.433,44.041,44.041,0,0,0-5.3-2.6c-.541-.23-1.014-.419-1.028-.446-.095-.081,4.261-2.962,6.56-4.342C434.092,179.782,437.067,178.131,437.121,178.186Zm1.028.162c.122,0,2.584.676,3.868,1.055a79.8,79.8,0,0,1,9.211,3.368l.987.447-.69.162a100.823,100.823,0,0,0-15.6,4.829c-.392.162-.744.3-.771.3a3.478,3.478,0,0,1,.284-.69,27.39,27.39,0,0,0,2.61-9.008C438.068,178.551,438.109,178.348,438.149,178.348Zm-24.508,5.627c.04-.041,1.921.406,2.935.69,1.542.433,4.815,1.528,4.815,1.61,0,.013-.365.325-.8.7-1.772,1.474-3.476,3.03-5.519,5-.609.582-1.123,1.055-1.15,1.055s-.04-.081-.027-.189a30.5,30.5,0,0,0-.189-8.156C413.668,184.313,413.627,183.988,413.641,183.975Zm39.509.041a25.972,25.972,0,0,1-1.434,2.232c-.811,1.163-2,2.705-4.694,6.087-1.42,1.785-3.016,3.8-3.543,4.477s-.987,1.244-1,1.244a4.664,4.664,0,0,1-.379-.541,27.95,27.95,0,0,0-5.478-6.046c-.406-.338-.852-.7-1-.812a1.509,1.509,0,0,1-.271-.23c0-.04,2.3-1.028,4.044-1.731,3.057-1.244,7.222-2.732,10.347-3.693C451.378,184.489,453.122,183.988,453.15,184.015Zm1.041.27a3.118,3.118,0,0,1,.771.379,45.879,45.879,0,0,1,9.049,6.79c.717.7,2.489,2.543,2.461,2.556,0,0-.622.054-1.352.108a133.324,133.324,0,0,0-19.991,3.327c-.473.108-.893.2-.92.2s.5-.527,1.163-1.163a34.6,34.6,0,0,0,8.21-10.929c.311-.663.582-1.231.609-1.271Zm-30.122,3.084c.189.04,1.948.866,3.273,1.528,1.217.608,3.043,1.583,3.138,1.664.013.013-.636.352-1.434.744-2.543,1.271-4.721,2.475-6.993,3.855-.649.392-1.19.717-1.2.717-.054,0-.041-.054.325-.717a28.243,28.243,0,0,0,2.746-7.453c.054-.2.108-.338.149-.338Zm-1.758.324a25.829,25.829,0,0,1-.7,2.61,33.3,33.3,0,0,1-2.394,5.491c-.217.379-.541.933-.717,1.244l-.338.541-.757-.73A9.935,9.935,0,0,0,414.885,195a3.633,3.633,0,0,1-.649-.379c0-.108,2.313-2.2,4.085-3.72C419.592,189.8,422.27,187.654,422.311,187.694Zm10.753,4.423.663.433A51.422,51.422,0,0,1,438.393,196c.771.636,2.259,1.975,2.556,2.3l.162.176-1.1.311c-6.195,1.718-10.983,3.246-16.569,5.3-.622.23-1.15.419-1.19.419-.081,0-.149.068,1.245-1.217a59.386,59.386,0,0,0,9.089-10.442l.474-.73Zm-2.827.7c.027.027-1.826,2.637-2.935,4.112-1.325,1.758-3.679,4.707-5.3,6.627-.676.8-1.258,1.461-1.285,1.474s-.054-.189-.054-.5a11.336,11.336,0,0,0-1.15-4.869c-.311-.622-.365-.771-.3-.839.257-.23,4.193-2.475,6.681-3.814C427.572,194.119,430.2,192.793,430.237,192.82Zm-17.1,4.193a5.976,5.976,0,0,1,.7.352,14.856,14.856,0,0,1,2.326,1.569,4.035,4.035,0,0,1-.784.649c-1.285.92-3.233,2.394-4.369,3.3-1.191.947-1.231.974-1.1.771a24.926,24.926,0,0,0,1.813-3.124,25.182,25.182,0,0,0,1.136-2.827,2.3,2.3,0,0,1,.27-.69Zm4.558,3.571c.067-.013.149.108.514.649a9.758,9.758,0,0,1,1.515,3.936l.027.271-1.853.717c-3.314,1.285-6.371,2.556-8.44,3.5-.581.271-1.6.757-2.259,1.082s-1.2.595-1.2.581.419-.325.933-.7a54.537,54.537,0,0,0,10.171-9.373c.284-.338.541-.649.568-.663Zm-2.1.514a28.592,28.592,0,0,1-2.543,2.867,44.862,44.862,0,0,1-8.4,6.777c-.406.257-.771.487-.812.514-.095.054.027-.081,1.434-1.61.893-.96,1.569-1.772,2.34-2.773a4.572,4.572,0,0,1,1.353-1.285C410.963,204.155,415.548,201.044,415.6,201.1Z" transform="translate(-386.213 -158.437)" fill="url(#c)"/></g></g></g></svg>