<svg xmlns="http://www.w3.org/2000/svg" width="128" height="128" viewBox="0 0 128 128"><g transform="translate(-81 -122)"><rect width="128" height="128" transform="translate(81 122)" fill="none"/><path d="M129.062,85.294c-4.887-.136-8.679.365-11.857,1.7-.915.368-2.383.368-2.5,1.519.489.483.548,1.274.977,1.944a14.208,14.208,0,0,0,3.178,3.7l3.911,2.795c2.383,1.457,5.072,2.307,7.394,3.765,1.345.851,2.689,1.944,4.034,2.856.685.486,1.1,1.277,1.956,1.579v-.184c-.427-.545-.551-1.334-.977-1.944l-1.836-1.76a28.84,28.84,0,0,0-6.356-6.134c-1.956-1.337-6.233-3.158-7.027-5.4l-.121-.136a26.518,26.518,0,0,0,4.216-.973c2.079-.545,3.972-.425,6.109-.971L133.1,86.8v-.545c-1.1-1.093-1.894-2.551-3.055-3.583A81.444,81.444,0,0,0,119.956,75.2c-1.894-1.214-4.339-2.005-6.356-3.036-.736-.365-1.956-.547-2.383-1.154a24.263,24.263,0,0,1-2.507-4.677L103.7,55.766c-1.1-2.369-1.774-4.737-3.116-6.924-6.3-10.325-13.142-16.581-23.653-22.716-2.26-1.276-4.949-1.824-7.808-2.491l-4.583-.245a24.109,24.109,0,0,1-2.812-2.126c-3.483-2.186-12.468-6.924-15.036-.681-1.651,3.948,2.445,7.834,3.835,9.839a28.675,28.675,0,0,1,3.119,4.555c.411,1.032.548,2.126.977,3.219A72.45,72.45,0,0,0,57.8,46.338a30.69,30.69,0,0,0,2.26,3.767c.489.681,1.345.972,1.527,2.065-.856,1.216-.915,3.036-1.4,4.556-2.2,6.864-1.345,15.366,1.771,20.419.979,1.518,3.287,4.86,6.419,3.583,2.751-1.093,2.137-4.555,2.931-7.592.185-.728.062-1.214.427-1.7v.136l2.507,5.041a34.824,34.824,0,0,0,7.945,8.141c1.466,1.093,2.627,2.977,4.46,3.644v-.184h-.121A6.79,6.79,0,0,0,85.115,87a29.635,29.635,0,0,1-3.178-3.644A78.2,78.2,0,0,1,75.094,72.3c-.979-1.883-1.836-3.948-2.627-5.83-.37-.73-.37-1.824-.979-2.186-.918,1.334-2.26,2.491-2.935,4.13-1.162,2.611-1.282,5.83-1.709,9.171-.247.061-.137,0-.247.136-1.953-.485-2.627-2.491-3.36-4.19a26.125,26.125,0,0,1-.551-16.217c.427-1.276,2.263-5.285,1.53-6.5-.37-1.154-1.589-1.821-2.263-2.733a24.5,24.5,0,0,1-2.2-3.886c-1.466-3.4-2.2-7.167-3.789-10.569a32.415,32.415,0,0,0-3.057-4.676c-1.162-1.64-2.442-2.795-3.36-4.737-.305-.681-.733-1.762-.244-2.491a.956.956,0,0,1,.853-.79c.794-.681,3.057.182,3.852.545a31.389,31.389,0,0,1,6.049,3.036c.856.607,1.774,1.762,2.874,2.066h1.285c1.956.425,4.155.136,5.986.681A39.239,39.239,0,0,1,79,31.452,54,54,0,0,1,98.072,52.225c.733,1.4,1.038,2.672,1.712,4.13,1.285,2.977,2.874,6.013,4.155,8.93a39.962,39.962,0,0,0,4.339,8.141c.918,1.276,4.583,1.943,6.233,2.611a43.489,43.489,0,0,1,4.219,1.7c2.077,1.276,4.155,2.733,6.109,4.13.977.727,4.034,2.246,4.216,3.458ZM66.737,32.514a9.77,9.77,0,0,0-2.5.3v.136h.121a19.619,19.619,0,0,0,1.956,2.491l1.407,2.916.121-.136a3.416,3.416,0,0,0,1.285-3.036,13.506,13.506,0,0,1-.733-1.276c-.367-.607-1.162-.912-1.652-1.4Z" transform="translate(54.145 124.539)" fill="#00678c" fill-rule="evenodd"/></g></svg>