<svg width="128" height="128" viewBox="0 0 128 128" fill="none" xmlns="http://www.w3.org/2000/svg">
<g clip-path="url(#clip0_6177_31319)">
<path fill-rule="evenodd" clip-rule="evenodd" d="M102.207 87.833C97.32 87.697 93.528 88.198 90.35 89.533C89.435 89.901 87.967 89.901 87.85 91.052C88.339 91.535 88.398 92.326 88.827 92.996C89.6652 94.4033 90.7404 95.6551 92.005 96.696L95.916 99.491C98.299 100.948 100.988 101.798 103.31 103.256C104.655 104.107 105.999 105.2 107.344 106.112C108.029 106.598 108.444 107.389 109.3 107.691V107.507C108.873 106.962 108.749 106.173 108.323 105.563L106.487 103.803C104.696 101.444 102.552 99.3752 100.131 97.669C98.175 96.332 93.898 94.511 93.104 92.269L92.983 92.133C94.4125 91.9241 95.8226 91.5987 97.199 91.16C99.278 90.615 101.171 90.735 103.308 90.189L106.245 89.339V88.794C105.145 87.701 104.351 86.243 103.19 85.211C100.024 82.4645 96.6513 79.9664 93.101 77.739C91.207 76.525 88.762 75.734 86.745 74.703C86.009 74.338 84.789 74.156 84.362 73.549C83.3579 72.0864 82.5172 70.518 81.855 68.872L76.845 58.305C75.745 55.936 75.071 53.568 73.729 51.381C67.429 41.056 60.587 34.8 50.076 28.665C47.816 27.389 45.127 26.841 42.268 26.174L37.685 25.929C36.6971 25.2899 35.7572 24.5794 34.873 23.803C31.39 21.617 22.405 16.879 19.837 23.122C18.186 27.07 22.282 30.956 23.672 32.961C24.8558 34.3755 25.9003 35.9009 26.791 37.516C27.202 38.548 27.339 39.642 27.768 40.735C28.6622 43.5105 29.7232 46.2294 30.945 48.877C31.6074 50.1851 32.3627 51.444 33.205 52.644C33.694 53.325 34.55 53.616 34.732 54.709C33.876 55.925 33.817 57.745 33.332 59.265C31.132 66.129 31.987 74.631 35.103 79.684C36.082 81.202 38.39 84.544 41.522 83.267C44.273 82.174 43.659 78.712 44.453 75.675C44.638 74.947 44.515 74.461 44.88 73.975V74.111L47.387 79.152C49.5713 82.2828 52.2554 85.0332 55.332 87.293C56.798 88.386 57.959 90.27 59.792 90.937V90.753H59.671C59.2587 90.2855 58.7839 89.877 58.26 89.539C57.1032 88.413 56.0403 87.1942 55.082 85.895C52.4981 82.4061 50.2092 78.7079 48.239 74.839C47.26 72.956 46.403 70.891 45.612 69.009C45.242 68.279 45.242 67.185 44.633 66.823C43.715 68.157 42.373 69.314 41.698 70.953C40.536 73.564 40.416 76.783 39.989 80.124C39.742 80.185 39.852 80.124 39.742 80.26C37.789 79.775 37.115 77.769 36.382 76.07C34.4817 70.8599 34.2888 65.1802 35.831 59.853C36.258 58.577 38.094 54.568 37.361 53.353C36.991 52.199 35.772 51.532 35.098 50.62C34.2479 49.3944 33.5116 48.0936 32.898 46.734C31.432 43.334 30.698 39.567 29.109 36.165C28.2265 34.5213 27.2037 32.9568 26.052 31.489C24.89 29.849 23.61 28.694 22.692 26.752C22.387 26.071 21.959 24.99 22.448 24.261C22.4836 24.0539 22.5865 23.8643 22.7406 23.7215C22.8948 23.5787 23.0918 23.4906 23.301 23.471C24.095 22.79 26.358 23.653 27.153 24.016C29.2729 24.8071 31.301 25.825 33.202 27.052C34.058 27.659 34.976 28.814 36.076 29.118H37.361C39.317 29.543 41.516 29.254 43.347 29.799C46.4425 30.8253 49.398 32.2335 52.145 33.991C60.2301 39.1038 66.8119 46.2726 71.217 54.764C71.95 56.164 72.255 57.436 72.929 58.894C74.214 61.871 75.803 64.907 77.084 67.824C78.2113 70.6961 79.6673 73.428 81.423 75.965C82.341 77.241 86.006 77.908 87.656 78.576C89.0911 79.0687 90.4993 79.6362 91.875 80.276C93.952 81.552 96.03 83.009 97.984 84.406C98.961 85.133 102.018 86.652 102.2 87.864L102.207 87.833ZM39.882 35.053C39.0393 35.0448 38.1989 35.1456 37.382 35.353V35.489H37.503C38.0868 36.3707 38.741 37.2038 39.459 37.98L40.866 40.896L40.987 40.76C41.44 40.4035 41.7953 39.9382 42.02 39.4073C42.2447 38.8765 42.3314 38.2974 42.272 37.724C42.0047 37.3123 41.76 36.8864 41.539 36.448C41.172 35.841 40.377 35.536 39.887 35.048L39.882 35.053Z" fill="#00678C"/>
</g>
<defs>
<clipPath id="clip0_6177_31319">
<rect width="128" height="128" fill="white"/>
</clipPath>
</defs>
</svg>
