<svg width="128" height="128" viewBox="0 0 128 128" fill="none" xmlns="http://www.w3.org/2000/svg">
<path d="M117.131 57.726V71.8479L84.0394 91.2158L75.6459 96.126H75.625L63.6014 103.155L51.5568 96.105L43.1423 91.1948L10.1141 71.8479V57.7679L22.4735 65.0073V65.0912L55.103 84.1653L63.5384 89.0964L63.6014 89.1384L63.6643 89.0964L72.0577 84.1863L104.729 65.0912V64.9653L117.131 57.726Z" fill="#00BD6C"/>
<path d="M117.131 80.4512V94.5522L84.0394 113.941L75.6459 118.851H75.625L63.6014 125.881L51.5568 118.809L43.1423 113.899L10.1141 94.5522V80.4722L22.4735 87.7115V87.8164L55.103 106.87L63.5384 111.822L63.6014 111.843L63.6643 111.822L72.0577 106.912L104.729 87.8164V87.6905L117.131 80.4512Z" fill="#1C1F2A"/>
<path d="M104.729 20.3121V42.3869L72.0577 61.482L63.6433 66.3921H63.5804H63.5174L55.082 61.44L22.4525 42.3869V20.3121H10.0931V49.1226L43.1213 68.4695L51.5358 73.3797L63.5804 80.4302L75.604 73.4007L84.0184 68.4905L117.11 49.1226V20.3121H104.708H104.729Z" fill="#1C1F2A"/>
<path d="M65.5738 46.3108V23.2079C67.0846 20.9626 71.0715 19.221 74.0722 19.221C75.1424 19.221 75.9188 19.3049 76.5692 19.4308V10.4498C72.2886 10.4498 68.0709 12.9888 65.5738 16.0315V11.3311H56.5089V46.3108H65.5738Z" fill="#00BB6C"/>
</svg>
