<svg width="128" height="128" viewBox="0 0 128 128" fill="none" xmlns="http://www.w3.org/2000/svg">
<path d="M20.6828 89.0015C21.1349 89.7883 21.7907 90.4389 22.5812 90.8848L61.4185 113.3L61.4197 113.298C62.2022 113.758 63.0932 114 64.0006 114C64.9081 114 65.7991 113.758 66.5816 113.298L105.42 90.8835C106.209 90.4361 106.864 89.7861 107.318 89.0008C107.771 88.2155 108.007 87.3234 108 86.4166V41.587L107.999 41.5858C108.005 40.6788 107.77 39.7864 107.316 39.0008C106.862 38.2153 106.207 37.5652 105.418 37.1177L66.5792 14.7029C65.7974 14.2435 64.907 14 64 14C63.0931 14 62.2027 14.2422 61.4209 14.7017L22.5836 37.1177C21.794 37.5648 21.1382 38.2149 20.6842 39.0004C20.2302 39.786 19.9945 40.6786 20.0014 41.5858L20.0002 41.587V86.4166C19.9915 87.3237 20.228 88.2165 20.6828 89.0015Z" fill="#009639"/>
<path d="M51.8005 81.0204C51.8005 82.3411 51.2842 83.6077 50.3653 84.5415C49.4463 85.4754 48.1999 86 46.9003 86C45.6006 86 44.3542 85.4754 43.4353 84.5415C42.5163 83.6077 42 82.3411 42 81.0204L42.0012 81.0216L42.006 46.8389C42.006 44.1908 44.3086 42.0007 47.5699 42.0007C48.8332 41.9843 50.0849 42.2472 51.2383 42.7713C52.3917 43.2953 53.4191 44.068 54.2495 45.0357L55.7302 46.8365L76.2019 71.7321V46.978H76.1995C76.2017 45.6587 76.7189 44.3943 77.6376 43.4622C78.5564 42.5302 79.8015 42.0067 81.0998 42.0067C82.398 42.0067 83.6431 42.5302 84.5619 43.4622C85.4806 44.3943 85.9978 45.6587 86 46.978L85.9941 81.1583C85.9941 83.8064 83.6902 85.9964 80.4301 85.9964C79.1668 86.0133 77.9149 85.7505 76.7615 85.2264C75.608 84.7024 74.5806 83.9295 73.7506 82.9615L51.7981 56.2651V81.0217L51.8005 81.0204Z" fill="white"/>
<path d="M103.09 104.393H103.767V102.884H104.301C104.559 102.862 104.817 102.905 105.053 103.01C105.185 103.112 105.287 103.246 105.35 103.401C105.412 103.555 105.433 103.723 105.41 103.888V104.197L105.425 104.312C105.43 104.328 105.434 104.344 105.435 104.361C105.439 104.379 105.44 104.385 105.451 104.393H106.077L106.055 104.35C106.03 104.288 106.019 104.221 106.024 104.154C106.015 104.046 106.015 103.953 106.015 103.868V103.582C106.006 103.366 105.933 103.158 105.806 102.984C105.726 102.879 105.625 102.792 105.51 102.727C105.396 102.663 105.269 102.622 105.138 102.608C105.333 102.581 105.522 102.52 105.695 102.427C105.819 102.345 105.919 102.232 105.985 102.098C106.05 101.965 106.079 101.816 106.068 101.667C106.089 101.463 106.043 101.257 105.936 101.081C105.829 100.905 105.668 100.769 105.477 100.693C105.138 100.584 104.783 100.538 104.428 100.556H103.09L103.09 104.393ZM105.014 102.324C104.806 102.393 104.588 102.422 104.37 102.41H103.767V101.013H104.343C104.622 100.995 104.901 101.047 105.156 101.163C105.246 101.223 105.318 101.307 105.363 101.406C105.408 101.505 105.424 101.615 105.41 101.723C105.419 101.853 105.386 101.982 105.314 102.091C105.242 102.2 105.137 102.282 105.014 102.324ZM106.978 100.018C106.654 99.6882 106.267 99.428 105.84 99.2531C105.413 99.0783 104.955 98.9923 104.494 99.0005C103.567 99.0005 102.679 99.3693 102.023 100.026C101.368 100.682 101 101.572 101 102.5C101 103.428 101.368 104.319 102.023 104.975C102.679 105.631 103.567 106 104.494 106C105.186 106.001 105.863 105.797 106.44 105.412C107.016 105.028 107.466 104.481 107.732 103.84C107.998 103.2 108.068 102.495 107.934 101.814C107.799 101.134 107.467 100.509 106.978 100.018ZM106.623 100.365C106.908 100.64 107.133 100.971 107.284 101.337C107.435 101.704 107.508 102.098 107.5 102.494C107.503 103.091 107.33 103.676 107 104.174C106.671 104.672 106.201 105.06 105.651 105.29C105.1 105.519 104.494 105.579 103.909 105.463C103.325 105.346 102.788 105.057 102.368 104.633C102.087 104.353 101.865 104.02 101.715 103.652C101.565 103.285 101.49 102.891 101.495 102.494C101.494 101.695 101.809 100.929 102.371 100.362C102.933 99.7954 103.696 99.4752 104.494 99.4715C104.891 99.4644 105.286 99.5402 105.652 99.694C106.019 99.8479 106.349 100.076 106.623 100.365Z" fill="#999999"/>
</svg>
