<svg width="128" height="128" viewBox="0 0 128 128" fill="none" xmlns="http://www.w3.org/2000/svg">
<g clip-path="url(#clip0_6177_31370)">
<path d="M20.603 56.5701V59.3701H20.691C21.2583 58.271 22.1401 57.3658 23.224 56.7701C24.3229 56.2063 25.544 55.9229 26.7789 55.9451C27.6 55.8912 28.4234 56.0053 29.1989 56.2804C29.9743 56.5555 30.6854 56.9858 31.2889 57.5451C32.3409 58.6117 32.8666 60.3451 32.866 62.7451V80.4661H26.729V63.9811C26.8189 63.0689 26.5991 62.1531 26.105 61.3811C25.8468 61.1182 25.5334 60.9161 25.1875 60.7893C24.8416 60.6626 24.4718 60.6143 24.105 60.6481C21.9423 60.6481 20.861 61.9664 20.861 64.6031V80.4641H14.731V56.5581L20.603 56.5701ZM36.989 48.3921H43.1229V53.6361H36.989V48.3921ZM36.989 56.5701H43.1229V80.4701H36.989V56.5701Z" fill="#728E9B"/>
<path d="M16.282 48.964L17.376 53.138H16.499L16.306 52.256H15.192L15 53.138H14.125L15.219 48.964H16.282ZM16.173 51.564L15.7729 49.687H15.762L15.3619 51.564H16.173ZM19.345 48.964C19.5312 48.9581 19.7163 48.995 19.886 49.072C20.0245 49.1379 20.1457 49.2351 20.24 49.356C20.3305 49.4749 20.3958 49.611 20.432 49.756C20.4708 49.9059 20.4902 50.0602 20.49 50.215C20.4931 50.4067 20.4592 50.5972 20.39 50.776C20.3325 50.9261 20.2403 51.0604 20.121 51.168C19.9996 51.2734 19.8571 51.3514 19.703 51.397C19.5265 51.4491 19.343 51.4744 19.1589 51.472H18.708V53.139H17.866V48.963L19.345 48.964ZM19.088 50.852C19.1624 50.8551 19.2367 50.8432 19.3064 50.8171C19.3761 50.791 19.4399 50.7512 19.494 50.7C19.5504 50.6355 19.5933 50.5603 19.6201 50.4788C19.6469 50.3974 19.6571 50.3114 19.65 50.226C19.6615 50.0556 19.6138 49.8864 19.515 49.747C19.4558 49.6899 19.3852 49.6458 19.3079 49.6175C19.2305 49.5893 19.1481 49.5775 19.0659 49.583H18.7159V50.852H19.088ZM22.575 48.964L23.6689 53.138H22.791L22.599 52.256H21.485L21.292 53.138H20.417L21.511 48.964H22.575ZM22.4659 51.564L22.0659 49.687H22.0549L21.655 51.564H22.4659ZM25.7469 49.707C25.7092 49.637 25.6515 49.5798 25.5812 49.5428C25.5108 49.5057 25.431 49.4905 25.3519 49.499C25.2576 49.4951 25.1649 49.5253 25.0909 49.584C25.0125 49.6583 24.9566 49.7533 24.9299 49.858C24.8845 50.0212 24.8571 50.1888 24.848 50.358C24.832 50.562 24.8246 50.8123 24.8259 51.109C24.8226 51.3647 24.8337 51.6205 24.859 51.875C24.8715 52.0299 24.9051 52.1823 24.959 52.328C24.9895 52.4175 25.0495 52.494 25.129 52.545C25.202 52.5834 25.2836 52.6023 25.366 52.6C25.4371 52.6005 25.5076 52.5876 25.574 52.562C25.6454 52.5315 25.7043 52.4775 25.741 52.409C25.7966 52.309 25.8346 52.2 25.853 52.087C25.8835 51.9063 25.8976 51.7232 25.895 51.54H26.7369C26.7383 51.7554 26.7209 51.9706 26.6849 52.183C26.6546 52.3719 26.5866 52.5529 26.485 52.715C26.3876 52.8691 26.249 52.9927 26.085 53.072C25.8728 53.1661 25.6419 53.2099 25.41 53.2C25.15 53.212 24.8911 53.1598 24.656 53.048C24.4734 52.947 24.324 52.7952 24.226 52.611C24.1195 52.397 24.0541 52.165 24.033 51.927C23.9742 51.3448 23.9742 50.7582 24.033 50.176C24.055 49.9373 24.1201 49.7046 24.225 49.489C24.3189 49.3015 24.4693 49.1483 24.655 49.051C24.8921 48.9318 25.156 48.8763 25.421 48.89C25.6666 48.8786 25.911 48.9291 26.132 49.037C26.2931 49.1229 26.4276 49.2512 26.521 49.408C26.6063 49.5577 26.6611 49.7229 26.682 49.894C26.704 50.0557 26.715 50.2188 26.715 50.382H25.8729C25.8867 50.1557 25.8499 49.9292 25.765 49.719L25.7469 49.707ZM28.256 48.963V50.563H29.238V48.963H30.08V53.137H29.238V51.282H28.256V53.137H27.4139V48.963H28.256ZM33.192 49.652H31.7009V50.634H33.101V51.323H31.7009V52.445H33.25V53.134H30.859V48.962H33.192V49.652ZM46.1 60.744V56.565H49.2109V53.854C49.1863 52.9304 49.3371 52.0105 49.655 51.143C49.9165 50.4507 50.353 49.8381 50.922 49.365C51.5155 48.8988 52.2062 48.5721 52.943 48.409C53.8173 48.2086 54.7121 48.1116 55.609 48.12C56.7043 48.12 57.8003 48.1643 58.897 48.253V52.607C58.6912 52.572 58.4826 52.5565 58.2739 52.561H57.6959C57.0566 52.5081 56.4174 52.6639 55.874 53.005C55.6813 53.194 55.5332 53.4238 55.4408 53.6775C55.3484 53.9312 55.3139 54.2023 55.34 54.471V56.558H58.895V60.737H55.34V80.47H49.208V60.745L46.1 60.744ZM62.5449 48.391H68.6769V53.635H62.5449V48.391ZM62.5449 56.568H68.6769V80.477H62.5449V56.568Z" fill="#B9C6CD"/>
<path d="M96.5729 86.2371C94.4814 86.2371 92.4104 85.8251 90.4781 85.0247C88.5459 84.2242 86.79 83.0511 85.3112 81.5721C83.8323 80.0931 82.6593 78.3373 81.859 76.405C81.0587 74.4726 80.6467 72.4016 80.6469 70.3101C80.6469 62.7401 86.5791 55.477 90.6381 50.183C92.8314 47.3361 94.7629 44.2967 96.4091 41.1021C96.4242 41.0715 96.4475 41.0458 96.4764 41.0278C96.5054 41.0098 96.5388 41.0002 96.5729 41.0002C96.607 41.0002 96.6406 41.0098 96.6696 41.0278C96.6985 41.0458 96.7218 41.0715 96.7369 41.1021C98.3833 44.2972 100.315 47.3372 102.508 50.1851C106.566 55.4851 112.5 62.738 112.5 70.312H102.78C102.681 70.3123 102.586 70.3518 102.516 70.4219C102.446 70.492 102.406 70.587 102.406 70.6861V76.149H96.9459C96.8468 76.1493 96.7518 76.1888 96.6818 76.2589C96.6117 76.329 96.5722 76.4239 96.5719 76.523V86.2401L96.5729 86.2371ZM102.813 82.3711V77.1711H97.986C97.9371 77.1699 97.8885 77.1789 97.8434 77.1977C97.7982 77.2165 97.7576 77.2446 97.724 77.2801C97.655 77.3503 97.6157 77.4446 97.6149 77.5431V82.369L102.813 82.3711ZM97.5948 87.5521C99.3727 87.5192 101.132 87.181 102.795 86.5521V83.9321H97.9711C97.9222 83.9309 97.8736 83.9399 97.8285 83.9587C97.7834 83.9775 97.7425 84.0055 97.7089 84.041C97.6395 84.1111 97.6001 84.2054 97.599 84.304L97.5948 87.5521ZM108.632 76.5351V71.3351H103.806C103.707 71.3353 103.612 71.3748 103.542 71.4449C103.472 71.515 103.432 71.6099 103.432 71.709V76.5351H108.632ZM109.256 83.0001L109.261 82.9951C109.361 82.8932 109.44 82.7726 109.494 82.6401C109.547 82.5076 109.574 82.3659 109.573 82.2231V78.1131H104.373V83.313H108.486C108.629 83.3144 108.771 83.2874 108.904 83.2335C109.037 83.1796 109.157 83.0999 109.259 82.9991L109.256 83.0001ZM104.724 87.6121C106.115 87.0161 107.411 86.2193 108.57 85.247H104.724V87.6121ZM112.824 76.537C113.451 74.8728 113.795 73.1151 113.841 71.3371H110.224V76.537H112.824ZM111.512 82.313C112.484 81.1537 113.28 79.8579 113.875 78.467H111.512V82.313Z" fill="#728E9B"/>
<path d="M93.0719 48.709L92.193 49.94L89.3158 53.74C89.7024 53.7927 90.0808 53.851 90.4508 53.915L92.8399 49.873L93.4789 48.722C93.6469 48.422 93.256 48.451 93.079 48.708L93.0719 48.709ZM89.2718 55.924L89.703 55.18L88.392 54.948C87.0279 56.7719 85.7855 58.6837 84.673 60.671C82.673 64.303 81.2818 68.361 81.9198 72.547C82.463 76.0285 84.2225 79.2049 86.8858 81.512C87.4537 81.9978 88.0553 82.4429 88.6859 82.844C88.726 82.8699 88.7744 82.8798 88.8214 82.8718C88.8684 82.8639 88.9107 82.8386 88.94 82.801C88.9694 82.7634 88.9836 82.7161 88.9798 82.6686C88.9761 82.621 88.9546 82.5766 88.9198 82.544C86.8581 80.5534 85.3702 78.0447 84.6119 75.281C83.4219 70.881 84.4118 66.381 86.1058 62.256C87.0239 60.0798 88.0783 57.9636 89.2628 55.92L89.2718 55.924Z" fill="#B9C6CD"/>
</g>
<defs>
<clipPath id="clip0_6177_31370">
<rect width="128" height="128" fill="white"/>
</clipPath>
</defs>
</svg>
