<svg xmlns="http://www.w3.org/2000/svg" width="128" height="128" viewBox="0 0 128 128"><g transform="translate(-1413 -122)"><rect width="128" height="128" transform="translate(1413 122)" fill="none"/><g transform="translate(-572.223 -176.419)"><path d="M2005.774,354.355v2.8h.088a6.224,6.224,0,0,1,2.533-2.6,7.492,7.492,0,0,1,3.555-.825,6.052,6.052,0,0,1,4.51,1.6q1.578,1.6,1.577,5.2v17.721H2011.9V361.766a4.081,4.081,0,0,0-.624-2.6,2.484,2.484,0,0,0-2-.733q-3.244,0-3.244,3.955v15.861h-6.13V354.343Zm16.386-8.178h6.134v5.244h-6.134Zm0,8.178h6.134v23.9h-6.134Z" transform="translate(0.052 0.634)" fill="#728e9b"/><path d="M2001.505,346.772l1.094,4.174h-.877l-.193-.882h-1.114l-.192.882h-.875l1.094-4.174Zm-.109,2.6-.4-1.877h-.011l-.4,1.877Zm3.172-2.6a1.216,1.216,0,0,1,.541.108.986.986,0,0,1,.354.284,1.1,1.1,0,0,1,.192.4,1.823,1.823,0,0,1,.058.459,1.487,1.487,0,0,1-.1.561,1.018,1.018,0,0,1-.269.392,1.123,1.123,0,0,1-.418.229,1.837,1.837,0,0,1-.544.075h-.451v1.667h-.842v-4.176Zm-.257,1.888a.557.557,0,0,0,.406-.152.64.64,0,0,0,.156-.474.742.742,0,0,0-.135-.479.59.59,0,0,0-.449-.164h-.35v1.269Zm3.487-1.888,1.094,4.174h-.878l-.192-.882h-1.114l-.193.882h-.875l1.094-4.174Zm-.109,2.6-.4-1.877h-.011l-.4,1.877Zm3.281-1.857a.4.4,0,0,0-.395-.208.394.394,0,0,0-.261.085.572.572,0,0,0-.161.274,2.329,2.329,0,0,0-.082.5q-.024.306-.022.751a6.844,6.844,0,0,0,.033.766,1.7,1.7,0,0,0,.1.453.418.418,0,0,0,.17.217.48.48,0,0,0,.237.055.568.568,0,0,0,.208-.038.342.342,0,0,0,.167-.153.991.991,0,0,0,.112-.322,3.035,3.035,0,0,0,.042-.547h.842a3.71,3.71,0,0,1-.052.643,1.428,1.428,0,0,1-.2.532.975.975,0,0,1-.4.357,1.507,1.507,0,0,1-.675.128,1.586,1.586,0,0,1-.754-.152,1.079,1.079,0,0,1-.43-.437,1.917,1.917,0,0,1-.193-.684,8.722,8.722,0,0,1,0-1.751,1.989,1.989,0,0,1,.192-.687,1,1,0,0,1,.43-.438,1.529,1.529,0,0,1,.766-.161,1.465,1.465,0,0,1,.711.147,1,1,0,0,1,.389.371,1.3,1.3,0,0,1,.161.486,3.622,3.622,0,0,1,.033.488h-.842a1.524,1.524,0,0,0-.108-.663Zm2.509-.744v1.6h.982v-1.6h.842v4.174h-.842v-1.855h-.982v1.855h-.842v-4.174Zm4.936.689h-1.491v.982h1.4v.689h-1.4v1.122h1.549v.689h-2.391v-4.172h2.333Zm12.908,11.092v-4.179h3.111v-2.711a7.312,7.312,0,0,1,.444-2.711,4.278,4.278,0,0,1,1.267-1.778,5.032,5.032,0,0,1,2.021-.956,11.446,11.446,0,0,1,2.666-.289q1.643,0,3.288.133v4.354a3.292,3.292,0,0,0-.623-.046h-.578a2.967,2.967,0,0,0-1.822.444,1.809,1.809,0,0,0-.534,1.466v2.087h3.555v4.179h-3.555v19.733h-6.132V358.553Zm16.445-12.353h6.132v5.244h-6.132Zm0,8.177h6.132v23.909h-6.132Z" transform="translate(0 0.611)" fill="#b9c6cd"/><path d="M2076.087,384.656a15.926,15.926,0,0,1-15.926-15.927c0-7.57,5.932-14.833,9.991-20.127a59.641,59.641,0,0,0,5.771-9.081.183.183,0,0,1,.328,0,59.715,59.715,0,0,0,5.771,9.083c4.058,5.3,9.992,12.553,9.992,20.127h-9.72a.375.375,0,0,0-.374.374v5.463h-5.46a.375.375,0,0,0-.374.374v9.717Zm6.24-3.866v-5.2H2077.5a.349.349,0,0,0-.262.109.38.38,0,0,0-.109.263v4.826Zm-5.218,5.181a15.512,15.512,0,0,0,5.2-1v-2.62h-4.824a.349.349,0,0,0-.262.109.38.38,0,0,0-.11.263Zm11.037-11.017v-5.2h-4.826a.375.375,0,0,0-.374.374v4.826h5.2Zm.624,6.465.005-.005a1.087,1.087,0,0,0,.312-.772v-4.11h-5.2v5.2H2088a1.083,1.083,0,0,0,.773-.314Zm-4.532,4.612a15.466,15.466,0,0,0,3.846-2.365h-3.846Zm8.1-11.075a15.908,15.908,0,0,0,1.017-5.2h-3.617v5.2Zm-1.312,5.776a15.441,15.441,0,0,0,2.363-3.846h-2.363Z" transform="translate(5.709)" fill="#728e9b"/><path d="M2072.49,346.484l-.879,1.231-2.877,3.8q.58.079,1.135.175l2.389-4.042.639-1.151c.168-.3-.223-.271-.4-.014Zm-3.8,7.215.431-.744-1.311-.232a51.826,51.826,0,0,0-3.719,5.723c-2,3.632-3.391,7.69-2.753,11.876a14.9,14.9,0,0,0,4.966,8.965,15.875,15.875,0,0,0,1.8,1.332.191.191,0,0,0,.234-.3,15.97,15.97,0,0,1-4.308-7.263c-1.19-4.4-.2-8.9,1.494-13.025a56.186,56.186,0,0,1,3.157-6.336Z" transform="translate(5.805 0.644)" fill="#b9c6cd"/></g></g></svg>