<svg xmlns="http://www.w3.org/2000/svg" width="128" height="128" viewBox="0 0 128 128"><g transform="translate(-2005 -122)"><rect width="128" height="128" transform="translate(2005 122)" fill="none"/><g transform="translate(2011.11 132.156)"><path d="M46.131,27.166a29.962,29.962,0,0,0-9.393-9.339,44.126,44.126,0,0,1,2.727,6.622A45.62,45.62,0,0,1,46.131,27.166Z" transform="translate(34.526 11.345)" fill="#878fc6"/><path d="M30.663,15.855V24.25a63.709,63.709,0,0,1,10.722,1.222A24.905,24.905,0,0,0,35.557,16.6,30.092,30.092,0,0,0,30.663,15.855Z" transform="translate(26.77 8.828)" fill="#878fc6"/><path d="M46.128,35.836a44.76,44.76,0,0,1-6.663,2.712,44.266,44.266,0,0,1-2.727,6.627A29.934,29.934,0,0,0,46.128,35.836Z" transform="translate(34.526 34.338)" fill="#878fc6"/><path d="M47.777,33.617a13.491,13.491,0,0,1-1.2-3.819h-6.76A63.414,63.414,0,0,1,38.6,40.456a25.031,25.031,0,0,0,8.921-5.8C47.6,34.305,47.708,33.969,47.777,33.617Z" transform="translate(36.902 26.63)" fill="#878fc6"/><path d="M47.522,29.1A25,25,0,0,0,38.6,23.283a63.532,63.532,0,0,1,1.219,10.661h6.76a13.26,13.26,0,0,1,1.2-3.814C47.709,29.779,47.6,29.439,47.522,29.1Z" transform="translate(36.901 18.311)" fill="#878fc6"/><path d="M44.975,29.8H30.664V44.03a57.47,57.47,0,0,0,12.549-1.755A56.654,56.654,0,0,0,44.975,29.8Z" transform="translate(26.771 26.63)" fill="#878fc6"/><path d="M30.664,35.95H44.975a56.587,56.587,0,0,0-1.764-12.481,57.475,57.475,0,0,0-12.549-1.755V35.95Z" transform="translate(26.769 16.307)" fill="#878fc6"/><path d="M30.663,47.3a29.821,29.821,0,0,0,4.9-.747,24.931,24.931,0,0,0,5.828-8.871A64.064,64.064,0,0,1,30.664,38.9v8.4Z" transform="translate(26.77 36.7)" fill="#878fc6"/><path d="M26.318,40.456A62.92,62.92,0,0,1,25.094,29.8h-8.45a29.431,29.431,0,0,0,.745,4.853A24.958,24.958,0,0,0,26.318,40.456Z" transform="translate(8.872 26.63)" fill="#878fc6"/><path d="M34.833,15.855a29.928,29.928,0,0,0-4.893.746,24.894,24.894,0,0,0-5.825,8.866A64.176,64.176,0,0,1,34.833,24.25Z" transform="translate(18.412 8.828)" fill="#878fc6"/><path d="M36.847,21.714A57.426,57.426,0,0,0,24.3,23.468,56.4,56.4,0,0,0,22.539,35.95H36.847Z" transform="translate(16.398 16.307)" fill="#878fc6"/><path d="M28.021,17.826a29.947,29.947,0,0,0-9.4,9.338,45.085,45.085,0,0,1,6.668-2.712A44.615,44.615,0,0,1,28.021,17.826Z" transform="translate(11.4 11.344)" fill="#878fc6"/><path d="M34.833,47.3V38.9a63.97,63.97,0,0,1-10.717-1.217,24.8,24.8,0,0,0,5.825,8.871A30.13,30.13,0,0,0,34.833,47.3Z" transform="translate(18.412 36.7)" fill="#878fc6"/><path d="M16.644,33.945H25.1a62.829,62.829,0,0,1,1.224-10.661A24.981,24.981,0,0,0,17.389,29.1,29.62,29.62,0,0,0,16.644,33.945Z" transform="translate(8.871 18.312)" fill="#878fc6"/><path d="M28.019,45.176a44.6,44.6,0,0,1-2.727-6.626,45.451,45.451,0,0,1-6.665-2.712A29.949,29.949,0,0,0,28.019,45.176Z" transform="translate(11.403 34.341)" fill="#878fc6"/><path d="M36.847,29.8H22.539A56.557,56.557,0,0,0,24.3,42.275,57.412,57.412,0,0,0,36.847,44.03Z" transform="translate(16.398 26.63)" fill="#878fc6"/><path d="M26.468,11.735a13.4,13.4,0,0,1,1.745,5.622A37.864,37.864,0,0,1,71.236,42.082a13.636,13.636,0,0,1,5.789-1.32,13.475,13.475,0,0,1,2.032.2,45.6,45.6,0,0,0-53.768-30.86A13.827,13.827,0,0,1,26.468,11.735Z" transform="translate(19.909)" fill="#878fc6"/><path d="M22.728,75.21a13.494,13.494,0,0,1,4.052-4.322,37.37,37.37,0,0,1-9.326-24.6c0-.035-.01-.071-.01-.109s.008-.058.008-.088a37.385,37.385,0,0,1,9.3-24.6,13.547,13.547,0,0,1-4.026-4.34,13.664,13.664,0,0,1-.819-1.808,45.039,45.039,0,0,0,.006,61.677A13.345,13.345,0,0,1,22.728,75.21Z" transform="translate(0 8.169)" fill="#878fc6"/><path d="M77.018,35.592a13.6,13.6,0,0,1-5.793-1.325,37.851,37.851,0,0,1-35.8,25.426,38.458,38.458,0,0,1-7.229-.7,13.494,13.494,0,0,1-1.729,5.637,13.36,13.36,0,0,1-1.174,1.62A45.595,45.595,0,0,0,79.054,35.39,14.055,14.055,0,0,1,77.018,35.592Z" transform="translate(19.915 32.336)" fill="#878fc6"/><path d="M62.3,33.99a9.159,9.159,0,1,0-9.153,9.1A9.126,9.126,0,0,0,62.3,33.99Z" transform="translate(43.781 20.355)" fill="#525678"/><path d="M21.17,10.376a9.069,9.069,0,0,0-3.353,12.435,9.189,9.189,0,0,0,12.509,3.334,9.08,9.08,0,0,0,3.353-12.438A9.18,9.18,0,0,0,21.17,10.376Z" transform="translate(8.801 0.268)" fill="#525678"/><path d="M21.171,57.612a9.179,9.179,0,0,0,12.506-3.33,9.141,9.141,0,1,0-12.506,3.33Z" transform="translate(8.807 40.446)" fill="#525678"/></g></g></svg>