<svg width="128" height="128" viewBox="0 0 128 128" fill="none" xmlns="http://www.w3.org/2000/svg">
<g clip-path="url(#clip0_6177_31342)">
<path d="M86.767 48.667C84.3719 44.8922 81.1625 41.7013 77.374 39.328C78.4609 41.4578 79.3729 43.6724 80.101 45.95C82.3911 46.6787 84.6201 47.5872 86.767 48.667Z" fill="#878FC6"/>
<path d="M63.543 34.839V43.234C67.1451 43.3374 70.732 43.7462 74.265 44.456C72.9824 41.1142 70.9946 38.0882 68.437 35.584C66.8289 35.2017 65.192 34.9525 63.543 34.839Z" fill="#878FC6"/>
<path d="M86.764 80.3301C84.6194 81.4114 82.3912 82.3183 80.101 83.0421C79.3726 85.3211 78.4606 87.5374 77.374 89.6691C81.162 87.2962 84.3705 84.1051 86.764 80.3301Z" fill="#878FC6"/>
<path d="M90.7891 70.403C90.2014 69.1967 89.7969 67.9096 89.5891 66.584H82.8291C82.7252 70.1646 82.318 73.7301 81.6121 77.242C84.967 75.9704 88.0094 73.9923 90.5331 71.442C90.6121 71.091 90.7201 70.755 90.7891 70.403Z" fill="#878FC6"/>
<path d="M90.533 57.567C88.0113 55.0096 84.9683 53.0256 81.611 51.75C82.3172 55.2629 82.725 58.8293 82.83 62.411H89.59C89.7949 61.0863 90.1995 59.8004 90.79 58.597C90.72 58.246 90.611 57.906 90.533 57.567Z" fill="#878FC6"/>
<path d="M77.856 66.5861H63.545V80.8161C67.7799 80.6954 71.9885 80.1068 76.094 79.0611C77.1434 74.9812 77.7343 70.797 77.856 66.5861Z" fill="#878FC6"/>
<path d="M63.543 62.413H77.854C77.7327 58.2 77.141 54.0137 76.09 49.932C71.9845 48.8863 67.7759 48.2977 63.541 48.177V62.413H63.543Z" fill="#878FC6"/>
<path d="M63.543 94.1561C65.1942 94.0435 66.8332 93.7936 68.443 93.4091C70.9999 90.9047 72.9876 87.8791 74.271 84.5381C70.7359 85.2452 67.1475 85.6526 63.544 85.7561L63.543 94.1561Z" fill="#878FC6"/>
<path d="M41.3 77.2421C40.5894 73.7314 40.1799 70.1664 40.076 66.5861H31.626C31.7387 68.2217 31.9879 69.845 32.371 71.4391C34.8952 73.9932 37.9408 75.9726 41.3 77.2421Z" fill="#878FC6"/>
<path d="M59.355 34.839C57.7062 34.9521 56.0696 35.2016 54.462 35.585C51.9058 38.0875 49.9191 41.1115 48.637 44.451C52.1691 43.7453 55.7545 43.3382 59.355 43.234V34.839Z" fill="#878FC6"/>
<path d="M59.355 48.177C55.1208 48.2971 50.9128 48.8854 46.808 49.931C45.7564 54.0128 45.1657 58.1996 45.047 62.413H59.355V48.177Z" fill="#878FC6"/>
<path d="M45.531 39.326C41.7397 41.6978 38.5278 44.8886 36.131 48.664C38.2778 47.5838 40.5076 46.6769 42.799 45.952C43.5305 43.6737 44.4441 41.4579 45.531 39.326Z" fill="#878FC6"/>
<path d="M59.3551 94.1561V85.7561C55.7548 85.6528 52.1698 85.2457 48.6381 84.5391C49.9169 87.8817 51.904 90.908 54.4631 93.4101C56.0705 93.7924 57.7067 94.042 59.3551 94.1561Z" fill="#878FC6"/>
<path d="M31.625 62.4131H40.081C40.1842 58.831 40.5937 55.2643 41.305 51.7521C37.9429 53.0252 34.8951 55.0091 32.37 57.5681C31.9882 59.1597 31.739 60.7803 31.625 62.4131Z" fill="#878FC6"/>
<path d="M45.532 89.6731C44.4468 87.5411 43.5348 85.3253 42.805 83.0471C40.5152 82.3206 38.2865 81.4138 36.14 80.3351C38.5346 84.1096 41.7437 87.3003 45.532 89.6731Z" fill="#878FC6"/>
<path d="M59.355 66.5861H45.047C45.1676 70.797 45.7582 74.9813 46.808 79.0611C50.9128 80.1071 55.1207 80.6957 59.355 80.8161V66.5861Z" fill="#878FC6"/>
<path d="M52.487 21.891C53.4782 23.6125 54.0742 25.5329 54.232 27.513C63.1783 25.7653 72.4549 27.3037 80.3582 31.8457C88.2615 36.3876 94.261 43.6283 97.255 52.238C99.0643 51.3781 101.041 50.9275 103.044 50.918C103.725 50.9332 104.405 51.0001 105.076 51.118C101.654 40.1441 94.2127 30.8676 84.2429 25.1454C74.273 19.4233 62.5099 17.6777 51.308 20.258C51.7402 20.773 52.1342 21.3188 52.487 21.891Z" fill="#878FC6"/>
<path d="M28.838 93.535C29.8518 91.8119 31.2359 90.3357 32.89 89.213C26.9023 82.4145 23.5881 73.6723 23.564 64.613C23.564 64.578 23.554 64.542 23.554 64.504C23.554 64.466 23.562 64.446 23.562 64.416C23.5803 55.3602 26.8849 46.619 32.862 39.816C31.2165 38.6838 29.8416 37.2017 28.836 35.476C28.5195 34.894 28.2458 34.2897 28.017 33.668C20.1718 42.0202 15.8052 53.0487 15.8063 64.5077C15.8074 75.9666 20.1762 86.9942 28.023 95.345C28.2494 94.7222 28.5218 94.1172 28.838 93.535Z" fill="#878FC6"/>
<path d="M103.043 78.084C101.038 78.0748 99.0597 77.6223 97.25 76.759C94.6666 84.193 89.8302 90.6368 83.4138 95.1939C76.9974 99.751 69.32 102.195 61.45 102.185C59.0236 102.18 56.6032 101.946 54.221 101.485C54.0672 103.469 53.4768 105.393 52.492 107.122C52.1417 107.691 51.7493 108.232 51.318 108.742C62.5189 111.322 74.2809 109.576 84.2495 103.853C94.218 98.1312 101.658 88.8552 105.079 77.882C104.406 77.9987 103.726 78.0663 103.043 78.084Z" fill="#878FC6"/>
<path d="M112.191 64.5011C112.203 62.6869 111.675 60.9101 110.676 59.396C109.676 57.882 108.25 56.6988 106.577 55.9967C104.904 55.2946 103.06 55.1052 101.279 55.4524C99.4987 55.7996 97.8612 56.6678 96.5746 57.9469C95.288 59.226 94.4103 60.8585 94.0528 62.6371C93.6953 64.4158 93.874 66.2606 94.5664 67.9375C95.2588 69.6144 96.4336 71.0479 97.9418 72.0562C99.45 73.0646 101.224 73.6022 103.038 73.6011C104.237 73.6046 105.424 73.3721 106.533 72.9167C107.641 72.4612 108.649 71.7919 109.499 70.9469C110.349 70.1019 111.024 69.0977 111.486 67.9917C111.948 66.8857 112.188 65.6996 112.191 64.5011Z" fill="#525678"/>
<path d="M36.081 20.8001C35.0406 21.3927 34.1279 22.1856 33.3955 23.1328C32.6631 24.0801 32.1256 25.163 31.8138 26.319C31.5021 27.4751 31.4224 28.6814 31.5793 29.8685C31.7362 31.0555 32.1266 32.1997 32.728 33.2351C33.9512 35.3289 35.9525 36.8543 38.2957 37.4788C40.6389 38.1034 43.1339 37.7763 45.237 36.5691C46.2767 35.9753 47.1887 35.1818 47.9205 34.2342C48.6523 33.2866 49.1895 32.2036 49.5011 31.0476C49.8128 29.8916 49.8927 28.6854 49.7363 27.4983C49.5799 26.3113 49.1904 25.1669 48.59 24.1311C47.3679 22.0359 45.3664 20.5096 43.0225 19.8854C40.6787 19.2613 38.1831 19.5901 36.081 20.8001Z" fill="#525678"/>
<path d="M36.088 108.214C38.1897 109.423 40.6845 109.752 43.0277 109.128C45.3709 108.504 47.372 106.978 48.594 104.884C49.4982 103.319 49.9184 101.522 49.8016 99.7187C49.6847 97.9155 49.036 96.1873 47.9373 94.7526C46.8387 93.3178 45.3395 92.2409 43.6291 91.6578C41.9187 91.0748 40.0739 91.0118 38.3277 91.4767C36.5815 91.9417 35.0122 92.9138 33.8183 94.2702C32.6243 95.6266 31.8591 97.3065 31.6195 99.0976C31.3798 100.889 31.6764 102.711 32.4717 104.333C33.267 105.956 34.5255 107.306 36.088 108.214Z" fill="#525678"/>
</g>
<defs>
<clipPath id="clip0_6177_31342">
<rect width="128" height="128" fill="white"/>
</clipPath>
</defs>
</svg>
