<svg width="128" height="128" viewBox="0 0 128 128" fill="none" xmlns="http://www.w3.org/2000/svg">
<path d="M83.216 90.4519C71.324 90.6199 59.984 92.7439 49.424 96.5079L50.156 96.2799C35.82 101.16 35.404 103.02 22.412 101.492C15.54 100.44 9.35199 98.4919 3.62 95.7479L4.02 95.9199C10.804 101.384 19.16 105.168 28.304 106.52L28.58 106.552C38.356 105.956 47.412 103.412 55.544 99.3039L55.148 99.4839C64.008 96.3879 74.22 94.5959 84.852 94.5959C85.4 94.5959 85.944 94.5999 86.488 94.6119H86.408C100.156 95.4759 112.988 97.6639 125.316 101.068L123.988 100.756C116.824 97.3359 108.432 94.3839 99.692 92.3279L98.828 92.1559C94.24 91.0759 88.972 90.4559 83.56 90.4559C83.44 90.4559 83.32 90.4559 83.2 90.4559H83.22L83.216 90.4519ZM114.272 70.0679L24.696 85.3079C29.204 86.9039 32.38 91.1279 32.38 96.0959C32.38 96.2639 32.376 96.4319 32.368 96.5959V96.5719C32.324 97.6759 32.136 98.7159 31.816 99.7039L31.84 99.6239C40.904 95.4599 51.504 91.9519 62.54 89.6319L63.54 89.4559C69.452 88.1119 76.24 87.3439 83.208 87.3439C87.348 87.3439 91.428 87.6159 95.424 88.1439L94.956 88.0919C98.588 79.6159 105.496 73.1279 114.044 70.1359L114.272 70.0679ZM40.208 21.5759C40.208 21.5759 52.236 26.9039 56.832 49.3039C57.776 52.7439 58.32 56.6959 58.32 60.7719C58.32 67.0479 57.036 73.0239 54.712 78.4519L54.824 78.1599C61.416 71.9199 70.336 68.0879 80.152 68.0879C83.568 68.0879 86.872 68.5519 90.012 69.4199L89.752 69.3599C87.904 57.9199 83.048 47.8479 76.028 39.6879L76.096 39.7679C67.584 29.0719 54.76 22.1239 40.296 21.5759H40.208ZM31.324 21.3919C37.528 30.2679 41.548 41.0879 42.392 52.7879L42.404 52.9919C42.536 54.5279 42.608 56.3119 42.608 58.1159C42.608 65.6879 41.304 72.9559 38.904 79.7039L39.044 79.2519C42.668 74.9479 47.904 72.0999 53.812 71.6439L53.884 71.6399C54.132 71.6199 54.38 71.6079 54.624 71.5999C54.956 69.1879 55.144 66.3999 55.144 63.5679C55.144 54.3839 53.152 45.6639 49.58 37.8199L49.74 38.2079C46.28 30.2119 39.676 24.1319 31.532 21.4479L31.32 21.3879L31.324 21.3919Z" fill="black"/>
</svg>
