<svg xmlns="http://www.w3.org/2000/svg" width="128" height="128" viewBox="0 0 128 128"><g transform="translate(-3041 -122)"><rect width="128" height="128" transform="translate(3041 122)" fill="none"/><g transform="translate(3060.514 139.808)"><path d="M68.242,68.134c.622-5.182.435-5.938,4.292-5.1l.981.088a22.658,22.658,0,0,0,9.165-1.535c4.907-2.276,7.817-6.079,2.978-5.079-11.036,2.276-11.838-1.463-11.838-1.463,11.658-17.3,16.534-39.255,12.322-44.627C74.672-4.246,54.812,2.688,54.48,2.871l-.107.019A38.028,38.028,0,0,0,47,2.127a18.238,18.238,0,0,0-11.662,3.49S-.084-8.977,1.562,23.973c.351,7.011,10.043,53.078,21.613,39.14,4.235-5.094,8.321-9.4,8.321-9.4a10.7,10.7,0,0,0,7,1.787l.2-.168a7.675,7.675,0,0,0,.08,1.978c-2.978,3.33-2.1,3.914-8.057,5.14-6.026,1.241-2.482,3.452-.176,4.032,2.8.7,9.287,1.7,13.67-4.437l-.176.7c1.168.936,1.088,6.721,1.26,10.852s.443,7.992,1.287,10.264S48.42,92,56.248,90.355c6.541-1.4,11.543-3.421,12-22.186" transform="translate(0.048 0.098)" stroke="#000" stroke-width="2.149"/><path d="M85.644,56.515c-11.036,2.276-11.838-1.463-11.838-1.463C85.464,37.754,90.34,15.8,86.132,10.425,74.661-4.238,54.8,2.7,54.469,2.879l-.107.019A39.37,39.37,0,0,0,47,2.131a18.238,18.238,0,0,0-11.662,3.49S-.094-8.973,1.555,23.977c.351,7.011,10.043,53.078,21.613,39.14,4.262-5.124,8.347-9.428,8.347-9.428a10.7,10.7,0,0,0,7,1.787l.2-.168a7.713,7.713,0,0,0,.08,1.978c-2.978,3.33-2.1,3.914-8.057,5.14-6.026,1.241-2.482,3.452-.176,4.032,2.8.7,9.287,1.7,13.67-4.437l-.176.7c1.168.936,1.986,6.083,1.848,10.749s-.229,7.866.687,10.371,1.833,8.134,9.661,6.492c6.541-1.4,9.928-5.04,10.406-11.1.336-4.307,1.092-3.673,1.146-7.523l.611-1.825c.7-5.842.115-7.725,4.143-6.847l.981.088a22.347,22.347,0,0,0,9.126-1.535c4.907-2.276,7.817-6.079,2.978-5.079Z" transform="translate(0.028 0.125)" fill="#336791"/><g transform="translate(1.489 1.039)"><path d="M44.733,59.95c-.305,10.868.076,21.812,1.138,24.439s3.341,7.828,11.173,6.156c6.541-1.4,8.924-4.116,9.955-10.108l2.417-19.158M35.347,5.471S-.1-9.024,1.545,23.926C1.9,30.937,11.588,77,23.158,63.066c4.223-5.09,8.042-9.073,8.042-9.073M54.493,2.825c-1.222.382,19.719-7.656,31.625,7.553,4.2,5.373-.668,27.329-12.326,44.627" transform="translate(-1.489 -1.039)" fill="none" stroke="#fff" stroke-linecap="round" stroke-linejoin="round" stroke-width="0.716"/><path d="M55.475,54.234s.764,3.742,11.838,1.459c4.838-1,1.925,2.8-2.978,5.079-4.025,1.871-13.052,2.348-13.2-.229-.382-6.663,4.75-4.64,4.38-6.308-.336-1.5-2.635-2.978-4.147-6.66-1.325-3.208-18.176-27.837,4.674-24.183.84-.172-5.957-21.766-27.341-22.079S7.992,27.6,7.992,27.6" transform="translate(16.831 -0.276)" fill="none" stroke="#fff" stroke-linecap="round" stroke-linejoin="bevel" stroke-width="0.716"/><g transform="translate(24.465 23.217)"><path d="M19.653,16.668c-2.978,3.33-2.1,3.914-8.057,5.14C5.57,23.049,9.113,25.26,11.42,25.84c2.8.7,9.287,1.7,13.67-4.441,1.336-1.871-.008-4.85-1.841-5.606-.886-.367-2.07-.825-3.589.878Z" transform="translate(-6.857 16.356)" fill="none" stroke="#fff" stroke-linejoin="round" stroke-width="0.716"/><path d="M20.5,40.087c-.305-1.959.642-4.284,1.653-7.011,1.52-4.086,5.025-8.172,2.222-21.143C22.284,2.272,8.258,9.92,8.258,11.23A65.327,65.327,0,0,1,8.029,24.08c-1.134,8.1,5.155,14.953,12.4,14.255" transform="translate(-7.896 -7.12)" fill="none" stroke="#fff" stroke-linecap="round" stroke-linejoin="round" stroke-width="0.716"/></g></g><g transform="translate(35.214 26.69)"><path d="M10.324,8.565c-.065.447.821,1.642,1.97,1.8a2.122,2.122,0,0,0,2.2-1.222c.065-.451-.821-.939-1.97-1.1S10.382,8.122,10.324,8.565Z" transform="translate(-10.321 -7.083)" fill="#fff" stroke="#fff" stroke-width="0.239"/><path d="M22.563,8.326c.061.447-.821,1.642-1.97,1.8a2.114,2.114,0,0,1-2.2-1.222c-.057-.451.821-.939,1.97-1.1s2.138.076,2.2.519Z" transform="translate(12.434 -7.757)" fill="#fff" stroke="#fff" stroke-width="0.119"/></g><path d="M22.374,7.1c.191,3.513-.756,5.9-.878,9.638-.176,5.43,2.589,11.647-1.577,17.871" transform="translate(51.945 17.068)" fill="none" stroke="#fff" stroke-linecap="round" stroke-linejoin="round" stroke-width="0.716"/></g></g></svg>