<svg width="128" height="128" viewBox="0 0 128 128" fill="none" xmlns="http://www.w3.org/2000/svg">
<path d="M113.66 74.0922C113.066 72.2918 111.508 71.0375 109.494 70.7364C108.544 70.5946 107.457 70.6551 106.17 70.9205C103.926 71.3833 102.262 71.5594 101.047 71.5938C105.632 63.8527 109.36 55.0249 111.506 46.7152C114.977 33.2789 113.122 27.1578 110.955 24.3889C105.22 17.0607 96.8522 13.1236 86.7569 13.0029C81.3721 12.9372 76.6442 14.0005 74.1783 14.7649C71.882 14.36 69.4129 14.1337 66.8221 14.0918C61.9665 14.0144 57.6758 15.0729 54.0097 17.2485C51.9795 16.5624 48.7224 15.5948 44.9605 14.9772C36.1126 13.5246 28.9818 14.6566 23.7659 18.3413C17.4499 22.8028 14.5218 30.5542 15.0634 41.3805C15.2352 44.8179 17.1582 55.2759 20.1856 65.1944C21.9256 70.8951 23.781 75.6293 25.7003 79.2664C28.4221 84.4239 31.3344 87.4612 34.6039 88.5517C36.4366 89.1625 39.7662 89.5898 43.2684 86.6736C43.7122 87.2109 44.3041 87.7452 45.0903 88.2412C46.0883 88.8707 47.3089 89.3851 48.5277 89.6899C52.9207 90.7882 57.0355 90.5134 60.546 88.9742C60.5675 89.5985 60.5842 90.1951 60.5984 90.7101C60.6218 91.5458 60.6447 92.3649 60.6754 93.1309C60.8833 98.3115 61.2357 102.34 62.28 105.158C62.3373 105.313 62.4144 105.549 62.496 105.799C63.0167 107.395 63.8881 110.065 66.1042 112.156C68.3995 114.323 71.1755 114.987 73.718 114.987C74.9931 114.987 76.2098 114.82 77.2767 114.591C81.0808 113.776 85.4007 112.534 88.5258 108.084C91.4802 103.878 92.9165 97.5418 93.1764 87.5585C93.2101 87.2764 93.2412 87.0068 93.2712 86.7499C93.2914 86.5765 93.312 86.3993 93.3329 86.2225L94.029 86.2836L94.2083 86.2958C98.0827 86.4723 102.82 85.6507 105.729 84.2993C108.028 83.2324 115.395 79.3434 113.66 74.0922Z" fill="black"/>
<path d="M107.036 75.1135C95.5165 77.4897 94.7246 73.5895 94.7246 73.5895C106.887 55.5419 111.972 32.6333 107.584 27.0265C95.6138 11.7323 74.8928 18.9655 74.547 19.1533L74.4357 19.1732C72.1598 18.7007 69.6128 18.4193 66.7503 18.3726C61.5378 18.2872 57.584 19.7391 54.5838 22.0142C54.5838 22.0142 17.6196 6.78644 19.3388 41.1661C19.7045 48.4801 29.8218 96.5071 41.8893 82.0007C46.3 76.6962 50.5616 72.2111 50.5616 72.2111C52.6783 73.6172 55.2122 74.3345 57.8687 74.0768L58.075 73.9016C58.0109 74.5603 58.0402 75.2044 58.1577 75.967C55.0489 79.4404 55.9624 80.0502 49.7479 81.3295C43.4596 82.6254 47.1537 84.9326 49.5656 85.5356C52.4896 86.2668 59.2542 87.3026 63.8249 80.9042L63.6426 81.6343C64.8607 82.6098 65.7161 87.9803 65.5727 92.8485C65.4293 97.7169 65.3336 101.059 66.2934 103.67C67.2532 106.281 68.2097 112.155 76.3793 110.404C83.2058 108.941 86.7432 105.15 87.2354 98.8267C87.5846 94.3311 88.3749 94.9957 88.4248 90.9764L89.0587 89.0735C89.7897 82.9794 89.1748 81.0134 93.3805 81.9279L94.4026 82.0176C97.4981 82.1585 101.549 81.5198 103.927 80.4146C109.047 78.0384 112.084 74.0711 107.035 75.1135H107.036Z" fill="#336791"/>
<path d="M56.7475 44.4371C55.7096 44.2926 54.7693 44.4264 54.2937 44.7863C54.026 44.989 53.9433 45.2237 53.9211 45.3854C53.8613 45.8134 54.1613 46.2866 54.3454 46.5307C54.8666 47.2216 55.6283 47.6966 56.3822 47.8012C56.4914 47.8163 56.6 47.8237 56.7081 47.8237C57.9653 47.8237 59.1081 46.8449 59.2088 46.1224C59.3348 45.2176 58.0212 44.6144 56.7475 44.4371Z" fill="white"/>
<path d="M91.1373 44.4656C91.0384 43.7564 89.7759 43.5542 88.5782 43.7207C87.3823 43.8874 86.2224 44.4271 86.3193 45.138C86.3971 45.6908 87.3949 46.6345 88.5766 46.6343C88.6762 46.6343 88.777 46.6277 88.8784 46.6135C89.6671 46.5042 90.2458 46.0034 90.5206 45.7146C90.9395 45.2749 91.1815 44.7844 91.1373 44.4656Z" fill="white"/>
<path d="M110.869 74.8436C110.43 73.5154 109.016 73.0878 106.667 73.5731C99.6933 75.0124 97.1958 74.0153 96.3754 73.4114C101.796 65.1529 106.256 55.1708 108.662 45.8569C109.801 41.445 110.431 37.3479 110.482 34.0085C110.539 30.3426 109.915 27.6492 108.627 26.0038C103.436 19.3704 95.8171 15.8123 86.5944 15.7146C80.2541 15.6433 74.8972 17.2661 73.8586 17.7223C71.6716 17.1784 69.2874 16.8445 66.6921 16.8019C61.9322 16.7249 57.8181 17.8645 54.4116 20.1871C52.932 19.6365 49.108 18.3239 44.432 17.5707C36.3471 16.2687 29.9228 17.2551 25.3381 20.5031C19.8676 24.3788 17.3421 31.3067 17.8315 41.094C17.9961 44.3871 19.8721 54.5167 22.8332 64.2179C26.7307 76.9862 30.9671 84.2145 35.4249 85.7012C35.9466 85.8753 36.5484 85.9971 37.2116 85.9971C38.8378 85.9971 40.8313 85.2641 42.9056 82.7704C46.351 78.6254 49.5679 75.1521 50.7537 73.89C52.506 74.8308 54.4308 75.3559 56.4001 75.4086C56.4035 75.4601 56.4088 75.5116 56.4133 75.5629C56.0183 76.0314 55.6943 76.4421 55.4181 76.7927C54.0539 78.5244 53.7699 78.8849 49.3785 79.7892C48.1295 80.0468 44.8114 80.7307 44.7631 83.0562C44.7102 85.5971 48.6846 86.6642 49.1376 86.7774C50.7157 87.1724 52.2358 87.3673 53.6857 87.3673C57.2119 87.367 60.3147 86.2083 62.7946 83.9661C62.7181 93.0244 63.096 101.95 64.1835 104.67C65.0741 106.896 67.2504 112.337 74.1245 112.337C75.1328 112.337 76.2433 112.22 77.4645 111.958C84.6384 110.42 87.7536 107.249 88.9588 100.259C89.6037 96.5232 90.7105 87.602 91.2308 82.8169C92.3294 83.1595 93.7437 83.3164 95.2726 83.3161C98.4612 83.3161 102.14 82.6387 104.448 81.5677C107.04 80.364 111.718 77.4098 110.869 74.8436ZM93.7852 42.5079C93.7613 43.9206 93.5669 45.203 93.3608 46.5418C93.1391 47.9816 92.9097 49.4701 92.852 51.2772C92.7949 53.0358 93.0146 54.8641 93.2271 56.6321C93.6562 60.2032 94.0966 63.8799 92.3917 67.5078C92.1267 67.0372 91.8709 66.5238 91.6364 65.9552C91.4246 65.4415 90.9645 64.6164 90.3276 63.4743C87.8488 59.0293 82.0444 48.6201 85.0158 44.3724C85.9007 43.1079 88.1468 41.8083 93.7852 42.5079ZM86.9509 18.5753C95.2144 18.7578 101.751 21.8492 106.379 27.763C109.929 32.2992 106.02 52.9396 94.7046 70.746C94.5929 70.604 94.479 70.4606 94.3613 70.3136C94.3144 70.2548 94.2665 70.195 94.2182 70.1345C97.1422 65.3055 96.5703 60.5277 96.0615 56.2915C95.8524 54.5532 95.655 52.9112 95.7051 51.369C95.7571 49.7339 95.9733 48.3322 96.1822 46.9765C96.4393 45.3056 96.7006 43.5771 96.6285 41.5392C96.6823 41.3255 96.7041 41.0729 96.6759 40.7731C96.4918 38.8188 94.2608 32.9707 89.7132 27.6767C87.226 24.7816 83.5983 21.5414 78.6453 19.356C80.7758 18.9145 83.6892 18.5027 86.9509 18.5753ZM40.7106 80.9452C38.4253 83.6929 36.847 83.1664 36.3281 82.9935C32.9464 81.8654 29.0228 74.7183 25.5634 63.3846C22.5701 53.5778 20.8207 43.7166 20.6824 40.9513C20.2452 32.206 22.3651 26.111 26.9835 22.8357C34.4995 17.5056 46.8567 20.6959 51.822 22.3141C51.7505 22.3844 51.6763 22.4503 51.6056 22.5218C43.4578 30.7507 43.651 44.8098 43.671 45.6691C43.6703 46.0007 43.698 46.4701 43.7362 47.1159C43.8764 49.4804 44.1372 53.8815 43.4404 58.8656C42.7925 63.497 44.2201 68.0302 47.3566 71.3027C47.6813 71.6414 48.0203 71.9595 48.3704 72.2588C46.9742 73.754 43.94 77.0601 40.7106 80.9452ZM49.4177 69.3275C46.8897 66.69 45.7416 63.0211 46.2674 59.2608C47.0035 53.9958 46.7316 49.4104 46.5858 46.9469C46.5654 46.6023 46.5473 46.3002 46.5365 46.0618C47.7269 45.0066 53.243 42.0508 57.1766 42.9521C58.972 43.3634 60.0655 44.5856 60.5204 46.6884C62.8741 57.5737 60.832 62.1108 59.1912 65.7566C58.853 66.5078 58.5335 67.2177 58.2605 67.9523L58.0491 68.52C57.5137 69.9557 57.0156 71.2903 56.7069 72.5579C54.0198 72.5496 51.4054 71.4018 49.4177 69.3275ZM49.8301 84.008C49.0455 83.8119 48.3397 83.4714 47.9257 83.189C48.2715 83.0262 48.887 82.805 49.9544 82.5852C55.1206 81.5214 55.9182 80.771 57.6605 78.5588C58.0601 78.0517 58.5129 77.4767 59.1399 76.7764L59.1406 76.7755C60.0747 75.7298 60.5018 75.9071 61.2765 76.2284C61.9045 76.4883 62.5159 77.2752 62.7639 78.1413C62.8812 78.5503 63.0131 79.3269 62.5819 79.9307C58.9423 85.0266 53.6389 84.9611 49.8301 84.008ZM76.8662 109.167C70.5463 110.521 68.3086 107.296 66.8341 103.61C65.8823 101.23 65.4147 90.498 65.7465 78.6467C65.7509 78.4889 65.7284 78.3366 65.6849 78.1935C65.6471 77.9171 65.589 77.6375 65.5083 77.356C65.0146 75.6316 63.8121 74.1891 62.3694 73.5912C61.7961 73.3537 60.7439 72.9179 59.4795 73.2412C59.7493 72.1303 60.2169 70.8761 60.7237 69.5176L60.9365 68.946C61.176 68.3018 61.4762 67.6345 61.7941 66.9282C63.5112 63.1134 65.8628 57.8886 63.3106 46.0849C62.3545 41.664 59.1621 39.5051 54.3225 40.0064C51.421 40.3067 48.7668 41.4773 47.4429 42.1486C47.1583 42.2928 46.8979 42.4321 46.6547 42.5679C47.0241 38.1132 48.4203 29.7886 53.6426 24.5217C56.9304 21.2057 61.3095 19.568 66.6449 19.6562C77.1574 19.8284 83.8987 25.2234 87.7032 29.719C90.9814 33.5931 92.7567 37.4954 93.4652 39.5999C88.1374 39.0583 84.5138 40.1102 82.6767 42.7362C78.6806 48.4485 84.8631 59.5361 87.8344 64.8646C88.3792 65.8413 88.8496 66.6852 88.9975 67.0439C89.9651 69.3889 91.2178 70.9544 92.1324 72.0973C92.4127 72.4475 92.6848 72.7871 92.8916 73.0837C91.278 73.549 88.3795 74.6237 88.6435 79.9965C88.4305 82.6926 86.9154 95.3145 86.146 99.7739C85.1301 105.665 82.9621 107.86 76.8662 109.167ZM103.246 78.9785C101.596 79.7446 98.8345 80.3191 96.2113 80.4423C93.3139 80.5781 91.8391 80.1178 91.4921 79.8348C91.3291 76.4867 92.5755 76.1368 93.8944 75.7665C94.1016 75.7081 94.3039 75.6515 94.499 75.5833C94.6203 75.682 94.7532 75.78 94.8986 75.876C97.2274 77.413 101.381 77.5788 107.245 76.3685C107.266 76.364 107.288 76.3598 107.309 76.3555C106.518 77.095 105.165 78.0875 103.246 78.9785Z" fill="white"/>
</svg>
