<svg xmlns="http://www.w3.org/2000/svg" width="128" height="128" viewBox="0 0 128 128"><g transform="translate(-3189 -122)"><rect width="128" height="128" transform="translate(3189 122)" fill="none"/><path d="M-86.256,321.636h-28.081a2.541,2.541,0,0,1-2.541-2.541V289.827A3.914,3.914,0,0,0-120.8,285.9h-10.031a3.914,3.914,0,0,0-3.926,3.926V318.9a2.732,2.732,0,0,1-2.739,2.739l-9.206.034a2.712,2.712,0,0,1-2.739-2.739l.066-29.1a3.914,3.914,0,0,0-3.926-3.926h-10.031a3.914,3.914,0,0,0-3.926,3.926v81.93a3.5,3.5,0,0,0,3.5,3.5h77.509a3.5,3.5,0,0,0,3.5-3.5V325.132a3.476,3.476,0,0,0-1.018-2.479,3.476,3.476,0,0,0-2.479-1.018Zm-13.166,30.753a4.566,4.566,0,0,1-4.554,4.553H-111.9a4.565,4.565,0,0,1-4.553-4.553V344.47a4.565,4.565,0,0,1,4.553-4.553h7.919a4.565,4.565,0,0,1,4.554,4.553Z" transform="translate(3378.012 -144.578)" fill="#f60"/></g></svg>