<svg width="128" height="128" viewBox="0 0 128 128" fill="none" xmlns="http://www.w3.org/2000/svg">
<g clip-path="url(#clip0_6177_31410)">
<path d="M102.756 55.058H74.6749C74.001 55.058 73.3547 54.7903 72.8782 54.3138C72.4016 53.8373 72.1339 53.191 72.1339 52.517V23.249C72.1356 22.7333 72.0354 22.2223 71.839 21.7454C71.6425 21.2685 71.3538 20.8351 70.9893 20.4702C70.6249 20.1052 70.1919 19.816 69.7152 19.6189C69.2386 19.4219 68.7277 19.321 68.2119 19.322H58.1809C57.6649 19.3205 57.1537 19.4209 56.6766 19.6177C56.1996 19.8144 55.7662 20.1035 55.4013 20.4684C55.0364 20.8333 54.7473 21.2667 54.5505 21.7438C54.3538 22.2208 54.2533 22.732 54.2549 23.248V52.322C54.2558 52.682 54.1856 53.0386 54.0483 53.3713C53.911 53.704 53.7093 54.0064 53.4547 54.2609C53.2002 54.5154 52.8979 54.7171 52.5652 54.8544C52.2325 54.9917 51.8759 55.062 51.5159 55.0611L42.3099 55.0951C41.9492 55.0987 41.5914 55.0303 41.2575 54.8939C40.9236 54.7575 40.6202 54.5559 40.3651 54.3009C40.1101 54.0458 39.9084 53.7424 39.7721 53.4085C39.6357 53.0745 39.5673 52.7167 39.5709 52.356L39.6369 23.2561C39.6385 22.74 39.538 22.2288 39.3413 21.7518C39.1446 21.2747 38.8554 20.8413 38.4906 20.4764C38.1257 20.1115 37.6923 19.8224 37.2152 19.6257C36.7382 19.4289 36.2269 19.3285 35.7109 19.33H25.6799C25.1639 19.3285 24.6527 19.4289 24.1756 19.6257C23.6986 19.8224 23.2652 20.1115 22.9003 20.4764C22.5354 20.8413 22.2463 21.2747 22.0495 21.7518C21.8528 22.2288 21.7523 22.74 21.7539 23.2561V105.186C21.7539 106.114 22.1227 107.005 22.779 107.661C23.4354 108.317 24.3257 108.686 25.2539 108.686H102.763C103.691 108.686 104.581 108.317 105.238 107.661C105.894 107.005 106.263 106.114 106.263 105.186V58.554C106.266 58.094 106.177 57.638 106.002 57.2125C105.828 56.7869 105.57 56.4004 105.245 56.0751C104.92 55.7498 104.533 55.4923 104.107 55.3176C103.682 55.1428 103.226 55.0543 102.766 55.0571L102.756 55.058ZM89.5899 85.8111C89.5865 87.0177 89.1056 88.1739 88.2522 89.0271C87.3989 89.8802 86.2426 90.3609 85.0359 90.364H77.1119C75.9054 90.3609 74.7491 89.8802 73.896 89.027C73.0428 88.1738 72.5621 87.0176 72.5589 85.8111V77.892C72.5621 76.6855 73.0428 75.5292 73.896 74.6761C74.7491 73.8229 75.9054 73.3422 77.1119 73.339H85.0309C86.2376 73.3419 87.3941 73.8225 88.2475 74.6757C89.1009 75.5289 89.5817 76.6853 89.5849 77.892L89.5899 85.8111Z" fill="#FF6600"/>
</g>
<defs>
<clipPath id="clip0_6177_31410">
<rect width="128" height="128" fill="white"/>
</clipPath>
</defs>
</svg>
