<svg xmlns="http://www.w3.org/2000/svg" width="128" height="128" viewBox="0 0 128 128"><g transform="translate(-3337 -122)"><rect width="128" height="128" transform="translate(3337 122)" fill="none"/><g transform="translate(3341.323 129.586)"><path d="M107.407,50.32C101.879,53.2,73.245,64.976,67.149,68.153S57.667,71.3,52.85,69,17.563,54.39,12.07,51.764c-2.746-1.313-4.185-2.417-4.185-3.46V37.833S47.558,29.2,53.965,26.9s8.623-2.381,14.077-.384,38.042,7.876,43.427,9.85V46.69c0,1.035-1.241,2.2-4.056,3.636Z" transform="translate(0.002 29.875)" fill="#a41e11"/><path d="M107.409,45.685c-5.528,2.883-34.162,14.656-40.258,17.833s-9.482,3.147-14.3.846S17.564,49.755,12.072,47.13s-5.6-4.429-.211-6.541l42.1-16.3c6.4-2.3,8.623-2.381,14.077-.384s33.914,13.324,39.3,15.329,5.594,3.6.066,6.481Z" transform="translate(0 24.036)" fill="#d82c20"/><path d="M107.407,50.32C101.879,53.2,73.245,64.976,67.149,68.153S57.667,71.3,52.85,69,17.563,54.39,12.07,51.764c-2.746-1.313-4.185-2.417-4.185-3.46V37.833S47.558,29.2,53.965,26.9s8.623-2.381,14.077-.384,38.042,7.876,43.427,9.85V46.69c0,1.035-1.241,2.2-4.056,3.636Z" transform="translate(0.002 12.8)" fill="#a41e11"/><path d="M107.409,40.41c-5.528,2.883-34.162,14.656-40.258,17.833s-9.482,3.147-14.3.846S17.564,44.48,12.072,41.854s-5.6-4.429-.211-6.541l42.1-16.3c6.4-2.3,8.623-2.381,14.077-.384s33.914,13.327,39.3,15.3,5.594,3.6.066,6.481Z" transform="translate(0 12.239)" fill="#d82c20"/><path d="M107.407,39.577c-5.528,2.883-34.162,14.656-40.258,17.836s-9.482,3.147-14.3.846S17.563,43.649,12.07,41.024c-2.746-1.313-4.185-2.417-4.185-3.46V27.088s39.673-8.637,46.08-10.935,8.623-2.381,14.077-.384,38.042,7.876,43.427,9.85V35.944c0,1.035-1.241,2.2-4.056,3.636Z" transform="translate(0.002 5.836)" fill="#a41e11"/><path d="M107.409,40.41c-5.528,2.883-34.162,14.656-40.258,17.833s-9.482,3.147-14.3.846S17.564,44.48,12.072,41.854s-5.6-4.429-.211-6.541l42.1-16.3c6.4-2.3,8.623-2.381,14.077-.384s33.914,13.327,39.3,15.3,5.594,3.6.066,6.481Z" transform="translate(0 -5.471)" fill="#d82c20"/><g transform="translate(25.674 17.218)"><path d="M36.631,26.834l-3.246-5.4L23.022,20.5l7.733-2.79-2.32-4.284,7.239,2.828L42.5,14.023,40.654,18.45l6.959,2.609-8.974.934ZM19.342,37.576l24-3.685-7.25,10.633Z" transform="translate(-0.042 -13.43)" fill="#fff"/><ellipse cx="12.83" cy="4.973" rx="12.83" ry="4.973" transform="translate(0 10.325)" fill="#fff"/></g><path d="M45.561,21.813l-14.2,5.608L31.353,16.2Z" transform="translate(52.5 9.979)" fill="#7a0c00"/><path d="M42.224,27.419l-1.538.6L26.5,22.415,42.215,16.2Z" transform="translate(41.643 9.981)" fill="#ad2115"/></g></g></svg>