<svg width="128" height="128" viewBox="0 0 128 128" fill="none" xmlns="http://www.w3.org/2000/svg">
<g clip-path="url(#clip0_6177_31414)">
<path d="M111.732 87.7811C106.204 90.6611 77.57 102.437 71.474 105.614C65.378 108.791 61.992 108.761 57.175 106.461C52.358 104.161 21.888 91.8511 16.395 89.2251C13.649 87.9121 12.21 86.8081 12.21 85.7651V75.2941C12.21 75.2941 51.883 66.6611 58.29 64.3611C64.697 62.0611 66.913 61.9801 72.367 63.9771C77.821 65.9741 110.409 71.8531 115.794 73.8271V84.1511C115.794 85.1861 114.553 86.3511 111.738 87.7871L111.732 87.7811Z" fill="#A41E11"/>
<path d="M111.732 77.307C106.204 80.19 77.57 91.963 71.474 95.14C65.378 98.317 61.992 98.287 57.174 95.986C52.356 93.685 21.887 81.377 16.395 78.752C10.903 76.127 10.795 74.323 16.184 72.211L58.284 55.911C64.684 53.611 66.907 53.53 72.361 55.527C77.815 57.524 106.275 68.851 111.661 70.856C117.047 72.861 117.255 74.456 111.727 77.337L111.732 77.307Z" fill="#D82C20"/>
<path d="M111.732 70.706C106.204 73.586 77.57 85.362 71.474 88.539C65.378 91.716 61.992 91.686 57.175 89.386C52.358 87.086 21.888 74.776 16.395 72.15C13.649 70.837 12.21 69.733 12.21 68.69V58.219C12.21 58.219 51.883 49.586 58.29 47.286C64.697 44.986 66.913 44.905 72.367 46.902C77.821 48.899 110.409 54.778 115.794 56.752V67.076C115.794 68.111 114.553 69.276 111.738 70.712L111.732 70.706Z" fill="#A41E11"/>
<path d="M111.732 60.235C106.204 63.118 77.57 74.891 71.474 78.068C65.378 81.245 61.992 81.215 57.174 78.914C52.356 76.613 21.887 64.305 16.395 61.679C10.903 59.053 10.795 57.25 16.184 55.138L58.284 38.838C64.684 36.538 66.907 36.457 72.361 38.454C77.815 40.451 106.275 51.781 111.661 53.754C117.047 55.727 117.255 57.354 111.727 60.235H111.732Z" fill="#D82C20"/>
<path d="M111.732 52.9991C106.204 55.8821 77.57 67.6551 71.474 70.8351C65.378 74.0151 61.992 73.9821 57.174 71.6811C52.356 69.3801 21.888 57.0711 16.395 54.4461C13.649 53.1331 12.21 52.0291 12.21 50.9861V40.5101C12.21 40.5101 51.883 31.8731 58.29 29.5751C64.697 27.2771 66.913 27.1941 72.367 29.1911C77.821 31.1881 110.409 37.0671 115.794 39.0411V49.3661C115.794 50.4011 114.553 51.5661 111.738 53.0021L111.732 52.9991Z" fill="#A41E11"/>
<path d="M111.732 42.525C106.204 45.408 77.57 57.181 71.474 60.358C65.378 63.535 61.992 63.505 57.174 61.204C52.356 58.903 21.887 46.595 16.395 43.969C10.903 41.343 10.795 39.54 16.184 37.428L58.284 21.128C64.684 18.828 66.907 18.747 72.361 20.744C77.815 22.741 106.275 34.071 111.661 36.044C117.047 38.017 117.255 39.644 111.727 42.525H111.732Z" fill="#D82C20"/>
<path d="M66.586 38.208L63.34 32.808L52.977 31.874L60.71 29.084L58.39 24.8L65.629 27.628L72.455 25.397L70.609 29.824L77.568 32.433L68.594 33.367L66.586 38.208ZM49.297 48.9501L73.297 45.265L66.047 55.898L49.297 48.9501Z" fill="white"/>
<path d="M42.8269 45.075C49.9128 45.075 55.6569 42.8485 55.6569 40.102C55.6569 37.3555 49.9128 35.129 42.8269 35.129C35.7411 35.129 29.9969 37.3555 29.9969 40.102C29.9969 42.8485 35.7411 45.075 42.8269 45.075Z" fill="white"/>
<path d="M102.384 39.378L88.184 44.986L88.176 33.765L102.384 39.378Z" fill="#7A0C00"/>
<path d="M88.1901 44.9861L86.6521 45.5861L72.4661 39.9821L88.1811 33.7671L88.1901 44.9861Z" fill="#AD2115"/>
</g>
<defs>
<clipPath id="clip0_6177_31414">
<rect width="128" height="128" fill="white"/>
</clipPath>
</defs>
</svg>
