<svg width="128" height="128" viewBox="0 0 128 128" fill="none" xmlns="http://www.w3.org/2000/svg">
<g clip-path="url(#clip0_6177_31429)">
<path fill-rule="evenodd" clip-rule="evenodd" d="M105.275 64.1061L105.103 63.7421L101.356 56.6421C101.291 56.5552 101.262 56.4471 101.273 56.3394C101.285 56.2317 101.336 56.1323 101.418 56.0611L107.345 49.0971C107.426 49.0093 107.48 48.901 107.503 48.7841L105.772 49.2361L98.588 51.1521C98.5471 51.1689 98.5031 51.1774 98.4589 51.1769C98.4146 51.1765 98.3708 51.1671 98.3302 51.1494C98.2896 51.1316 98.253 51.1059 98.2226 51.0737C98.1921 51.0415 98.1685 51.0036 98.153 50.9621L94.053 44.1421C93.9815 44.0089 93.8785 43.8953 93.753 43.8111L93.414 45.6261L92.28 52.0421L92.162 52.7351C92.143 52.9561 92.03 53.0351 91.831 53.1001L83.368 55.7751C83.2287 55.8177 83.0999 55.8892 82.99 55.9851L89.947 58.7521L89.747 58.9131L85.42 61.7131C85.3497 61.7678 85.265 61.8008 85.1761 61.8081C85.0873 61.8154 84.9983 61.7966 84.92 61.7541L79.742 59.4461C78.9642 59.1221 78.2744 58.6183 77.729 57.9761C77.4334 57.6798 77.2115 57.3183 77.0812 56.9205C76.951 56.5228 76.9161 56.1 76.9794 55.6862C77.0427 55.2725 77.2023 54.8795 77.4454 54.5388C77.6885 54.1981 78.0084 53.9194 78.379 53.7251C78.9261 53.3865 79.5133 53.1178 80.127 52.9251L88.441 50.2841C88.5434 50.2644 88.6366 50.2117 88.7061 50.1341C88.7757 50.0564 88.8178 49.958 88.826 49.8541L89.964 43.4401C90.0792 42.2812 90.373 41.1471 90.835 40.0781C91.0493 39.6759 91.3068 39.2983 91.603 38.9521C91.8267 38.666 92.1107 38.4329 92.4349 38.2692C92.7591 38.1056 93.1154 38.0156 93.4783 38.0056C93.8413 37.9956 94.202 38.0658 94.5347 38.2112C94.8674 38.3567 95.1639 38.5738 95.403 38.8471C95.7947 39.2497 96.1381 39.6967 96.426 40.1791L100.226 46.4791C100.246 46.5321 100.276 46.5805 100.316 46.6211C100.355 46.6617 100.402 46.6936 100.455 46.7149C100.507 46.7362 100.563 46.7463 100.62 46.7446C100.676 46.7429 100.732 46.7294 100.783 46.7051L110.057 44.2421C110.687 44.0604 111.351 44.0238 111.997 44.1351C112.306 44.1601 112.604 44.2601 112.866 44.4262C113.128 44.5923 113.345 44.8196 113.5 45.0885C113.654 45.3574 113.741 45.6599 113.752 45.9697C113.763 46.2796 113.699 46.5876 113.565 46.8671C113.329 47.4788 112.982 48.0413 112.54 48.5261L106.08 56.1581C106 56.2317 105.949 56.3324 105.939 56.4408C105.928 56.5492 105.957 56.6579 106.021 56.7461L109.883 64.0681C110.214 64.6353 110.402 65.2741 110.433 65.9301C110.439 66.6636 110.176 67.3739 109.694 67.9267C109.212 68.4795 108.544 68.8364 107.816 68.9301C106.993 69.0111 106.161 68.9087 105.382 68.6301L99.556 66.8521C99.4789 66.8409 99.4083 66.8027 99.3569 66.7442C99.3054 66.6858 99.2764 66.6109 99.275 66.5331L98.575 62.4331C98.5732 62.3788 98.5769 62.3245 98.586 62.2711L105.277 64.1171" fill="#E25A1C"/>
<path fill-rule="evenodd" clip-rule="evenodd" d="M101.494 84.0291H96.2461C96.1474 84.0376 96.0484 84.0172 95.9612 83.9703C95.874 83.9234 95.8024 83.8521 95.7551 83.7651L89.2711 73.9431L87.9481 84.0031H83.3711L83.5291 82.6951L86.1651 62.6741C86.1807 62.5667 86.2373 62.4695 86.3231 62.4031L91.0711 59.3491C91.115 59.3314 91.1605 59.318 91.2071 59.3091L89.7771 70.1971L89.8341 70.2351L97.3341 61.9251L98.0711 66.1831C98.0916 66.2702 98.088 66.3612 98.0605 66.4464C98.033 66.5315 97.9827 66.6075 97.9151 66.6661L93.1151 71.7131L92.8891 71.9391L93.0361 72.1721L101.316 83.7891C101.366 83.8591 101.438 83.9021 101.5 83.9771V84.0381M47.1991 73.9731C47.1363 73.5105 47.0434 73.0526 46.9211 72.6021C46.5402 71.4585 45.7376 70.5032 44.6768 69.9309C43.616 69.3586 42.3769 69.2124 41.2121 69.5221C39.8869 69.8037 38.6863 70.5008 37.7847 71.5119C36.8831 72.5231 36.3276 73.7955 36.1991 75.1441C36.0769 76.1704 36.3065 77.2079 36.8503 78.0869C37.3942 78.9658 38.2201 79.6343 39.1931 79.9831C39.9807 80.2708 40.8245 80.3712 41.6576 80.2763C42.4908 80.1814 43.2904 79.8937 43.9931 79.4361C44.9592 78.8856 45.7641 78.0915 46.3277 77.133C46.8913 76.1744 47.1938 75.085 47.2051 73.9731H47.1991ZM35.0911 82.7591L34.6981 85.6981L34.1981 89.5281C34.1791 89.6771 34.1341 89.7541 33.9741 89.7541L30.1991 89.7481C30.1602 89.7414 30.1222 89.73 30.0861 89.7141L30.3161 87.9041L31.1531 81.5531L32.1431 74.2961C32.572 72.153 33.6099 70.1791 35.1322 68.6108C36.6545 67.0426 38.5967 65.9466 40.7261 65.4541C41.8994 65.1538 43.1218 65.0965 44.3181 65.2857C45.5145 65.4749 46.6595 65.9065 47.6831 66.5541C48.7059 67.1884 49.5676 68.0514 50.2004 69.0752C50.8333 70.0989 51.22 71.2556 51.3301 72.4541C51.5185 74.1142 51.3039 75.7952 50.7046 77.3548C50.1052 78.9143 49.1387 80.3064 47.8871 81.4131C46.2734 83.0084 44.1935 84.0484 41.9491 84.3821C40.8152 84.5885 39.6517 84.5684 38.5256 84.323C37.3995 84.0775 36.3332 83.6116 35.3881 82.9521C35.3141 82.9011 35.2361 82.8521 35.1111 82.7781" fill="#3C3A3E"/>
<path fill-rule="evenodd" clip-rule="evenodd" d="M33.037 62.5211L28.899 65.6011L28.251 64.5851C27.9962 64.1627 27.6468 63.8053 27.2303 63.541C26.8139 63.2767 26.3417 63.1128 25.851 63.0621C25.4313 63.0221 25.0082 63.0817 24.6158 63.236C24.2235 63.3903 23.8731 63.635 23.593 63.9501C23.3244 64.2251 23.1655 64.5887 23.1459 64.9726C23.1264 65.3565 23.2477 65.7343 23.487 66.0351C24.045 66.7651 24.655 67.4581 25.279 68.1351L28.419 71.4581C29.3952 72.4353 30.0605 73.6796 30.331 75.0341C30.5887 76.6562 30.2905 78.3178 29.485 79.7491C28.8221 81.0317 27.8592 82.1353 26.6783 82.9659C25.4973 83.7966 24.1332 84.3297 22.702 84.5201C21.3769 84.7517 20.0164 84.6799 18.723 84.3101C17.9044 84.0718 17.1477 83.6574 16.506 83.096C15.8643 82.5346 15.3531 81.8398 15.008 81.0601C14.734 80.4941 14.524 79.8951 14.275 79.2861L18.762 76.8861L18.898 77.2121C19.1203 77.7404 19.3852 78.2497 19.69 78.7351C20.0899 79.3907 20.7226 79.8711 21.4614 80.0802C22.2003 80.2894 22.9909 80.2118 23.675 79.8631C24.0755 79.6821 24.4463 79.4418 24.775 79.1501C25.2474 78.7758 25.5578 78.2342 25.642 77.6375C25.7261 77.0407 25.5775 76.4344 25.227 75.9441C24.7841 75.3159 24.2926 74.7234 23.757 74.1721L20.064 70.1001C19.2266 69.1629 18.6837 67.9998 18.503 66.7561C18.3027 65.4059 18.5903 64.0284 19.314 62.8711C20.0887 61.4792 21.2419 60.3353 22.6402 59.5721C24.0384 58.8089 25.6243 58.4577 27.214 58.5591C28.1491 58.5945 29.0641 58.8408 29.8907 59.2796C30.7172 59.7184 31.4338 60.3383 31.987 61.0931L33.058 62.5131M66.558 78.1971L65.885 83.2971C65.8776 83.3442 65.8604 83.3893 65.8346 83.4294C65.8088 83.4695 65.7749 83.5038 65.735 83.5301C62.321 85.1111 57.825 84.8911 55.021 81.7071C54.2985 80.8932 53.7455 79.9433 53.3946 78.913C53.0436 77.8828 52.9016 76.7929 52.977 75.7071C53.1533 73.1154 54.2167 70.6635 55.9884 68.7638C57.7601 66.8641 60.1319 65.6325 62.705 65.2761C64.1267 65.0336 65.587 65.1641 66.9431 65.6548C68.2993 66.1456 69.5048 66.9799 70.442 68.0761C71.1209 68.8404 71.6424 69.7311 71.9769 70.6971C72.3113 71.6631 72.452 72.6856 72.391 73.7061C72.328 75.1061 72.108 76.4911 71.935 77.8911L71.16 83.7911C71.151 83.8611 71.137 83.9301 71.12 84.0171H67.037L67.199 82.6821L68.079 75.8701C68.2914 74.4642 68.0869 73.027 67.491 71.7361C67.1897 71.0843 66.7177 70.5261 66.1249 70.1209C65.5321 69.7156 64.8407 69.4783 64.124 69.4341C62.5819 69.2919 61.0407 69.7156 59.7878 70.626C58.535 71.5364 57.6561 72.8714 57.315 74.3821C57.0701 75.3202 57.1192 76.311 57.4558 77.2203C57.7924 78.1296 58.4002 78.9136 59.197 79.4661C59.9311 79.9514 60.7773 80.2405 61.6549 80.3058C62.5325 80.3711 63.4122 80.2104 64.21 79.8391C65.0989 79.4716 65.8958 78.9127 66.544 78.2021M83.744 65.6691L83.186 69.9041C82.323 69.9041 81.476 69.9041 80.63 69.9041C80.2952 69.9054 79.9691 70.0109 79.697 70.2061C79.425 70.4012 79.2205 70.6763 79.112 70.9931C79.0401 71.2522 78.9916 71.5173 78.967 71.7851L77.684 81.5411L77.364 84.0141H73.111L73.344 82.1791L74.177 75.8581L74.919 70.3911C75.1735 69.1451 75.8228 68.0144 76.7707 67.1667C77.7186 66.3189 78.9145 65.7994 80.181 65.6851L83.737 65.6791" fill="#3C3A3E"/>
<path d="M38.733 59.5031H39.787L39.538 57.9191L38.733 59.5031ZM39.952 60.5351H38.202L37.644 61.6271H36.402L39.143 56.4971H40.343L41.276 61.6151H40.118L39.953 60.5231" fill="#3C3A3E"/>
<path d="M46.228 57.537H45.603L45.393 58.719H46.017C46.1103 58.7229 46.2033 58.7067 46.2899 58.6716C46.3764 58.6365 46.4545 58.5833 46.5188 58.5156C46.5831 58.4479 46.6321 58.3672 46.6627 58.279C46.6933 58.1908 46.7046 58.097 46.696 58.004C46.702 57.9412 46.6941 57.8778 46.6728 57.8184C46.6514 57.759 46.6172 57.7051 46.5726 57.6604C46.528 57.6158 46.474 57.5816 46.4146 57.5602C46.3552 57.5389 46.2918 57.531 46.229 57.537H46.228ZM44.715 56.519H46.355C46.5459 56.5004 46.7386 56.523 46.9201 56.5852C47.1015 56.6474 47.2675 56.7478 47.4069 56.8797C47.5462 57.0115 47.6556 57.1717 47.7278 57.3495C47.7999 57.5272 47.8331 57.7184 47.825 57.91C47.8348 58.16 47.7919 58.4092 47.6992 58.6415C47.6066 58.8738 47.4661 59.0841 47.287 59.2587C47.1079 59.4333 46.8941 59.5683 46.6595 59.655C46.4248 59.7417 46.1746 59.7782 45.925 59.762H45.218L44.887 61.636H43.823L44.723 56.518" fill="#3C3A3E"/>
<path d="M51.447 59.5031H52.501L52.252 57.9191L51.447 59.5031ZM52.666 60.5351H50.916L50.358 61.6271H49.116L51.857 56.4971H53.057L53.99 61.6151H52.832L52.667 60.5231" fill="#3C3A3E"/>
<path d="M59.602 61.4441C59.2389 61.6139 58.8437 61.7039 58.443 61.7081C58.1445 61.7147 57.8478 61.6593 57.5717 61.5456C57.2957 61.4319 57.0461 61.2622 56.8389 61.0472C56.6316 60.8323 56.4712 60.5767 56.3676 60.2967C56.264 60.0166 56.2195 59.7181 56.237 59.4201C56.2435 58.6264 56.5617 57.8672 57.1229 57.306C57.6841 56.7448 58.4434 56.4266 59.237 56.4201C59.6089 56.4185 59.9752 56.5106 60.302 56.6881L60.152 57.9151C60.018 57.7761 59.8564 57.6668 59.6777 57.5941C59.4989 57.5215 59.3069 57.487 59.114 57.4931C58.6445 57.512 58.2002 57.7102 57.8726 58.047C57.545 58.3837 57.359 58.8333 57.353 59.3031C57.3379 59.4702 57.3577 59.6387 57.411 59.7979C57.4643 59.957 57.5501 60.1034 57.6629 60.2277C57.7756 60.352 57.913 60.4516 58.0662 60.5202C58.2194 60.5888 58.3851 60.6248 58.553 60.6261C58.9819 60.6245 59.3979 60.4786 59.734 60.2121L59.602 61.4321M66.135 59.5621H63.902L63.54 61.6241H62.473L63.373 56.5061H64.442L64.08 58.5421H66.308L66.67 56.5061H67.742L66.842 61.6241H65.771L66.133 59.5621M70.051 61.6251L70.951 56.5071H73.779L73.602 57.5251H71.841L71.66 58.5181H73.285L73.102 59.5491H71.468L71.287 60.5811H73.056L72.875 61.6131H70.038" fill="#3C3A3E"/>
</g>
<defs>
<clipPath id="clip0_6177_31429">
<rect width="128" height="128" fill="white"/>
</clipPath>
</defs>
</svg>
