<svg xmlns="http://www.w3.org/2000/svg" width="128" height="128" viewBox="0 0 128 128"><g transform="translate(-1709 -122)"><rect width="128" height="128" transform="translate(1709 122)" fill="none"/><g transform="translate(1712.737 157.752)"><g transform="translate(10.537 2.248)"><path d="M94.272,28.354l-.172-.364-3.747-7.1a.43.43,0,0,1,.062-.581l5.927-6.964a.645.645,0,0,0,.158-.313l-1.731.452L87.585,15.4a.33.33,0,0,1-.435-.19l-4.1-6.82a.928.928,0,0,0-.3-.331l-.339,1.815L81.277,16.29l-.118.693c-.019.221-.132.3-.331.365l-8.463,2.675a1.036,1.036,0,0,0-.378.21L78.944,23l-.2.161-4.327,2.8a.458.458,0,0,1-.5.041l-5.178-2.308a5.328,5.328,0,0,1-2.013-1.47,2.67,2.67,0,0,1,.65-4.251,7.714,7.714,0,0,1,1.748-.8l8.314-2.641a.476.476,0,0,0,.385-.43l1.138-6.414a11.289,11.289,0,0,1,.871-3.362A6.255,6.255,0,0,1,80.6,3.2a2.467,2.467,0,0,1,3.8-.105,7.212,7.212,0,0,1,1.023,1.332l3.8,6.3a.407.407,0,0,0,.557.226L99.054,8.49a4.344,4.344,0,0,1,1.94-.107,1.911,1.911,0,0,1,1.568,2.732,5.291,5.291,0,0,1-1.025,1.659l-6.46,7.632a.444.444,0,0,0-.059.588l3.862,7.322a4.073,4.073,0,0,1,.55,1.862,3,3,0,0,1-2.617,3,5.6,5.6,0,0,1-2.434-.3L88.553,31.1a.328.328,0,0,1-.281-.319l-.7-4.1a.808.808,0,0,1,.011-.162l6.691,1.846" transform="translate(-3.271 -2.248)" fill="#e25a1c" fill-rule="evenodd"/><g transform="translate(0 20.547)"><path d="M95.923,45.806l-5.248,0a.509.509,0,0,1-.491-.264L83.7,35.72,82.377,45.78H77.8l.158-1.308,2.636-20.021a.419.419,0,0,1,.158-.271L85.5,21.126a.738.738,0,0,1,.136-.04L84.206,31.974l.057.038,7.5-8.31L92.5,27.96a.49.49,0,0,1-.156.483l-4.8,5.047-.226.226.147.233,8.28,11.617c.05.07.122.113.184.188v.061M41.628,35.75a10.751,10.751,0,0,0-.278-1.371,4.735,4.735,0,0,0-5.709-3.08,6.365,6.365,0,0,0-5.013,5.622,4.567,4.567,0,0,0,2.994,4.839,5.4,5.4,0,0,0,4.8-.547,6.362,6.362,0,0,0,3.212-5.463ZM29.52,44.536l-.393,2.939-.5,3.83c-.019.149-.064.226-.224.226l-3.775-.006a.486.486,0,0,1-.113-.034l.23-1.81.837-6.351.99-7.257a11.365,11.365,0,0,1,8.583-8.842,8.89,8.89,0,0,1,6.957,1.1,7.78,7.78,0,0,1,3.647,5.9,10.394,10.394,0,0,1-3.443,8.959,10.68,10.68,0,0,1-5.938,2.969,8.732,8.732,0,0,1-6.561-1.43c-.074-.051-.152-.1-.277-.174" transform="translate(-8.703 -20.324)" fill="#3c3a3e" fill-rule="evenodd"/><path d="M29.3,24.387l-4.138,3.08-.648-1.016a3.185,3.185,0,0,0-2.4-1.523,2.681,2.681,0,0,0-2.258.888,1.578,1.578,0,0,0-.106,2.085c.558.73,1.168,1.423,1.792,2.1l3.14,3.323A7,7,0,0,1,26.594,36.9a7.284,7.284,0,0,1-.846,4.715,8.966,8.966,0,0,1-6.783,4.771,8.9,8.9,0,0,1-3.979-.21,5.851,5.851,0,0,1-3.715-3.25c-.274-.566-.484-1.165-.733-1.774l4.487-2.4.136.326a10.571,10.571,0,0,0,.792,1.523,3.047,3.047,0,0,0,3.985,1.128,4.366,4.366,0,0,0,1.1-.713,2.348,2.348,0,0,0,.452-3.206,14.708,14.708,0,0,0-1.47-1.772l-3.693-4.072a6.4,6.4,0,0,1-1.561-3.344,5.739,5.739,0,0,1,.811-3.885,8.427,8.427,0,0,1,7.9-4.312,6.209,6.209,0,0,1,4.773,2.534l1.071,1.42m33.5,15.684-.673,5.1a.343.343,0,0,1-.15.233c-3.414,1.581-7.91,1.361-10.714-1.823a8.184,8.184,0,0,1-2.044-6,11.305,11.305,0,0,1,9.728-10.431,8.335,8.335,0,0,1,7.737,2.8,7.779,7.779,0,0,1,1.949,5.63c-.063,1.4-.283,2.785-.456,4.185l-.775,5.9c-.009.07-.023.139-.04.226H63.3l.162-1.335.88-6.812a7.272,7.272,0,0,0-.588-4.134A3.979,3.979,0,0,0,60.387,31.3a6.38,6.38,0,0,0-6.809,4.948,4.732,4.732,0,0,0,1.882,5.084,5.15,5.15,0,0,0,5.013.373,6.543,6.543,0,0,0,2.334-1.637m17.2-12.533-.558,4.235c-.863,0-1.71,0-2.556,0a1.611,1.611,0,0,0-1.518,1.089,4.492,4.492,0,0,0-.145.792l-1.283,9.756-.32,2.473H69.374l.233-1.835.833-6.321.742-5.467a5.913,5.913,0,0,1,5.262-4.706L80,27.545" transform="translate(-10.537 -20.413)" fill="#3c3a3e" fill-rule="evenodd"/></g></g><g transform="translate(32.662 20.672)"><path d="M32.431,21.607h1.054l-.249-1.584Zm1.219,1.032H31.9l-.558,1.092H30.1l2.741-5.13h1.2l.933,5.118H33.816l-.165-1.092" transform="translate(-30.097 -18.528)" fill="#3c3a3e"/><path d="M39.065,19.638H38.44l-.21,1.182h.624a.655.655,0,0,0,.679-.715.428.428,0,0,0-.467-.467ZM37.552,18.62h1.64a1.341,1.341,0,0,1,1.47,1.391,1.786,1.786,0,0,1-1.9,1.852h-.707l-.331,1.874H36.66l.9-5.118" transform="translate(-29.236 -18.525)" fill="#3c3a3e"/><path d="M32.431,21.607h1.054l-.249-1.584Zm1.219,1.032H31.9l-.558,1.092H30.1l2.741-5.13h1.2l.933,5.118H33.816l-.165-1.092" transform="translate(-17.383 -18.528)" fill="#3c3a3e"/><path d="M51,23.556a2.805,2.805,0,0,1-1.159.264,2.162,2.162,0,0,1-2.206-2.288,3.025,3.025,0,0,1,3-3A2.212,2.212,0,0,1,51.7,18.8l-.15,1.227a1.382,1.382,0,0,0-1.038-.422,1.835,1.835,0,0,0-1.761,1.81,1.214,1.214,0,0,0,1.2,1.323,1.912,1.912,0,0,0,1.181-.414L51,23.544m6.533-1.87H55.3l-.362,2.062H53.871l.9-5.118h1.069l-.362,2.036h2.228l.362-2.036H59.14l-.9,5.118H57.169l.362-2.062m3.918,2.063.9-5.118h2.828L65,19.637H63.239l-.181.993h1.625L64.5,21.661H62.866l-.181,1.032h1.769l-.181,1.032H61.436" transform="translate(-27.797 -18.536)" fill="#3c3a3e"/></g></g></g></svg>