<svg xmlns="http://www.w3.org/2000/svg" width="128" height="128" viewBox="0 0 128 128"><g transform="translate(-821 -122)"><rect width="128" height="128" transform="translate(821 122)" fill="none"/><g transform="translate(853.907 139.787)"><g transform="translate(0 -0.002)"><path d="M56.676,44.468a4.35,4.35,0,1,0-8.7,0,4,4,0,0,0,2.769,3.7v6.626A22.14,22.14,0,0,0,40.727,43.41c.667-1.45,1.348-2.7,2-3.842a95.444,95.444,0,0,1,8.221-10.5c1.638-1.943,3.19-3.77,4.451-5.365,3.538-4.437,7.423-10.99,6.7-14.876a3.712,3.712,0,0,0-1.812-2.624c-4.915-2.9-11.6,6.524-18.167,15.615-4.35,6-6.6,14.5-7.626,19.269a28.8,28.8,0,0,0-6.133-.667,27.011,27.011,0,0,0-8.815,1.45,123.44,123.44,0,0,1,.478-15.949c1.45-13.788.812-21.879-1.87-24.648A3.523,3.523,0,0,0,15.311,0C7.394.392,8.293,24.04,8.424,26.736c.319,6.466,2.9,14.325,4.466,18.674A22.386,22.386,0,0,0,5.278,56.734H4.712A4.509,4.509,0,0,0,0,61.084v7.5a4.524,4.524,0,0,0,4.712,4.35h.957a19.341,19.341,0,0,0,4.77,6.713l-1.45,1.276A1.7,1.7,0,0,0,8.8,83.3c4.35,5.292,11.469,8.322,19.457,8.322s15.137-3.03,19.457-8.322a1.7,1.7,0,0,0-.188-2.378l-1.45-1.276a19.66,19.66,0,0,0,4.77-6.829h1.087a4.524,4.524,0,0,0,4.712-4.35V61.026a4.263,4.263,0,0,0-2.769-3.886V48.166a3.987,3.987,0,0,0,2.8-3.7Z" transform="translate(0 0.002)" fill="#cdcccc"/><path d="M19.541,80.646c1.334-.884-2.175-.551-2.465-1.145a23.908,23.908,0,0,1-4.147-.739c-2.465-.652-8.38-4.625-9.018-8.438s0-11.048,2.668-15.4a24.952,24.952,0,0,1,6.35-6.814S7.753,35.8,7.318,26.508,7.608.671,13.669.381s5.176,15.195,4.147,25.271a131.346,131.346,0,0,0-.29,20.124A28.606,28.606,0,0,1,25.5,44.443a30.621,30.621,0,0,1,7.1.667s1.928-14.267,8.279-23.2S53.932,3.861,58.281,6.456s-1.189,11.86-5.031,16.688-10.5,12.077-12.715,15.949a67.551,67.551,0,0,0-3.842,7.989,21.647,21.647,0,0,1,9.265,9.163c3.132,6.249,3.364,13.933,1.682,17.2a11.715,11.715,0,0,1-8.134,5.8c-1.928.087-10.033,2.1-10.033,2.1Z" transform="translate(1.657 0.172)" fill="#fff"/><path d="M24.41,41.009s4.843-12.628,9.178-19.718S43.737,8.836,45.564,9.924s-3.726,7.713-8.6,14.223A164.474,164.474,0,0,0,26.193,42.1Z" transform="translate(10.981 4.403)" fill="#dd00a1"/><path d="M12.289,44.768l1.45-1.073s-.2-12.628,0-20.3S14.333,6.143,11.767,6.23s-4.35,7.5-3.349,17.949a126.821,126.821,0,0,0,3.871,20.588Z" transform="translate(3.66 2.805)" fill="#dd00a1"/><circle cx="2.813" cy="2.813" r="2.813" transform="translate(8.815 69.016)" fill="#f9d8d2"/><circle cx="2.813" cy="2.813" r="2.813" transform="translate(42.061 69.016)" fill="#f9d8d2"/><path d="M25.669,51.024a.261.261,0,0,0-.362.1s-.841,1.45-2.059,1.537a3.03,3.03,0,0,1-2.175-1.015V49.5c.783-.435,2.044-1.74,2.044-2.189a2.044,2.044,0,0,0-2.16-1.58c-1.45,0-2.465.942-2.465,1.725s1.595,1.8,2.044,2.088v2.117a2.639,2.639,0,0,1-1.9,1c-1.145,0-2.015-1.566-2.03-1.58a.275.275,0,0,0-.362-.116.29.29,0,0,0-.116.377s1.029,1.87,2.508,1.87a3.074,3.074,0,0,0,2.189-1.058,3.436,3.436,0,0,0,2.291,1.058h.174a3.61,3.61,0,0,0,2.479-1.827.261.261,0,0,0-.1-.362Z" transform="translate(7.243 20.573)" fill="#10110e"/><path d="M11.838,46.843S7.822,36.694,7.054,31.388,5.6,17.222,6.619,11.321A72.5,72.5,0,0,1,8.388,3.26S6.517,17.019,7.213,23.036,11.838,46.843,11.838,46.843Z" transform="translate(2.747 1.469)" fill="#e5e5e5"/><path d="M23.63,43.156s2.9-15.354,7.119-21.386S40.2,8.417,42.855,6.576L45.509,4.72s-10.642,11.164-14.76,20.3S23.63,43.156,23.63,43.156Z" transform="translate(10.631 2.126)" fill="#e5e5e5"/><path d="M12.688,43.23a2.2,2.2,0,1,0,2.189,2.2,2.2,2.2,0,0,0-2.189-2.2Zm.623,2.044a.633.633,0,1,0-.029,0Z" transform="translate(4.71 19.45)" fill="#10110e"/><path d="M27.6,43.23a2.2,2.2,0,1,0,2.2,2.2,2.2,2.2,0,0,0-2.2-2.2Zm.623,2.044a.557.557,0,1,1,.609-.594A.609.609,0,0,1,28.227,45.274Z" transform="translate(11.427 19.45)" fill="#10110e"/><ellipse cx="20.443" cy="14.731" rx="20.443" ry="14.731" transform="translate(8.163 50.98)" fill="#8accce" opacity="0.2"/><path d="M53.189,44.808V35.137a3.552,3.552,0,0,0,2.784-3.306,3.842,3.842,0,0,0-7.641,0A3.538,3.538,0,0,0,51.1,35.137v9.424h-.275C47.926,34.5,39.357,28.25,28.179,28.25S8.373,34.441,5.517,44.561H4.546A3.987,3.987,0,0,0,.37,48.316v7.5a3.987,3.987,0,0,0,4.176,3.741H5.865a19.008,19.008,0,0,0,5.22,7.38L9.2,68.614a1.145,1.145,0,0,0-.13,1.624c4.234,5.118,11.179,8.119,19.037,8.119s14.8-2.9,19.037-8.119a1.145,1.145,0,0,0-.13-1.624l-1.885-1.682a19.341,19.341,0,0,0,5.22-7.38H51.8a3.987,3.987,0,0,0,4.176-3.741v-7.5A3.8,3.8,0,0,0,53.189,44.808Zm-25.01-5.872c10.352,0,18.761,6.814,18.761,15.18,0,9.062-9.453,13.049-18.761,13.049S9.417,63.1,9.417,54.116C9.417,45.75,17.826,38.936,28.179,38.936Z" transform="translate(0.166 12.711)" fill="#fff"/><path d="M38.315,47.664H35.531V46.3a28.055,28.055,0,0,0-.551-5.51h1.174a1.957,1.957,0,0,1,2.088,1.885Z" transform="translate(15.737 18.351)" fill="#515151"/><path d="M36.29,49.517H34.84a24.2,24.2,0,0,0,.623-3.117h2.9v1.247a1.943,1.943,0,0,1-2.073,1.87Z" transform="translate(15.674 20.876)" fill="#515151"/><path d="M24.836,64.175c-6.959,0-13.136-2.508-17.036-6.945l1.957-1.74a25.9,25.9,0,0,0,15.079,4.35,25.938,25.938,0,0,0,15.079-4.35l1.943,1.74C37.972,61.666,31.781,64.175,24.836,64.175Z" transform="translate(3.509 24.966)" fill="#515151"/><path d="M3.875,40.792H5.122a28.5,28.5,0,0,0-.551,5.51,8.96,8.96,0,0,0,0,1.363H1.86V42.677a1.856,1.856,0,0,1,2.015-1.885Z" transform="translate(0.837 18.35)" fill="#515151"/><path d="M21.709,37.086a25.227,25.227,0,0,0-6.959,1V30.533a24.851,24.851,0,0,1,6.959-.942,24.822,24.822,0,0,1,6.945.942v7.612a23.2,23.2,0,0,0-6.945-1.058Z" transform="translate(6.636 13.314)"/><path d="M17.9,30.54v7.626C10.939,40.718,6.082,46.474,6.082,53.086c0,8.569,8.134,14.368,20.153,14.368s20.153-5.8,20.153-14.368c0-6.611-4.872-12.367-11.816-14.919V30.54c8.134,2.9,13.208,10.425,13.208,20.429,0,11.251-8.627,18.848-21.545,18.848S4.69,62.263,4.69,50.969C4.69,40.965,9.765,33.469,17.9,30.54Z" transform="translate(2.11 13.741)" fill="#515151"/><path d="M1.814,46.4h2.9a21.966,21.966,0,0,0,.623,3.117H3.888A1.957,1.957,0,0,1,1.8,47.647Z" transform="translate(0.81 20.876)" fill="#515151"/><ellipse cx="1.74" cy="1.566" rx="1.74" ry="1.566" transform="translate(50.572 42.904)" fill="#515151"/></g></g></g></svg>