<svg width="128" height="128" viewBox="0 0 128 128" fill="none" xmlns="http://www.w3.org/2000/svg">
<g clip-path="url(#clip0_6177_31443)">
<path d="M89.583 62.2551C89.583 61.1014 89.1247 59.9949 88.3089 59.1792C87.4931 58.3634 86.3867 57.9051 85.233 57.9051C84.0793 57.9051 82.9728 58.3634 82.1571 59.1792C81.3413 59.9949 80.883 61.1014 80.883 62.2551C80.905 63.0825 81.1831 63.8827 81.6791 64.5454C82.175 65.2081 82.8643 65.7006 83.652 65.9551V72.5811C81.7568 67.7255 78.2093 63.6942 73.634 61.1971C74.301 59.7471 74.982 58.4971 75.634 57.3551C78.1262 53.6677 80.8732 50.1591 83.855 46.8551C85.493 44.9121 87.045 43.0851 88.306 41.4901C91.844 37.0531 95.729 30.5001 95.006 26.6141C94.9179 26.0695 94.7096 25.5515 94.3961 25.0976C94.0827 24.6437 93.672 24.2653 93.194 23.9901C88.279 21.0901 81.594 30.5141 75.027 39.6051C70.677 45.6051 68.427 54.1051 67.401 58.8741C65.3864 58.4328 63.3303 58.2092 61.268 58.2071C58.2695 58.1978 55.2905 58.6878 52.453 59.6571C52.2682 54.336 52.4279 49.0085 52.931 43.7081C54.381 29.9201 53.743 21.8291 51.061 19.0601C50.7164 18.6441 50.2808 18.313 49.7878 18.0923C49.2949 17.8716 48.7577 17.7671 48.218 17.7871C40.301 18.1791 41.2 41.8271 41.331 44.5231C41.65 50.9891 44.231 58.8481 45.797 63.1971C42.1431 66.0877 39.4821 70.0463 38.185 74.5211H37.619C37.0231 74.4939 36.4278 74.5852 35.8675 74.7896C35.3072 74.9941 34.7931 75.3077 34.3548 75.7123C33.9165 76.1169 33.5629 76.6044 33.3144 77.1466C33.0659 77.6888 32.9274 78.275 32.907 78.8711V86.3711C32.9294 86.9665 33.0692 87.5517 33.3184 88.093C33.5676 88.6343 33.9212 89.121 34.3591 89.5252C34.7969 89.9294 35.3103 90.2431 35.8697 90.4483C36.4292 90.6536 37.0236 90.7463 37.619 90.7211H38.576C39.6656 93.2752 41.2925 95.5648 43.346 97.4341L41.896 98.7101C41.5589 99.0023 41.3502 99.4152 41.3149 99.8599C41.2795 100.305 41.4203 100.745 41.707 101.087C46.057 106.379 53.176 109.409 61.164 109.409C69.152 109.409 76.301 106.379 80.621 101.087C80.9081 100.745 81.0493 100.304 81.0141 99.8596C80.9789 99.4147 80.7702 99.0014 80.433 98.7091L78.983 97.4331C81.0425 95.5236 82.669 93.195 83.753 90.6041H84.84C85.4353 90.6293 86.0298 90.5366 86.5892 90.3314C87.1487 90.1261 87.6621 89.8124 88.0999 89.4082C88.5377 89.004 88.8914 88.5173 89.1406 87.976C89.3898 87.4347 89.5296 86.8495 89.552 86.2541V78.8131C89.5306 77.9631 89.2555 77.1388 88.7621 76.4464C88.2687 75.7539 87.5794 75.2248 86.783 74.9271V65.9531C87.5774 65.7056 88.2746 65.2159 88.7767 64.5523C89.2788 63.8888 89.5607 63.0849 89.583 62.2531V62.2551Z" fill="#CDCCCC"/>
<path d="M54.1049 98.6031C55.4389 97.7191 51.9299 98.0521 51.6399 97.4581C50.2386 97.3343 48.8508 97.087 47.4929 96.7191C45.0279 96.0671 39.1129 92.0941 38.4749 88.2811C37.8369 84.4681 38.4749 77.2331 41.1429 72.8811C42.8132 70.2314 44.9674 67.9198 47.4929 66.0671C47.4929 66.0671 42.3169 53.7571 41.8819 44.4651C41.4469 35.1731 42.1719 18.6281 48.2329 18.3381C54.2939 18.0481 53.4089 33.5331 52.3799 43.6091C51.7687 50.2998 51.6718 57.0276 52.0899 63.7331C54.6714 62.9135 57.3562 62.4647 60.0639 62.4001C62.4485 62.3452 64.8313 62.569 67.1639 63.0671C67.1639 63.0671 69.0919 48.8001 75.4429 39.8671C81.7939 30.9341 88.4959 21.8181 92.8449 24.4131C97.1939 27.0081 91.6559 36.2731 87.8139 41.1011C83.9719 45.9291 77.3139 53.1781 75.0989 57.0501C73.6447 59.6261 72.3613 62.2949 71.2569 65.0391C75.2131 67.0694 78.448 70.2687 80.5219 74.2021C83.6539 80.4511 83.8859 88.1351 82.2039 91.4021C81.3595 92.9087 80.1924 94.2099 78.7862 95.2126C77.38 96.2153 75.7695 96.8947 74.0699 97.2021C72.1419 97.2891 64.0369 99.3021 64.0369 99.3021L54.1049 98.6031Z" fill="white"/>
<path d="M68.298 63.1971C68.298 63.1971 73.141 50.5691 77.476 43.4791C81.811 36.3891 87.625 31.0241 89.452 32.1121C91.279 33.2001 85.726 39.8251 80.852 46.3351C76.884 52.0846 73.2864 58.0811 70.081 64.2881L68.298 63.1971Z" fill="#DD00A1"/>
<path d="M48.856 65.358L50.306 64.285C50.306 64.285 50.106 51.657 50.306 43.985C50.506 36.313 50.9 26.733 48.334 26.82C45.768 26.907 43.984 34.32 44.985 44.769C45.7054 51.7267 47.0001 58.6129 48.856 65.357V65.358Z" fill="#DD00A1"/>
<path d="M44.5349 92.427C46.0885 92.427 47.3479 91.1676 47.3479 89.614C47.3479 88.0604 46.0885 86.801 44.5349 86.801C42.9813 86.801 41.7219 88.0604 41.7219 89.614C41.7219 91.1676 42.9813 92.427 44.5349 92.427Z" fill="#F9D8D2"/>
<path d="M77.781 92.427C79.3346 92.427 80.594 91.1676 80.594 89.614C80.594 88.0604 79.3346 86.801 77.781 86.801C76.2274 86.801 74.968 88.0604 74.968 89.614C74.968 91.1676 76.2274 92.427 77.781 92.427Z" fill="#F9D8D2"/>
<path d="M65.8189 89.3821C65.7888 89.3642 65.7553 89.3527 65.7206 89.3481C65.6858 89.3434 65.6505 89.3459 65.6167 89.3552C65.5829 89.3645 65.5514 89.3806 65.5239 89.4024C65.4965 89.4242 65.4737 89.4513 65.4569 89.4821C65.4569 89.4821 64.6159 90.9321 63.3979 91.0191C62.9854 91.0069 62.5797 90.9106 62.2056 90.7361C61.8316 90.5616 61.4972 90.3125 61.2229 90.0041V87.8581C62.0059 87.4231 63.2669 86.1181 63.2669 85.6691C63.157 85.19 62.8782 84.7666 62.4815 84.4764C62.0848 84.1862 61.5968 84.0487 61.1069 84.0891C59.6569 84.0891 58.6419 85.0311 58.6419 85.8141C58.6419 86.5971 60.2369 87.6141 60.6859 87.9021V90.0191C60.457 90.3096 60.1696 90.5487 59.8422 90.721C59.5149 90.8933 59.155 90.9948 58.7859 91.0191C57.6409 91.0191 56.7709 89.4531 56.7559 89.4391C56.7221 89.3768 56.6656 89.33 56.5982 89.3084C56.5308 89.2868 56.4576 89.2921 56.3939 89.3231C56.3306 89.3597 56.2835 89.4189 56.262 89.4888C56.2405 89.5587 56.2462 89.6342 56.2779 89.7001C56.2779 89.7001 57.3069 91.5701 58.7859 91.5701C59.2036 91.5518 59.6131 91.4486 59.9895 91.2667C60.3659 91.0848 60.7012 90.828 60.9749 90.5121C61.5768 91.1425 62.3957 91.5207 63.2659 91.5701H63.4399C63.9623 91.4672 64.4554 91.25 64.884 90.9341C65.3126 90.6183 65.666 90.2115 65.9189 89.7431C65.9368 89.7129 65.9483 89.6794 65.9529 89.6447C65.9575 89.6099 65.9551 89.5746 65.9458 89.5408C65.9365 89.507 65.9204 89.4755 65.8986 89.448C65.8768 89.4206 65.8497 89.3988 65.8189 89.3821Z" fill="#10110E"/>
<path d="M47.492 66.097C47.492 66.097 43.476 55.948 42.708 50.642C41.94 45.336 41.254 36.476 42.273 30.575C42.7091 27.8566 43.2997 25.1653 44.042 22.514C44.042 22.514 42.171 36.273 42.867 42.29C43.563 48.307 47.492 66.097 47.492 66.097Z" fill="#E5E5E5"/>
<path d="M67.168 63.0671C67.168 63.0671 70.068 47.7131 74.287 41.6811C78.506 35.6491 83.738 28.3281 86.393 26.4871L89.047 24.6311C89.047 24.6311 78.405 35.7951 74.287 44.9311C70.169 54.0671 67.168 63.0671 67.168 63.0671Z" fill="#E5E5E5"/>
<path d="M50.305 80.4651C49.8694 80.4629 49.443 80.5901 49.0798 80.8305C48.7165 81.0709 48.4328 81.4138 48.2646 81.8156C48.0964 82.2174 48.0513 82.6601 48.1349 83.0875C48.2186 83.515 48.4272 83.908 48.7345 84.2168C49.0417 84.5256 49.4337 84.7362 49.8607 84.822C50.2878 84.9078 50.7307 84.8649 51.1333 84.6987C51.536 84.5325 51.8802 84.2505 52.1225 83.8885C52.3647 83.5265 52.494 83.1007 52.494 82.6651C52.494 82.0835 52.2637 81.5256 51.8535 81.1134C51.4433 80.7011 50.8866 80.468 50.305 80.4651ZM50.928 82.5091C51.0946 82.5053 51.2529 82.436 51.3687 82.3161C51.4845 82.1963 51.5484 82.0356 51.5465 81.869C51.5445 81.7024 51.477 81.5433 51.3585 81.4261C51.24 81.309 51.0801 81.2433 50.9135 81.2433C50.7469 81.2433 50.587 81.309 50.4685 81.4261C50.35 81.5433 50.2824 81.7024 50.2805 81.869C50.2786 82.0356 50.3425 82.1963 50.4583 82.3161C50.5741 82.436 50.7324 82.5053 50.899 82.5091H50.928Z" fill="#10110E"/>
<path d="M71.934 80.4651C71.4989 80.4651 71.0735 80.5941 70.7118 80.8359C70.35 81.0776 70.068 81.4212 69.9015 81.8232C69.735 82.2252 69.6914 82.6675 69.7763 83.0943C69.8612 83.521 70.0707 83.913 70.3784 84.2207C70.6861 84.5284 71.0781 84.7379 71.5048 84.8228C71.9316 84.9077 72.3739 84.8641 72.7759 84.6976C73.1779 84.5311 73.5215 84.2491 73.7632 83.8873C74.005 83.5256 74.134 83.1002 74.134 82.6651C74.134 82.0816 73.9022 81.522 73.4896 81.1095C73.0771 80.6969 72.5175 80.4651 71.934 80.4651ZM72.557 82.5091C72.4513 82.4989 72.3507 82.4587 72.2671 82.3932C72.1834 82.3278 72.1203 82.2398 72.085 82.1396C72.0498 82.0394 72.0439 81.9312 72.068 81.8278C72.0922 81.7244 72.1455 81.6301 72.2215 81.5559C72.2975 81.4818 72.3932 81.4309 72.4972 81.4093C72.6011 81.3877 72.7091 81.3963 72.8084 81.434C72.9077 81.4718 72.9941 81.5371 73.0574 81.6224C73.1208 81.7076 73.1585 81.8092 73.166 81.9151C73.1621 82.0733 73.0968 82.2238 72.9839 82.3347C72.8709 82.4455 72.7193 82.5081 72.561 82.5091H72.557Z" fill="#10110E"/>
<path opacity="0.2" d="M61.5129 98.227C72.8033 98.227 81.9559 91.6317 81.9559 83.496C81.9559 75.3603 72.8033 68.765 61.5129 68.765C50.2226 68.765 41.0699 75.3603 41.0699 83.496C41.0699 91.6317 50.2226 98.227 61.5129 98.227Z" fill="#8ACCCE"/>
<path d="M86.262 75.3041V65.6331C87.0251 65.465 87.7114 65.0499 88.2147 64.4523C88.718 63.8546 89.0102 63.1076 89.046 62.3271C88.9458 61.3837 88.5001 60.5108 87.7947 59.8764C87.0893 59.242 86.1742 58.891 85.2255 58.891C84.2768 58.891 83.3617 59.242 82.6563 59.8764C81.9509 60.5108 81.5052 61.3837 81.405 62.3271C81.4376 63.1062 81.7266 63.8526 82.2272 64.4505C82.7278 65.0483 83.4118 65.4641 84.173 65.6331V75.0571H83.898C80.999 64.9961 72.43 58.7461 61.252 58.7461C50.074 58.7461 41.446 64.9371 38.59 75.0571H37.619C36.5683 75.0055 35.5399 75.3712 34.7577 76.0746C33.9755 76.7779 33.5029 77.7619 33.443 78.8121V86.3121C33.5065 87.3598 33.9806 88.3402 34.7624 89.0406C35.5442 89.741 36.5706 90.1048 37.619 90.0531H38.938C40.0592 92.8971 41.8499 95.4286 44.158 97.4331L42.273 99.1101C42.157 99.2076 42.0616 99.3273 41.9922 99.462C41.9228 99.5967 41.8808 99.7439 41.8687 99.8949C41.8566 100.046 41.8746 100.198 41.9217 100.342C41.9688 100.486 42.044 100.619 42.143 100.734C46.377 105.852 53.322 108.853 61.18 108.853C69.038 108.853 75.98 105.953 80.217 100.734C80.316 100.619 80.3912 100.486 80.4383 100.342C80.4853 100.198 80.5034 100.046 80.4913 99.8949C80.4792 99.7439 80.4372 99.5967 80.3678 99.462C80.2984 99.3273 80.203 99.2076 80.087 99.1101L78.202 97.4281C80.5005 95.415 82.2894 92.8859 83.422 90.0481H84.873C85.9214 90.0998 86.9478 89.736 87.7296 89.0356C88.5114 88.3352 88.9855 87.3548 89.049 86.3071V78.8071C89.015 78.0034 88.7269 77.2312 88.2261 76.6017C87.7252 75.9722 87.0375 75.5178 86.262 75.3041ZM61.252 69.4321C71.604 69.4321 80.013 76.2461 80.013 84.6121C80.013 93.6741 70.56 97.6611 61.252 97.6611C51.944 97.6611 42.49 93.5961 42.49 84.6121C42.49 76.2461 50.899 69.4321 61.252 69.4321Z" fill="white"/>
<path d="M86.959 83.8001H84.175V82.4361C84.1735 80.5858 83.9889 78.7401 83.624 76.9261H84.798C85.0599 76.9084 85.3226 76.9435 85.5706 77.0294C85.8186 77.1153 86.0468 77.2501 86.2416 77.426C86.4364 77.6019 86.5938 77.8151 86.7045 78.0531C86.8152 78.291 86.877 78.5488 86.886 78.8111L86.959 83.8001Z" fill="#515151"/>
<path d="M84.871 88.178H83.421C83.6968 87.1538 83.9049 86.1126 84.044 85.061H86.944V86.308C86.9348 86.5683 86.8734 86.8241 86.7634 87.0601C86.6534 87.2962 86.4971 87.5078 86.3037 87.6822C86.1103 87.8566 85.8838 87.9904 85.6377 88.0756C85.3916 88.1608 85.1309 88.1956 84.871 88.178Z" fill="#515151"/>
<path d="M61.2519 106.926C54.2929 106.926 48.1159 104.418 44.2159 99.9811L46.1729 98.2411C50.6284 101.216 55.8967 102.735 61.2519 102.591C66.6069 102.733 71.8744 101.213 76.3309 98.2411L78.2739 99.9811C74.3879 104.417 68.1969 106.926 61.2519 106.926Z" fill="#515151"/>
<path d="M37.619 76.927H38.866C38.5039 78.7414 38.3194 80.5868 38.315 82.437C38.2804 82.8907 38.2804 83.3463 38.315 83.8H35.604V78.812C35.599 78.5519 35.6487 78.2936 35.7499 78.0539C35.8512 77.8142 36.0017 77.5985 36.1917 77.4208C36.3817 77.243 36.607 77.1072 36.8528 77.0222C37.0987 76.9371 37.3598 76.9047 37.619 76.927Z" fill="#515151"/>
<path d="M61.252 68.1851C58.897 68.192 56.5546 68.5286 54.293 69.1851V61.6321C56.5564 60.9903 58.8994 60.6731 61.252 60.6901C63.5999 60.6741 65.9382 60.9912 68.197 61.6321V69.2441C65.9491 68.5409 63.6073 68.1842 61.252 68.1861V68.1851Z" fill="black"/>
<path d="M52.917 62.066V69.692C45.956 72.244 41.099 78 41.099 84.612C41.099 93.181 49.233 98.98 61.252 98.98C73.271 98.98 81.405 93.18 81.405 84.612C81.405 78.001 76.533 72.245 69.589 69.693V62.066C77.723 64.966 82.797 72.491 82.797 82.495C82.797 93.746 74.17 101.343 61.252 101.343C48.334 101.343 39.707 93.789 39.707 82.495C39.707 72.491 44.782 64.995 52.917 62.066Z" fill="#515151"/>
<path d="M35.531 85.061H38.431C38.5631 86.1137 38.7713 87.1554 39.054 88.178H37.605C37.3443 88.1958 37.0828 88.1611 36.8358 88.0762C36.5887 87.9912 36.3612 87.8576 36.1666 87.6834C35.972 87.5091 35.8143 87.2976 35.7027 87.0614C35.5911 86.8252 35.528 86.569 35.517 86.308L35.531 85.061Z" fill="#515151"/>
<path d="M85.219 63.8211C86.18 63.8211 86.959 63.12 86.959 62.2551C86.959 61.3902 86.18 60.6891 85.219 60.6891C84.258 60.6891 83.479 61.3902 83.479 62.2551C83.479 63.12 84.258 63.8211 85.219 63.8211Z" fill="#515151"/>
</g>
<defs>
<clipPath id="clip0_6177_31443">
<rect width="128" height="128" fill="white"/>
</clipPath>
</defs>
</svg>
