<svg xmlns="http://www.w3.org/2000/svg" width="128" height="128" viewBox="0 0 128 128"><g transform="translate(-1117 -122)"><rect width="128" height="128" transform="translate(1117 122)" fill="none"/><g transform="translate(1135.778 141.104)"><path d="M87.3,9.8,68.653.817A5.638,5.638,0,0,0,62.22,1.91L1.17,57.574a3.771,3.771,0,0,0,0,5.577L6.16,67.685a3.771,3.771,0,0,0,4.816.214L84.5,12.126A3.745,3.745,0,0,1,90.5,15.11v-.217A5.657,5.657,0,0,0,87.3,9.8Z" transform="translate(0 0)" fill="#0065a9"/><g transform="translate(-0.061 21.894)"><path d="M87.3,83.032,68.653,92.011a5.638,5.638,0,0,1-6.432-1.093L1.17,35.254a3.771,3.771,0,0,1,0-5.577L6.16,25.143a3.771,3.771,0,0,1,4.816-.214L84.5,80.7A3.745,3.745,0,0,0,90.5,77.718v.217A5.657,5.657,0,0,1,87.3,83.032Z" transform="translate(0.061 -24.162)" fill="#007acc"/></g><g transform="translate(62.22 0.258)"><path d="M75.183,89.744a5.64,5.64,0,0,1-6.433-1.095,3.314,3.314,0,0,0,5.657-2.343V4.253A3.314,3.314,0,0,0,68.75,1.91,5.641,5.641,0,0,1,75.183.815L93.829,9.782a5.657,5.657,0,0,1,3.205,5.1v60.8a5.657,5.657,0,0,1-3.205,5.1Z" transform="translate(-68.75 -0.258)" fill="#1f9cf0"/></g><g transform="translate(-0.061 0.258)" opacity="0.25"><path d="M64.122,89.917a5.633,5.633,0,0,0,4.49-.173l18.635-8.967a5.657,5.657,0,0,0,3.2-5.1V14.88a5.657,5.657,0,0,0-3.2-5.1L68.612.815A5.633,5.633,0,0,0,62.182,1.91L26.509,34.456,10.97,22.661a3.767,3.767,0,0,0-4.813.214L1.173,27.408a3.773,3.773,0,0,0,0,5.577L14.645,45.28,1.169,57.574a3.773,3.773,0,0,0,0,5.577l4.984,4.533a3.767,3.767,0,0,0,4.813.214L26.509,56.1,62.182,88.649A5.628,5.628,0,0,0,64.122,89.917Zm3.714-65.184L40.768,45.28,67.836,65.827Z" transform="translate(0.061 -0.258)" fill="#fff" fill-rule="evenodd"/></g></g></g></svg>