<svg width="128" height="128" viewBox="0 0 128 128" fill="none" xmlns="http://www.w3.org/2000/svg">
<g clip-path="url(#clip0_6177_31469)">
<path d="M106.078 28.904L87.4309 19.921C86.3777 19.4138 85.1928 19.2465 84.0402 19.4423C82.8877 19.6382 81.8246 20.1874 80.9979 21.014L19.9479 76.678C19.5597 77.0315 19.2496 77.462 19.0374 77.9422C18.8252 78.4224 18.7156 78.9416 18.7156 79.4665C18.7156 79.9915 18.8252 80.5107 19.0374 80.9909C19.2496 81.4711 19.5597 81.9016 19.9479 82.255L24.9379 86.789C25.5894 87.3813 26.4276 87.727 27.3073 87.7661C28.1869 87.8052 29.0525 87.5352 29.7539 87.003L103.278 31.23C103.833 30.8111 104.495 30.5551 105.188 30.491C105.881 30.4268 106.578 30.557 107.201 30.8668C107.824 31.1767 108.348 31.654 108.715 32.2452C109.082 32.8364 109.277 33.5182 109.278 34.214V33.997C109.277 32.9331 108.977 31.8909 108.411 30.99C107.845 30.0891 107.036 29.3661 106.078 28.904Z" fill="#0065A9"/>
<path d="M106.078 99.8679L87.4309 108.847C86.3778 109.354 85.1931 109.521 84.0408 109.325C82.8885 109.129 81.8255 108.58 80.9989 107.754L19.9479 52.0899C19.5597 51.7365 19.2496 51.3059 19.0374 50.8258C18.8252 50.3456 18.7156 49.8264 18.7156 49.3014C18.7156 48.7765 18.8252 48.2573 19.0374 47.7771C19.2496 47.2969 19.5597 46.8664 19.9479 46.5129L24.9379 41.9789C25.5894 41.3866 26.4276 41.041 27.3073 41.0019C28.1869 40.9628 29.0525 41.2328 29.7539 41.7649L103.278 97.5359C103.833 97.9548 104.494 98.2107 105.187 98.275C105.88 98.3392 106.577 98.2092 107.2 97.8996C107.823 97.59 108.347 97.113 108.714 96.522C109.081 95.9311 109.276 95.2496 109.278 94.5539V94.7709C109.278 95.8356 108.978 96.8786 108.412 97.7803C107.846 98.6819 107.037 99.4055 106.078 99.8679Z" fill="#007ACC"/>
<path d="M87.4309 108.848C86.3774 109.355 85.1925 109.521 84.04 109.325C82.8875 109.129 81.8245 108.58 80.9979 107.753C81.4614 108.216 82.0518 108.532 82.6946 108.66C83.3373 108.787 84.0036 108.722 84.609 108.471C85.2145 108.22 85.732 107.796 86.0962 107.251C86.4603 106.706 86.6548 106.065 86.6549 105.41V23.3569C86.6548 22.7016 86.4603 22.061 86.0962 21.5161C85.732 20.9713 85.2145 20.5466 84.609 20.2958C84.0036 20.0451 83.3373 19.9794 82.6946 20.1073C82.0518 20.2351 81.4614 20.5506 80.9979 21.0139C81.8246 20.1873 82.8876 19.638 84.04 19.4418C85.1925 19.2456 86.3774 19.4124 87.4309 19.9189L106.077 28.8859C107.037 29.3478 107.848 30.0716 108.415 30.9739C108.982 31.8762 109.282 32.9203 109.282 33.9859V94.7859C109.282 95.8516 108.982 96.8957 108.415 97.798C107.848 98.7002 107.037 99.424 106.077 99.8859L87.4309 108.848Z" fill="#1F9CF0"/>
<g opacity="0.25">
<path fill-rule="evenodd" clip-rule="evenodd" d="M82.9 109.021C83.6202 109.302 84.3905 109.431 85.163 109.402C85.9354 109.372 86.6935 109.183 87.39 108.848L106.025 99.881C106.984 99.4184 107.794 98.6943 108.36 97.7921C108.926 96.8898 109.226 95.8461 109.225 94.781V33.984C109.226 32.9189 108.926 31.8751 108.36 30.9729C107.794 30.0707 106.984 29.3466 106.025 28.884L87.39 19.919C86.337 19.412 85.1524 19.245 84.0004 19.4412C82.8483 19.6374 81.7857 20.187 80.96 21.014L45.287 53.56L29.748 41.765C29.047 41.2329 28.1819 40.9629 27.3028 41.002C26.4236 41.0411 25.5859 41.3867 24.935 41.979L19.951 46.512C19.563 46.8656 19.2532 47.2962 19.0411 47.7764C18.8291 48.2565 18.7196 48.7756 18.7196 49.3005C18.7196 49.8254 18.8291 50.3445 19.0411 50.8246C19.2532 51.3048 19.563 51.7354 19.951 52.089L33.423 64.384L19.947 76.678C19.559 77.0316 19.2492 77.4622 19.0371 77.9424C18.8251 78.4225 18.7156 78.9416 18.7156 79.4665C18.7156 79.9914 18.8251 80.5105 19.0371 80.9906C19.2492 81.4708 19.559 81.9014 19.947 82.255L24.931 86.788C25.5819 87.3802 26.4196 87.7259 27.2988 87.765C28.1779 87.8041 29.043 87.5341 29.744 87.002L45.287 75.204L80.96 107.753C81.5117 108.306 82.1723 108.737 82.9 109.021ZM86.614 43.837L59.546 64.384L86.614 84.931V43.837Z" fill="white"/>
</g>
</g>
<defs>
<clipPath id="clip0_6177_31469">
<rect width="128" height="128" fill="white"/>
</clipPath>
</defs>
</svg>
