<svg xmlns="http://www.w3.org/2000/svg" width="128" height="128" viewBox="0 0 128 128"><g transform="translate(-3485 -122)"><rect width="128" height="128" transform="translate(3485 122)" fill="none"/><g transform="translate(3493.369 222.245)"><path d="M0-50.6H111.665v29.243H0Z" fill="#d31f26"/><path d="M3.447-47.467H19.591v2.1L6.6-29.448H19.9v2.315H3.131v-2.1l13-15.92H3.447Zm27.385,2.708L27.058-34.636h7.559Zm-1.57-2.708h3.153l7.84,20.334H37.361l-1.875-5.208h-9.27l-1.871,5.208H21.414ZM46.014-36.843v7.451h4.463a5.043,5.043,0,0,0,3.325-.921,3.481,3.481,0,0,0,1.082-2.8,3.432,3.432,0,0,0-1.082-2.8,5.171,5.171,0,0,0-3.325-.909H46.014Zm0-8.364v6.129h4.118a4.986,4.986,0,0,0,3.036-.761,2.7,2.7,0,0,0,1-2.307,2.712,2.712,0,0,0-1.014-2.3,4.994,4.994,0,0,0-3.036-.761Zm-2.78-2.259h7.115a7.92,7.92,0,0,1,4.9,1.306,4.407,4.407,0,0,1,1.719,3.718,4.647,4.647,0,0,1-.877,2.972A3.966,3.966,0,0,1,53.5-38.1a5.412,5.412,0,0,1,3.2,1.819,5.256,5.256,0,0,1,1.138,3.453,5.051,5.051,0,0,1-1.875,4.206,8.412,8.412,0,0,1-5.328,1.482H43.23ZM65.05-36.843v7.451h4.459a5.023,5.023,0,0,0,3.325-.921,3.486,3.486,0,0,0,1.082-2.8,3.454,3.454,0,0,0-1.082-2.8,5.164,5.164,0,0,0-3.325-.909H65.05Zm0-8.364v6.129h4.126a4.973,4.973,0,0,0,3.036-.761,2.7,2.7,0,0,0,1-2.307,2.712,2.712,0,0,0-1-2.3,5,5,0,0,0-3.036-.761Zm-2.78-2.259h7.1a7.966,7.966,0,0,1,4.9,1.306,4.407,4.407,0,0,1,1.723,3.718,4.627,4.627,0,0,1-.881,2.972A3.958,3.958,0,0,1,72.525-38.1a5.424,5.424,0,0,1,3.2,1.819,5.256,5.256,0,0,1,1.134,3.453,5.056,5.056,0,0,1-1.871,4.206,8.4,8.4,0,0,1-5.328,1.482H62.27Zm27.1,0h3.045l4.831,7.3,4.879-7.3h2.956l-6.349,9.526,7.151,10.816h-3.053L97.19-35.642,91.5-27.133H88.545l7.171-10.736Zm-8.052,0h2.78v20.334h-2.78Z" transform="translate(1.328 1.329)" fill="#fff"/></g></g></svg>