<svg width="128" height="128" viewBox="0 0 128 128" fill="none" xmlns="http://www.w3.org/2000/svg">
<g clip-path="url(#clip0_6177_31480)">
<path d="M8.3689 49.645H120.034V78.888H8.3689V49.645Z" fill="#D31F26"/>
<path d="M13.1439 54.107H29.2879V56.207L16.2969 72.126H29.5969V74.441H12.8279V72.341L25.8279 56.421H13.1439V54.107ZM40.5289 56.815L36.7549 66.938H44.3139L40.5289 56.815ZM38.9589 54.107H42.1119L49.9519 74.441H47.0579L45.1829 69.233H35.9129L34.0419 74.441H31.1109L38.9589 54.107ZM55.7109 64.731V72.182H60.1739C61.356 72.2755 62.5333 71.9494 63.4989 71.261C63.8767 70.9046 64.17 70.4681 64.3572 69.9836C64.5444 69.4991 64.6209 68.9789 64.5809 68.461C64.6244 67.9428 64.5497 67.4215 64.3622 66.9364C64.1748 66.4514 63.8796 66.0153 63.4989 65.661C62.5271 64.9866 61.3536 64.6658 60.1739 64.752H55.7109V64.731ZM55.7109 56.367V62.496H59.8289C60.8963 62.5748 61.9608 62.308 62.8649 61.735C63.2062 61.4604 63.4756 61.1069 63.6498 60.705C63.824 60.3031 63.8978 59.8648 63.8649 59.428C63.894 58.9913 63.817 58.554 63.6404 58.1534C63.4639 57.7529 63.193 57.4011 62.8509 57.128C61.9466 56.5556 60.8823 56.2888 59.8149 56.367H55.7109ZM52.9309 54.108H60.0459C61.7782 53.9945 63.4998 54.4534 64.9459 55.414C65.512 55.8483 65.9642 56.4135 66.2636 57.0612C66.563 57.7088 66.7007 58.4194 66.6649 59.132C66.7212 60.1938 66.4116 61.2428 65.7879 62.104C65.1308 62.8748 64.2038 63.3649 63.1969 63.474C64.4433 63.6878 65.5755 64.3314 66.3969 65.293C67.1749 66.272 67.5784 67.4963 67.5349 68.746C67.5781 69.5455 67.4306 70.3438 67.1046 71.0751C66.7786 71.8064 66.2834 72.4497 65.6599 72.952C64.1017 74.0324 62.2241 74.5546 60.3319 74.434H52.9269L52.9309 54.108ZM74.7469 64.731V72.182H79.2059C80.3882 72.2772 81.5661 71.951 82.5309 71.261C82.9084 70.9044 83.2015 70.4679 83.3887 69.9834C83.5759 69.499 83.6525 68.9788 83.6129 68.461C83.6548 67.943 83.5793 67.4221 83.392 66.9373C83.2046 66.4525 82.9103 66.0162 82.5309 65.661C81.5594 64.9861 80.3856 64.6652 79.2059 64.752H74.7469V64.731ZM74.7469 56.367V62.496H78.8729C79.9404 62.5757 81.0052 62.3088 81.9089 61.735C82.2502 61.4604 82.5196 61.1069 82.6938 60.705C82.868 60.3031 82.9418 59.8648 82.9089 59.428C82.9397 58.9924 82.8648 58.5559 82.6907 58.1555C82.5166 57.755 82.2484 57.4026 81.9089 57.128C81.0044 56.556 79.9402 56.2892 78.8729 56.367H74.7469ZM71.9669 54.108H79.0669C80.7989 53.998 82.5194 54.4565 83.9669 55.414C84.5337 55.8479 84.9867 56.4129 85.2868 57.0606C85.5869 57.7082 85.7253 58.4191 85.6899 59.132C85.7467 60.1945 85.4355 61.2441 84.8089 62.104C84.1533 62.8745 83.2276 63.3647 82.2219 63.474C83.468 63.6888 84.5998 64.3322 85.4219 65.293C86.1985 66.2725 86.6005 67.4968 86.5559 68.746C86.5991 69.5451 86.4521 70.3431 86.1268 71.0743C85.8016 71.8055 85.3074 72.449 84.6849 72.952C83.1271 74.0332 81.2493 74.5556 79.3569 74.434H71.9669V54.108ZM99.0669 54.108H102.112L106.943 61.408L111.822 54.108H114.778L108.429 63.634L115.58 74.45H112.527L106.887 65.932L101.197 74.441H98.2419L105.413 63.705L99.0669 54.108ZM91.0149 54.108H93.7949V74.442H91.0149V54.108Z" fill="white"/>
</g>
<defs>
<clipPath id="clip0_6177_31480">
<rect width="128" height="128" fill="white"/>
</clipPath>
</defs>
</svg>
