<svg width="128" height="128" viewBox="0 0 128 128" fill="none" xmlns="http://www.w3.org/2000/svg">
<g clip-path="url(#clip0_6177_31486)">
<path d="M80.3271 96.625C81.8216 96.625 83.0331 96.0569 83.0331 95.356C83.0331 94.6552 81.8216 94.087 80.3271 94.087C78.8326 94.087 77.6211 94.6552 77.6211 95.356C77.6211 96.0569 78.8326 96.625 80.3271 96.625Z" fill="#331E09" stroke="black" stroke-width="0.08"/>
<path d="M60.071 90.329C60.071 90.329 61.148 94.929 61.292 96.291C61.436 97.653 64.165 98.302 64.452 96.722C64.739 95.142 65.745 91.263 65.745 91.263L60.071 90.329ZM77.238 91.335C77.9719 93.0527 78.4555 94.8669 78.674 96.722C78.674 98.661 82.121 98.949 82.409 97.655C82.697 96.361 83.127 91.262 83.127 91.262L77.238 91.335Z" fill="#F9C89A" stroke="black" stroke-width="0.08" stroke-miterlimit="10"/>
<path d="M64.2851 94.422C63.375 94.7249 62.4028 94.791 61.4601 94.614C60.8381 94.375 61.5081 96.864 61.7001 97.631C61.8921 98.398 63.9001 98.253 63.9001 98.253L64.2851 94.422Z" fill="#A15813" stroke="black" stroke-width="0.08" stroke-miterlimit="10"/>
<path d="M60.879 99.271C61.5434 99.271 62.082 97.9847 62.082 96.398C62.082 94.8113 61.5434 93.525 60.879 93.525C60.2146 93.525 59.676 94.8113 59.676 96.398C59.676 97.9847 60.2146 99.271 60.879 99.271Z" fill="#4F2E0E" stroke="black" stroke-width="0.08"/>
<path d="M64.65 99.523C65.3343 99.523 65.889 98.2609 65.889 96.704C65.889 95.1471 65.3343 93.885 64.65 93.885C63.9657 93.885 63.411 95.1471 63.411 96.704C63.411 98.2609 63.9657 99.523 64.65 99.523Z" fill="#4F2E0E" stroke="black" stroke-width="0.08"/>
<path d="M56.2291 104.731L56.1971 101.355C56.1611 99.488 58.1371 97.117 62.1591 97.225C66.1811 97.333 68.0491 99.559 68.0491 101.715C68.1191 103.163 67.9845 104.614 67.6491 106.025C67.4341 106.456 57.1291 106.6 56.7341 106.205C56.4465 105.764 56.2745 105.257 56.2341 104.732L56.2291 104.731Z" fill="#9E5613" stroke="black" stroke-width="0.08" stroke-miterlimit="10"/>
<path d="M56.2281 107.639C55.9186 107.514 55.6573 107.293 55.4827 107.009C55.3081 106.724 55.2294 106.391 55.2581 106.059C55.2509 105.762 55.3421 105.47 55.5175 105.23C55.6928 104.989 55.9427 104.814 56.2281 104.73C56.6421 105.144 57.189 105.397 57.7721 105.446C58.3471 105.551 65.7091 105.626 66.5721 105.554C66.8286 105.548 67.0784 105.471 67.2939 105.332C67.5094 105.192 67.6821 104.996 67.7931 104.765C68.0723 104.893 68.3069 105.102 68.4672 105.364C68.6275 105.626 68.7061 105.93 68.6931 106.237C68.7261 106.533 68.659 106.832 68.5024 107.086C68.3458 107.34 68.1088 107.534 67.8291 107.637C65.8366 108.085 63.8012 108.313 61.7591 108.319C59.9017 108.222 58.0534 107.994 56.2281 107.636V107.639Z" fill="#4F2E0E" stroke="black" stroke-width="0.08" stroke-miterlimit="10"/>
<path d="M83.0201 96.0031C82.3416 96.3489 81.5997 96.5528 80.8397 96.6021C80.0797 96.6515 79.3176 96.5453 78.6001 96.2901C76.9841 96.0741 76.5501 96.0741 76.5891 96.8651C76.6281 97.6561 76.8411 99.81 76.0891 100.708C75.3371 101.606 74.5441 103.943 75.6891 105.018C76.8341 106.093 93.4661 105.988 94.1131 105.808C94.7601 105.628 95.1551 104.479 95.1551 104.479C95.2675 103.237 95.3152 101.991 95.2981 100.744C95.2261 99.454 93.4311 97.081 90.3781 97.189C87.3251 97.297 86.0671 99.4551 84.7051 99.7381C83.9292 99.0556 83.3783 98.1539 83.1251 97.1521C83.1251 96.9001 83.0181 96.0031 83.0181 96.0031H83.0201Z" fill="#9E5613" stroke="black" stroke-width="0.08" stroke-miterlimit="10"/>
<path d="M79.304 99.935C79.5385 99.9698 79.7777 99.955 80.0061 99.8915C80.2345 99.828 80.447 99.7173 80.6299 99.5665C80.8128 99.4156 80.9619 99.2281 81.0677 99.0159C81.1735 98.8038 81.2336 98.5718 81.244 98.335C81.331 97.222 81.0641 96.611 80.2741 96.557C79.5037 96.5412 78.7454 96.3637 78.048 96.036C77.9543 95.9853 77.8716 95.9165 77.8047 95.8335C77.7377 95.7506 77.6879 95.6553 77.658 95.553C77.6282 95.4507 77.6189 95.3435 77.6307 95.2376C77.6426 95.1317 77.6753 95.0292 77.727 94.936C77.8874 94.765 78.0681 94.6142 78.265 94.487L78.1421 94.146C77.6347 94.352 77.2053 94.7129 76.9151 95.1772C76.6249 95.6416 76.4888 96.1857 76.526 96.732C76.688 98.632 77.6391 99.932 79.3091 99.932L79.304 99.935ZM81.262 96.559C81.4986 96.6327 81.6968 96.7962 81.8142 97.0143C81.9316 97.2325 81.9588 97.488 81.89 97.726C81.801 98.211 81.603 99.612 82.626 99.558C83.649 99.504 83.919 97.508 83.826 96.595C83.7324 95.84 83.3987 95.135 82.874 94.584L82.82 94.856C82.8903 94.9183 82.9457 94.9955 82.982 95.0821C83.0184 95.1686 83.0348 95.2622 83.03 95.356C83.036 95.716 82.425 96.397 81.258 96.556L81.262 96.559Z" fill="#4F2E0E" stroke="black" stroke-width="0.08" stroke-miterlimit="10"/>
<path d="M84.7092 99.738C84.1582 100.938 83.6322 104.767 84.1092 105.819" stroke="black" stroke-width="0.08" stroke-miterlimit="10"/>
<path d="M75.6941 105.017C75.4699 105.152 75.2833 105.341 75.1515 105.567C75.0197 105.793 74.947 106.049 74.9401 106.31C75.0121 107.1 75.6221 107.28 76.5201 107.495C77.4181 107.71 85.9301 107.964 87.4741 108.033C90.0638 108.049 92.6492 107.821 95.1961 107.351C95.4872 107.238 95.7369 107.038 95.9117 106.779C96.0865 106.521 96.178 106.214 96.1741 105.902C96.1702 105.59 96.071 105.286 95.8898 105.031C95.7086 104.777 95.454 104.584 95.1601 104.478C94.8671 104.808 94.5074 105.071 94.1048 105.251C93.7022 105.43 93.2659 105.522 92.8251 105.52C91.7121 105.664 86.5041 105.7 84.3491 105.628L76.4491 105.448C76.298 105.442 76.1506 105.4 76.0194 105.325C75.8881 105.25 75.7759 105.144 75.6941 105.017Z" fill="#4F2E0E" stroke="black" stroke-width="0.08" stroke-miterlimit="10"/>
<path d="M71.8871 39.94C71.6351 40.227 70.4501 41.595 71.0231 42.74C71.5961 43.885 74.8661 48.917 74.8661 48.917C74.8661 48.917 82.0851 45.254 81.8661 43.53C81.5639 42.1719 80.9897 40.8891 80.1781 39.759L71.8871 39.94ZM89.6431 66.025C89.7815 65.8783 89.8769 65.6962 89.9188 65.4989C89.9608 65.3016 89.9476 65.0965 89.8808 64.9061C89.814 64.7157 89.6962 64.5474 89.5401 64.4195C89.3841 64.2916 89.1959 64.2091 88.9961 64.181C88.6076 64.1209 88.2107 64.1478 87.8339 64.2597C87.4571 64.3715 87.1098 64.5657 86.8171 64.828C86.5781 65.092 87.3171 66.504 87.7741 66.552C88.4176 66.4609 89.0469 66.2837 89.6431 66.025Z" fill="#F9C89A" stroke="black" stroke-width="0.08" stroke-miterlimit="10"/>
<path d="M90.6221 67.32C90.7396 67.2012 90.825 67.0544 90.8703 66.8935C90.9156 66.7326 90.9193 66.5628 90.881 66.4001C90.8427 66.2374 90.7637 66.087 90.6514 65.9632C90.5392 65.8393 90.3973 65.746 90.2391 65.692C89.7659 65.4868 89.241 65.4318 88.7356 65.5347C88.2301 65.6375 87.7685 65.8932 87.4131 66.267C87.0541 66.817 88.0131 68.039 88.2031 68.039C88.3931 68.039 90.6211 67.323 90.6211 67.323L90.6221 67.32Z" fill="#F9C89A" stroke="black" stroke-width="0.08" stroke-miterlimit="10"/>
<path d="M88.2641 61.525L86.9351 63.86C87.412 64.5193 87.761 65.2621 87.9641 66.05C88.2511 67.271 87.7721 67.705 88.1791 67.63C88.5861 67.555 90.9571 66.912 91.4141 67.199C91.7426 67.4604 91.9814 67.8177 92.0974 68.2211C92.2134 68.6246 92.2007 69.0541 92.0611 69.45C91.3253 70.8019 90.1003 71.8212 88.6371 72.299C87.8032 72.4893 86.9336 72.4543 86.1177 72.1975C85.3018 71.9408 84.5689 71.4715 83.9941 70.838C83.0626 69.1857 82.3617 67.4136 81.9111 65.571C82.0587 64.701 82.3245 63.8551 82.7011 63.057L85.9571 61.597L88.2641 61.525Z" fill="#F9C89A" stroke="black" stroke-width="0.08" stroke-miterlimit="10"/>
<path d="M86.576 63.6791C87.0286 63.916 87.424 64.2488 87.7349 64.6541C88.0457 65.0594 88.2645 65.5276 88.376 66.0261C88.4887 66.6599 88.4498 67.3113 88.2627 67.9273C88.0755 68.5432 87.7453 69.1061 87.299 69.5701" fill="#F9C89A"/>
<path d="M86.576 63.6791C87.0286 63.916 87.424 64.2488 87.7349 64.6541C88.0457 65.0594 88.2645 65.5276 88.376 66.0261C88.4887 66.6599 88.4498 67.3113 88.2627 67.9273C88.0755 68.5432 87.7453 69.1061 87.299 69.5701" stroke="black" stroke-width="0.08" stroke-miterlimit="10"/>
<path d="M90.6911 69.33C90.4575 69.5968 90.1561 69.7954 89.8188 69.9049C89.4815 70.0144 89.1209 70.0307 88.7751 69.952C88.5301 69.9022 88.304 69.7845 88.1227 69.6124C87.9413 69.4402 87.812 69.2206 87.7495 68.9785C87.6869 68.7365 87.6936 68.4817 87.7689 68.2432C87.8442 68.0048 87.9849 67.7923 88.1751 67.63C88.8626 67.1339 89.6996 66.8889 90.5461 66.936C90.9216 66.9847 91.277 67.1336 91.5751 67.367" fill="#F9C89A"/>
<path d="M90.6911 69.33C90.4575 69.5968 90.1561 69.7954 89.8188 69.9049C89.4815 70.0144 89.1209 70.0307 88.7751 69.952C88.5301 69.9022 88.304 69.7845 88.1227 69.6124C87.9413 69.4402 87.812 69.2206 87.7495 68.9785C87.6869 68.7365 87.6936 68.4817 87.7689 68.2432C87.8442 68.0048 87.9849 67.7923 88.1751 67.63C88.8626 67.1339 89.6996 66.8889 90.5461 66.936C90.9216 66.9847 91.277 67.1336 91.5751 67.367" stroke="black" stroke-width="0.08" stroke-miterlimit="10"/>
<path d="M88.8741 67.97L89.5201 69.17C89.3959 69.266 89.2487 69.3276 89.0932 69.3487C88.9376 69.3698 88.7793 69.3495 88.6341 69.29C88.5473 69.262 88.4677 69.2154 88.4009 69.1534C88.3341 69.0913 88.2817 69.0154 88.2475 68.9309C88.2133 68.8464 88.198 68.7554 88.2028 68.6644C88.2075 68.5733 88.2322 68.4844 88.2751 68.404C88.3951 68.086 88.8741 67.97 88.8741 67.97Z" fill="#F9C89A" stroke="black" stroke-width="0.08" stroke-miterlimit="10"/>
<path d="M83.9651 42.0601C83.9651 42.0601 86.6231 43.4601 87.0521 45.1851C88.3451 45.6161 89.8651 47.5131 89.7191 48.9021C91.1081 49.4771 91.7241 50.2821 91.7241 51.1911C92.3887 51.8024 92.8083 52.6346 92.9047 53.5325C93.0011 54.4303 92.7677 55.3326 92.2481 56.0711C90.8591 58.5611 90.0481 60.2831 90.0481 60.2831L84.4931 59.8031L84.0141 58.1241L86.6001 53.3351C86.6001 53.3351 85.4511 51.4681 84.1101 51.4191C83.7751 52.8561 83.4401 54.9191 83.4401 54.9191L83.5831 62.8191L82.8651 63.2501L82.7211 65.0221L84.4931 68.7091L85.1151 69.2841L83.4871 71.8221L83.8711 72.5381L86.0711 77.9491L86.0231 78.6191L87.3161 80.2951L87.2681 81.0131L87.9841 82.7851L86.5921 85.9421L85.7281 87.6661L86.5421 90.1561C84.8465 91.5117 82.7262 92.224 80.5561 92.1671C78.3185 92.1374 76.1384 91.4552 74.2831 90.2041L73.5651 89.7731C73.9939 87.355 74.2021 84.9029 74.1871 82.4471C73.9951 79.8131 73.4201 75.8391 73.4201 74.9291C73.4201 74.0191 73.1801 71.4291 73.1801 71.4291L72.7961 79.7131C72.7481 82.4901 72.3651 86.2731 71.8861 87.0391C71.6501 87.4617 71.3033 87.8119 70.8831 88.0521L71.4091 88.9621L71.5531 90.0621L70.9781 90.7781L69.9221 90.4891C69.1754 91.2434 68.2634 91.8135 67.2583 92.1542C66.2531 92.4949 65.1825 92.5969 64.1311 92.4521C60.3961 92.0211 58.0981 90.1521 57.8581 88.6211C56.9941 87.9991 56.9001 87.5681 56.9001 87.5681L59.3451 84.7431L57.9561 83.9291L59.1051 81.8691C59.1051 81.8691 59.9191 79.8581 60.0631 79.1871C60.2071 78.5161 60.6381 76.8871 60.6381 76.8871L59.4381 76.9351L61.4011 73.8731L61.2581 71.7661L64.8521 64.1521L64.7081 62.9071L64.2261 62.2371L63.8341 59.5791L64.0861 58.1421C64.7516 57.3423 65.2248 56.4005 65.4691 55.3891C65.5084 54.5191 65.3003 53.6557 64.8691 52.8991L56.4781 58.4061L55.2781 58.5061L51.8271 60.0381L51.0111 59.7031C50.805 59.3163 50.6747 58.8938 50.6271 58.4581C50.5224 56.8879 50.6189 55.3108 50.9141 53.7651C51.0259 53.6169 51.1705 53.4966 51.3365 53.4135C51.5025 53.3304 51.6854 53.2868 51.8711 53.2861C52.5663 53.1516 53.2315 52.8921 53.8341 52.5201C54.6961 51.9451 60.0111 48.0201 61.3041 47.0131C62.5971 46.0061 67.0981 42.1291 67.0981 42.1291C67.8343 41.5416 68.638 41.0441 69.4921 40.6471C69.9523 40.4809 70.4388 40.3995 70.9281 40.4071L70.9761 44.5251L74.8551 48.9251L79.0691 46.3991L82.4221 43.2801L83.9651 42.0601Z" fill="#6D9758" stroke="black" stroke-width="0.08" stroke-miterlimit="10"/>
<path d="M71.2411 40.084L70.6661 40.443L68.1881 44.573L70.8801 44.825L69.9101 46.692L75.0101 49.385L75.4411 48.885L71.7411 44.324C70.8771 43.247 70.6301 40.84 71.5971 40.194C72.5641 39.548 71.2381 40.086 71.2381 40.086" fill="#6D9758"/>
<path d="M71.2411 40.084L70.6661 40.443L68.1881 44.573L70.8801 44.825L69.9101 46.692L75.0101 49.385L75.4411 48.885L71.7411 44.324C70.8771 43.247 70.6301 40.84 71.5971 40.194C72.5641 39.548 71.2381 40.086 71.2381 40.086" stroke="black" stroke-width="0.08" stroke-miterlimit="10"/>
<path d="M73.538 49.9431L81.238 48.6591L80.331 45.3751L83.631 45.7951L83.918 41.9881L80.506 39.7981L80.185 39.7621C80.6922 40.4676 80.9915 41.3011 81.049 42.1681C81.087 43.4971 79.864 44.5021 78.859 45.3681L73.543 49.9421L73.538 49.9431ZM78.889 52.5821L83.989 50.8941L84.528 53.6231L79.753 56.6771L78.889 52.5821ZM73.383 50.0321L73.575 61.1891L72.712 64.3491L72.663 67.4111L72.519 70.4251L73.189 71.4311L75.009 71.0001M78.361 63.9141L75.536 63.6741L75.727 65.0151L78.553 65.5421L78.361 63.9141Z" fill="#6D9758"/>
<path d="M73.383 50.0321L73.575 61.1891L72.712 64.3491L72.663 67.4111L72.519 70.4251L73.189 71.4311L75.009 71.0001M73.538 49.9431L81.238 48.6591L80.331 45.3751L83.631 45.7951L83.918 41.9881L80.506 39.7981L80.185 39.7621C80.6922 40.4676 80.9915 41.3011 81.049 42.1681C81.087 43.4971 79.864 44.5021 78.859 45.3681L73.543 49.9421L73.538 49.9431ZM78.889 52.5821L83.989 50.8941L84.528 53.6231L79.753 56.6771L78.889 52.5821ZM78.361 63.9141L75.536 63.6741L75.727 65.0151L78.553 65.5421L78.361 63.9141Z" stroke="black" stroke-width="0.08" stroke-miterlimit="10"/>
<path d="M82.865 63.2491L80.375 63.8711L80.71 65.5471L82.721 65.0211M70.031 63.3451L72.186 63.5361L72.286 65.2601L69.748 65.0201L70.031 63.3451ZM64.715 62.9141L67.828 63.0141L67.684 64.7861L64.859 64.3551M66.059 50.7551L64.859 52.9101L70.074 56.9761L71.654 53.0971L66.059 50.7551ZM90.0951 61.4891C90.0792 60.7439 90.2399 60.0054 90.564 59.3341C89.415 58.8341 86.649 57.7181 85.141 57.8971C84.425 58.7611 83.141 61.2731 83.585 62.8171C85.7302 62.257 87.904 61.8133 90.097 61.4881L90.0951 61.4891ZM53.786 52.3311L55.441 54.7371L56.483 57.4311C56.1208 57.9313 55.6553 58.3477 55.118 58.6521C54.4 58.9751 51.838 60.0411 51.838 60.0411L51.024 59.7061C51.024 59.7061 51.778 59.2271 51.888 56.4961C51.998 53.7651 51.314 53.4071 51.314 53.4071L52.93 52.7961L53.786 52.3311ZM78.174 77.6501C78.7814 79.7327 79.6376 81.7345 80.724 83.6121C81.478 83.1121 86.724 82.7481 87.991 82.7861" fill="#6D9758"/>
<path d="M82.865 63.2491L80.375 63.8711L80.71 65.5471L82.721 65.0211M64.715 62.9141L67.828 63.0141L67.684 64.7861L64.859 64.3551M78.174 77.6501C78.7814 79.7327 79.6376 81.7345 80.724 83.6121C81.478 83.1121 86.724 82.7481 87.991 82.7861M70.031 63.3451L72.186 63.5361L72.286 65.2601L69.748 65.0201L70.031 63.3451ZM66.059 50.7551L64.859 52.9101L70.074 56.9761L71.654 53.0971L66.059 50.7551ZM90.0951 61.4891C90.0792 60.7439 90.2399 60.0054 90.564 59.3341C89.415 58.8341 86.649 57.7181 85.141 57.8971C84.425 58.7611 83.141 61.2731 83.585 62.8171C85.7302 62.257 87.904 61.8133 90.097 61.4881L90.0951 61.4891ZM53.786 52.3311L55.441 54.7371L56.483 57.4311C56.1208 57.9313 55.6553 58.3477 55.118 58.6521C54.4 58.9751 51.838 60.0411 51.838 60.0411L51.024 59.7061C51.024 59.7061 51.778 59.2271 51.888 56.4961C51.998 53.7651 51.314 53.4071 51.314 53.4071L52.93 52.7961L53.786 52.3311Z" stroke="black" stroke-width="0.08" stroke-miterlimit="10"/>
<path d="M57.9641 83.936C58.9221 84.187 62.9801 84.762 62.9801 84.762C64.0855 85.0503 65.2448 85.0626 66.3561 84.798C66.9661 83.433 68.8011 77.112 68.8011 77.112C68.8011 77.112 67.0411 75.062 65.4611 74.742C64.0887 74.418 62.7342 74.0224 61.4031 73.557" stroke="black" stroke-width="0.08" stroke-miterlimit="10"/>
<path d="M60.6461 76.896C61.5101 76.788 65.7821 76.896 68.2241 78.656Z" fill="#6D9758"/>
<path d="M60.6461 76.896C61.5101 76.788 65.7821 76.896 68.2241 78.656" stroke="black" stroke-width="0.08" stroke-miterlimit="10"/>
<path d="M59.3531 84.749L60.0362 87.131" stroke="black" stroke-width="0.08" stroke-miterlimit="10"/>
<path d="M58.0231 88.604C59.6923 89.7788 61.6471 90.4824 63.6821 90.6408C65.7171 90.7991 67.7572 90.4065 69.5881 89.504" fill="#6D9758"/>
<path d="M58.0231 88.604C59.6923 89.7788 61.6471 90.4824 63.6821 90.6408C65.7171 90.7991 67.7572 90.4065 69.5881 89.504" stroke="black" stroke-width="0.08" stroke-miterlimit="10"/>
<path d="M74.4731 90.29C76.4481 91.08 81.3321 91.295 83.8831 89.859" stroke="black" stroke-width="0.08" stroke-miterlimit="10"/>
<path d="M82.8771 89.4671C85.4271 90.2931 89.1261 90.4371 89.5571 89.5411C89.9881 88.6451 85.7381 87.6731 85.7381 87.6731" fill="#6D9758"/>
<path d="M82.8771 89.4671C85.4271 90.2931 89.1261 90.4371 89.5571 89.5411C89.9881 88.6451 85.7381 87.6731 85.7381 87.6731" stroke="black" stroke-width="0.08" stroke-miterlimit="10"/>
<path d="M80.937 87.848C84.061 88.317 87.581 87.704 87.581 86.627C87.581 85.55 82.768 85.694 82.768 85.694M83.738 72.441C84.78 73.7 85.57 74.886 86.468 75.171C84.313 75.53 79.142 76.608 78.351 77.505C78.146 76.8791 77.7584 76.3288 77.238 75.925C78.171 74.666 83.738 72.441 83.738 72.441Z" fill="#6D9758"/>
<path d="M80.937 87.848C84.061 88.317 87.581 87.704 87.581 86.627C87.581 85.55 82.768 85.694 82.768 85.694M83.738 72.441C84.78 73.7 85.57 74.886 86.468 75.171C84.313 75.53 79.142 76.608 78.351 77.505C78.146 76.8791 77.7584 76.3288 77.238 75.925C78.171 74.666 83.738 72.441 83.738 72.441Z" stroke="black" stroke-width="0.08" stroke-miterlimit="10"/>
<path d="M51.5231 54.089C50.2301 53.945 47.5721 53.407 46.6031 50.889C46.1392 50.065 45.4026 49.4285 44.5201 49.089C44.1583 48.7661 43.7274 48.5303 43.2605 48.3996C42.7935 48.269 42.3029 48.2468 41.8261 48.335C40.3158 48.4995 38.7908 48.212 37.4441 47.509C36.9898 47.2116 36.4449 47.0845 35.9059 47.1502C35.3669 47.2159 34.8686 47.4702 34.4991 47.868C34.2836 48.1436 34.1636 48.4818 34.1571 48.8315C34.1506 49.1812 34.258 49.5236 34.4631 49.807L35.1791 50.561C35.1791 50.561 33.4911 50.812 33.3471 52.069C33.2966 52.5204 33.4005 52.9756 33.6418 53.3604C33.8831 53.7452 34.2477 54.0369 34.6761 54.188C35.0182 54.3385 35.3814 54.4353 35.7531 54.475C35.5748 54.7146 35.4641 54.9975 35.4324 55.2944C35.4008 55.5913 35.4493 55.8913 35.5731 56.163C35.97 56.7218 36.5368 57.1374 37.1891 57.348C37.4634 57.7427 37.8517 58.0441 38.3021 58.212C38.8771 58.322 42.3601 58.499 42.3601 58.499C43.0922 58.2207 43.8503 58.0164 44.6231 57.889C45.7626 57.7644 46.9149 57.8252 48.0351 58.069C49.1822 58.3 50.3489 58.4202 51.5191 58.428C51.7029 57.6531 51.8094 56.8619 51.8371 56.066C51.7818 55.3998 51.6738 54.7391 51.5141 54.09L51.5231 54.089Z" fill="#F9C89A" stroke="black" stroke-width="0.08" stroke-miterlimit="10"/>
<path d="M46.3281 92.315C44.3651 92.506 33.9281 92.171 31.8191 90.926C31.9631 98.109 33.9741 104.478 35.2661 105.866C36.5581 107.254 40.5811 108.452 44.7481 108.452C48.9151 108.452 51.4681 107.201 50.3981 105.531C47.2371 100.599 46.3281 92.315 46.3281 92.315Z" fill="url(#paint0_linear_6177_31486)"/>
<path d="M41.7461 101.174V37.245H38.6661L38.7431 92.195C38.6576 94.1666 38.7877 96.1417 39.1311 98.085C39.4383 99.1909 40.0527 100.187 40.9031 100.958C41.1671 101.085 41.4536 101.158 41.7461 101.174Z" fill="url(#paint1_linear_6177_31486)" stroke="black" stroke-width="0.16" stroke-miterlimit="10"/>
<path d="M41.5401 93.427H38.9021C38.9021 93.427 38.9021 97.349 39.2371 97.927L41.5601 97.989L41.5401 93.427Z" fill="url(#paint2_linear_6177_31486)"/>
<path d="M37.756 51.9241C37.4113 52.4791 37.1606 53.0873 37.014 53.7241C37.062 54.1551 38.547 53.8441 38.642 53.2931C38.737 52.7421 37.756 51.9281 37.756 51.9281V51.9241ZM38.522 58.2951C39.169 58.3311 40.354 58.4031 40.785 57.8281C41.216 57.2531 42.257 56.7151 42.257 56.0681C42.27 55.7653 42.1999 55.4647 42.0543 55.1989C41.9087 54.9331 41.6932 54.7122 41.431 54.5601C40.785 54.0601 37.624 55.2761 37.444 55.6011C37.2081 56.0549 37.0966 56.5632 37.121 57.0741C37.2517 57.4359 37.4744 57.7574 37.767 58.0071C37.9984 58.1488 38.2541 58.2461 38.521 58.2941L38.522 58.2951Z" fill="#F9C89A" stroke="black" stroke-width="0.08" stroke-miterlimit="10"/>
<path d="M40.3881 55.636L41.2521 56.246C41.2521 56.246 42.1161 55.564 41.3241 55.061C40.5321 54.558 40.3181 55.312 40.3181 55.312L40.3881 55.636Z" fill="#F9C89A" stroke="black" stroke-width="0.08" stroke-miterlimit="10"/>
<path d="M36.7021 57.1931C36.9195 57.3364 37.1696 57.4225 37.4292 57.4435C37.6888 57.4645 37.9495 57.4196 38.1871 57.3131C38.7545 57.1571 39.2857 56.8907 39.75 56.5292C40.2143 56.1676 40.6028 55.718 40.8931 55.2061C41.2531 54.3441 39.2381 52.9341 38.4031 53.1231C37.4254 53.3621 36.5185 53.83 35.7571 54.4881C35.5798 54.7439 35.4688 55.0397 35.4339 55.3489C35.399 55.6581 35.4413 55.9712 35.5571 56.2601C35.8962 56.6218 36.2827 56.936 36.7061 57.1941L36.7021 57.1931ZM40.6021 50.5131C40.3391 50.1301 40.0761 49.3641 39.7381 49.1481C39.4001 48.9321 38.3021 48.0711 37.9661 47.8551C37.6301 47.6391 36.6011 46.8491 35.7151 47.0891C34.8291 47.3291 34.0151 47.8311 34.1351 49.0281C34.2551 50.2251 35.0211 50.3451 35.4281 50.7521C35.8282 51.1847 36.2692 51.5776 36.7451 51.9251C37.3692 52.2779 38.0495 52.5201 38.7561 52.6411C39.0846 52.6623 39.4129 52.5959 39.7074 52.4487C40.0019 52.3015 40.252 52.0787 40.4321 51.8031C40.5959 51.3931 40.6533 50.9483 40.5991 50.5101L40.6021 50.5131Z" fill="#F9C89A" stroke="black" stroke-width="0.08" stroke-miterlimit="10"/>
<path d="M39.192 49.7911L37.972 51.8031C37.972 51.8031 39.305 52.2971 39.792 51.5631C40.461 50.5621 39.192 49.7911 39.192 49.7911Z" fill="#F9C89A" stroke="black" stroke-width="0.08" stroke-miterlimit="10"/>
<path d="M42.3651 48.7041C40.5747 49.6564 39.0829 51.0859 38.0551 52.8341C37.5161 54.1631 37.6961 55.3121 38.7711 55.7431C39.8461 56.1741 41.4291 55.2051 41.8601 54.4141C42.3088 53.3282 42.6807 52.2121 42.9731 51.0741M38.7621 53.1241L41.1801 54.3451C41.0639 54.5454 40.9052 54.7178 40.7151 54.8502C40.5251 54.9825 40.3083 55.0716 40.0801 55.1111C39.3381 55.2111 38.5001 54.6111 38.4801 54.1051C38.4842 53.7577 38.5835 53.418 38.7671 53.1231L38.7621 53.1241ZM42.4491 52.9081C43.0136 53.7058 43.8054 54.3149 44.7211 54.6561ZM44.5081 57.9121C44.9351 57.786 45.3279 57.5648 45.6571 57.2651Z" fill="#F9C89A"/>
<path d="M42.3651 48.7041C40.5747 49.6564 39.0829 51.0859 38.0551 52.8341C37.5161 54.1631 37.6961 55.3121 38.7711 55.7431C39.8461 56.1741 41.4291 55.2051 41.8601 54.4141C42.3088 53.3282 42.6807 52.2121 42.9731 51.0741M42.4491 52.9081C43.0136 53.7058 43.8054 54.3149 44.7211 54.6561M44.5081 57.9121C44.9351 57.786 45.3279 57.5648 45.6571 57.2651M38.7621 53.1241L41.1801 54.3451C41.0639 54.5454 40.9052 54.7178 40.7151 54.8502C40.5251 54.9825 40.3083 55.0716 40.0801 55.1111C39.3381 55.2111 38.5001 54.6111 38.4801 54.1051C38.4842 53.7577 38.5835 53.418 38.7671 53.1231L38.7621 53.1241Z" stroke="black" stroke-width="0.08" stroke-miterlimit="10"/>
<path d="M75.6761 52.2241C76.182 52.2241 76.5921 51.814 76.5921 51.3081C76.5921 50.8022 76.182 50.3921 75.6761 50.3921C75.1702 50.3921 74.7601 50.8022 74.7601 51.3081C74.7601 51.814 75.1702 52.2241 75.6761 52.2241Z" fill="url(#paint3_linear_6177_31486)" stroke="black" stroke-width="0.08"/>
<path d="M75.6692 52.0201C76.0657 52.0201 76.3872 51.6986 76.3872 51.3021C76.3872 50.9056 76.0657 50.5841 75.6692 50.5841C75.2726 50.5841 74.9512 50.9056 74.9512 51.3021C74.9512 51.6986 75.2726 52.0201 75.6692 52.0201Z" stroke="black" stroke-width="0.016"/>
<path d="M75.3891 57.395C75.895 57.395 76.3051 56.9849 76.3051 56.479C76.3051 55.9731 75.895 55.563 75.3891 55.563C74.8833 55.563 74.4731 55.9731 74.4731 56.479C74.4731 56.9849 74.8833 57.395 75.3891 57.395Z" fill="url(#paint4_linear_6177_31486)" stroke="black" stroke-width="0.08"/>
<path d="M75.3822 57.19C75.7787 57.19 76.1002 56.8686 76.1002 56.472C76.1002 56.0755 75.7787 55.754 75.3822 55.754C74.9856 55.754 74.6642 56.0755 74.6642 56.472C74.6642 56.8686 74.9856 57.19 75.3822 57.19Z" stroke="black" stroke-width="0.016"/>
<path d="M75.102 62.566C75.6079 62.566 76.018 62.1559 76.018 61.65C76.018 61.1441 75.6079 60.734 75.102 60.734C74.5961 60.734 74.186 61.1441 74.186 61.65C74.186 62.1559 74.5961 62.566 75.102 62.566Z" fill="url(#paint5_linear_6177_31486)" stroke="black" stroke-width="0.08"/>
<path d="M75.0951 62.362C75.4916 62.362 75.8131 62.0406 75.8131 61.644C75.8131 61.2475 75.4916 60.926 75.0951 60.926C74.6985 60.926 74.3771 61.2475 74.3771 61.644C74.3771 62.0406 74.6985 62.362 75.0951 62.362Z" stroke="black" stroke-width="0.016"/>
<path d="M68.4281 30.566L67.6381 30.35C67.6381 30.35 67.2071 30.45 67.2551 30.662C67.3031 30.874 67.6141 31.141 67.5901 31.526C67.5127 32.0691 67.5875 32.6229 67.8061 33.126C68.1586 33.6717 68.6141 34.1435 69.1471 34.515C69.5061 34.706 69.6021 34.415 69.6021 34.415C69.6021 34.415 69.9371 37.862 70.0331 38.222C70.3343 38.9768 70.8201 39.6438 71.4461 40.162C72.2601 40.856 73.6461 42.434 74.2951 42.915C74.9441 43.396 77.0721 43.801 77.9821 42.867C78.8921 41.933 80.8551 39.778 81.0711 39.467C81.2871 39.156 81.9091 38.414 81.8851 38.126C81.8611 37.838 81.7651 34.774 81.7651 34.654C81.9081 34.702 82.2191 34.534 82.3871 34.391C82.5551 34.248 83.6081 33.098 83.5871 32.591C83.4652 31.9351 83.3933 31.2708 83.3721 30.604C83.4921 30.504 83.6591 30.125 83.4461 30.029C83.2331 29.933 81.9611 30.867 81.9611 30.867C81.9611 30.867 81.7041 27.593 80.5251 26.749C79.3461 25.905 69.7961 25.325 69.2211 26.091C68.6461 26.857 68.4301 30.569 68.4301 30.569L68.4281 30.566Z" fill="#F9C89A" stroke="black" stroke-width="0.08" stroke-miterlimit="10"/>
<path d="M70.0221 33.368L70.1351 34.541L69.8551 33.931L69.4401 32.285L68.1921 30.468L68.0461 27.837V27.337L71.5051 26.212L70.5051 27.718L69.7411 30.088L69.7021 31.188L70.0221 31.765V33.368Z" fill="black"/>
<path d="M82.6971 29.0961C85.1751 30.7121 81.9431 30.2451 79.2851 29.3471C76.6271 28.4491 71.3121 26.9021 70.0911 26.8691C68.8701 26.8361 78.1721 26.1151 79.6081 26.5821C80.81 27.1829 81.8647 28.0413 82.6971 29.0961Z" fill="#161616" stroke="black" stroke-width="0.08" stroke-miterlimit="10"/>
<path d="M67.4461 26.569C64.3841 25.087 64.3841 23.169 67.6381 21.11C70.8921 19.051 76.8321 18.955 79.6091 19.721C82.3861 20.487 86.6961 23.221 86.1691 25.898C85.9398 26.5404 85.5517 27.1143 85.041 27.5665C84.5303 28.0186 83.9136 28.3342 83.2481 28.484L67.4461 26.569Z" fill="url(#paint6_linear_6177_31486)" stroke="black" stroke-width="0.08" stroke-miterlimit="10"/>
<path d="M67.7201 27.586L67.3601 25.97C71.7801 23.348 79.9301 23.276 83.5931 27.73C83.388 28.2409 83.0819 28.7052 82.6931 29.095C76.4111 24.424 67.7201 27.586 67.7201 27.586Z" fill="#03468B" stroke="black" stroke-width="0.08" stroke-miterlimit="10"/>
<path d="M74.2211 25.431L75.8731 25.647L75.7991 26.078L72.8541 25.827L75.0091 23.887L73.5361 23.813L73.5721 23.344L76.2651 23.665L74.2211 25.431ZM78.5481 24.048C78.8951 24.1973 79.171 24.4749 79.3182 24.8228C79.4654 25.1707 79.4725 25.562 79.3381 25.915C79.0511 26.562 78.0091 26.615 77.5601 26.472C77.1111 26.329 76.0691 25.646 76.5541 24.572C76.6465 24.4026 76.7726 24.2538 76.9246 24.1349C77.0766 24.0161 77.2513 23.9296 77.438 23.8807C77.6247 23.8319 77.8194 23.8219 78.0102 23.8511C78.2009 23.8804 78.3837 23.9484 78.5471 24.051L78.5481 24.048ZM77.0811 24.86C76.7811 25.521 77.4231 25.94 77.6981 26.028C77.9731 26.116 78.6121 26.083 78.7891 25.687C78.8727 25.4699 78.869 25.2289 78.7787 25.0145C78.6885 24.8001 78.5188 24.629 78.3051 24.537C78.2049 24.4741 78.0928 24.4325 77.9758 24.4146C77.8588 24.3966 77.7394 24.4029 77.625 24.4328C77.5105 24.4628 77.4033 24.5159 77.3102 24.5889C77.217 24.6618 77.1397 24.7531 77.0831 24.857L77.0811 24.86ZM81.2751 24.86C81.6188 25.0364 81.8984 25.3162 82.0746 25.6599C82.2508 26.0037 82.3146 26.394 82.2571 26.776C82.1858 27.0647 82.0049 27.3144 81.7527 27.4721C81.5006 27.6298 81.197 27.6832 80.9061 27.621C80.509 27.4997 80.1706 27.236 79.9558 26.8806C79.741 26.5252 79.6649 26.103 79.7421 25.695C79.7547 25.5221 79.8105 25.3552 79.9042 25.2094C79.998 25.0636 80.1268 24.9436 80.2789 24.8605C80.431 24.7773 80.6015 24.7336 80.7748 24.7334C80.9482 24.7331 81.1188 24.7763 81.2711 24.859L81.2751 24.86ZM80.2241 25.937C80.1766 26.1876 80.2235 26.447 80.3557 26.6652C80.4878 26.8834 80.696 27.045 80.9401 27.119C81.1187 27.1585 81.3057 27.1265 81.461 27.0299C81.6163 26.9332 81.7276 26.7797 81.7711 26.602C81.8061 26.3679 81.7671 26.1287 81.6595 25.9179C81.5519 25.707 81.3812 25.5351 81.1711 25.426C81.0776 25.3751 80.9729 25.3484 80.8664 25.3484C80.7599 25.3484 80.6552 25.375 80.5617 25.426C80.4682 25.4769 80.3889 25.5504 80.3312 25.6399C80.2734 25.7293 80.239 25.8318 80.2311 25.938L80.2241 25.937Z" fill="white"/>
<path d="M81.18 29.5851L81.495 31.2611L81.05 32.4821L81.133 33.8231V34.5141L81.5331 33.9391L81.697 31.9281L82.449 30.5631L82.514 29.7731L81.18 29.5851Z" fill="black"/>
<path d="M80.5661 31.5941C80.3261 31.4501 79.7281 30.8781 79.4411 30.8781C79.1541 30.8781 78.3631 31.1181 78.0041 31.1411C77.4614 31.2494 76.9371 31.435 76.447 31.6921M73.981 31.7401C73.6029 31.6825 73.2334 31.578 72.8811 31.4291C72.5967 31.3818 72.3079 31.3663 72.0201 31.3831L71.4691 31.0241L70.7271 31.7181" stroke="black" stroke-width="0.16" stroke-miterlimit="10"/>
<path d="M74.412 32.4331C74.6951 32.6601 74.883 32.9846 74.939 33.3431C74.916 33.6301 74.508 36.3841 74.555 36.4561C74.8911 36.5824 75.2532 36.6236 75.609 36.5761M76.255 36.2891C76.3506 36.2542 76.4546 36.2493 76.553 36.275C76.6515 36.3007 76.7398 36.3559 76.806 36.4331M73.889 32.8641C73.482 32.0001 71.829 32.0001 71.207 32.8881M76.977 32.9361C77.168 31.8831 79.587 31.6671 80.113 32.7211" stroke="black" stroke-width="0.08" stroke-miterlimit="10"/>
<path d="M72.5931 33.4411C73.0029 33.4411 73.3351 33.1783 73.3351 32.8541C73.3351 32.5299 73.0029 32.2671 72.5931 32.2671C72.1833 32.2671 71.8511 32.5299 71.8511 32.8541C71.8511 33.1783 72.1833 33.4411 72.5931 33.4411Z" fill="black"/>
<path d="M78.4471 33.224C78.8767 33.224 79.2251 32.9509 79.2251 32.614C79.2251 32.2771 78.8767 32.004 78.4471 32.004C78.0174 32.004 77.6691 32.2771 77.6691 32.614C77.6691 32.9509 78.0174 33.224 78.4471 33.224Z" fill="black"/>
<path d="M72.9521 38.109C74.1021 39.569 77.5252 39.522 78.3102 37.869C78.0472 37.943 77.6301 38.096 77.6301 38.096C77.0459 38.1082 76.4647 38.1847 75.8971 38.324C75.7296 38.3289 75.5626 38.3449 75.3971 38.372C74.8594 38.2803 74.3114 38.2642 73.7691 38.324C73.5531 38.468 72.9551 38.108 72.9551 38.108L72.9521 38.109Z" fill="#D8D8D8" stroke="black" stroke-width="0.08" stroke-miterlimit="10"/>
<path d="M77.5041 39.257C77.0211 39.6736 76.4136 39.9183 75.7767 39.9529C75.1398 39.9874 74.5094 39.8099 73.9841 39.448" stroke="black" stroke-width="0.08" stroke-miterlimit="10"/>
<path d="M77.6811 32.5181L78.5671 32.6261L77.8131 32.9611C77.7202 32.8326 77.6737 32.6764 77.6811 32.5181ZM71.9341 32.8061L72.8201 32.9141L72.0661 33.2491C71.9733 33.1202 71.9271 32.9636 71.9351 32.8051L71.9341 32.8061Z" fill="#FCFCFC"/>
<path d="M82.8371 30.9981C82.5693 31.3593 82.3454 31.751 82.1701 32.1651C82.2094 32.5561 82.2699 32.9446 82.3511 33.3291M82.6381 32.7901C82.6021 32.5901 82.4761 32.0541 82.2791 31.9461M67.9371 30.9801C68.1171 31.2321 69.0371 31.9861 69.0681 32.2891C69.0991 32.5921 68.8681 33.0611 68.9451 33.3301C69.017 33.5618 69.1011 33.7894 69.1971 34.0121M68.6041 33.0601C68.5501 32.7731 68.6221 32.1461 68.8911 32.0721" stroke="black" stroke-width="0.08" stroke-miterlimit="10"/>
</g>
<defs>
<linearGradient id="paint0_linear_6177_31486" x1="31.8191" y1="99.689" x2="50.642" y2="99.689" gradientUnits="userSpaceOnUse">
<stop stop-color="#442B1F"/>
<stop offset="1" stop-color="#442B1F"/>
</linearGradient>
<linearGradient id="paint1_linear_6177_31486" x1="38.6661" y1="69.2095" x2="41.7461" y2="69.2095" gradientUnits="userSpaceOnUse">
<stop stop-color="#C8B091"/>
<stop offset="0.199" stop-color="#C5A788"/>
<stop offset="0.529" stop-color="#BC8E6E"/>
<stop offset="0.948" stop-color="#AD6745"/>
<stop offset="0.994" stop-color="#AB6240"/>
</linearGradient>
<linearGradient id="paint2_linear_6177_31486" x1="38.9021" y1="95.708" x2="41.5601" y2="95.708" gradientUnits="userSpaceOnUse">
<stop stop-color="#88786F"/>
<stop offset="0.105" stop-color="#806F66"/>
<stop offset="0.281" stop-color="#6B574C"/>
<stop offset="0.503" stop-color="#493023"/>
<stop offset="0.622" stop-color="#34180A"/>
<stop offset="1" stop-color="#3E2316"/>
</linearGradient>
<linearGradient id="paint3_linear_6177_31486" x1="74.7601" y1="51.3081" x2="76.5921" y2="51.3081" gradientUnits="userSpaceOnUse">
<stop stop-color="#F8FB9B"/>
<stop offset="0.126" stop-color="#F5F892"/>
<stop offset="0.334" stop-color="#EFEF78"/>
<stop offset="0.601" stop-color="#E3E14F"/>
<stop offset="0.911" stop-color="#D4CE16"/>
<stop offset="1" stop-color="#CFC804"/>
</linearGradient>
<linearGradient id="paint4_linear_6177_31486" x1="74.4731" y1="56.479" x2="76.3051" y2="56.479" gradientUnits="userSpaceOnUse">
<stop stop-color="#F8FB9B"/>
<stop offset="0.126" stop-color="#F5F892"/>
<stop offset="0.334" stop-color="#EFEF78"/>
<stop offset="0.601" stop-color="#E3E14F"/>
<stop offset="0.911" stop-color="#D4CE16"/>
<stop offset="1" stop-color="#CFC804"/>
</linearGradient>
<linearGradient id="paint5_linear_6177_31486" x1="74.186" y1="61.65" x2="76.018" y2="61.65" gradientUnits="userSpaceOnUse">
<stop stop-color="#F8FB9B"/>
<stop offset="0.126" stop-color="#F5F892"/>
<stop offset="0.334" stop-color="#EFEF78"/>
<stop offset="0.601" stop-color="#E3E14F"/>
<stop offset="0.911" stop-color="#D4CE16"/>
<stop offset="1" stop-color="#CFC804"/>
</linearGradient>
<linearGradient id="paint6_linear_6177_31486" x1="75.6932" y1="28.484" x2="75.6932" y2="19.2803" gradientUnits="userSpaceOnUse">
<stop offset="0.372" stop-color="#1D2739"/>
<stop offset="0.994" stop-color="#1D2739"/>
</linearGradient>
<clipPath id="clip0_6177_31486">
<rect width="128" height="128" fill="white"/>
</clipPath>
</defs>
</svg>
