<svg xmlns="http://www.w3.org/2000/svg" xmlns:xlink="http://www.w3.org/1999/xlink" width="128" height="128" viewBox="0 0 128 128"><defs><linearGradient id="a" y1="0.5" x2="1" y2="0.5" gradientUnits="objectBoundingBox"><stop offset="0" stop-color="#442b1f"/><stop offset="1" stop-color="#442b1f"/></linearGradient><linearGradient id="b" y1="0.5" x2="1" y2="0.5" gradientUnits="objectBoundingBox"><stop offset="0" stop-color="#c8b091"/><stop offset="0.199" stop-color="#c5a788"/><stop offset="0.529" stop-color="#bc8e6e"/><stop offset="0.948" stop-color="#ad6745"/><stop offset="0.994" stop-color="#ab6240"/></linearGradient><linearGradient id="c" y1="0.5" x2="1" y2="0.5" gradientUnits="objectBoundingBox"><stop offset="0" stop-color="#88786f"/><stop offset="0.105" stop-color="#806f66"/><stop offset="0.281" stop-color="#6b574c"/><stop offset="0.503" stop-color="#493023"/><stop offset="0.622" stop-color="#34180a"/><stop offset="1" stop-color="#3e2316"/></linearGradient><linearGradient id="d" y1="0.5" x2="1" y2="0.5" gradientUnits="objectBoundingBox"><stop offset="0" stop-color="#f8fb9b"/><stop offset="0.126" stop-color="#f5f892"/><stop offset="0.334" stop-color="#efef78"/><stop offset="0.601" stop-color="#e3e14f"/><stop offset="0.911" stop-color="#d4ce16"/><stop offset="1" stop-color="#cfc804"/></linearGradient><linearGradient id="e" x1="0" y1="0.5" x2="1" y2="0.5" xlink:href="#d"/><linearGradient id="g" x1="0.5" y1="1" x2="0.5" gradientUnits="objectBoundingBox"><stop offset="0.372" stop-color="#1d2739"/><stop offset="0.994" stop-color="#1d2739"/></linearGradient></defs><g transform="translate(-2153 -122)"><rect width="128" height="128" transform="translate(2153 122)" fill="none"/><g transform="translate(2168.303 136.204)"><g transform="translate(18.03 25.557)"><ellipse cx="2.706" cy="1.269" rx="2.706" ry="1.269" transform="translate(44.288 54.326)" fill="#331e09" stroke="#000" stroke-width="0.08"/><g transform="translate(26.738 50.568)"><path d="M34.807,51.074s1.077,4.6,1.221,5.962,2.873,2.011,3.16.431,1.293-5.459,1.293-5.459ZM51.974,52.08a19.529,19.529,0,0,1,1.436,5.387c0,1.939,3.447,2.227,3.735.933s.718-6.393.718-6.393Z" transform="translate(-34.807 -51.074)" fill="#f9c89a" stroke="#000" stroke-miterlimit="10" stroke-width="0.08"/><path d="M38.622,53.724a5.647,5.647,0,0,1-2.825.192c-.622-.239.048,2.25.24,3.017s2.2.622,2.2.622Z" transform="translate(-34.408 -49.631)" fill="#a15813" stroke="#000" stroke-miterlimit="10" stroke-width="0.08"/></g><g transform="translate(26.343 53.764)"><ellipse cx="1.203" cy="2.873" rx="1.203" ry="2.873" fill="#4f2e0e" stroke="#000" stroke-width="0.08"/><ellipse cx="1.239" cy="2.819" rx="1.239" ry="2.819" transform="translate(3.735 0.36)" fill="#4f2e0e" stroke="#000" stroke-width="0.08"/></g><g transform="translate(21.924 54.393)"><path d="M32.332,63.046,32.3,59.67c-.036-1.867,1.94-4.238,5.962-4.13s5.89,2.334,5.89,4.49a15.42,15.42,0,0,1-.4,4.31c-.215.431-10.52.575-10.915.18a3.138,3.138,0,0,1-.5-1.473Z" transform="translate(-31.36 -52.469)" fill="#9e5613" stroke="#000" stroke-miterlimit="10" stroke-width="0.08"/><path d="M32.661,63.307a1.559,1.559,0,0,1-.97-1.58,1.351,1.351,0,0,1,.97-1.329,2.477,2.477,0,0,0,1.544.716c.575.105,7.937.18,8.8.108a1.391,1.391,0,0,0,1.221-.789,1.548,1.548,0,0,1,.9,1.472,1.335,1.335,0,0,1-.864,1.4,28.045,28.045,0,0,1-6.07.682,39.5,39.5,0,0,1-5.531-.683Z" transform="translate(-31.69 -49.822)" fill="#4f2e0e" stroke="#000" stroke-miterlimit="10" stroke-width="0.08"/><path d="M52.453,54.748a5.6,5.6,0,0,1-4.42.287c-1.616-.216-2.05-.216-2.011.575s.252,2.945-.5,3.843-1.545,3.235-.4,4.31,17.777.97,18.424.79,1.042-1.329,1.042-1.329a35.946,35.946,0,0,0,.143-3.735c-.072-1.29-1.867-3.663-4.92-3.555S55.5,58.2,54.138,58.483a5.112,5.112,0,0,1-1.58-2.586c0-.252-.107-1.149-.107-1.149Z" transform="translate(-24.69 -52.899)" fill="#9e5613" stroke="#000" stroke-miterlimit="10" stroke-width="0.08"/><path d="M48.242,59.332a1.693,1.693,0,0,0,1.94-1.6c.087-1.113-.18-1.724-.97-1.778a5.5,5.5,0,0,1-2.226-.521.806.806,0,0,1-.321-1.1,2.877,2.877,0,0,1,.538-.449l-.123-.341a2.6,2.6,0,0,0-1.616,2.586c.162,1.9,1.113,3.2,2.783,3.2ZM50.2,55.956a.947.947,0,0,1,.628,1.167c-.089.485-.287,1.886.736,1.832s1.293-2.05,1.2-2.963a3.55,3.55,0,0,0-.952-2.011l-.054.272a.626.626,0,0,1,.21.5c.006.36-.605,1.041-1.772,1.2Z" transform="translate(-24.195 -53.551)" fill="#4f2e0e" stroke="#000" stroke-miterlimit="10" stroke-width="0.08"/><path d="M51.035,57.166c-.551,1.2-1.077,5.029-.6,6.081" transform="translate(-21.583 -51.582)" fill="none" stroke="#000" stroke-miterlimit="10" stroke-width="0.08"/><path d="M45.189,60.774a1.557,1.557,0,0,0-.754,1.293c.072.79.682.97,1.58,1.185s9.41.469,10.954.538a41.193,41.193,0,0,0,7.722-.682,1.534,1.534,0,0,0-.036-2.873,3.105,3.105,0,0,1-2.335,1.042c-1.113.144-6.321.18-8.476.108l-7.9-.18a.941.941,0,0,1-.754-.431Z" transform="translate(-24.752 -49.911)" fill="#4f2e0e" stroke="#000" stroke-miterlimit="10" stroke-width="0.08"/></g><g transform="translate(37.535 0)"><path d="M42.816,18.515c-.252.287-1.437,1.655-.864,2.8s3.843,6.177,3.843,6.177,7.219-3.663,7-5.387a10.3,10.3,0,0,0-1.688-3.771ZM60.572,44.6a1.1,1.1,0,0,0-.647-1.844,2.656,2.656,0,0,0-2.179.647c-.239.264.5,1.676.957,1.724a7.246,7.246,0,0,0,1.868-.527Z" transform="translate(-41.797 -18.336)" fill="#f9c89a" stroke="#000" stroke-miterlimit="10" stroke-width="0.08"/><path d="M55.746,36.827a.987.987,0,0,0-.383-1.628,2.517,2.517,0,0,0-2.826.575c-.359.55.6,1.772.79,1.772s2.418-.716,2.418-.716Z" transform="translate(-35.992 -9.268)" fill="#f9c89a" stroke="#000" stroke-miterlimit="10" stroke-width="0.08"/><path d="M55.3,32.426l-1.329,2.335A6.509,6.509,0,0,1,55,36.951c.287,1.221-.192,1.655.215,1.58s2.778-.718,3.235-.431a2.019,2.019,0,0,1,.647,2.251A6.029,6.029,0,0,1,55.673,43.2a4.821,4.821,0,0,1-4.643-1.461,20.771,20.771,0,0,1-2.083-5.267,9.687,9.687,0,0,1,.79-2.514l3.256-1.46Z" transform="translate(-37.904 -10.662)" fill="#f9c89a" stroke="#000" stroke-miterlimit="10" stroke-width="0.08"/><path d="M51.967,33.821a3.516,3.516,0,0,1,1.8,2.347,4.082,4.082,0,0,1-1.077,3.544" transform="translate(-36.259 -9.903)" fill="#f9c89a" stroke="#000" stroke-miterlimit="10" stroke-width="0.08"/><path d="M55.679,38.332a1.967,1.967,0,0,1-1.916.622,1.334,1.334,0,0,1-.6-2.322,3.7,3.7,0,0,1,2.371-.694,2.109,2.109,0,0,1,1.029.431" transform="translate(-35.856 -8.763)" fill="#f9c89a" stroke="#000" stroke-miterlimit="10" stroke-width="0.08"/><path d="M53.689,36.6l.646,1.2a.894.894,0,0,1-.886.12.623.623,0,0,1-.359-.886C53.21,36.716,53.689,36.6,53.689,36.6Z" transform="translate(-35.683 -8.391)" fill="#f9c89a" stroke="#000" stroke-miterlimit="10" stroke-width="0.08"/></g><g transform="translate(17.26 0)"><path d="M62.043,20.408s2.658,1.4,3.087,3.125c1.293.431,2.813,2.328,2.667,3.717,1.389.575,2.005,1.38,2.005,2.289a3.721,3.721,0,0,1,.524,4.88c-1.389,2.49-2.2,4.212-2.2,4.212l-5.555-.48-.479-1.679,2.586-4.789s-1.149-1.867-2.49-1.916c-.335,1.437-.67,3.5-.67,3.5l.143,7.9-.718.431-.144,1.772,1.772,3.687.622.575-1.628,2.538.384.716,2.2,5.411-.048.67,1.293,1.676-.048.718.716,1.772L64.67,64.29l-.864,1.724.814,2.49a9.2,9.2,0,0,1-5.986,2.011,11.493,11.493,0,0,1-6.273-1.963l-.718-.431a40.527,40.527,0,0,0,.622-7.326c-.192-2.634-.767-6.608-.767-7.518s-.24-3.5-.24-3.5l-.384,8.284c-.048,2.777-.431,6.56-.91,7.326A2.661,2.661,0,0,1,48.961,66.4l.526.91.144,1.1-.575.716L48,68.837A6.836,6.836,0,0,1,42.209,70.8c-3.735-.431-6.033-2.3-6.273-3.831-.864-.622-.958-1.053-.958-1.053l2.445-2.825-1.389-.814,1.149-2.06s.814-2.011.958-2.682.575-2.3.575-2.3l-1.2.048,1.963-3.062-.143-2.107L42.93,42.5l-.144-1.245-.482-.67-.392-2.658.252-1.437a6.8,6.8,0,0,0,1.383-2.753,4.608,4.608,0,0,0-.6-2.49l-8.391,5.507-1.2.1-3.451,1.532-.816-.335a3.444,3.444,0,0,1-.384-1.245,18.471,18.471,0,0,1,.287-4.693,1.205,1.205,0,0,1,.957-.479,5.853,5.853,0,0,0,1.963-.766c.862-.575,6.177-4.5,7.47-5.507s5.794-4.884,5.794-4.884a11.84,11.84,0,0,1,2.394-1.482,4.043,4.043,0,0,1,1.436-.24l.048,4.118,3.879,4.4,4.214-2.526L60.5,21.628Z" transform="translate(-28.671 -18.109)" fill="#6d9758" stroke="#000" stroke-miterlimit="10" stroke-width="0.08"/><path d="M43.115,18.619l-.575.359-2.478,4.13,2.692.252-.97,1.867,5.1,2.693.431-.5-3.7-4.561c-.864-1.077-1.111-3.484-.144-4.13s-.359-.108-.359-.108" transform="translate(-22.467 -18.296)" fill="#6d9758" stroke="#000" stroke-miterlimit="10" stroke-width="0.08"/><path d="M43.885,28.518l7.7-1.284-.907-3.284,3.3.42.287-3.807-3.412-2.19-.321-.036a4.649,4.649,0,0,1,.864,2.406c.038,1.329-1.185,2.334-2.19,3.2L43.89,28.517Zm5.351,2.639,5.1-1.688.539,2.729L50.1,35.252Zm-5.506-2.55.192,11.157-.863,3.16-.049,3.062L42.866,49l.67,1.006,1.82-.431m3.352-7.086-2.825-.24.191,1.341,2.826.527Z" transform="translate(-20.94 -18.336)" fill="#6d9758" stroke="#000" stroke-miterlimit="10" stroke-width="0.08"/><path d="M60.791,37.949l-2.49.622.335,1.676,2.011-.526m-12.69-1.676,2.155.191.1,1.724-2.538-.24Zm-5.316-.431,3.113.1-.144,1.772-2.825-.431m1.2-13.6-1.2,2.155L48,31.676l1.58-3.879ZM68.021,36.189a4.726,4.726,0,0,1,.469-2.155c-1.149-.5-3.915-1.616-5.423-1.437-.716.864-2,3.376-1.556,4.92a61.455,61.455,0,0,1,6.512-1.329ZM31.712,27.031l1.655,2.406,1.042,2.694a4.307,4.307,0,0,1-1.365,1.221c-.718.323-3.28,1.389-3.28,1.389l-.814-.335s.754-.479.864-3.21-.574-3.089-.574-3.089l1.616-.611ZM56.1,52.35a27,27,0,0,0,2.55,5.962c.754-.5,6-.864,7.267-.826" transform="translate(-28.519 -14.461)" fill="#6d9758" stroke="#000" stroke-miterlimit="10" stroke-width="0.08"/></g><g transform="translate(24.631 33.795)"><path d="M33.443,50.595c.958.251,5.016.826,5.016.826a6.976,6.976,0,0,0,3.376.036c.61-1.365,2.445-7.686,2.445-7.686s-1.76-2.05-3.34-2.37a40.462,40.462,0,0,1-4.058-1.185" transform="translate(-33.443 -40.215)" fill="none" stroke="#000" stroke-miterlimit="10" stroke-width="0.08"/><path d="M35.179,42.388c.864-.108,5.136,0,7.578,1.76" transform="translate(-32.497 -39.048)" fill="#6d9758" stroke="#000" stroke-miterlimit="10" stroke-width="0.08"/><path d="M34.342,47.462l.683,2.382" transform="translate(-32.953 -36.269)" fill="none" stroke="#000" stroke-miterlimit="10" stroke-width="0.08"/><path d="M33.481,49.958a11.364,11.364,0,0,0,11.565.9" transform="translate(-33.422 -34.91)" fill="#6d9758" stroke="#000" stroke-miterlimit="10" stroke-width="0.08"/><path d="M44.131,51.2c1.975.79,6.859,1.005,9.41-.431" transform="translate(-27.622 -34.466)" fill="none" stroke="#000" stroke-miterlimit="10" stroke-width="0.08"/></g><g transform="translate(43.905 32.682)"><path d="M49.572,51.149c2.55.826,6.249.97,6.68.074s-3.819-1.868-3.819-1.868" transform="translate(-43.933 -34.125)" fill="#6d9758" stroke="#000" stroke-miterlimit="10" stroke-width="0.08"/><path d="M49.62,54.9c3.124.469,6.644-.144,6.644-1.221s-4.813-.933-4.813-.933m.97-13.253c1.042,1.259,1.832,2.445,2.73,2.73-2.155.359-7.326,1.437-8.117,2.334a3.3,3.3,0,0,0-1.113-1.58c.933-1.259,6.5-3.484,6.5-3.484Z" transform="translate(-45.921 -39.495)" fill="#6d9758" stroke="#000" stroke-miterlimit="10" stroke-width="0.08"/></g><path d="M35.686,30.057c-1.293-.144-3.951-.682-4.92-3.2a4.065,4.065,0,0,0-2.083-1.8,3.178,3.178,0,0,0-2.694-.754,7.674,7.674,0,0,1-4.382-.826,2.3,2.3,0,0,0-2.945.359,1.613,1.613,0,0,0-.036,1.939l.716.754s-1.688.251-1.832,1.508a2.01,2.01,0,0,0,1.329,2.119,3.637,3.637,0,0,0,1.077.287,1.669,1.669,0,0,0-.18,1.688,3.181,3.181,0,0,0,1.616,1.185,2.359,2.359,0,0,0,1.113.864c.575.11,4.058.287,4.058.287a11.743,11.743,0,0,1,2.263-.61,10.615,10.615,0,0,1,3.412.18,18.27,18.27,0,0,0,3.484.359A12.038,12.038,0,0,0,36,32.034a12.645,12.645,0,0,0-.323-1.976Z" transform="translate(-17.496 -15.729)" fill="#f9c89a" stroke="#000" stroke-miterlimit="10" stroke-width="0.08"/></g><path d="M31.025,52.85c-1.963.191-12.4-.144-14.509-1.389.144,7.183,2.155,13.552,3.447,14.94s5.315,2.586,9.482,2.586,6.72-1.251,5.65-2.921c-3.161-4.932-4.07-13.217-4.07-13.217Z" transform="translate(0 25.261)" fill="url(#a)"/><path d="M24.029,80.636V16.707H20.949l.077,54.95a27.091,27.091,0,0,0,.388,5.89,6.07,6.07,0,0,0,1.772,2.873,2.217,2.217,0,0,0,.843.216Z" transform="translate(2.414 6.334)" stroke="#000" stroke-miterlimit="10" stroke-width="0.16" fill="url(#b)"/><path d="M23.738,53.08H21.1s0,3.922.335,4.5l2.323.062Z" transform="translate(2.499 26.143)" fill="url(#c)"/><g transform="translate(18.823 32.839)"><path d="M20.622,26.21a5.936,5.936,0,0,0-.742,1.8c.048.431,1.533.12,1.628-.431s-.886-1.365-.886-1.365Zm.766,6.371c.647.036,1.832.108,2.263-.467s1.472-1.113,1.472-1.76a1.661,1.661,0,0,0-.826-1.508c-.646-.5-3.807.716-3.987,1.041a2.894,2.894,0,0,0-.323,1.473,2.216,2.216,0,0,0,.646.933,2.183,2.183,0,0,0,.754.287Z" transform="translate(-16.992 -21.329)" fill="#f9c89a" stroke="#000" stroke-miterlimit="10" stroke-width="0.08"/><path d="M22.088,28.877l.864.61s.864-.682.072-1.185-1.006.251-1.006.251Z" transform="translate(-15.826 -20.284)" fill="#f9c89a" stroke="#000" stroke-miterlimit="10" stroke-width="0.08"/><path d="M20.586,33.2a1.548,1.548,0,0,0,1.485.12,4.474,4.474,0,0,0,2.706-2.107c.36-.862-1.655-2.272-2.49-2.083a6.354,6.354,0,0,0-2.646,1.365,1.882,1.882,0,0,0-.2,1.772,5.5,5.5,0,0,0,1.149.934Zm3.9-6.68c-.263-.383-.526-1.149-.864-1.365s-1.436-1.077-1.772-1.293-1.365-1.006-2.251-.766-1.7.742-1.58,1.939.886,1.317,1.293,1.724a9.117,9.117,0,0,0,1.317,1.173,6.219,6.219,0,0,0,2.011.716,1.859,1.859,0,0,0,1.676-.838,2.619,2.619,0,0,0,.167-1.293Z" transform="translate(-18.01 -23.05)" fill="#f9c89a" stroke="#000" stroke-miterlimit="10" stroke-width="0.08"/><path d="M21.72,24.829,20.5,26.841s1.333.494,1.82-.24C22.989,25.6,21.72,24.829,21.72,24.829Z" transform="translate(-16.654 -22.081)" fill="#f9c89a" stroke="#000" stroke-miterlimit="10" stroke-width="0.08"/><path d="M24.967,24.125a10.982,10.982,0,0,0-4.31,4.13c-.539,1.329-.359,2.478.716,2.909s2.658-.538,3.089-1.329a25.1,25.1,0,0,0,1.113-3.34m-4.211,2.05,2.418,1.221a1.584,1.584,0,0,1-1.1.766c-.742.1-1.58-.5-1.6-1.006a1.9,1.9,0,0,1,.287-.982Zm3.687-.216a4.864,4.864,0,0,0,2.272,1.748m-.213,3.256a2.946,2.946,0,0,0,1.149-.647" transform="translate(-16.728 -22.464)" fill="#f9c89a" stroke="#000" stroke-miterlimit="10" stroke-width="0.08"/></g><g transform="translate(59.457 36.188)"><circle cx="0.916" cy="0.916" r="0.916" stroke="#000" stroke-width="0.08" fill="url(#d)"/><circle cx="0.718" cy="0.718" r="0.718" transform="translate(0.191 0.192)" fill="none" stroke="#000" stroke-width="0.016"/></g><g transform="translate(59.17 41.359)"><circle cx="0.916" cy="0.916" r="0.916" stroke="#000" stroke-width="0.08" fill="url(#e)"/><circle cx="0.718" cy="0.718" r="0.718" transform="translate(0.191 0.191)" fill="none" stroke="#000" stroke-width="0.016"/></g><g transform="translate(51.947 11.533)"><circle cx="0.916" cy="0.916" r="0.916" transform="translate(6.936 34.997)" stroke="#000" stroke-width="0.08" fill="url(#d)"/><circle cx="0.718" cy="0.718" r="0.718" transform="translate(7.127 35.189)" fill="none" stroke="#000" stroke-width="0.016"/><path d="M40.632,14.086l-.79-.216s-.431.1-.383.312.359.479.335.864a2.966,2.966,0,0,0,.216,1.6,5,5,0,0,0,1.341,1.389c.359.191.455-.1.455-.1s.335,3.447.431,3.807a4.855,4.855,0,0,0,1.413,1.94c.814.694,2.2,2.272,2.849,2.753s2.777.886,3.687-.048,2.873-3.089,3.089-3.4.838-1.053.814-1.341-.12-3.352-.12-3.472c.143.048.454-.12.622-.263s1.221-1.293,1.2-1.8a13.167,13.167,0,0,1-.215-1.987c.12-.1.287-.479.074-.575s-1.485.838-1.485.838-.257-3.274-1.436-4.118S42,8.845,41.425,9.611s-.791,4.478-.791,4.478Z" transform="translate(-39.454 -9.257)" fill="#f9c89a" stroke="#000" stroke-miterlimit="10" stroke-width="0.08"/></g><path d="M41.946,16.721l.113,1.173-.28-.61-.415-1.646-1.248-1.817L39.97,11.19v-.5l3.459-1.125-1,1.506-.764,2.37-.039,1.1.32.577Z" transform="translate(12.773 2.443)"/><path d="M53.939,12.373c2.478,1.616-.754,1.149-3.412.251s-7.973-2.445-9.194-2.478,8.081-.754,9.517-.287a9.143,9.143,0,0,1,3.089,2.514Z" transform="translate(13.455 2.519)" fill="#161616" stroke="#000" stroke-miterlimit="10" stroke-width="0.08"/><g transform="translate(49.869 5.076)"><path d="M40.383,12.365c-3.062-1.482-3.062-3.4.192-5.459s9.194-2.155,11.971-1.389,7.087,3.5,6.56,6.177a4.045,4.045,0,0,1-2.921,2.586Z" transform="translate(-38.109 -5.076)" stroke="#000" stroke-miterlimit="10" stroke-width="0.08" fill="url(#g)"/><path d="M39.886,11.662l-.36-1.616c4.42-2.622,12.57-2.694,16.233,1.76a4.091,4.091,0,0,1-.9,1.365C48.577,8.5,39.886,11.662,39.886,11.662Z" transform="translate(-37.338 -3.356)" fill="#03468b" stroke="#000" stroke-miterlimit="10" stroke-width="0.08"/></g><path d="M44.45,9.794l1.652.216-.074.431-2.945-.251,2.155-1.94-1.473-.074.036-.469,2.693.321Zm4.327-1.383a1.465,1.465,0,0,1,.79,1.867c-.287.647-1.329.7-1.778.557s-1.491-.826-1.006-1.9a1.414,1.414,0,0,1,1.993-.521Zm-1.467.812c-.3.661.342,1.08.617,1.168s.914.055,1.091-.341A.9.9,0,0,0,48.534,8.9a.867.867,0,0,0-1.222.32Zm4.194,0a1.845,1.845,0,0,1,.982,1.916,1.145,1.145,0,0,1-1.351.845,1.686,1.686,0,0,1-1.164-1.926A1.037,1.037,0,0,1,51.5,9.222ZM50.453,10.3a1.034,1.034,0,0,0,.716,1.182A.7.7,0,0,0,52,10.965a1.136,1.136,0,0,0-.6-1.176.637.637,0,0,0-.94.512Z" transform="translate(14.468 1.433)" fill="#fff"/><path d="M48.519,11.748l.315,1.676-.445,1.221.083,1.341v.691l.4-.575.164-2.011.752-1.365.065-.79Z" transform="translate(17.358 3.633)"/><g transform="translate(55.42 16.676)"><path d="M51.546,13.3c-.24-.144-.838-.716-1.125-.716s-1.078.24-1.437.263a5.792,5.792,0,0,0-1.557.551m-2.466.048a4.605,4.605,0,0,1-1.1-.311A3.879,3.879,0,0,0,43,13.089l-.551-.359-.742.694" transform="translate(-41.703 -12.586)" fill="none" stroke="#000" stroke-miterlimit="10" stroke-width="0.16"/><path d="M45.223,13.734a1.454,1.454,0,0,1,.527.91c-.023.287-.431,3.041-.384,3.113a2.178,2.178,0,0,0,1.054.12m.646-.287a.5.5,0,0,1,.551.144M44.7,14.165c-.407-.864-2.06-.864-2.682.024m5.77.048c.191-1.053,2.61-1.269,3.136-.215" transform="translate(-41.534 -12.181)" fill="none" stroke="#000" stroke-miterlimit="10" stroke-width="0.08"/></g><ellipse cx="0.742" cy="0.587" rx="0.742" ry="0.587" transform="translate(56.548 18.063)"/><ellipse cx="0.778" cy="0.61" rx="0.778" ry="0.61" transform="translate(62.366 17.8)"/><g transform="translate(57.649 23.665)"><path d="M43.146,17.351c1.15,1.46,4.573,1.413,5.358-.24-.263.074-.68.227-.68.227a7.963,7.963,0,0,0-1.733.228,3.769,3.769,0,0,0-.5.048,5.862,5.862,0,0,0-1.628-.048c-.216.144-.814-.216-.814-.216Z" transform="translate(-43.146 -17.111)" fill="#d8d8d8" stroke="#000" stroke-miterlimit="10" stroke-width="0.08"/><path d="M47.334,18.01a2.884,2.884,0,0,1-3.52.191" transform="translate(-42.782 -16.622)" fill="none" stroke="#000" stroke-miterlimit="10" stroke-width="0.08"/></g><path d="M48.234,13.647l.886.108-.754.335A.7.7,0,0,1,48.234,13.647Zm-5.747.288.886.108-.754.335A.7.7,0,0,1,42.488,13.934Z" transform="translate(14.144 4.667)" fill="#fcfcfc"/><path d="M54.8,12.669a5.665,5.665,0,0,0-.667,1.167A10.9,10.9,0,0,0,54.314,15m.287-.539c-.036-.2-.162-.736-.359-.844M39.9,12.651c.18.252,1.1,1.006,1.131,1.309s-.2.772-.123,1.041a6.828,6.828,0,0,0,.252.682m-.593-.952c-.054-.287.018-.914.287-.988" transform="translate(12.734 4.125)" fill="none" stroke="#000" stroke-miterlimit="10" stroke-width="0.08"/></g></g></svg>